# MagicaVoxel @ Ephtracy

# group
o 

# material
mtllib angel_charger.mtl
usemtl palette

# normals
vn -1 0 0
vn 1 0 0
vn 0 0 1
vn 0 0 -1
vn 0 -1 0
vn 0 1 0

# texcoords
vt 0.517578 0.5
vt 0.556641 0.5
vt 0.958984 0.5
vt 0.970703 0.5
vt 0.974609 0.5
vt 0.978516 0.5
vt 0.982422 0.5

# verts
v -1 0.4 0.6
v -1 0.4 0
v -1 0.5 0.7
v -1 0.5 0.6
v -1 0.5 0
v -1 0.5 -0.1
v -1 0.6 -0.1
v -1 0.6 -0.2
v -1 0.7 -0.2
v -1 0.7 -0.3
v -1 0.9 0.7
v -1 0.9 0.6
v -1 1 0.6
v -1 1 -0.3
v -0.9 0.2 0.8
v -0.9 0.2 -0.8
v -0.9 0.4 1
v -0.9 0.4 0.8
v -0.9 0.4 0.6
v -0.9 0.4 0
v -0.9 0.4 -0.8
v -0.9 0.4 -1
v -0.9 0.5 0.7
v -0.9 0.5 0.6
v -0.9 0.5 0
v -0.9 0.5 -0.1
v -0.9 0.6 -0.1
v -0.9 0.6 -0.2
v -0.9 0.7 -0.2
v -0.9 0.7 -0.3
v -0.9 0.9 0.7
v -0.9 0.9 0.6
v -0.9 1 0.6
v -0.9 1 -0.3
v -0.9 1 -0.7
v -0.9 1 -1
v -0.9 1.8 1
v -0.9 1.8 0.8
v -0.9 1.8 -0.5
v -0.9 1.8 -0.7
v -0.9 2 0.8
v -0.9 2 -0.5
v -0.8 1.9 1
v -0.8 1.9 0.9
v -0.8 2.1 1
v -0.8 2.1 0.9
v -0.7 0.2 1
v -0.7 0.2 0.8
v -0.7 0.2 -0.8
v -0.7 0.2 -1
v -0.7 0.4 1
v -0.7 0.4 0.8
v -0.7 0.4 -0.8
v -0.7 0.4 -1
v -0.7 1 -0.7
v -0.7 1 -1
v -0.7 1.2 -0.7
v -0.7 1.2 -1
v -0.7 1.8 1
v -0.7 1.8 0.9
v -0.7 1.8 0.8
v -0.7 1.8 -0.5
v -0.7 1.8 -0.7
v -0.7 1.9 1
v -0.7 1.9 0.9
v -0.7 2 0.9
v -0.7 2 0.8
v -0.7 2 -0.5
v -0.7 2 -0.7
v -0.6 0 0.4
v -0.6 0 0
v -0.6 0.2 0.4
v -0.6 0.2 0
v -0.2 2 0.9
v -0.2 2 0.8
v -0.2 2.1 0.9
v -0.2 2.1 0.8
v -0.1 2 1
v -0.1 2 0.9
v -0.1 2.1 1
v -0.1 2.1 0.9
v -0.1 2.1 0.8
v -0.1 2.3 0.9
v -0.1 2.3 0.8
v 0.2 0 0.4
v 0.2 0 0
v 0.2 0.2 0.4
v 0.2 0.2 0
v 0.6 2 1
v 0.6 2 0.9
v 0.6 2.1 1
v 0.6 2.1 0.9
v -0.6 2 1
v -0.6 2 0.9
v -0.6 2.1 1
v -0.6 2.1 0.9
v -0.2 0 0.4
v -0.2 0 0
v -0.2 0.2 0.4
v -0.2 0.2 0
v 0.1 2 1
v 0.1 2 0.9
v 0.1 2.1 1
v 0.1 2.1 0.9
v 0.1 2.1 0.8
v 0.1 2.3 0.9
v 0.1 2.3 0.8
v 0.2 2 0.9
v 0.2 2 0.8
v 0.2 2.1 0.9
v 0.2 2.1 0.8
v 0.6 0 0.4
v 0.6 0 0
v 0.6 0.2 0.4
v 0.6 0.2 0
v 0.7 0.2 1
v 0.7 0.2 0.8
v 0.7 0.2 -0.8
v 0.7 0.2 -1
v 0.7 0.4 1
v 0.7 0.4 0.8
v 0.7 0.4 -0.8
v 0.7 0.4 -1
v 0.7 1 -0.7
v 0.7 1 -1
v 0.7 1.2 -0.7
v 0.7 1.2 -1
v 0.7 1.8 1
v 0.7 1.8 0.9
v 0.7 1.8 0.8
v 0.7 1.8 -0.5
v 0.7 1.8 -0.7
v 0.7 1.9 1
v 0.7 1.9 0.9
v 0.7 2 0.9
v 0.7 2 0.8
v 0.7 2 -0.5
v 0.7 2 -0.7
v 0.8 1.9 1
v 0.8 1.9 0.9
v 0.8 2.1 1
v 0.8 2.1 0.9
v 0.9 0.2 0.8
v 0.9 0.2 -0.8
v 0.9 0.4 1
v 0.9 0.4 0.8
v 0.9 0.4 0.6
v 0.9 0.4 0
v 0.9 0.4 -0.8
v 0.9 0.4 -1
v 0.9 0.5 0.7
v 0.9 0.5 0.6
v 0.9 0.5 0
v 0.9 0.5 -0.1
v 0.9 0.6 -0.1
v 0.9 0.6 -0.2
v 0.9 0.7 -0.2
v 0.9 0.7 -0.3
v 0.9 0.9 0.7
v 0.9 0.9 0.6
v 0.9 1 0.6
v 0.9 1 -0.3
v 0.9 1 -0.7
v 0.9 1 -1
v 0.9 1.8 1
v 0.9 1.8 0.8
v 0.9 1.8 -0.5
v 0.9 1.8 -0.7
v 0.9 2 0.8
v 0.9 2 -0.5
v 1 0.4 0.6
v 1 0.4 0
v 1 0.5 0.7
v 1 0.5 0.6
v 1 0.5 0
v 1 0.5 -0.1
v 1 0.6 -0.1
v 1 0.6 -0.2
v 1 0.7 -0.2
v 1 0.7 -0.3
v 1 0.9 0.7
v 1 0.9 0.6
v 1 1 0.6
v 1 1 -0.3
v -0.9 0.4 1
v -0.9 1.8 1
v -0.8 1.9 1
v -0.8 2.1 1
v -0.7 0.2 1
v -0.7 0.4 1
v -0.7 1.8 1
v -0.7 1.9 1
v -0.6 1.7 1
v -0.6 1.8 1
v -0.6 2 1
v -0.6 2.1 1
v -0.5 1 1
v -0.5 1.4 1
v -0.5 1.6 1
v -0.5 1.7 1
v -0.5 1.9 1
v -0.5 2 1
v -0.4 1.8 1
v -0.4 1.9 1
v -0.2 0.7 1
v -0.2 0.8 1
v -0.2 1 1
v -0.2 1.4 1
v -0.2 1.6 1
v -0.2 1.7 1
v -0.2 1.8 1
v -0.2 2 1
v -0.1 1.6 1
v -0.1 1.7 1
v -0.1 2 1
v -0.1 2.1 1
v 0.1 1.6 1
v 0.1 1.7 1
v 0.1 2 1
v 0.1 2.1 1
v 0.2 0.7 1
v 0.2 0.8 1
v 0.2 1 1
v 0.2 1.4 1
v 0.2 1.6 1
v 0.2 1.7 1
v 0.2 1.8 1
v 0.2 2 1
v 0.4 1.8 1
v 0.4 1.9 1
v 0.5 1 1
v 0.5 1.4 1
v 0.5 1.6 1
v 0.5 1.7 1
v 0.5 1.9 1
v 0.5 2 1
v 0.6 1.7 1
v 0.6 1.8 1
v 0.6 2 1
v 0.6 2.1 1
v 0.7 0.2 1
v 0.7 0.4 1
v 0.7 1.8 1
v 0.7 1.9 1
v 0.8 1.9 1
v 0.8 2.1 1
v 0.9 0.4 1
v 0.9 1.8 1
v -0.2 2 0.9
v -0.2 2.1 0.9
v -0.1 2 0.9
v -0.1 2.1 0.9
v -0.1 2.3 0.9
v 0.1 2 0.9
v 0.1 2.1 0.9
v 0.1 2.3 0.9
v 0.2 2 0.9
v 0.2 2.1 0.9
v -0.9 0.2 0.8
v -0.9 0.4 0.8
v -0.9 1.8 0.8
v -0.9 2 0.8
v -0.7 0.2 0.8
v -0.7 0.4 0.8
v -0.7 1.8 0.8
v -0.7 2 0.8
v 0.7 0.2 0.8
v 0.7 0.4 0.8
v 0.7 1.8 0.8
v 0.7 2 0.8
v 0.9 0.2 0.8
v 0.9 0.4 0.8
v 0.9 1.8 0.8
v 0.9 2 0.8
v -1 0.5 0.7
v -1 0.9 0.7
v -0.9 0.5 0.7
v -0.9 0.9 0.7
v 0.9 0.5 0.7
v 0.9 0.9 0.7
v 1 0.5 0.7
v 1 0.9 0.7
v -1 0.4 0.6
v -1 0.5 0.6
v -1 0.9 0.6
v -1 1 0.6
v -0.9 0.4 0.6
v -0.9 0.5 0.6
v -0.9 0.9 0.6
v -0.9 1 0.6
v 0.9 0.4 0.6
v 0.9 0.5 0.6
v 0.9 0.9 0.6
v 0.9 1 0.6
v 1 0.4 0.6
v 1 0.5 0.6
v 1 0.9 0.6
v 1 1 0.6
v -0.6 0 0.4
v -0.6 0.2 0.4
v -0.2 0 0.4
v -0.2 0.2 0.4
v 0.2 0 0.4
v 0.2 0.2 0.4
v 0.6 0 0.4
v 0.6 0.2 0.4
v -0.8 1.9 0.9
v -0.8 2.1 0.9
v -0.7 1.9 0.9
v -0.7 2 0.9
v -0.6 2 0.9
v -0.6 2.1 0.9
v 0.6 2 0.9
v 0.6 2.1 0.9
v 0.7 1.9 0.9
v 0.7 2 0.9
v 0.8 1.9 0.9
v 0.8 2.1 0.9
v -0.2 2 0.8
v -0.2 2.1 0.8
v -0.1 2.1 0.8
v -0.1 2.3 0.8
v 0.1 2.1 0.8
v 0.1 2.3 0.8
v 0.2 2 0.8
v 0.2 2.1 0.8
v -1 0.4 0
v -1 0.5 0
v -0.9 0.4 0
v -0.9 0.5 0
v -0.6 0 0
v -0.6 0.2 0
v -0.2 0 0
v -0.2 0.2 0
v 0.2 0 0
v 0.2 0.2 0
v 0.6 0 0
v 0.6 0.2 0
v 0.9 0.4 0
v 0.9 0.5 0
v 1 0.4 0
v 1 0.5 0
v -1 0.5 -0.1
v -1 0.6 -0.1
v -0.9 0.5 -0.1
v -0.9 0.6 -0.1
v 0.9 0.5 -0.1
v 0.9 0.6 -0.1
v 1 0.5 -0.1
v 1 0.6 -0.1
v -1 0.6 -0.2
v -1 0.7 -0.2
v -0.9 0.6 -0.2
v -0.9 0.7 -0.2
v 0.9 0.6 -0.2
v 0.9 0.7 -0.2
v 1 0.6 -0.2
v 1 0.7 -0.2
v -1 0.7 -0.3
v -1 1 -0.3
v -0.9 0.7 -0.3
v -0.9 1 -0.3
v 0.9 0.7 -0.3
v 0.9 1 -0.3
v 1 0.7 -0.3
v 1 1 -0.3
v -0.9 1.8 -0.5
v -0.9 2 -0.5
v -0.7 1.8 -0.5
v -0.7 2 -0.5
v 0.7 1.8 -0.5
v 0.7 2 -0.5
v 0.9 1.8 -0.5
v 0.9 2 -0.5
v -0.9 1 -0.7
v -0.9 1.8 -0.7
v -0.7 1 -0.7
v -0.7 1.2 -0.7
v -0.7 1.8 -0.7
v -0.7 2 -0.7
v 0.7 1 -0.7
v 0.7 1.2 -0.7
v 0.7 1.8 -0.7
v 0.7 2 -0.7
v 0.9 1 -0.7
v 0.9 1.8 -0.7
v -0.9 0.2 -0.8
v -0.9 0.4 -0.8
v -0.7 0.2 -0.8
v -0.7 0.4 -0.8
v 0.7 0.2 -0.8
v 0.7 0.4 -0.8
v 0.9 0.2 -0.8
v 0.9 0.4 -0.8
v -0.9 0.4 -1
v -0.9 1 -1
v -0.7 0.2 -1
v -0.7 0.4 -1
v -0.7 1 -1
v -0.7 1.2 -1
v 0.7 0.2 -1
v 0.7 0.4 -1
v 0.7 1 -1
v 0.7 1.2 -1
v 0.9 0.4 -1
v 0.9 1 -1
v -0.6 0 0.4
v -0.2 0 0.4
v 0.2 0 0.4
v 0.6 0 0.4
v -0.6 0 0
v -0.2 0 0
v 0.2 0 0
v 0.6 0 0
v -0.7 0.2 1
v 0.7 0.2 1
v -0.9 0.2 0.8
v -0.7 0.2 0.8
v 0.7 0.2 0.8
v 0.9 0.2 0.8
v -0.6 0.2 0.4
v -0.2 0.2 0.4
v 0.2 0.2 0.4
v 0.6 0.2 0.4
v -0.6 0.2 0
v -0.2 0.2 0
v 0.2 0.2 0
v 0.6 0.2 0
v -0.9 0.2 -0.8
v -0.7 0.2 -0.8
v 0.7 0.2 -0.8
v 0.9 0.2 -0.8
v -0.7 0.2 -1
v 0.7 0.2 -1
v -0.9 0.4 1
v -0.7 0.4 1
v 0.7 0.4 1
v 0.9 0.4 1
v -0.9 0.4 0.8
v -0.7 0.4 0.8
v 0.7 0.4 0.8
v 0.9 0.4 0.8
v -1 0.4 0.6
v -0.9 0.4 0.6
v 0.9 0.4 0.6
v 1 0.4 0.6
v -1 0.4 0
v -0.9 0.4 0
v 0.9 0.4 0
v 1 0.4 0
v -0.9 0.4 -0.8
v -0.7 0.4 -0.8
v 0.7 0.4 -0.8
v 0.9 0.4 -0.8
v -0.9 0.4 -1
v -0.7 0.4 -1
v 0.7 0.4 -1
v 0.9 0.4 -1
v -1 0.5 0.7
v -0.9 0.5 0.7
v 0.9 0.5 0.7
v 1 0.5 0.7
v -1 0.5 0.6
v -0.9 0.5 0.6
v 0.9 0.5 0.6
v 1 0.5 0.6
v -1 0.5 0
v -0.9 0.5 0
v 0.9 0.5 0
v 1 0.5 0
v -1 0.5 -0.1
v -0.9 0.5 -0.1
v 0.9 0.5 -0.1
v 1 0.5 -0.1
v -1 0.6 -0.1
v -0.9 0.6 -0.1
v 0.9 0.6 -0.1
v 1 0.6 -0.1
v -1 0.6 -0.2
v -0.9 0.6 -0.2
v 0.9 0.6 -0.2
v 1 0.6 -0.2
v -1 0.7 -0.2
v -0.9 0.7 -0.2
v 0.9 0.7 -0.2
v 1 0.7 -0.2
v -1 0.7 -0.3
v -0.9 0.7 -0.3
v 0.9 0.7 -0.3
v 1 0.7 -0.3
v -0.8 1.9 1
v -0.7 1.9 1
v 0.7 1.9 1
v 0.8 1.9 1
v -0.8 1.9 0.9
v -0.7 1.9 0.9
v 0.7 1.9 0.9
v 0.8 1.9 0.9
v -1 0.9 0.7
v -0.9 0.9 0.7
v 0.9 0.9 0.7
v 1 0.9 0.7
v -1 0.9 0.6
v -0.9 0.9 0.6
v 0.9 0.9 0.6
v 1 0.9 0.6
v -1 1 0.6
v -0.9 1 0.6
v 0.9 1 0.6
v 1 1 0.6
v -1 1 -0.3
v -0.9 1 -0.3
v 0.9 1 -0.3
v 1 1 -0.3
v -0.9 1 -0.7
v -0.7 1 -0.7
v 0.7 1 -0.7
v 0.9 1 -0.7
v -0.9 1 -1
v -0.7 1 -1
v 0.7 1 -1
v 0.9 1 -1
v -0.7 1.2 -0.7
v 0.7 1.2 -0.7
v -0.7 1.2 -1
v 0.7 1.2 -1
v -0.9 1.8 1
v -0.7 1.8 1
v 0.7 1.8 1
v 0.9 1.8 1
v -0.7 1.8 0.9
v 0.7 1.8 0.9
v -0.9 1.8 0.8
v -0.7 1.8 0.8
v 0.7 1.8 0.8
v 0.9 1.8 0.8
v -0.9 1.8 -0.5
v -0.7 1.8 -0.5
v 0.7 1.8 -0.5
v 0.9 1.8 -0.5
v -0.9 1.8 -0.7
v -0.7 1.8 -0.7
v 0.7 1.8 -0.7
v 0.9 1.8 -0.7
v -0.6 2 1
v -0.5 2 1
v -0.2 2 1
v -0.1 2 1
v 0.1 2 1
v 0.2 2 1
v 0.5 2 1
v 0.6 2 1
v -0.7 2 0.9
v -0.6 2 0.9
v -0.5 2 0.9
v -0.2 2 0.9
v -0.1 2 0.9
v 0.1 2 0.9
v 0.2 2 0.9
v 0.5 2 0.9
v 0.6 2 0.9
v 0.7 2 0.9
v -0.9 2 0.8
v -0.7 2 0.8
v -0.2 2 0.8
v 0.2 2 0.8
v 0.7 2 0.8
v 0.9 2 0.8
v -0.9 2 -0.5
v -0.7 2 -0.5
v 0.7 2 -0.5
v 0.9 2 -0.5
v -0.7 2 -0.7
v 0.7 2 -0.7
v -0.8 2.1 1
v -0.6 2.1 1
v -0.1 2.1 1
v 0.1 2.1 1
v 0.6 2.1 1
v 0.8 2.1 1
v -0.8 2.1 0.9
v -0.6 2.1 0.9
v -0.2 2.1 0.9
v -0.1 2.1 0.9
v 0.1 2.1 0.9
v 0.2 2.1 0.9
v 0.6 2.1 0.9
v 0.8 2.1 0.9
v -0.2 2.1 0.8
v -0.1 2.1 0.8
v 0.1 2.1 0.8
v 0.2 2.1 0.8
v -0.1 2.3 0.9
v 0.1 2.3 0.9
v -0.1 2.3 0.8
v 0.1 2.3 0.8

# faces
f 4/4/1 2/4/1 1/4/1
f 5/4/1 2/4/1 4/4/1
f 7/4/1 4/4/1 3/4/1
f 7/4/1 6/4/1 5/4/1
f 7/4/1 5/4/1 4/4/1
f 9/4/1 8/4/1 7/4/1
f 11/4/1 7/4/1 3/4/1
f 11/4/1 10/4/1 9/4/1
f 11/4/1 9/4/1 7/4/1
f 12/4/1 10/4/1 11/4/1
f 13/4/1 10/4/1 12/4/1
f 14/4/1 10/4/1 13/4/1
f 18/5/1 16/5/1 15/5/1
f 19/5/1 16/5/1 18/5/1
f 20/5/1 16/5/1 19/5/1
f 21/5/1 16/5/1 20/5/1
f 23/5/1 18/5/1 17/5/1
f 23/5/1 19/5/1 18/5/1
f 24/5/1 19/5/1 23/5/1
f 25/5/1 22/5/1 21/5/1
f 25/5/1 21/5/1 20/5/1
f 26/5/1 22/5/1 25/5/1
f 27/5/1 22/5/1 26/5/1
f 28/5/1 22/5/1 27/5/1
f 29/5/1 22/5/1 28/5/1
f 30/5/1 22/5/1 29/5/1
f 31/5/1 23/5/1 17/5/1
f 33/5/1 32/5/1 31/5/1
f 34/5/1 22/5/1 30/5/1
f 35/5/1 22/5/1 34/5/1
f 36/5/1 22/5/1 35/5/1
f 37/5/1 33/5/1 31/5/1
f 37/5/1 31/5/1 17/5/1
f 37/5/1 35/5/1 34/5/1
f 37/5/1 34/5/1 33/5/1
f 38/5/1 35/5/1 37/5/1
f 39/5/1 35/5/1 38/5/1
f 40/5/1 35/5/1 39/5/1
f 41/5/1 39/5/1 38/5/1
f 42/5/1 39/5/1 41/5/1
f 45/4/1 44/4/1 43/4/1
f 46/4/1 44/4/1 45/4/1
f 51/5/1 48/5/1 47/5/1
f 52/5/1 48/5/1 51/5/1
f 53/5/1 50/5/1 49/5/1
f 54/5/1 50/5/1 53/5/1
f 57/5/1 56/5/1 55/5/1
f 58/5/1 56/5/1 57/5/1
f 64/4/1 60/4/1 59/4/1
f 65/5/1 61/5/1 60/5/1
f 65/4/1 60/4/1 64/4/1
f 66/5/1 61/5/1 65/5/1
f 67/5/1 61/5/1 66/5/1
f 68/5/1 63/5/1 62/5/1
f 69/5/1 63/5/1 68/5/1
f 72/4/1 71/4/1 70/4/1
f 73/4/1 71/4/1 72/4/1
f 76/7/1 75/7/1 74/7/1
f 77/7/1 75/7/1 76/7/1
f 80/7/1 79/7/1 78/7/1
f 81/7/1 79/7/1 80/7/1
f 83/7/1 82/7/1 81/7/1
f 84/7/1 82/7/1 83/7/1
f 87/4/1 86/4/1 85/4/1
f 88/4/1 86/4/1 87/4/1
f 91/4/1 90/4/1 89/4/1
f 92/4/1 90/4/1 91/4/1
f 93/4/2 94/4/2 95/4/2
f 95/4/2 94/4/2 96/4/2
f 97/4/2 98/4/2 99/4/2
f 99/4/2 98/4/2 100/4/2
f 101/7/2 102/7/2 103/7/2
f 103/7/2 102/7/2 104/7/2
f 104/7/2 105/7/2 106/7/2
f 106/7/2 105/7/2 107/7/2
f 108/7/2 109/7/2 110/7/2
f 110/7/2 109/7/2 111/7/2
f 112/4/2 113/4/2 114/4/2
f 114/4/2 113/4/2 115/4/2
f 116/5/2 117/5/2 120/5/2
f 120/5/2 117/5/2 121/5/2
f 118/5/2 119/5/2 122/5/2
f 122/5/2 119/5/2 123/5/2
f 124/5/2 125/5/2 126/5/2
f 126/5/2 125/5/2 127/5/2
f 128/4/2 129/4/2 133/4/2
f 129/5/2 130/5/2 134/5/2
f 133/4/2 129/4/2 134/4/2
f 134/5/2 130/5/2 135/5/2
f 135/5/2 130/5/2 136/5/2
f 131/5/2 132/5/2 137/5/2
f 137/5/2 132/5/2 138/5/2
f 139/4/2 140/4/2 141/4/2
f 141/4/2 140/4/2 142/4/2
f 143/5/2 144/5/2 146/5/2
f 146/5/2 144/5/2 147/5/2
f 147/5/2 144/5/2 148/5/2
f 148/5/2 144/5/2 149/5/2
f 145/5/2 146/5/2 151/5/2
f 146/5/2 147/5/2 151/5/2
f 151/5/2 147/5/2 152/5/2
f 149/5/2 150/5/2 153/5/2
f 148/5/2 149/5/2 153/5/2
f 153/5/2 150/5/2 154/5/2
f 154/5/2 150/5/2 155/5/2
f 155/5/2 150/5/2 156/5/2
f 156/5/2 150/5/2 157/5/2
f 157/5/2 150/5/2 158/5/2
f 145/5/2 151/5/2 159/5/2
f 159/5/2 160/5/2 161/5/2
f 158/5/2 150/5/2 162/5/2
f 162/5/2 150/5/2 163/5/2
f 163/5/2 150/5/2 164/5/2
f 159/5/2 161/5/2 165/5/2
f 145/5/2 159/5/2 165/5/2
f 162/5/2 163/5/2 165/5/2
f 161/5/2 162/5/2 165/5/2
f 165/5/2 163/5/2 166/5/2
f 166/5/2 163/5/2 167/5/2
f 167/5/2 163/5/2 168/5/2
f 166/5/2 167/5/2 169/5/2
f 169/5/2 167/5/2 170/5/2
f 171/4/2 172/4/2 174/4/2
f 174/4/2 172/4/2 175/4/2
f 173/4/2 174/4/2 177/4/2
f 175/4/2 176/4/2 177/4/2
f 174/4/2 175/4/2 177/4/2
f 177/4/2 178/4/2 179/4/2
f 173/4/2 177/4/2 181/4/2
f 179/4/2 180/4/2 181/4/2
f 177/4/2 179/4/2 181/4/2
f 181/4/2 180/4/2 182/4/2
f 182/4/2 180/4/2 183/4/2
f 183/4/2 180/4/2 184/4/2
f 190/5/3 186/5/3 185/5/3
f 191/5/3 186/5/3 190/5/3
f 192/4/3 188/4/3 187/4/3
f 193/5/3 191/5/3 190/5/3
f 193/5/3 190/5/3 189/5/3
f 194/4/3 192/4/3 191/4/3
f 194/5/3 191/5/3 193/5/3
f 195/4/3 188/4/3 192/4/3
f 195/4/3 192/4/3 194/4/3
f 196/4/3 188/4/3 195/4/3
f 197/5/3 193/5/3 189/5/3
f 198/5/3 193/5/3 197/5/3
f 199/5/3 193/5/3 198/5/3
f 200/4/3 194/4/3 193/4/3
f 200/5/3 193/5/3 199/5/3
f 200/4/3 195/4/3 194/4/3
f 201/4/3 195/4/3 200/4/3
f 202/4/3 195/4/3 201/4/3
f 203/4/3 200/4/3 199/4/3
f 203/4/3 201/4/3 200/4/3
f 204/5/3 202/5/3 201/5/3
f 204/4/3 201/4/3 203/4/3
f 205/5/3 197/5/3 189/5/3
f 206/5/3 197/5/3 205/5/3
f 207/6/3 198/6/3 197/6/3
f 207/5/3 197/5/3 206/5/3
f 208/5/3 199/5/3 198/5/3
f 208/6/3 198/6/3 207/6/3
f 209/4/3 203/4/3 199/4/3
f 209/5/3 199/5/3 208/5/3
f 210/4/3 203/4/3 209/4/3
f 211/5/3 204/5/3 203/5/3
f 211/4/3 203/4/3 210/4/3
f 212/5/3 202/5/3 204/5/3
f 212/5/3 204/5/3 211/5/3
f 213/5/3 207/5/3 206/5/3
f 213/5/3 208/5/3 207/5/3
f 213/5/3 210/5/3 209/5/3
f 213/5/3 209/5/3 208/5/3
f 214/7/3 211/7/3 210/7/3
f 214/5/3 210/5/3 213/5/3
f 214/7/3 212/7/3 211/7/3
f 215/7/3 212/7/3 214/7/3
f 217/7/3 215/7/3 214/7/3
f 217/7/3 216/7/3 215/7/3
f 217/5/3 213/5/3 206/5/3
f 217/7/3 214/7/3 213/7/3
f 218/7/3 216/7/3 217/7/3
f 219/7/3 216/7/3 218/7/3
f 220/7/3 216/7/3 219/7/3
f 221/5/3 205/5/3 189/5/3
f 221/6/3 206/6/3 205/6/3
f 222/5/3 217/5/3 206/5/3
f 222/6/3 206/6/3 221/6/3
f 222/5/3 218/5/3 217/5/3
f 223/5/3 218/5/3 222/5/3
f 224/5/3 218/5/3 223/5/3
f 225/5/3 218/5/3 224/5/3
f 226/7/3 219/7/3 218/7/3
f 226/5/3 218/5/3 225/5/3
f 227/7/3 219/7/3 226/7/3
f 228/7/3 219/7/3 227/7/3
f 229/4/3 226/4/3 225/4/3
f 229/4/3 227/4/3 226/4/3
f 229/5/3 228/5/3 227/5/3
f 230/5/3 228/5/3 229/5/3
f 231/5/3 222/5/3 221/5/3
f 231/5/3 223/5/3 222/5/3
f 231/6/3 224/6/3 223/6/3
f 232/5/3 225/5/3 224/5/3
f 232/6/3 224/6/3 231/6/3
f 233/4/3 230/4/3 229/4/3
f 233/5/3 225/5/3 232/5/3
f 233/4/3 229/4/3 225/4/3
f 234/4/3 230/4/3 233/4/3
f 235/5/3 228/5/3 230/5/3
f 235/4/3 230/4/3 234/4/3
f 236/5/3 228/5/3 235/5/3
f 237/5/3 234/5/3 233/5/3
f 237/5/3 232/5/3 231/5/3
f 237/4/3 236/4/3 235/4/3
f 237/4/3 235/4/3 234/4/3
f 237/5/3 233/5/3 232/5/3
f 238/4/3 236/4/3 237/4/3
f 239/4/3 236/4/3 238/4/3
f 241/5/3 231/5/3 221/5/3
f 241/5/3 221/5/3 189/5/3
f 241/5/3 237/5/3 231/5/3
f 241/5/3 238/5/3 237/5/3
f 242/5/3 238/5/3 241/5/3
f 243/4/3 240/4/3 239/4/3
f 243/5/3 238/5/3 242/5/3
f 243/4/3 239/4/3 238/4/3
f 244/4/3 240/4/3 243/4/3
f 245/4/3 240/4/3 244/4/3
f 246/4/3 240/4/3 245/4/3
f 247/5/3 243/5/3 242/5/3
f 248/5/3 243/5/3 247/5/3
f 251/7/3 250/7/3 249/7/3
f 252/7/3 250/7/3 251/7/3
f 255/7/3 253/7/3 252/7/3
f 256/7/3 253/7/3 255/7/3
f 257/7/3 255/7/3 254/7/3
f 258/7/3 255/7/3 257/7/3
f 263/5/3 260/5/3 259/5/3
f 264/5/3 260/5/3 263/5/3
f 265/5/3 262/5/3 261/5/3
f 266/5/3 262/5/3 265/5/3
f 271/5/3 268/5/3 267/5/3
f 272/5/3 268/5/3 271/5/3
f 273/5/3 270/5/3 269/5/3
f 274/5/3 270/5/3 273/5/3
f 277/4/3 276/4/3 275/4/3
f 278/4/3 276/4/3 277/4/3
f 281/4/3 280/4/3 279/4/3
f 282/4/3 280/4/3 281/4/3
f 287/4/3 284/4/3 283/4/3
f 288/4/3 284/4/3 287/4/3
f 289/4/3 286/4/3 285/4/3
f 290/4/3 286/4/3 289/4/3
f 295/4/3 292/4/3 291/4/3
f 296/4/3 292/4/3 295/4/3
f 297/4/3 294/4/3 293/4/3
f 298/4/3 294/4/3 297/4/3
f 301/4/3 300/4/3 299/4/3
f 302/4/3 300/4/3 301/4/3
f 305/4/3 304/4/3 303/4/3
f 306/4/3 304/4/3 305/4/3
f 307/4/4 308/4/4 309/4/4
f 309/4/4 308/4/4 310/4/4
f 310/4/4 308/4/4 311/4/4
f 311/4/4 308/4/4 312/4/4
f 313/4/4 314/4/4 316/4/4
f 315/4/4 316/4/4 317/4/4
f 316/4/4 314/4/4 318/4/4
f 317/4/4 316/4/4 318/4/4
f 319/7/4 320/7/4 321/7/4
f 319/7/4 321/7/4 323/7/4
f 321/7/4 322/7/4 323/7/4
f 323/7/4 322/7/4 324/7/4
f 319/7/4 323/7/4 325/7/4
f 325/7/4 323/7/4 326/7/4
f 327/4/4 328/4/4 329/4/4
f 329/4/4 328/4/4 330/4/4
f 331/4/4 332/4/4 333/4/4
f 333/4/4 332/4/4 334/4/4
f 335/4/4 336/4/4 337/4/4
f 337/4/4 336/4/4 338/4/4
f 339/4/4 340/4/4 341/4/4
f 341/4/4 340/4/4 342/4/4
f 343/4/4 344/4/4 345/4/4
f 345/4/4 344/4/4 346/4/4
f 347/4/4 348/4/4 349/4/4
f 349/4/4 348/4/4 350/4/4
f 351/4/4 352/4/4 353/4/4
f 353/4/4 352/4/4 354/4/4
f 355/4/4 356/4/4 357/4/4
f 357/4/4 356/4/4 358/4/4
f 359/4/4 360/4/4 361/4/4
f 361/4/4 360/4/4 362/4/4
f 363/4/4 364/4/4 365/4/4
f 365/4/4 364/4/4 366/4/4
f 367/5/4 368/5/4 369/5/4
f 369/5/4 368/5/4 370/5/4
f 371/5/4 372/5/4 373/5/4
f 373/5/4 372/5/4 374/5/4
f 375/5/4 376/5/4 377/5/4
f 377/5/4 376/5/4 378/5/4
f 378/5/4 376/5/4 379/5/4
f 379/5/4 380/5/4 382/5/4
f 378/5/4 379/5/4 382/5/4
f 382/5/4 380/5/4 383/5/4
f 383/5/4 380/5/4 384/5/4
f 381/5/4 382/5/4 385/5/4
f 382/5/4 383/5/4 385/5/4
f 385/5/4 383/5/4 386/5/4
f 387/5/4 388/5/4 389/5/4
f 389/5/4 388/5/4 390/5/4
f 391/5/4 392/5/4 393/5/4
f 393/5/4 392/5/4 394/5/4
f 395/5/4 396/5/4 398/5/4
f 398/5/4 396/5/4 399/5/4
f 397/5/4 398/5/4 401/5/4
f 399/5/4 400/5/4 401/5/4
f 398/5/4 399/5/4 401/5/4
f 401/5/4 400/5/4 402/5/4
f 402/5/4 400/5/4 403/5/4
f 403/5/4 400/5/4 404/5/4
f 402/5/4 403/5/4 405/5/4
f 405/5/4 403/5/4 406/5/4
f 411/4/5 408/4/5 407/4/5
f 412/4/5 408/4/5 411/4/5
f 413/4/5 410/4/5 409/4/5
f 414/4/5 410/4/5 413/4/5
f 418/5/5 416/5/5 415/5/5
f 419/5/5 416/5/5 418/5/5
f 421/5/5 418/5/5 417/5/5
f 421/5/5 420/5/5 419/5/5
f 421/5/5 419/5/5 418/5/5
f 422/5/5 420/5/5 421/5/5
f 423/5/5 420/5/5 422/5/5
f 424/5/5 420/5/5 423/5/5
f 425/5/5 421/5/5 417/5/5
f 426/5/5 423/5/5 422/5/5
f 427/5/5 423/5/5 426/5/5
f 428/5/5 420/5/5 424/5/5
f 429/5/5 427/5/5 426/5/5
f 429/5/5 428/5/5 427/5/5
f 429/5/5 425/5/5 417/5/5
f 429/5/5 426/5/5 425/5/5
f 430/5/5 428/5/5 429/5/5
f 431/5/5 420/5/5 428/5/5
f 431/5/5 428/5/5 430/5/5
f 432/5/5 420/5/5 431/5/5
f 433/5/5 431/5/5 430/5/5
f 434/5/5 431/5/5 433/5/5
f 439/5/5 436/5/5 435/5/5
f 440/5/5 436/5/5 439/5/5
f 441/5/5 438/5/5 437/5/5
f 442/5/5 438/5/5 441/5/5
f 447/4/5 444/4/5 443/4/5
f 448/4/5 444/4/5 447/4/5
f 449/4/5 446/4/5 445/4/5
f 450/4/5 446/4/5 449/4/5
f 455/5/5 452/5/5 451/5/5
f 456/5/5 452/5/5 455/5/5
f 457/5/5 454/5/5 453/5/5
f 458/5/5 454/5/5 457/5/5
f 463/4/5 460/4/5 459/4/5
f 464/4/5 460/4/5 463/4/5
f 465/4/5 462/4/5 461/4/5
f 466/4/5 462/4/5 465/4/5
f 471/4/5 468/4/5 467/4/5
f 472/4/5 468/4/5 471/4/5
f 473/4/5 470/4/5 469/4/5
f 474/4/5 470/4/5 473/4/5
f 479/4/5 476/4/5 475/4/5
f 480/4/5 476/4/5 479/4/5
f 481/4/5 478/4/5 477/4/5
f 482/4/5 478/4/5 481/4/5
f 487/4/5 484/4/5 483/4/5
f 488/4/5 484/4/5 487/4/5
f 489/4/5 486/4/5 485/4/5
f 490/4/5 486/4/5 489/4/5
f 495/4/5 492/4/5 491/4/5
f 496/4/5 492/4/5 495/4/5
f 497/4/5 494/4/5 493/4/5
f 498/4/5 494/4/5 497/4/5
f 499/4/6 500/4/6 503/4/6
f 503/4/6 500/4/6 504/4/6
f 501/4/6 502/4/6 505/4/6
f 505/4/6 502/4/6 506/4/6
f 507/4/6 508/4/6 511/4/6
f 511/4/6 508/4/6 512/4/6
f 509/4/6 510/4/6 513/4/6
f 513/4/6 510/4/6 514/4/6
f 515/5/6 516/5/6 519/5/6
f 519/5/6 516/5/6 520/5/6
f 517/5/6 518/5/6 521/5/6
f 521/5/6 518/5/6 522/5/6
f 523/5/6 524/5/6 525/5/6
f 525/5/6 524/5/6 526/5/6
f 527/5/6 528/5/6 531/5/6
f 529/5/6 530/5/6 532/5/6
f 527/5/6 531/5/6 533/5/6
f 533/5/6 531/5/6 534/5/6
f 532/5/6 530/5/6 535/5/6
f 535/5/6 530/5/6 536/5/6
f 537/5/6 538/5/6 541/5/6
f 541/5/6 538/5/6 542/5/6
f 539/5/6 540/5/6 543/5/6
f 543/5/6 540/5/6 544/5/6
f 545/4/6 546/4/6 554/4/6
f 546/5/6 547/5/6 555/5/6
f 554/4/6 546/4/6 555/4/6
f 547/7/6 548/7/6 556/7/6
f 555/5/6 547/5/6 556/5/6
f 556/7/6 548/7/6 557/7/6
f 549/7/6 550/7/6 558/7/6
f 550/5/6 551/5/6 559/5/6
f 558/7/6 550/7/6 559/7/6
f 551/4/6 552/4/6 560/4/6
f 559/5/6 551/5/6 560/5/6
f 560/4/6 552/4/6 561/4/6
f 553/5/6 554/5/6 564/5/6
f 554/5/6 555/5/6 564/5/6
f 555/5/6 556/5/6 564/5/6
f 564/5/6 556/5/6 565/5/6
f 561/5/6 562/5/6 566/5/6
f 559/5/6 560/5/6 566/5/6
f 560/5/6 561/5/6 566/5/6
f 566/5/6 562/5/6 567/5/6
f 564/5/6 565/5/6 569/5/6
f 567/5/6 568/5/6 569/5/6
f 566/5/6 567/5/6 569/5/6
f 565/5/6 566/5/6 569/5/6
f 563/5/6 564/5/6 569/5/6
f 569/5/6 568/5/6 570/5/6
f 570/5/6 568/5/6 571/5/6
f 571/5/6 568/5/6 572/5/6
f 570/5/6 571/5/6 573/5/6
f 573/5/6 571/5/6 574/5/6
f 575/4/6 576/4/6 581/4/6
f 581/4/6 576/4/6 582/4/6
f 577/7/6 578/7/6 584/7/6
f 584/7/6 578/7/6 585/7/6
f 579/4/6 580/4/6 587/4/6
f 587/4/6 580/4/6 588/4/6
f 583/7/6 584/7/6 589/7/6
f 589/7/6 584/7/6 590/7/6
f 585/7/6 586/7/6 591/7/6
f 591/7/6 586/7/6 592/7/6
f 593/7/6 594/7/6 595/7/6
f 595/7/6 594/7/6 596/7/6
