# MagicaVoxel @ Ephtracy

# group
o 

# material
mtllib angel.mtl
usemtl palette

# normals
vn -1 0 0
vn 1 0 0
vn 0 0 1
vn 0 0 -1
vn 0 -1 0
vn 0 1 0

# texcoords
vt 0.517578 0.5
vt 0.556641 0.5
vt 0.958984 0.5
vt 0.970703 0.5
vt 0.974609 0.5
vt 0.978516 0.5

# verts
v -1 0.4 0.6
v -1 0.4 0
v -1 0.5 0.7
v -1 0.5 0.6
v -1 0.5 0
v -1 0.5 -0.1
v -1 0.6 -0.1
v -1 0.6 -0.2
v -1 0.7 -0.2
v -1 0.7 -0.3
v -1 0.9 0.7
v -1 0.9 0.6
v -1 1 0.6
v -1 1 -0.3
v -0.9 0.2 0.8
v -0.9 0.2 -0.8
v -0.9 0.4 1
v -0.9 0.4 0.8
v -0.9 0.4 0.6
v -0.9 0.4 0
v -0.9 0.4 -0.8
v -0.9 0.4 -1
v -0.9 0.5 0.7
v -0.9 0.5 0.6
v -0.9 0.5 0
v -0.9 0.5 -0.1
v -0.9 0.6 -0.1
v -0.9 0.6 -0.2
v -0.9 0.7 -0.2
v -0.9 0.7 -0.3
v -0.9 0.9 0.7
v -0.9 0.9 0.6
v -0.9 1 0.6
v -0.9 1 -0.3
v -0.9 1 -0.8
v -0.9 1 -1
v -0.9 1.2 -0.7
v -0.9 1.2 -0.8
v -0.9 1.8 1
v -0.9 1.8 0.8
v -0.9 1.8 -0.5
v -0.9 1.8 -0.7
v -0.9 2 0.8
v -0.9 2 -0.5
v -0.7 0.2 1
v -0.7 0.2 0.8
v -0.7 0.2 -0.8
v -0.7 0.2 -1
v -0.7 0.4 1
v -0.7 0.4 0.8
v -0.7 0.4 -0.8
v -0.7 0.4 -1
v -0.7 1 -0.8
v -0.7 1 -1
v -0.7 1.2 -0.8
v -0.7 1.2 -1
v -0.7 1.8 1
v -0.7 1.8 0.8
v -0.7 1.8 -0.5
v -0.7 1.8 -0.7
v -0.7 2 1
v -0.7 2 0.8
v -0.7 2 -0.5
v -0.7 2 -0.7
v -0.6 0 0.4
v -0.6 0 0
v -0.6 0.2 0.4
v -0.6 0.2 0
v -0.4 2.2 0.3
v -0.4 2.2 -0.1
v -0.4 2.4 0.3
v -0.4 2.4 -0.1
v -0.3 2.2 0.4
v -0.3 2.2 0.3
v -0.3 2.2 -0.1
v -0.3 2.2 -0.2
v -0.3 2.4 0.4
v -0.3 2.4 0.3
v -0.3 2.4 -0.1
v -0.3 2.4 -0.2
v -0.2 2.2 0.5
v -0.2 2.2 0.4
v -0.2 2.2 -0.2
v -0.2 2.2 -0.3
v -0.2 2.4 0.5
v -0.2 2.4 0.4
v -0.2 2.4 -0.2
v -0.2 2.4 -0.3
v 0.1 2.2 0.3
v 0.1 2.2 0.2
v 0.1 2.2 0
v 0.1 2.2 -0.1
v 0.1 2.4 0.3
v 0.1 2.4 0.2
v 0.1 2.4 0
v 0.1 2.4 -0.1
v 0.2 0 0.4
v 0.2 0 0
v 0.2 0.2 0.4
v 0.2 0.2 0
v 0.2 2.2 0.2
v 0.2 2.2 0
v 0.2 2.4 0.2
v 0.2 2.4 0
v -0.2 0 0.4
v -0.2 0 0
v -0.2 0.2 0.4
v -0.2 0.2 0
v -0.2 2.2 0.2
v -0.2 2.2 0
v -0.2 2.4 0.2
v -0.2 2.4 0
v -0.1 2.2 0.3
v -0.1 2.2 0.2
v -0.1 2.2 0
v -0.1 2.2 -0.1
v -0.1 2.4 0.3
v -0.1 2.4 0.2
v -0.1 2.4 0
v -0.1 2.4 -0.1
v 0.2 2.2 0.5
v 0.2 2.2 0.4
v 0.2 2.2 -0.2
v 0.2 2.2 -0.3
v 0.2 2.4 0.5
v 0.2 2.4 0.4
v 0.2 2.4 -0.2
v 0.2 2.4 -0.3
v 0.3 2.2 0.4
v 0.3 2.2 0.3
v 0.3 2.2 -0.1
v 0.3 2.2 -0.2
v 0.3 2.4 0.4
v 0.3 2.4 0.3
v 0.3 2.4 -0.1
v 0.3 2.4 -0.2
v 0.4 2.2 0.3
v 0.4 2.2 -0.1
v 0.4 2.4 0.3
v 0.4 2.4 -0.1
v 0.6 0 0.4
v 0.6 0 0
v 0.6 0.2 0.4
v 0.6 0.2 0
v 0.7 0.2 1
v 0.7 0.2 0.8
v 0.7 0.2 -0.8
v 0.7 0.2 -1
v 0.7 0.4 1
v 0.7 0.4 0.8
v 0.7 0.4 -0.8
v 0.7 0.4 -1
v 0.7 1 -0.8
v 0.7 1 -1
v 0.7 1.2 -0.8
v 0.7 1.2 -1
v 0.7 1.8 1
v 0.7 1.8 0.8
v 0.7 1.8 -0.5
v 0.7 1.8 -0.7
v 0.7 2 1
v 0.7 2 0.8
v 0.7 2 -0.5
v 0.7 2 -0.7
v 0.9 0.2 0.8
v 0.9 0.2 -0.8
v 0.9 0.4 1
v 0.9 0.4 0.8
v 0.9 0.4 0.6
v 0.9 0.4 0
v 0.9 0.4 -0.8
v 0.9 0.4 -1
v 0.9 0.5 0.7
v 0.9 0.5 0.6
v 0.9 0.5 0
v 0.9 0.5 -0.1
v 0.9 0.6 -0.1
v 0.9 0.6 -0.2
v 0.9 0.7 -0.2
v 0.9 0.7 -0.3
v 0.9 0.9 0.7
v 0.9 0.9 0.6
v 0.9 1 0.6
v 0.9 1 -0.3
v 0.9 1 -0.8
v 0.9 1 -1
v 0.9 1.2 -0.7
v 0.9 1.2 -0.8
v 0.9 1.8 1
v 0.9 1.8 0.8
v 0.9 1.8 -0.5
v 0.9 1.8 -0.7
v 0.9 2 0.8
v 0.9 2 -0.5
v 1 0.4 0.6
v 1 0.4 0
v 1 0.5 0.7
v 1 0.5 0.6
v 1 0.5 0
v 1 0.5 -0.1
v 1 0.6 -0.1
v 1 0.6 -0.2
v 1 0.7 -0.2
v 1 0.7 -0.3
v 1 0.9 0.7
v 1 0.9 0.6
v 1 1 0.6
v 1 1 -0.3
v -0.9 0.4 1
v -0.9 1.8 1
v -0.7 0.2 1
v -0.7 0.4 1
v -0.7 1.8 1
v -0.7 2 1
v -0.5 1 1
v -0.5 1.4 1
v -0.2 0.7 1
v -0.2 0.8 1
v -0.2 1 1
v -0.2 1.4 1
v 0.2 0.7 1
v 0.2 0.8 1
v 0.2 1 1
v 0.2 1.4 1
v 0.5 1 1
v 0.5 1.4 1
v 0.7 0.2 1
v 0.7 0.4 1
v 0.7 1.8 1
v 0.7 2 1
v 0.9 0.4 1
v 0.9 1.8 1
v -0.9 0.2 0.8
v -0.9 0.4 0.8
v -0.9 1.8 0.8
v -0.9 2 0.8
v -0.7 0.2 0.8
v -0.7 0.4 0.8
v -0.7 1.8 0.8
v -0.7 2 0.8
v 0.7 0.2 0.8
v 0.7 0.4 0.8
v 0.7 1.8 0.8
v 0.7 2 0.8
v 0.9 0.2 0.8
v 0.9 0.4 0.8
v 0.9 1.8 0.8
v 0.9 2 0.8
v -1 0.5 0.7
v -1 0.9 0.7
v -0.9 0.5 0.7
v -0.9 0.9 0.7
v 0.9 0.5 0.7
v 0.9 0.9 0.7
v 1 0.5 0.7
v 1 0.9 0.7
v -1 0.4 0.6
v -1 0.5 0.6
v -1 0.9 0.6
v -1 1 0.6
v -0.9 0.4 0.6
v -0.9 0.5 0.6
v -0.9 0.9 0.6
v -0.9 1 0.6
v 0.9 0.4 0.6
v 0.9 0.5 0.6
v 0.9 0.9 0.6
v 0.9 1 0.6
v 1 0.4 0.6
v 1 0.5 0.6
v 1 0.9 0.6
v 1 1 0.6
v -0.2 2.2 0.5
v -0.2 2.4 0.5
v 0.2 2.2 0.5
v 0.2 2.4 0.5
v -0.6 0 0.4
v -0.6 0.2 0.4
v -0.3 2.2 0.4
v -0.3 2.4 0.4
v -0.2 0 0.4
v -0.2 0.2 0.4
v -0.2 2.2 0.4
v -0.2 2.4 0.4
v 0.2 0 0.4
v 0.2 0.2 0.4
v 0.2 2.2 0.4
v 0.2 2.4 0.4
v 0.3 2.2 0.4
v 0.3 2.4 0.4
v 0.6 0 0.4
v 0.6 0.2 0.4
v -0.4 2.2 0.3
v -0.4 2.4 0.3
v -0.3 2.2 0.3
v -0.3 2.4 0.3
v 0.3 2.2 0.3
v 0.3 2.4 0.3
v 0.4 2.2 0.3
v 0.4 2.4 0.3
v -0.2 2.2 0
v -0.2 2.4 0
v -0.1 2.2 0
v -0.1 2.4 0
v 0.1 2.2 0
v 0.1 2.4 0
v 0.2 2.2 0
v 0.2 2.4 0
v -0.1 2.2 -0.1
v -0.1 2.4 -0.1
v 0.1 2.2 -0.1
v 0.1 2.4 -0.1
v -0.1 2.2 0.3
v -0.1 2.4 0.3
v 0.1 2.2 0.3
v 0.1 2.4 0.3
v -0.2 2.2 0.2
v -0.2 2.4 0.2
v -0.1 2.2 0.2
v -0.1 2.4 0.2
v 0.1 2.2 0.2
v 0.1 2.4 0.2
v 0.2 2.2 0.2
v 0.2 2.4 0.2
v -1 0.4 0
v -1 0.5 0
v -0.9 0.4 0
v -0.9 0.5 0
v -0.6 0 0
v -0.6 0.2 0
v -0.2 0 0
v -0.2 0.2 0
v 0.2 0 0
v 0.2 0.2 0
v 0.6 0 0
v 0.6 0.2 0
v 0.9 0.4 0
v 0.9 0.5 0
v 1 0.4 0
v 1 0.5 0
v -1 0.5 -0.1
v -1 0.6 -0.1
v -0.9 0.5 -0.1
v -0.9 0.6 -0.1
v -0.4 2.2 -0.1
v -0.4 2.4 -0.1
v -0.3 2.2 -0.1
v -0.3 2.4 -0.1
v 0.3 2.2 -0.1
v 0.3 2.4 -0.1
v 0.4 2.2 -0.1
v 0.4 2.4 -0.1
v 0.9 0.5 -0.1
v 0.9 0.6 -0.1
v 1 0.5 -0.1
v 1 0.6 -0.1
v -1 0.6 -0.2
v -1 0.7 -0.2
v -0.9 0.6 -0.2
v -0.9 0.7 -0.2
v -0.3 2.2 -0.2
v -0.3 2.4 -0.2
v -0.2 2.2 -0.2
v -0.2 2.4 -0.2
v 0.2 2.2 -0.2
v 0.2 2.4 -0.2
v 0.3 2.2 -0.2
v 0.3 2.4 -0.2
v 0.9 0.6 -0.2
v 0.9 0.7 -0.2
v 1 0.6 -0.2
v 1 0.7 -0.2
v -1 0.7 -0.3
v -1 1 -0.3
v -0.9 0.7 -0.3
v -0.9 1 -0.3
v -0.2 2.2 -0.3
v -0.2 2.4 -0.3
v 0.2 2.2 -0.3
v 0.2 2.4 -0.3
v 0.9 0.7 -0.3
v 0.9 1 -0.3
v 1 0.7 -0.3
v 1 1 -0.3
v -0.9 1.8 -0.5
v -0.9 2 -0.5
v -0.7 1.8 -0.5
v -0.7 2 -0.5
v 0.7 1.8 -0.5
v 0.7 2 -0.5
v 0.9 1.8 -0.5
v 0.9 2 -0.5
v -0.9 1.2 -0.7
v -0.9 1.8 -0.7
v -0.7 1.8 -0.7
v -0.7 2 -0.7
v 0.7 1.8 -0.7
v 0.7 2 -0.7
v 0.9 1.2 -0.7
v 0.9 1.8 -0.7
v -0.9 0.2 -0.8
v -0.9 0.4 -0.8
v -0.9 1 -0.8
v -0.9 1.2 -0.8
v -0.7 0.2 -0.8
v -0.7 0.4 -0.8
v -0.7 1 -0.8
v -0.7 1.2 -0.8
v 0.7 0.2 -0.8
v 0.7 0.4 -0.8
v 0.7 1 -0.8
v 0.7 1.2 -0.8
v 0.9 0.2 -0.8
v 0.9 0.4 -0.8
v 0.9 1 -0.8
v 0.9 1.2 -0.8
v -0.9 0.4 -1
v -0.9 1 -1
v -0.7 0.2 -1
v -0.7 0.4 -1
v -0.7 1 -1
v -0.7 1.2 -1
v 0.7 0.2 -1
v 0.7 0.4 -1
v 0.7 1 -1
v 0.7 1.2 -1
v 0.9 0.4 -1
v 0.9 1 -1
v -0.6 0 0.4
v -0.2 0 0.4
v 0.2 0 0.4
v 0.6 0 0.4
v -0.6 0 0
v -0.2 0 0
v 0.2 0 0
v 0.6 0 0
v -0.7 0.2 1
v 0.7 0.2 1
v -0.9 0.2 0.8
v -0.7 0.2 0.8
v 0.7 0.2 0.8
v 0.9 0.2 0.8
v -0.6 0.2 0.4
v -0.2 0.2 0.4
v 0.2 0.2 0.4
v 0.6 0.2 0.4
v -0.6 0.2 0
v -0.2 0.2 0
v 0.2 0.2 0
v 0.6 0.2 0
v -0.9 0.2 -0.8
v -0.7 0.2 -0.8
v 0.7 0.2 -0.8
v 0.9 0.2 -0.8
v -0.7 0.2 -1
v 0.7 0.2 -1
v -0.9 0.4 1
v -0.7 0.4 1
v 0.7 0.4 1
v 0.9 0.4 1
v -0.9 0.4 0.8
v -0.7 0.4 0.8
v 0.7 0.4 0.8
v 0.9 0.4 0.8
v -1 0.4 0.6
v -0.9 0.4 0.6
v 0.9 0.4 0.6
v 1 0.4 0.6
v -1 0.4 0
v -0.9 0.4 0
v 0.9 0.4 0
v 1 0.4 0
v -0.9 0.4 -0.8
v -0.7 0.4 -0.8
v 0.7 0.4 -0.8
v 0.9 0.4 -0.8
v -0.9 0.4 -1
v -0.7 0.4 -1
v 0.7 0.4 -1
v 0.9 0.4 -1
v -1 0.5 0.7
v -0.9 0.5 0.7
v 0.9 0.5 0.7
v 1 0.5 0.7
v -1 0.5 0.6
v -0.9 0.5 0.6
v 0.9 0.5 0.6
v 1 0.5 0.6
v -1 0.5 0
v -0.9 0.5 0
v 0.9 0.5 0
v 1 0.5 0
v -1 0.5 -0.1
v -0.9 0.5 -0.1
v 0.9 0.5 -0.1
v 1 0.5 -0.1
v -1 0.6 -0.1
v -0.9 0.6 -0.1
v 0.9 0.6 -0.1
v 1 0.6 -0.1
v -1 0.6 -0.2
v -0.9 0.6 -0.2
v 0.9 0.6 -0.2
v 1 0.6 -0.2
v -1 0.7 -0.2
v -0.9 0.7 -0.2
v 0.9 0.7 -0.2
v 1 0.7 -0.2
v -1 0.7 -0.3
v -0.9 0.7 -0.3
v 0.9 0.7 -0.3
v 1 0.7 -0.3
v -0.2 2.2 0.5
v 0.2 2.2 0.5
v -0.3 2.2 0.4
v -0.2 2.2 0.4
v 0.2 2.2 0.4
v 0.3 2.2 0.4
v -0.4 2.2 0.3
v -0.3 2.2 0.3
v -0.1 2.2 0.3
v 0.1 2.2 0.3
v 0.3 2.2 0.3
v 0.4 2.2 0.3
v -0.2 2.2 0.2
v -0.1 2.2 0.2
v 0.1 2.2 0.2
v 0.2 2.2 0.2
v -0.2 2.2 0
v -0.1 2.2 0
v 0.1 2.2 0
v 0.2 2.2 0
v -0.4 2.2 -0.1
v -0.3 2.2 -0.1
v -0.1 2.2 -0.1
v 0.1 2.2 -0.1
v 0.3 2.2 -0.1
v 0.4 2.2 -0.1
v -0.3 2.2 -0.2
v -0.2 2.2 -0.2
v 0.2 2.2 -0.2
v 0.3 2.2 -0.2
v -0.2 2.2 -0.3
v 0.2 2.2 -0.3
v -1 0.9 0.7
v -0.9 0.9 0.7
v 0.9 0.9 0.7
v 1 0.9 0.7
v -1 0.9 0.6
v -0.9 0.9 0.6
v 0.9 0.9 0.6
v 1 0.9 0.6
v -1 1 0.6
v -0.9 1 0.6
v 0.9 1 0.6
v 1 1 0.6
v -1 1 -0.3
v -0.9 1 -0.3
v 0.9 1 -0.3
v 1 1 -0.3
v -0.9 1 -0.8
v -0.7 1 -0.8
v 0.7 1 -0.8
v 0.9 1 -0.8
v -0.9 1 -1
v -0.7 1 -1
v 0.7 1 -1
v 0.9 1 -1
v -0.9 1.2 -0.7
v 0.9 1.2 -0.7
v -0.9 1.2 -0.8
v -0.7 1.2 -0.8
v 0.7 1.2 -0.8
v 0.9 1.2 -0.8
v -0.7 1.2 -1
v 0.7 1.2 -1
v -0.9 1.8 1
v -0.7 1.8 1
v 0.7 1.8 1
v 0.9 1.8 1
v -0.9 1.8 0.8
v -0.7 1.8 0.8
v 0.7 1.8 0.8
v 0.9 1.8 0.8
v -0.9 1.8 -0.5
v -0.7 1.8 -0.5
v 0.7 1.8 -0.5
v 0.9 1.8 -0.5
v -0.9 1.8 -0.7
v -0.7 1.8 -0.7
v 0.7 1.8 -0.7
v 0.9 1.8 -0.7
v -0.7 2 1
v 0.7 2 1
v -0.9 2 0.8
v -0.7 2 0.8
v 0.7 2 0.8
v 0.9 2 0.8
v -0.9 2 -0.5
v -0.7 2 -0.5
v 0.7 2 -0.5
v 0.9 2 -0.5
v -0.7 2 -0.7
v 0.7 2 -0.7
v -0.2 2.4 0.5
v 0.2 2.4 0.5
v -0.3 2.4 0.4
v -0.2 2.4 0.4
v 0.2 2.4 0.4
v 0.3 2.4 0.4
v -0.4 2.4 0.3
v -0.3 2.4 0.3
v -0.1 2.4 0.3
v 0.1 2.4 0.3
v 0.3 2.4 0.3
v 0.4 2.4 0.3
v -0.2 2.4 0.2
v -0.1 2.4 0.2
v 0.1 2.4 0.2
v 0.2 2.4 0.2
v -0.2 2.4 0
v -0.1 2.4 0
v 0.1 2.4 0
v 0.2 2.4 0
v -0.4 2.4 -0.1
v -0.3 2.4 -0.1
v -0.1 2.4 -0.1
v 0.1 2.4 -0.1
v 0.3 2.4 -0.1
v 0.4 2.4 -0.1
v -0.3 2.4 -0.2
v -0.2 2.4 -0.2
v 0.2 2.4 -0.2
v 0.3 2.4 -0.2
v -0.2 2.4 -0.3
v 0.2 2.4 -0.3

# faces
f 4/4/1 2/4/1 1/4/1
f 5/4/1 2/4/1 4/4/1
f 7/4/1 4/4/1 3/4/1
f 7/4/1 6/4/1 5/4/1
f 7/4/1 5/4/1 4/4/1
f 9/4/1 8/4/1 7/4/1
f 11/4/1 7/4/1 3/4/1
f 11/4/1 10/4/1 9/4/1
f 11/4/1 9/4/1 7/4/1
f 12/4/1 10/4/1 11/4/1
f 13/4/1 10/4/1 12/4/1
f 14/4/1 10/4/1 13/4/1
f 18/5/1 16/5/1 15/5/1
f 19/5/1 16/5/1 18/5/1
f 20/5/1 16/5/1 19/5/1
f 21/5/1 16/5/1 20/5/1
f 23/5/1 18/5/1 17/5/1
f 23/5/1 19/5/1 18/5/1
f 24/5/1 19/5/1 23/5/1
f 25/5/1 22/5/1 21/5/1
f 25/5/1 21/5/1 20/5/1
f 26/5/1 22/5/1 25/5/1
f 27/5/1 22/5/1 26/5/1
f 28/5/1 22/5/1 27/5/1
f 29/5/1 22/5/1 28/5/1
f 30/5/1 22/5/1 29/5/1
f 31/5/1 23/5/1 17/5/1
f 33/5/1 32/5/1 31/5/1
f 34/5/1 22/5/1 30/5/1
f 35/5/1 22/5/1 34/5/1
f 36/5/1 22/5/1 35/5/1
f 37/5/1 34/5/1 33/5/1
f 37/5/1 35/5/1 34/5/1
f 38/5/1 35/5/1 37/5/1
f 39/5/1 33/5/1 31/5/1
f 39/5/1 31/5/1 17/5/1
f 39/5/1 37/5/1 33/5/1
f 40/5/1 37/5/1 39/5/1
f 41/5/1 37/5/1 40/5/1
f 42/5/1 37/5/1 41/5/1
f 43/5/1 41/5/1 40/5/1
f 44/5/1 41/5/1 43/5/1
f 49/5/1 46/5/1 45/5/1
f 50/5/1 46/5/1 49/5/1
f 51/5/1 48/5/1 47/5/1
f 52/5/1 48/5/1 51/5/1
f 55/5/1 54/5/1 53/5/1
f 56/5/1 54/5/1 55/5/1
f 61/5/1 58/5/1 57/5/1
f 62/5/1 58/5/1 61/5/1
f 63/5/1 60/5/1 59/5/1
f 64/5/1 60/5/1 63/5/1
f 67/4/1 66/4/1 65/4/1
f 68/4/1 66/4/1 67/4/1
f 71/4/1 70/4/1 69/4/1
f 72/4/1 70/4/1 71/4/1
f 77/4/1 74/4/1 73/4/1
f 78/4/1 74/4/1 77/4/1
f 79/4/1 76/4/1 75/4/1
f 80/4/1 76/4/1 79/4/1
f 85/4/1 82/4/1 81/4/1
f 86/4/1 82/4/1 85/4/1
f 87/4/1 84/4/1 83/4/1
f 88/4/1 84/4/1 87/4/1
f 93/4/1 90/4/1 89/4/1
f 94/4/1 90/4/1 93/4/1
f 95/4/1 92/4/1 91/4/1
f 96/4/1 92/4/1 95/4/1
f 99/4/1 98/4/1 97/4/1
f 100/4/1 98/4/1 99/4/1
f 103/4/1 102/4/1 101/4/1
f 104/4/1 102/4/1 103/4/1
f 105/4/2 106/4/2 107/4/2
f 107/4/2 106/4/2 108/4/2
f 109/4/2 110/4/2 111/4/2
f 111/4/2 110/4/2 112/4/2
f 113/4/2 114/4/2 117/4/2
f 117/4/2 114/4/2 118/4/2
f 115/4/2 116/4/2 119/4/2
f 119/4/2 116/4/2 120/4/2
f 121/4/2 122/4/2 125/4/2
f 125/4/2 122/4/2 126/4/2
f 123/4/2 124/4/2 127/4/2
f 127/4/2 124/4/2 128/4/2
f 129/4/2 130/4/2 133/4/2
f 133/4/2 130/4/2 134/4/2
f 131/4/2 132/4/2 135/4/2
f 135/4/2 132/4/2 136/4/2
f 137/4/2 138/4/2 139/4/2
f 139/4/2 138/4/2 140/4/2
f 141/4/2 142/4/2 143/4/2
f 143/4/2 142/4/2 144/4/2
f 145/5/2 146/5/2 149/5/2
f 149/5/2 146/5/2 150/5/2
f 147/5/2 148/5/2 151/5/2
f 151/5/2 148/5/2 152/5/2
f 153/5/2 154/5/2 155/5/2
f 155/5/2 154/5/2 156/5/2
f 157/5/2 158/5/2 161/5/2
f 161/5/2 158/5/2 162/5/2
f 159/5/2 160/5/2 163/5/2
f 163/5/2 160/5/2 164/5/2
f 165/5/2 166/5/2 168/5/2
f 168/5/2 166/5/2 169/5/2
f 169/5/2 166/5/2 170/5/2
f 170/5/2 166/5/2 171/5/2
f 167/5/2 168/5/2 173/5/2
f 168/5/2 169/5/2 173/5/2
f 173/5/2 169/5/2 174/5/2
f 171/5/2 172/5/2 175/5/2
f 170/5/2 171/5/2 175/5/2
f 175/5/2 172/5/2 176/5/2
f 176/5/2 172/5/2 177/5/2
f 177/5/2 172/5/2 178/5/2
f 178/5/2 172/5/2 179/5/2
f 179/5/2 172/5/2 180/5/2
f 167/5/2 173/5/2 181/5/2
f 181/5/2 182/5/2 183/5/2
f 180/5/2 172/5/2 184/5/2
f 184/5/2 172/5/2 185/5/2
f 185/5/2 172/5/2 186/5/2
f 183/5/2 184/5/2 187/5/2
f 184/5/2 185/5/2 187/5/2
f 187/5/2 185/5/2 188/5/2
f 181/5/2 183/5/2 189/5/2
f 167/5/2 181/5/2 189/5/2
f 183/5/2 187/5/2 189/5/2
f 189/5/2 187/5/2 190/5/2
f 190/5/2 187/5/2 191/5/2
f 191/5/2 187/5/2 192/5/2
f 190/5/2 191/5/2 193/5/2
f 193/5/2 191/5/2 194/5/2
f 195/4/2 196/4/2 198/4/2
f 198/4/2 196/4/2 199/4/2
f 197/4/2 198/4/2 201/4/2
f 199/4/2 200/4/2 201/4/2
f 198/4/2 199/4/2 201/4/2
f 201/4/2 202/4/2 203/4/2
f 197/4/2 201/4/2 205/4/2
f 203/4/2 204/4/2 205/4/2
f 201/4/2 203/4/2 205/4/2
f 205/4/2 204/4/2 206/4/2
f 206/4/2 204/4/2 207/4/2
f 207/4/2 204/4/2 208/4/2
f 212/5/3 210/5/3 209/5/3
f 213/5/3 210/5/3 212/5/3
f 215/5/3 212/5/3 211/5/3
f 215/5/3 214/5/3 213/5/3
f 215/5/3 213/5/3 212/5/3
f 216/5/3 214/5/3 215/5/3
f 217/5/3 215/5/3 211/5/3
f 218/5/3 215/5/3 217/5/3
f 219/6/3 216/6/3 215/6/3
f 219/5/3 215/5/3 218/5/3
f 220/5/3 214/5/3 216/5/3
f 220/6/3 216/6/3 219/6/3
f 221/6/3 218/6/3 217/6/3
f 221/5/3 217/5/3 211/5/3
f 222/5/3 219/5/3 218/5/3
f 222/6/3 218/6/3 221/6/3
f 222/5/3 220/5/3 219/5/3
f 223/5/3 220/5/3 222/5/3
f 224/5/3 214/5/3 220/5/3
f 224/5/3 220/5/3 223/5/3
f 225/5/3 223/5/3 222/5/3
f 225/5/3 222/5/3 221/5/3
f 225/6/3 224/6/3 223/6/3
f 226/5/3 214/5/3 224/5/3
f 226/6/3 224/6/3 225/6/3
f 227/5/3 221/5/3 211/5/3
f 227/5/3 225/5/3 221/5/3
f 227/5/3 226/5/3 225/5/3
f 228/5/3 226/5/3 227/5/3
f 229/5/3 214/5/3 226/5/3
f 229/5/3 226/5/3 228/5/3
f 230/5/3 214/5/3 229/5/3
f 231/5/3 229/5/3 228/5/3
f 232/5/3 229/5/3 231/5/3
f 237/5/3 234/5/3 233/5/3
f 238/5/3 234/5/3 237/5/3
f 239/5/3 236/5/3 235/5/3
f 240/5/3 236/5/3 239/5/3
f 245/5/3 242/5/3 241/5/3
f 246/5/3 242/5/3 245/5/3
f 247/5/3 244/5/3 243/5/3
f 248/5/3 244/5/3 247/5/3
f 251/4/3 250/4/3 249/4/3
f 252/4/3 250/4/3 251/4/3
f 255/4/3 254/4/3 253/4/3
f 256/4/3 254/4/3 255/4/3
f 261/4/3 258/4/3 257/4/3
f 262/4/3 258/4/3 261/4/3
f 263/4/3 260/4/3 259/4/3
f 264/4/3 260/4/3 263/4/3
f 269/4/3 266/4/3 265/4/3
f 270/4/3 266/4/3 269/4/3
f 271/4/3 268/4/3 267/4/3
f 272/4/3 268/4/3 271/4/3
f 275/4/3 274/4/3 273/4/3
f 276/4/3 274/4/3 275/4/3
f 281/4/3 278/4/3 277/4/3
f 282/4/3 278/4/3 281/4/3
f 283/4/3 280/4/3 279/4/3
f 284/4/3 280/4/3 283/4/3
f 289/4/3 288/4/3 287/4/3
f 290/4/3 288/4/3 289/4/3
f 291/4/3 286/4/3 285/4/3
f 292/4/3 286/4/3 291/4/3
f 295/4/3 294/4/3 293/4/3
f 296/4/3 294/4/3 295/4/3
f 299/4/3 298/4/3 297/4/3
f 300/4/3 298/4/3 299/4/3
f 303/4/3 302/4/3 301/4/3
f 304/4/3 302/4/3 303/4/3
f 307/4/3 306/4/3 305/4/3
f 308/4/3 306/4/3 307/4/3
f 311/4/3 310/4/3 309/4/3
f 312/4/3 310/4/3 311/4/3
f 313/4/4 314/4/4 315/4/4
f 315/4/4 314/4/4 316/4/4
f 317/4/4 318/4/4 319/4/4
f 319/4/4 318/4/4 320/4/4
f 321/4/4 322/4/4 323/4/4
f 323/4/4 322/4/4 324/4/4
f 325/4/4 326/4/4 327/4/4
f 327/4/4 326/4/4 328/4/4
f 329/4/4 330/4/4 331/4/4
f 331/4/4 330/4/4 332/4/4
f 333/4/4 334/4/4 335/4/4
f 335/4/4 334/4/4 336/4/4
f 337/4/4 338/4/4 339/4/4
f 339/4/4 338/4/4 340/4/4
f 341/4/4 342/4/4 343/4/4
f 343/4/4 342/4/4 344/4/4
f 345/4/4 346/4/4 347/4/4
f 347/4/4 346/4/4 348/4/4
f 349/4/4 350/4/4 351/4/4
f 351/4/4 350/4/4 352/4/4
f 353/4/4 354/4/4 355/4/4
f 355/4/4 354/4/4 356/4/4
f 357/4/4 358/4/4 359/4/4
f 359/4/4 358/4/4 360/4/4
f 361/4/4 362/4/4 363/4/4
f 363/4/4 362/4/4 364/4/4
f 365/4/4 366/4/4 367/4/4
f 367/4/4 366/4/4 368/4/4
f 369/4/4 370/4/4 371/4/4
f 371/4/4 370/4/4 372/4/4
f 373/4/4 374/4/4 375/4/4
f 375/4/4 374/4/4 376/4/4
f 377/4/4 378/4/4 379/4/4
f 379/4/4 378/4/4 380/4/4
f 381/4/4 382/4/4 383/4/4
f 383/4/4 382/4/4 384/4/4
f 385/5/4 386/5/4 387/5/4
f 387/5/4 386/5/4 388/5/4
f 389/5/4 390/5/4 391/5/4
f 391/5/4 390/5/4 392/5/4
f 393/5/4 394/5/4 395/5/4
f 393/5/4 395/5/4 397/5/4
f 395/5/4 396/5/4 397/5/4
f 397/5/4 396/5/4 398/5/4
f 393/5/4 397/5/4 399/5/4
f 399/5/4 397/5/4 400/5/4
f 401/5/4 402/5/4 405/5/4
f 405/5/4 402/5/4 406/5/4
f 403/5/4 404/5/4 407/5/4
f 407/5/4 404/5/4 408/5/4
f 409/5/4 410/5/4 413/5/4
f 413/5/4 410/5/4 414/5/4
f 411/5/4 412/5/4 415/5/4
f 415/5/4 412/5/4 416/5/4
f 417/5/4 418/5/4 420/5/4
f 420/5/4 418/5/4 421/5/4
f 419/5/4 420/5/4 423/5/4
f 421/5/4 422/5/4 423/5/4
f 420/5/4 421/5/4 423/5/4
f 423/5/4 422/5/4 424/5/4
f 424/5/4 422/5/4 425/5/4
f 425/5/4 422/5/4 426/5/4
f 424/5/4 425/5/4 427/5/4
f 427/5/4 425/5/4 428/5/4
f 433/4/5 430/4/5 429/4/5
f 434/4/5 430/4/5 433/4/5
f 435/4/5 432/4/5 431/4/5
f 436/4/5 432/4/5 435/4/5
f 440/5/5 438/5/5 437/5/5
f 441/5/5 438/5/5 440/5/5
f 443/5/5 440/5/5 439/5/5
f 443/5/5 442/5/5 441/5/5
f 443/5/5 441/5/5 440/5/5
f 444/5/5 442/5/5 443/5/5
f 445/5/5 442/5/5 444/5/5
f 446/5/5 442/5/5 445/5/5
f 447/5/5 443/5/5 439/5/5
f 448/5/5 445/5/5 444/5/5
f 449/5/5 445/5/5 448/5/5
f 450/5/5 442/5/5 446/5/5
f 451/5/5 449/5/5 448/5/5
f 451/5/5 450/5/5 449/5/5
f 451/5/5 447/5/5 439/5/5
f 451/5/5 448/5/5 447/5/5
f 452/5/5 450/5/5 451/5/5
f 453/5/5 442/5/5 450/5/5
f 453/5/5 450/5/5 452/5/5
f 454/5/5 442/5/5 453/5/5
f 455/5/5 453/5/5 452/5/5
f 456/5/5 453/5/5 455/5/5
f 461/5/5 458/5/5 457/5/5
f 462/5/5 458/5/5 461/5/5
f 463/5/5 460/5/5 459/5/5
f 464/5/5 460/5/5 463/5/5
f 469/4/5 466/4/5 465/4/5
f 470/4/5 466/4/5 469/4/5
f 471/4/5 468/4/5 467/4/5
f 472/4/5 468/4/5 471/4/5
f 477/5/5 474/5/5 473/5/5
f 478/5/5 474/5/5 477/5/5
f 479/5/5 476/5/5 475/5/5
f 480/5/5 476/5/5 479/5/5
f 485/4/5 482/4/5 481/4/5
f 486/4/5 482/4/5 485/4/5
f 487/4/5 484/4/5 483/4/5
f 488/4/5 484/4/5 487/4/5
f 493/4/5 490/4/5 489/4/5
f 494/4/5 490/4/5 493/4/5
f 495/4/5 492/4/5 491/4/5
f 496/4/5 492/4/5 495/4/5
f 501/4/5 498/4/5 497/4/5
f 502/4/5 498/4/5 501/4/5
f 503/4/5 500/4/5 499/4/5
f 504/4/5 500/4/5 503/4/5
f 509/4/5 506/4/5 505/4/5
f 510/4/5 506/4/5 509/4/5
f 511/4/5 508/4/5 507/4/5
f 512/4/5 508/4/5 511/4/5
f 516/4/5 514/4/5 513/4/5
f 517/4/5 514/4/5 516/4/5
f 520/4/5 516/4/5 515/4/5
f 520/4/5 518/4/5 517/4/5
f 520/4/5 517/4/5 516/4/5
f 521/4/5 518/4/5 520/4/5
f 522/4/5 518/4/5 521/4/5
f 523/4/5 518/4/5 522/4/5
f 525/4/5 520/4/5 519/4/5
f 525/4/5 521/4/5 520/4/5
f 526/4/5 521/4/5 525/4/5
f 527/4/5 524/4/5 523/4/5
f 527/4/5 523/4/5 522/4/5
f 528/4/5 524/4/5 527/4/5
f 529/4/5 525/4/5 519/4/5
f 532/4/5 524/4/5 528/4/5
f 533/4/5 530/4/5 529/4/5
f 533/4/5 529/4/5 519/4/5
f 534/4/5 530/4/5 533/4/5
f 535/4/5 530/4/5 534/4/5
f 536/4/5 532/4/5 531/4/5
f 537/4/5 524/4/5 532/4/5
f 537/4/5 532/4/5 536/4/5
f 538/4/5 524/4/5 537/4/5
f 539/4/5 535/4/5 534/4/5
f 539/4/5 536/4/5 535/4/5
f 539/4/5 537/4/5 536/4/5
f 540/4/5 537/4/5 539/4/5
f 541/4/5 537/4/5 540/4/5
f 542/4/5 537/4/5 541/4/5
f 543/4/5 541/4/5 540/4/5
f 544/4/5 541/4/5 543/4/5
f 545/4/6 546/4/6 549/4/6
f 549/4/6 546/4/6 550/4/6
f 547/4/6 548/4/6 551/4/6
f 551/4/6 548/4/6 552/4/6
f 553/4/6 554/4/6 557/4/6
f 557/4/6 554/4/6 558/4/6
f 555/4/6 556/4/6 559/4/6
f 559/4/6 556/4/6 560/4/6
f 561/5/6 562/5/6 565/5/6
f 565/5/6 562/5/6 566/5/6
f 563/5/6 564/5/6 567/5/6
f 567/5/6 564/5/6 568/5/6
f 569/5/6 570/5/6 571/5/6
f 571/5/6 570/5/6 572/5/6
f 572/5/6 570/5/6 573/5/6
f 573/5/6 570/5/6 574/5/6
f 572/5/6 573/5/6 575/5/6
f 575/5/6 573/5/6 576/5/6
f 577/5/6 578/5/6 581/5/6
f 581/5/6 578/5/6 582/5/6
f 579/5/6 580/5/6 583/5/6
f 583/5/6 580/5/6 584/5/6
f 585/5/6 586/5/6 589/5/6
f 589/5/6 586/5/6 590/5/6
f 587/5/6 588/5/6 591/5/6
f 591/5/6 588/5/6 592/5/6
f 593/5/6 594/5/6 596/5/6
f 596/5/6 594/5/6 597/5/6
f 595/5/6 596/5/6 599/5/6
f 597/5/6 598/5/6 599/5/6
f 596/5/6 597/5/6 599/5/6
f 599/5/6 598/5/6 600/5/6
f 600/5/6 598/5/6 601/5/6
f 601/5/6 598/5/6 602/5/6
f 600/5/6 601/5/6 603/5/6
f 603/5/6 601/5/6 604/5/6
f 605/4/6 606/4/6 608/4/6
f 608/4/6 606/4/6 609/4/6
f 607/4/6 608/4/6 612/4/6
f 609/4/6 610/4/6 612/4/6
f 608/4/6 609/4/6 612/4/6
f 612/4/6 610/4/6 613/4/6
f 613/4/6 610/4/6 614/4/6
f 614/4/6 610/4/6 615/4/6
f 611/4/6 612/4/6 617/4/6
f 612/4/6 613/4/6 617/4/6
f 617/4/6 613/4/6 618/4/6
f 615/4/6 616/4/6 619/4/6
f 614/4/6 615/4/6 619/4/6
f 619/4/6 616/4/6 620/4/6
f 611/4/6 617/4/6 621/4/6
f 620/4/6 616/4/6 624/4/6
f 621/4/6 622/4/6 625/4/6
f 611/4/6 621/4/6 625/4/6
f 625/4/6 622/4/6 626/4/6
f 626/4/6 622/4/6 627/4/6
f 623/4/6 624/4/6 628/4/6
f 624/4/6 616/4/6 629/4/6
f 628/4/6 624/4/6 629/4/6
f 629/4/6 616/4/6 630/4/6
f 626/4/6 627/4/6 631/4/6
f 627/4/6 628/4/6 631/4/6
f 628/4/6 629/4/6 631/4/6
f 631/4/6 629/4/6 632/4/6
f 632/4/6 629/4/6 633/4/6
f 633/4/6 629/4/6 634/4/6
f 632/4/6 633/4/6 635/4/6
f 635/4/6 633/4/6 636/4/6
