# MagicaVoxel @ Ephtracy

# group
o 

# material
mtllib angel_spitter.mtl
usemtl palette

# normals
vn -1 0 0
vn 1 0 0
vn 0 0 1
vn 0 0 -1
vn 0 -1 0
vn 0 1 0

# texcoords
vt 0.517578 0.5
vt 0.556641 0.5
vt 0.958984 0.5
vt 0.970703 0.5
vt 0.974609 0.5
vt 0.978516 0.5
vt 0.982422 0.5

# verts
v -1 0.4 0.6
v -1 0.4 0
v -1 0.5 0.7
v -1 0.5 0.6
v -1 0.5 0
v -1 0.5 -0.1
v -1 0.6 -0.1
v -1 0.6 -0.2
v -1 0.7 -0.2
v -1 0.7 -0.3
v -1 0.9 0.7
v -1 0.9 0.6
v -1 1 0.6
v -1 1 -0.3
v -0.9 0.2 0.8
v -0.9 0.2 -0.8
v -0.9 0.4 1
v -0.9 0.4 0.8
v -0.9 0.4 0.6
v -0.9 0.4 0
v -0.9 0.4 -0.8
v -0.9 0.4 -1
v -0.9 0.5 0.7
v -0.9 0.5 0.6
v -0.9 0.5 0
v -0.9 0.5 -0.1
v -0.9 0.6 -0.1
v -0.9 0.6 -0.2
v -0.9 0.7 -0.2
v -0.9 0.7 -0.3
v -0.9 0.9 0.7
v -0.9 0.9 0.6
v -0.9 1 0.6
v -0.9 1 -0.3
v -0.9 1 -0.7
v -0.9 1 -1
v -0.9 1.8 1
v -0.9 1.8 0.8
v -0.9 1.8 -0.5
v -0.9 1.8 -0.7
v -0.9 2 0.8
v -0.9 2 -0.5
v -0.7 0.2 1
v -0.7 0.2 0.8
v -0.7 0.2 -0.8
v -0.7 0.2 -1
v -0.7 0.4 1
v -0.7 0.4 0.8
v -0.7 0.4 -0.8
v -0.7 0.4 -1
v -0.7 1 -0.7
v -0.7 1 -1
v -0.7 1.2 -0.7
v -0.7 1.2 -1
v -0.7 1.8 1
v -0.7 1.8 0.8
v -0.7 1.8 -0.5
v -0.7 1.8 -0.7
v -0.7 2 1
v -0.7 2 0.8
v -0.7 2 -0.5
v -0.7 2 -0.7
v -0.6 0 0.4
v -0.6 0 0
v -0.6 0.2 0.4
v -0.6 0.2 0
v -0.4 2 0.7
v -0.4 2 0.5
v -0.4 2 -0.1
v -0.4 2.1 0.7
v -0.4 2.1 0.5
v -0.4 2.4 0.5
v -0.4 2.4 -0.1
v -0.3 2 0.8
v -0.3 2 0.7
v -0.3 2.1 0.8
v -0.3 2.1 0.7
v 0.2 0 0.4
v 0.2 0 0
v 0.2 0.2 0.4
v 0.2 0.2 0
v -0.2 0 0.4
v -0.2 0 0
v -0.2 0.2 0.4
v -0.2 0.2 0
v 0.3 2 0.8
v 0.3 2 0.7
v 0.3 2.1 0.8
v 0.3 2.1 0.7
v 0.4 2 0.7
v 0.4 2 0.5
v 0.4 2 -0.1
v 0.4 2.1 0.7
v 0.4 2.1 0.5
v 0.4 2.4 0.5
v 0.4 2.4 -0.1
v 0.6 0 0.4
v 0.6 0 0
v 0.6 0.2 0.4
v 0.6 0.2 0
v 0.7 0.2 1
v 0.7 0.2 0.8
v 0.7 0.2 -0.8
v 0.7 0.2 -1
v 0.7 0.4 1
v 0.7 0.4 0.8
v 0.7 0.4 -0.8
v 0.7 0.4 -1
v 0.7 1 -0.7
v 0.7 1 -1
v 0.7 1.2 -0.7
v 0.7 1.2 -1
v 0.7 1.8 1
v 0.7 1.8 0.8
v 0.7 1.8 -0.5
v 0.7 1.8 -0.7
v 0.7 2 1
v 0.7 2 0.8
v 0.7 2 -0.5
v 0.7 2 -0.7
v 0.9 0.2 0.8
v 0.9 0.2 -0.8
v 0.9 0.4 1
v 0.9 0.4 0.8
v 0.9 0.4 0.6
v 0.9 0.4 0
v 0.9 0.4 -0.8
v 0.9 0.4 -1
v 0.9 0.5 0.7
v 0.9 0.5 0.6
v 0.9 0.5 0
v 0.9 0.5 -0.1
v 0.9 0.6 -0.1
v 0.9 0.6 -0.2
v 0.9 0.7 -0.2
v 0.9 0.7 -0.3
v 0.9 0.9 0.7
v 0.9 0.9 0.6
v 0.9 1 0.6
v 0.9 1 -0.3
v 0.9 1 -0.7
v 0.9 1 -1
v 0.9 1.8 1
v 0.9 1.8 0.8
v 0.9 1.8 -0.5
v 0.9 1.8 -0.7
v 0.9 2 0.8
v 0.9 2 -0.5
v 1 0.4 0.6
v 1 0.4 0
v 1 0.5 0.7
v 1 0.5 0.6
v 1 0.5 0
v 1 0.5 -0.1
v 1 0.6 -0.1
v 1 0.6 -0.2
v 1 0.7 -0.2
v 1 0.7 -0.3
v 1 0.9 0.7
v 1 0.9 0.6
v 1 1 0.6
v 1 1 -0.3
v -0.9 0.4 1
v -0.9 1.8 1
v -0.7 0.2 1
v -0.7 0.4 1
v -0.7 1.8 1
v -0.7 2 1
v -0.5 1 1
v -0.5 1.4 1
v -0.2 0.7 1
v -0.2 0.8 1
v -0.2 1 1
v -0.2 1.4 1
v 0.2 0.7 1
v 0.2 0.8 1
v 0.2 1 1
v 0.2 1.4 1
v 0.5 1 1
v 0.5 1.4 1
v 0.7 0.2 1
v 0.7 0.4 1
v 0.7 1.8 1
v 0.7 2 1
v 0.9 0.4 1
v 0.9 1.8 1
v -0.9 0.2 0.8
v -0.9 0.4 0.8
v -0.9 1.8 0.8
v -0.9 2 0.8
v -0.7 0.2 0.8
v -0.7 0.4 0.8
v -0.7 1.8 0.8
v -0.7 2 0.8
v -0.3 2 0.8
v -0.3 2.1 0.8
v 0.3 2 0.8
v 0.3 2.1 0.8
v 0.7 0.2 0.8
v 0.7 0.4 0.8
v 0.7 1.8 0.8
v 0.7 2 0.8
v 0.9 0.2 0.8
v 0.9 0.4 0.8
v 0.9 1.8 0.8
v 0.9 2 0.8
v -1 0.5 0.7
v -1 0.9 0.7
v -0.9 0.5 0.7
v -0.9 0.9 0.7
v -0.4 2 0.7
v -0.4 2.1 0.7
v -0.3 2 0.7
v -0.3 2.1 0.7
v 0.3 2 0.7
v 0.3 2.1 0.7
v 0.4 2 0.7
v 0.4 2.1 0.7
v 0.9 0.5 0.7
v 0.9 0.9 0.7
v 1 0.5 0.7
v 1 0.9 0.7
v -1 0.4 0.6
v -1 0.5 0.6
v -1 0.9 0.6
v -1 1 0.6
v -0.9 0.4 0.6
v -0.9 0.5 0.6
v -0.9 0.9 0.6
v -0.9 1 0.6
v 0.9 0.4 0.6
v 0.9 0.5 0.6
v 0.9 0.9 0.6
v 0.9 1 0.6
v 1 0.4 0.6
v 1 0.5 0.6
v 1 0.9 0.6
v 1 1 0.6
v -0.4 2.1 0.5
v -0.4 2.4 0.5
v 0.4 2.1 0.5
v 0.4 2.4 0.5
v -0.6 0 0.4
v -0.6 0.2 0.4
v -0.2 0 0.4
v -0.2 0.2 0.4
v 0.2 0 0.4
v 0.2 0.2 0.4
v 0.6 0 0.4
v 0.6 0.2 0.4
v -1 0.4 0
v -1 0.5 0
v -0.9 0.4 0
v -0.9 0.5 0
v -0.6 0 0
v -0.6 0.2 0
v -0.2 0 0
v -0.2 0.2 0
v 0.2 0 0
v 0.2 0.2 0
v 0.6 0 0
v 0.6 0.2 0
v 0.9 0.4 0
v 0.9 0.5 0
v 1 0.4 0
v 1 0.5 0
v -1 0.5 -0.1
v -1 0.6 -0.1
v -0.9 0.5 -0.1
v -0.9 0.6 -0.1
v -0.4 2 -0.1
v -0.4 2.4 -0.1
v 0.4 2 -0.1
v 0.4 2.4 -0.1
v 0.9 0.5 -0.1
v 0.9 0.6 -0.1
v 1 0.5 -0.1
v 1 0.6 -0.1
v -1 0.6 -0.2
v -1 0.7 -0.2
v -0.9 0.6 -0.2
v -0.9 0.7 -0.2
v 0.9 0.6 -0.2
v 0.9 0.7 -0.2
v 1 0.6 -0.2
v 1 0.7 -0.2
v -1 0.7 -0.3
v -1 1 -0.3
v -0.9 0.7 -0.3
v -0.9 1 -0.3
v 0.9 0.7 -0.3
v 0.9 1 -0.3
v 1 0.7 -0.3
v 1 1 -0.3
v -0.9 1.8 -0.5
v -0.9 2 -0.5
v -0.7 1.8 -0.5
v -0.7 2 -0.5
v 0.7 1.8 -0.5
v 0.7 2 -0.5
v 0.9 1.8 -0.5
v 0.9 2 -0.5
v -0.9 1 -0.7
v -0.9 1.8 -0.7
v -0.7 1 -0.7
v -0.7 1.2 -0.7
v -0.7 1.8 -0.7
v -0.7 2 -0.7
v 0.7 1 -0.7
v 0.7 1.2 -0.7
v 0.7 1.8 -0.7
v 0.7 2 -0.7
v 0.9 1 -0.7
v 0.9 1.8 -0.7
v -0.9 0.2 -0.8
v -0.9 0.4 -0.8
v -0.7 0.2 -0.8
v -0.7 0.4 -0.8
v 0.7 0.2 -0.8
v 0.7 0.4 -0.8
v 0.9 0.2 -0.8
v 0.9 0.4 -0.8
v -0.9 0.4 -1
v -0.9 1 -1
v -0.7 0.2 -1
v -0.7 0.4 -1
v -0.7 1 -1
v -0.7 1.2 -1
v 0.7 0.2 -1
v 0.7 0.4 -1
v 0.7 1 -1
v 0.7 1.2 -1
v 0.9 0.4 -1
v 0.9 1 -1
v -0.6 0 0.4
v -0.2 0 0.4
v 0.2 0 0.4
v 0.6 0 0.4
v -0.6 0 0
v -0.2 0 0
v 0.2 0 0
v 0.6 0 0
v -0.7 0.2 1
v 0.7 0.2 1
v -0.9 0.2 0.8
v -0.7 0.2 0.8
v 0.7 0.2 0.8
v 0.9 0.2 0.8
v -0.6 0.2 0.4
v -0.2 0.2 0.4
v 0.2 0.2 0.4
v 0.6 0.2 0.4
v -0.6 0.2 0
v -0.2 0.2 0
v 0.2 0.2 0
v 0.6 0.2 0
v -0.9 0.2 -0.8
v -0.7 0.2 -0.8
v 0.7 0.2 -0.8
v 0.9 0.2 -0.8
v -0.7 0.2 -1
v 0.7 0.2 -1
v -0.9 0.4 1
v -0.7 0.4 1
v 0.7 0.4 1
v 0.9 0.4 1
v -0.9 0.4 0.8
v -0.7 0.4 0.8
v 0.7 0.4 0.8
v 0.9 0.4 0.8
v -1 0.4 0.6
v -0.9 0.4 0.6
v 0.9 0.4 0.6
v 1 0.4 0.6
v -1 0.4 0
v -0.9 0.4 0
v 0.9 0.4 0
v 1 0.4 0
v -0.9 0.4 -0.8
v -0.7 0.4 -0.8
v 0.7 0.4 -0.8
v 0.9 0.4 -0.8
v -0.9 0.4 -1
v -0.7 0.4 -1
v 0.7 0.4 -1
v 0.9 0.4 -1
v -1 0.5 0.7
v -0.9 0.5 0.7
v 0.9 0.5 0.7
v 1 0.5 0.7
v -1 0.5 0.6
v -0.9 0.5 0.6
v 0.9 0.5 0.6
v 1 0.5 0.6
v -1 0.5 0
v -0.9 0.5 0
v 0.9 0.5 0
v 1 0.5 0
v -1 0.5 -0.1
v -0.9 0.5 -0.1
v 0.9 0.5 -0.1
v 1 0.5 -0.1
v -1 0.6 -0.1
v -0.9 0.6 -0.1
v 0.9 0.6 -0.1
v 1 0.6 -0.1
v -1 0.6 -0.2
v -0.9 0.6 -0.2
v 0.9 0.6 -0.2
v 1 0.6 -0.2
v -1 0.7 -0.2
v -0.9 0.7 -0.2
v 0.9 0.7 -0.2
v 1 0.7 -0.2
v -1 0.7 -0.3
v -0.9 0.7 -0.3
v 0.9 0.7 -0.3
v 1 0.7 -0.3
v -1 0.9 0.7
v -0.9 0.9 0.7
v 0.9 0.9 0.7
v 1 0.9 0.7
v -1 0.9 0.6
v -0.9 0.9 0.6
v 0.9 0.9 0.6
v 1 0.9 0.6
v -1 1 0.6
v -0.9 1 0.6
v 0.9 1 0.6
v 1 1 0.6
v -1 1 -0.3
v -0.9 1 -0.3
v 0.9 1 -0.3
v 1 1 -0.3
v -0.9 1 -0.7
v -0.7 1 -0.7
v 0.7 1 -0.7
v 0.9 1 -0.7
v -0.9 1 -1
v -0.7 1 -1
v 0.7 1 -1
v 0.9 1 -1
v -0.7 1.2 -0.7
v 0.7 1.2 -0.7
v -0.7 1.2 -1
v 0.7 1.2 -1
v -0.9 1.8 1
v -0.7 1.8 1
v 0.7 1.8 1
v 0.9 1.8 1
v -0.9 1.8 0.8
v -0.7 1.8 0.8
v 0.7 1.8 0.8
v 0.9 1.8 0.8
v -0.9 1.8 -0.5
v -0.7 1.8 -0.5
v 0.7 1.8 -0.5
v 0.9 1.8 -0.5
v -0.9 1.8 -0.7
v -0.7 1.8 -0.7
v 0.7 1.8 -0.7
v 0.9 1.8 -0.7
v -0.7 2 1
v 0.7 2 1
v -0.9 2 0.8
v -0.7 2 0.8
v -0.3 2 0.8
v 0.3 2 0.8
v 0.7 2 0.8
v 0.9 2 0.8
v -0.4 2 0.7
v -0.3 2 0.7
v 0.3 2 0.7
v 0.4 2 0.7
v -0.4 2 0.5
v 0.4 2 0.5
v -0.4 2 -0.1
v 0.4 2 -0.1
v -0.9 2 -0.5
v -0.7 2 -0.5
v 0.7 2 -0.5
v 0.9 2 -0.5
v -0.7 2 -0.7
v 0.7 2 -0.7
v -0.3 2.1 0.8
v 0.3 2.1 0.8
v -0.4 2.1 0.7
v -0.3 2.1 0.7
v 0.3 2.1 0.7
v 0.4 2.1 0.7
v -0.4 2.1 0.5
v 0.4 2.1 0.5
v -0.4 2.4 0.5
v 0.4 2.4 0.5
v -0.4 2.4 -0.1
v 0.4 2.4 -0.1

# faces
f 4/4/1 2/4/1 1/4/1
f 5/4/1 2/4/1 4/4/1
f 7/4/1 4/4/1 3/4/1
f 7/4/1 6/4/1 5/4/1
f 7/4/1 5/4/1 4/4/1
f 9/4/1 8/4/1 7/4/1
f 11/4/1 7/4/1 3/4/1
f 11/4/1 10/4/1 9/4/1
f 11/4/1 9/4/1 7/4/1
f 12/4/1 10/4/1 11/4/1
f 13/4/1 10/4/1 12/4/1
f 14/4/1 10/4/1 13/4/1
f 18/5/1 16/5/1 15/5/1
f 19/5/1 16/5/1 18/5/1
f 20/5/1 16/5/1 19/5/1
f 21/5/1 16/5/1 20/5/1
f 23/5/1 18/5/1 17/5/1
f 23/5/1 19/5/1 18/5/1
f 24/5/1 19/5/1 23/5/1
f 25/5/1 22/5/1 21/5/1
f 25/5/1 21/5/1 20/5/1
f 26/5/1 22/5/1 25/5/1
f 27/5/1 22/5/1 26/5/1
f 28/5/1 22/5/1 27/5/1
f 29/5/1 22/5/1 28/5/1
f 30/5/1 22/5/1 29/5/1
f 31/5/1 23/5/1 17/5/1
f 33/5/1 32/5/1 31/5/1
f 34/5/1 22/5/1 30/5/1
f 35/5/1 22/5/1 34/5/1
f 36/5/1 22/5/1 35/5/1
f 37/5/1 33/5/1 31/5/1
f 37/5/1 31/5/1 17/5/1
f 37/5/1 35/5/1 34/5/1
f 37/5/1 34/5/1 33/5/1
f 38/5/1 35/5/1 37/5/1
f 39/5/1 35/5/1 38/5/1
f 40/5/1 35/5/1 39/5/1
f 41/5/1 39/5/1 38/5/1
f 42/5/1 39/5/1 41/5/1
f 47/5/1 44/5/1 43/5/1
f 48/5/1 44/5/1 47/5/1
f 49/5/1 46/5/1 45/5/1
f 50/5/1 46/5/1 49/5/1
f 53/5/1 52/5/1 51/5/1
f 54/5/1 52/5/1 53/5/1
f 59/5/1 56/5/1 55/5/1
f 60/5/1 56/5/1 59/5/1
f 61/5/1 58/5/1 57/5/1
f 62/5/1 58/5/1 61/5/1
f 65/4/1 64/4/1 63/4/1
f 66/4/1 64/4/1 65/4/1
f 70/4/1 68/4/1 67/4/1
f 71/7/1 69/7/1 68/7/1
f 71/4/1 68/4/1 70/4/1
f 72/7/1 69/7/1 71/7/1
f 73/7/1 69/7/1 72/7/1
f 76/4/1 75/4/1 74/4/1
f 77/4/1 75/4/1 76/4/1
f 80/4/1 79/4/1 78/4/1
f 81/4/1 79/4/1 80/4/1
f 82/4/2 83/4/2 84/4/2
f 84/4/2 83/4/2 85/4/2
f 86/4/2 87/4/2 88/4/2
f 88/4/2 87/4/2 89/4/2
f 90/4/2 91/4/2 93/4/2
f 91/7/2 92/7/2 94/7/2
f 93/4/2 91/4/2 94/4/2
f 94/7/2 92/7/2 95/7/2
f 95/7/2 92/7/2 96/7/2
f 97/4/2 98/4/2 99/4/2
f 99/4/2 98/4/2 100/4/2
f 101/5/2 102/5/2 105/5/2
f 105/5/2 102/5/2 106/5/2
f 103/5/2 104/5/2 107/5/2
f 107/5/2 104/5/2 108/5/2
f 109/5/2 110/5/2 111/5/2
f 111/5/2 110/5/2 112/5/2
f 113/5/2 114/5/2 117/5/2
f 117/5/2 114/5/2 118/5/2
f 115/5/2 116/5/2 119/5/2
f 119/5/2 116/5/2 120/5/2
f 121/5/2 122/5/2 124/5/2
f 124/5/2 122/5/2 125/5/2
f 125/5/2 122/5/2 126/5/2
f 126/5/2 122/5/2 127/5/2
f 123/5/2 124/5/2 129/5/2
f 124/5/2 125/5/2 129/5/2
f 129/5/2 125/5/2 130/5/2
f 127/5/2 128/5/2 131/5/2
f 126/5/2 127/5/2 131/5/2
f 131/5/2 128/5/2 132/5/2
f 132/5/2 128/5/2 133/5/2
f 133/5/2 128/5/2 134/5/2
f 134/5/2 128/5/2 135/5/2
f 135/5/2 128/5/2 136/5/2
f 123/5/2 129/5/2 137/5/2
f 137/5/2 138/5/2 139/5/2
f 136/5/2 128/5/2 140/5/2
f 140/5/2 128/5/2 141/5/2
f 141/5/2 128/5/2 142/5/2
f 137/5/2 139/5/2 143/5/2
f 123/5/2 137/5/2 143/5/2
f 140/5/2 141/5/2 143/5/2
f 139/5/2 140/5/2 143/5/2
f 143/5/2 141/5/2 144/5/2
f 144/5/2 141/5/2 145/5/2
f 145/5/2 141/5/2 146/5/2
f 144/5/2 145/5/2 147/5/2
f 147/5/2 145/5/2 148/5/2
f 149/4/2 150/4/2 152/4/2
f 152/4/2 150/4/2 153/4/2
f 151/4/2 152/4/2 155/4/2
f 153/4/2 154/4/2 155/4/2
f 152/4/2 153/4/2 155/4/2
f 155/4/2 156/4/2 157/4/2
f 151/4/2 155/4/2 159/4/2
f 157/4/2 158/4/2 159/4/2
f 155/4/2 157/4/2 159/4/2
f 159/4/2 158/4/2 160/4/2
f 160/4/2 158/4/2 161/4/2
f 161/4/2 158/4/2 162/4/2
f 166/5/3 164/5/3 163/5/3
f 167/5/3 164/5/3 166/5/3
f 169/5/3 166/5/3 165/5/3
f 169/5/3 168/5/3 167/5/3
f 169/5/3 167/5/3 166/5/3
f 170/5/3 168/5/3 169/5/3
f 171/5/3 169/5/3 165/5/3
f 172/5/3 169/5/3 171/5/3
f 173/6/3 170/6/3 169/6/3
f 173/5/3 169/5/3 172/5/3
f 174/5/3 168/5/3 170/5/3
f 174/6/3 170/6/3 173/6/3
f 175/6/3 172/6/3 171/6/3
f 175/5/3 171/5/3 165/5/3
f 176/5/3 173/5/3 172/5/3
f 176/6/3 172/6/3 175/6/3
f 176/5/3 174/5/3 173/5/3
f 177/5/3 174/5/3 176/5/3
f 178/5/3 168/5/3 174/5/3
f 178/5/3 174/5/3 177/5/3
f 179/5/3 177/5/3 176/5/3
f 179/5/3 176/5/3 175/5/3
f 179/6/3 178/6/3 177/6/3
f 180/5/3 168/5/3 178/5/3
f 180/6/3 178/6/3 179/6/3
f 181/5/3 175/5/3 165/5/3
f 181/5/3 179/5/3 175/5/3
f 181/5/3 180/5/3 179/5/3
f 182/5/3 180/5/3 181/5/3
f 183/5/3 168/5/3 180/5/3
f 183/5/3 180/5/3 182/5/3
f 184/5/3 168/5/3 183/5/3
f 185/5/3 183/5/3 182/5/3
f 186/5/3 183/5/3 185/5/3
f 191/5/3 188/5/3 187/5/3
f 192/5/3 188/5/3 191/5/3
f 193/5/3 190/5/3 189/5/3
f 194/5/3 190/5/3 193/5/3
f 197/4/3 196/4/3 195/4/3
f 198/4/3 196/4/3 197/4/3
f 203/5/3 200/5/3 199/5/3
f 204/5/3 200/5/3 203/5/3
f 205/5/3 202/5/3 201/5/3
f 206/5/3 202/5/3 205/5/3
f 209/4/3 208/4/3 207/4/3
f 210/4/3 208/4/3 209/4/3
f 213/4/3 212/4/3 211/4/3
f 214/4/3 212/4/3 213/4/3
f 217/4/3 216/4/3 215/4/3
f 218/4/3 216/4/3 217/4/3
f 221/4/3 220/4/3 219/4/3
f 222/4/3 220/4/3 221/4/3
f 227/4/3 224/4/3 223/4/3
f 228/4/3 224/4/3 227/4/3
f 229/4/3 226/4/3 225/4/3
f 230/4/3 226/4/3 229/4/3
f 235/4/3 232/4/3 231/4/3
f 236/4/3 232/4/3 235/4/3
f 237/4/3 234/4/3 233/4/3
f 238/4/3 234/4/3 237/4/3
f 241/7/3 240/7/3 239/7/3
f 242/7/3 240/7/3 241/7/3
f 245/4/3 244/4/3 243/4/3
f 246/4/3 244/4/3 245/4/3
f 249/4/3 248/4/3 247/4/3
f 250/4/3 248/4/3 249/4/3
f 251/4/4 252/4/4 253/4/4
f 253/4/4 252/4/4 254/4/4
f 255/4/4 256/4/4 257/4/4
f 257/4/4 256/4/4 258/4/4
f 259/4/4 260/4/4 261/4/4
f 261/4/4 260/4/4 262/4/4
f 263/4/4 264/4/4 265/4/4
f 265/4/4 264/4/4 266/4/4
f 267/4/4 268/4/4 269/4/4
f 269/4/4 268/4/4 270/4/4
f 271/7/4 272/7/4 273/7/4
f 273/7/4 272/7/4 274/7/4
f 275/4/4 276/4/4 277/4/4
f 277/4/4 276/4/4 278/4/4
f 279/4/4 280/4/4 281/4/4
f 281/4/4 280/4/4 282/4/4
f 283/4/4 284/4/4 285/4/4
f 285/4/4 284/4/4 286/4/4
f 287/4/4 288/4/4 289/4/4
f 289/4/4 288/4/4 290/4/4
f 291/4/4 292/4/4 293/4/4
f 293/4/4 292/4/4 294/4/4
f 295/5/4 296/5/4 297/5/4
f 297/5/4 296/5/4 298/5/4
f 299/5/4 300/5/4 301/5/4
f 301/5/4 300/5/4 302/5/4
f 303/5/4 304/5/4 305/5/4
f 305/5/4 304/5/4 306/5/4
f 306/5/4 304/5/4 307/5/4
f 307/5/4 308/5/4 310/5/4
f 306/5/4 307/5/4 310/5/4
f 310/5/4 308/5/4 311/5/4
f 311/5/4 308/5/4 312/5/4
f 309/5/4 310/5/4 313/5/4
f 310/5/4 311/5/4 313/5/4
f 313/5/4 311/5/4 314/5/4
f 315/5/4 316/5/4 317/5/4
f 317/5/4 316/5/4 318/5/4
f 319/5/4 320/5/4 321/5/4
f 321/5/4 320/5/4 322/5/4
f 323/5/4 324/5/4 326/5/4
f 326/5/4 324/5/4 327/5/4
f 325/5/4 326/5/4 329/5/4
f 327/5/4 328/5/4 329/5/4
f 326/5/4 327/5/4 329/5/4
f 329/5/4 328/5/4 330/5/4
f 330/5/4 328/5/4 331/5/4
f 331/5/4 328/5/4 332/5/4
f 330/5/4 331/5/4 333/5/4
f 333/5/4 331/5/4 334/5/4
f 339/4/5 336/4/5 335/4/5
f 340/4/5 336/4/5 339/4/5
f 341/4/5 338/4/5 337/4/5
f 342/4/5 338/4/5 341/4/5
f 346/5/5 344/5/5 343/5/5
f 347/5/5 344/5/5 346/5/5
f 349/5/5 346/5/5 345/5/5
f 349/5/5 348/5/5 347/5/5
f 349/5/5 347/5/5 346/5/5
f 350/5/5 348/5/5 349/5/5
f 351/5/5 348/5/5 350/5/5
f 352/5/5 348/5/5 351/5/5
f 353/5/5 349/5/5 345/5/5
f 354/5/5 351/5/5 350/5/5
f 355/5/5 351/5/5 354/5/5
f 356/5/5 348/5/5 352/5/5
f 357/5/5 355/5/5 354/5/5
f 357/5/5 356/5/5 355/5/5
f 357/5/5 353/5/5 345/5/5
f 357/5/5 354/5/5 353/5/5
f 358/5/5 356/5/5 357/5/5
f 359/5/5 348/5/5 356/5/5
f 359/5/5 356/5/5 358/5/5
f 360/5/5 348/5/5 359/5/5
f 361/5/5 359/5/5 358/5/5
f 362/5/5 359/5/5 361/5/5
f 367/5/5 364/5/5 363/5/5
f 368/5/5 364/5/5 367/5/5
f 369/5/5 366/5/5 365/5/5
f 370/5/5 366/5/5 369/5/5
f 375/4/5 372/4/5 371/4/5
f 376/4/5 372/4/5 375/4/5
f 377/4/5 374/4/5 373/4/5
f 378/4/5 374/4/5 377/4/5
f 383/5/5 380/5/5 379/5/5
f 384/5/5 380/5/5 383/5/5
f 385/5/5 382/5/5 381/5/5
f 386/5/5 382/5/5 385/5/5
f 391/4/5 388/4/5 387/4/5
f 392/4/5 388/4/5 391/4/5
f 393/4/5 390/4/5 389/4/5
f 394/4/5 390/4/5 393/4/5
f 399/4/5 396/4/5 395/4/5
f 400/4/5 396/4/5 399/4/5
f 401/4/5 398/4/5 397/4/5
f 402/4/5 398/4/5 401/4/5
f 407/4/5 404/4/5 403/4/5
f 408/4/5 404/4/5 407/4/5
f 409/4/5 406/4/5 405/4/5
f 410/4/5 406/4/5 409/4/5
f 415/4/5 412/4/5 411/4/5
f 416/4/5 412/4/5 415/4/5
f 417/4/5 414/4/5 413/4/5
f 418/4/5 414/4/5 417/4/5
f 419/4/6 420/4/6 423/4/6
f 423/4/6 420/4/6 424/4/6
f 421/4/6 422/4/6 425/4/6
f 425/4/6 422/4/6 426/4/6
f 427/4/6 428/4/6 431/4/6
f 431/4/6 428/4/6 432/4/6
f 429/4/6 430/4/6 433/4/6
f 433/4/6 430/4/6 434/4/6
f 435/5/6 436/5/6 439/5/6
f 439/5/6 436/5/6 440/5/6
f 437/5/6 438/5/6 441/5/6
f 441/5/6 438/5/6 442/5/6
f 443/5/6 444/5/6 445/5/6
f 445/5/6 444/5/6 446/5/6
f 447/5/6 448/5/6 451/5/6
f 451/5/6 448/5/6 452/5/6
f 449/5/6 450/5/6 453/5/6
f 453/5/6 450/5/6 454/5/6
f 455/5/6 456/5/6 459/5/6
f 459/5/6 456/5/6 460/5/6
f 457/5/6 458/5/6 461/5/6
f 461/5/6 458/5/6 462/5/6
f 463/5/6 464/5/6 466/5/6
f 466/5/6 464/5/6 467/5/6
f 467/5/6 464/5/6 468/5/6
f 468/5/6 464/5/6 469/5/6
f 465/5/6 466/5/6 471/5/6
f 466/5/6 467/5/6 471/5/6
f 471/5/6 467/5/6 472/5/6
f 469/5/6 470/5/6 473/5/6
f 468/5/6 469/5/6 473/5/6
f 473/5/6 470/5/6 474/5/6
f 465/5/6 471/5/6 475/5/6
f 474/5/6 470/5/6 476/5/6
f 465/5/6 475/5/6 477/5/6
f 476/5/6 470/5/6 478/5/6
f 465/5/6 477/5/6 479/5/6
f 477/5/6 478/5/6 479/5/6
f 479/5/6 478/5/6 480/5/6
f 478/5/6 470/5/6 481/5/6
f 480/5/6 478/5/6 481/5/6
f 481/5/6 470/5/6 482/5/6
f 480/5/6 481/5/6 483/5/6
f 483/5/6 481/5/6 484/5/6
f 485/4/6 486/4/6 488/4/6
f 488/4/6 486/4/6 489/4/6
f 487/4/6 488/4/6 491/4/6
f 489/4/6 490/4/6 491/4/6
f 488/4/6 489/4/6 491/4/6
f 491/4/6 490/4/6 492/4/6
f 493/7/6 494/7/6 495/7/6
f 495/7/6 494/7/6 496/7/6
