# MagicaVoxel @ Ephtracy

# group
o 

# material
mtllib angel_buffer.mtl
usemtl palette

# normals
vn -1 0 0
vn 1 0 0
vn 0 0 1
vn 0 0 -1
vn 0 -1 0
vn 0 1 0

# texcoords
vt 0.517578 0.5
vt 0.556641 0.5
vt 0.958984 0.5
vt 0.970703 0.5
vt 0.974609 0.5
vt 0.978516 0.5
vt 0.982422 0.5

# verts
v -1 0.4 0.6
v -1 0.4 0
v -1 0.5 0.7
v -1 0.5 0.6
v -1 0.5 0
v -1 0.5 -0.1
v -1 0.6 -0.1
v -1 0.6 -0.2
v -1 0.7 -0.2
v -1 0.7 -0.3
v -1 0.9 0.7
v -1 0.9 0.6
v -1 1 0.6
v -1 1 -0.3
v -0.9 0.2 0.8
v -0.9 0.2 -0.8
v -0.9 0.4 1
v -0.9 0.4 0.8
v -0.9 0.4 0.6
v -0.9 0.4 0
v -0.9 0.4 -0.8
v -0.9 0.4 -1
v -0.9 0.5 0.7
v -0.9 0.5 0.6
v -0.9 0.5 0
v -0.9 0.5 -0.1
v -0.9 0.6 -0.1
v -0.9 0.6 -0.2
v -0.9 0.7 -0.2
v -0.9 0.7 -0.3
v -0.9 0.9 0.7
v -0.9 0.9 0.6
v -0.9 1 0.6
v -0.9 1 -0.3
v -0.9 1 -0.7
v -0.9 1 -1
v -0.9 1.8 1
v -0.9 1.8 0.8
v -0.9 1.8 -0.5
v -0.9 1.8 -0.7
v -0.9 2 0.8
v -0.9 2 -0.5
v -0.7 0.2 1
v -0.7 0.2 0.8
v -0.7 0.2 -0.8
v -0.7 0.2 -1
v -0.7 0.4 1
v -0.7 0.4 0.8
v -0.7 0.4 -0.8
v -0.7 0.4 -1
v -0.7 1 -0.7
v -0.7 1 -1
v -0.7 1.2 -0.7
v -0.7 1.2 -1
v -0.7 1.8 1
v -0.7 1.8 0.8
v -0.7 1.8 -0.5
v -0.7 1.8 -0.7
v -0.7 2 1
v -0.7 2 0.8
v -0.7 2 -0.5
v -0.7 2 -0.7
v -0.6 0 0.4
v -0.6 0 0
v -0.6 0.2 0.4
v -0.6 0.2 0
v -0.3 2 0.4
v -0.3 2 0.1
v -0.3 2 -0.2
v -0.3 2.2 0.4
v -0.3 2.2 0.1
v -0.3 2.2 -0.2
v -0.2 2.2 0.3
v -0.2 2.2 0.1
v -0.2 2.2 -0.1
v -0.2 2.4 0.3
v -0.2 2.4 0.1
v -0.2 2.4 -0.1
v -0.1 2.4 0.2
v -0.1 2.4 0.1
v -0.1 2.4 0
v -0.1 2.6 0.2
v -0.1 2.6 0.1
v -0.1 2.6 0
v 0.2 0 0.4
v 0.2 0 0
v 0.2 0.2 0.4
v 0.2 0.2 0
v -0.2 0 0.4
v -0.2 0 0
v -0.2 0.2 0.4
v -0.2 0.2 0
v 0.1 2.4 0.2
v 0.1 2.4 0.1
v 0.1 2.4 0
v 0.1 2.6 0.2
v 0.1 2.6 0.1
v 0.1 2.6 0
v 0.2 2.2 0.3
v 0.2 2.2 0.1
v 0.2 2.2 -0.1
v 0.2 2.4 0.3
v 0.2 2.4 0.1
v 0.2 2.4 -0.1
v 0.3 2 0.4
v 0.3 2 0.1
v 0.3 2 -0.2
v 0.3 2.2 0.4
v 0.3 2.2 0.1
v 0.3 2.2 -0.2
v 0.6 0 0.4
v 0.6 0 0
v 0.6 0.2 0.4
v 0.6 0.2 0
v 0.7 0.2 1
v 0.7 0.2 0.8
v 0.7 0.2 -0.8
v 0.7 0.2 -1
v 0.7 0.4 1
v 0.7 0.4 0.8
v 0.7 0.4 -0.8
v 0.7 0.4 -1
v 0.7 1 -0.7
v 0.7 1 -1
v 0.7 1.2 -0.7
v 0.7 1.2 -1
v 0.7 1.8 1
v 0.7 1.8 0.8
v 0.7 1.8 -0.5
v 0.7 1.8 -0.7
v 0.7 2 1
v 0.7 2 0.8
v 0.7 2 -0.5
v 0.7 2 -0.7
v 0.9 0.2 0.8
v 0.9 0.2 -0.8
v 0.9 0.4 1
v 0.9 0.4 0.8
v 0.9 0.4 0.6
v 0.9 0.4 0
v 0.9 0.4 -0.8
v 0.9 0.4 -1
v 0.9 0.5 0.7
v 0.9 0.5 0.6
v 0.9 0.5 0
v 0.9 0.5 -0.1
v 0.9 0.6 -0.1
v 0.9 0.6 -0.2
v 0.9 0.7 -0.2
v 0.9 0.7 -0.3
v 0.9 0.9 0.7
v 0.9 0.9 0.6
v 0.9 1 0.6
v 0.9 1 -0.3
v 0.9 1 -0.7
v 0.9 1 -1
v 0.9 1.8 1
v 0.9 1.8 0.8
v 0.9 1.8 -0.5
v 0.9 1.8 -0.7
v 0.9 2 0.8
v 0.9 2 -0.5
v 1 0.4 0.6
v 1 0.4 0
v 1 0.5 0.7
v 1 0.5 0.6
v 1 0.5 0
v 1 0.5 -0.1
v 1 0.6 -0.1
v 1 0.6 -0.2
v 1 0.7 -0.2
v 1 0.7 -0.3
v 1 0.9 0.7
v 1 0.9 0.6
v 1 1 0.6
v 1 1 -0.3
v -0.9 0.4 1
v -0.9 1.8 1
v -0.7 0.2 1
v -0.7 0.4 1
v -0.7 1.8 1
v -0.7 2 1
v -0.5 1 1
v -0.5 1.4 1
v -0.2 0.7 1
v -0.2 0.8 1
v -0.2 1 1
v -0.2 1.4 1
v 0.2 0.7 1
v 0.2 0.8 1
v 0.2 1 1
v 0.2 1.4 1
v 0.5 1 1
v 0.5 1.4 1
v 0.7 0.2 1
v 0.7 0.4 1
v 0.7 1.8 1
v 0.7 2 1
v 0.9 0.4 1
v 0.9 1.8 1
v -0.9 0.2 0.8
v -0.9 0.4 0.8
v -0.9 1.8 0.8
v -0.9 2 0.8
v -0.7 0.2 0.8
v -0.7 0.4 0.8
v -0.7 1.8 0.8
v -0.7 2 0.8
v 0.7 0.2 0.8
v 0.7 0.4 0.8
v 0.7 1.8 0.8
v 0.7 2 0.8
v 0.9 0.2 0.8
v 0.9 0.4 0.8
v 0.9 1.8 0.8
v 0.9 2 0.8
v -1 0.5 0.7
v -1 0.9 0.7
v -0.9 0.5 0.7
v -0.9 0.9 0.7
v 0.9 0.5 0.7
v 0.9 0.9 0.7
v 1 0.5 0.7
v 1 0.9 0.7
v -1 0.4 0.6
v -1 0.5 0.6
v -1 0.9 0.6
v -1 1 0.6
v -0.9 0.4 0.6
v -0.9 0.5 0.6
v -0.9 0.9 0.6
v -0.9 1 0.6
v 0.9 0.4 0.6
v 0.9 0.5 0.6
v 0.9 0.9 0.6
v 0.9 1 0.6
v 1 0.4 0.6
v 1 0.5 0.6
v 1 0.9 0.6
v 1 1 0.6
v -0.6 0 0.4
v -0.6 0.2 0.4
v -0.3 2 0.4
v -0.3 2.2 0.4
v -0.2 0 0.4
v -0.2 0.2 0.4
v 0 2 0.4
v 0 2.2 0.4
v 0.2 0 0.4
v 0.2 0.2 0.4
v 0.3 2 0.4
v 0.3 2.2 0.4
v 0.6 0 0.4
v 0.6 0.2 0.4
v -0.2 2.2 0.3
v -0.2 2.4 0.3
v 0 2.2 0.3
v 0 2.4 0.3
v 0.2 2.2 0.3
v 0.2 2.4 0.3
v -0.1 2.4 0.2
v -0.1 2.6 0.2
v 0 2.4 0.2
v 0 2.6 0.2
v 0.1 2.4 0.2
v 0.1 2.6 0.2
v -1 0.4 0
v -1 0.5 0
v -0.9 0.4 0
v -0.9 0.5 0
v -0.6 0 0
v -0.6 0.2 0
v -0.2 0 0
v -0.2 0.2 0
v -0.1 2.4 0
v -0.1 2.6 0
v 0 2.4 0
v 0 2.6 0
v 0.1 2.4 0
v 0.1 2.6 0
v 0.2 0 0
v 0.2 0.2 0
v 0.6 0 0
v 0.6 0.2 0
v 0.9 0.4 0
v 0.9 0.5 0
v 1 0.4 0
v 1 0.5 0
v -1 0.5 -0.1
v -1 0.6 -0.1
v -0.9 0.5 -0.1
v -0.9 0.6 -0.1
v -0.2 2.2 -0.1
v -0.2 2.4 -0.1
v 0 2.2 -0.1
v 0 2.4 -0.1
v 0.2 2.2 -0.1
v 0.2 2.4 -0.1
v 0.9 0.5 -0.1
v 0.9 0.6 -0.1
v 1 0.5 -0.1
v 1 0.6 -0.1
v -1 0.6 -0.2
v -1 0.7 -0.2
v -0.9 0.6 -0.2
v -0.9 0.7 -0.2
v -0.3 2 -0.2
v -0.3 2.2 -0.2
v 0 2 -0.2
v 0 2.2 -0.2
v 0.3 2 -0.2
v 0.3 2.2 -0.2
v 0.9 0.6 -0.2
v 0.9 0.7 -0.2
v 1 0.6 -0.2
v 1 0.7 -0.2
v -1 0.7 -0.3
v -1 1 -0.3
v -0.9 0.7 -0.3
v -0.9 1 -0.3
v 0.9 0.7 -0.3
v 0.9 1 -0.3
v 1 0.7 -0.3
v 1 1 -0.3
v -0.9 1.8 -0.5
v -0.9 2 -0.5
v -0.7 1.8 -0.5
v -0.7 2 -0.5
v 0.7 1.8 -0.5
v 0.7 2 -0.5
v 0.9 1.8 -0.5
v 0.9 2 -0.5
v -0.9 1 -0.7
v -0.9 1.8 -0.7
v -0.7 1 -0.7
v -0.7 1.2 -0.7
v -0.7 1.8 -0.7
v -0.7 2 -0.7
v 0.7 1 -0.7
v 0.7 1.2 -0.7
v 0.7 1.8 -0.7
v 0.7 2 -0.7
v 0.9 1 -0.7
v 0.9 1.8 -0.7
v -0.9 0.2 -0.8
v -0.9 0.4 -0.8
v -0.7 0.2 -0.8
v -0.7 0.4 -0.8
v 0.7 0.2 -0.8
v 0.7 0.4 -0.8
v 0.9 0.2 -0.8
v 0.9 0.4 -0.8
v -0.9 0.4 -1
v -0.9 1 -1
v -0.7 0.2 -1
v -0.7 0.4 -1
v -0.7 1 -1
v -0.7 1.2 -1
v 0.7 0.2 -1
v 0.7 0.4 -1
v 0.7 1 -1
v 0.7 1.2 -1
v 0.9 0.4 -1
v 0.9 1 -1
v -0.6 0 0.4
v -0.2 0 0.4
v 0.2 0 0.4
v 0.6 0 0.4
v -0.6 0 0
v -0.2 0 0
v 0.2 0 0
v 0.6 0 0
v -0.7 0.2 1
v 0.7 0.2 1
v -0.9 0.2 0.8
v -0.7 0.2 0.8
v 0.7 0.2 0.8
v 0.9 0.2 0.8
v -0.6 0.2 0.4
v -0.2 0.2 0.4
v 0.2 0.2 0.4
v 0.6 0.2 0.4
v -0.6 0.2 0
v -0.2 0.2 0
v 0.2 0.2 0
v 0.6 0.2 0
v -0.9 0.2 -0.8
v -0.7 0.2 -0.8
v 0.7 0.2 -0.8
v 0.9 0.2 -0.8
v -0.7 0.2 -1
v 0.7 0.2 -1
v -0.9 0.4 1
v -0.7 0.4 1
v 0.7 0.4 1
v 0.9 0.4 1
v -0.9 0.4 0.8
v -0.7 0.4 0.8
v 0.7 0.4 0.8
v 0.9 0.4 0.8
v -1 0.4 0.6
v -0.9 0.4 0.6
v 0.9 0.4 0.6
v 1 0.4 0.6
v -1 0.4 0
v -0.9 0.4 0
v 0.9 0.4 0
v 1 0.4 0
v -0.9 0.4 -0.8
v -0.7 0.4 -0.8
v 0.7 0.4 -0.8
v 0.9 0.4 -0.8
v -0.9 0.4 -1
v -0.7 0.4 -1
v 0.7 0.4 -1
v 0.9 0.4 -1
v -1 0.5 0.7
v -0.9 0.5 0.7
v 0.9 0.5 0.7
v 1 0.5 0.7
v -1 0.5 0.6
v -0.9 0.5 0.6
v 0.9 0.5 0.6
v 1 0.5 0.6
v -1 0.5 0
v -0.9 0.5 0
v 0.9 0.5 0
v 1 0.5 0
v -1 0.5 -0.1
v -0.9 0.5 -0.1
v 0.9 0.5 -0.1
v 1 0.5 -0.1
v -1 0.6 -0.1
v -0.9 0.6 -0.1
v 0.9 0.6 -0.1
v 1 0.6 -0.1
v -1 0.6 -0.2
v -0.9 0.6 -0.2
v 0.9 0.6 -0.2
v 1 0.6 -0.2
v -1 0.7 -0.2
v -0.9 0.7 -0.2
v 0.9 0.7 -0.2
v 1 0.7 -0.2
v -1 0.7 -0.3
v -0.9 0.7 -0.3
v 0.9 0.7 -0.3
v 1 0.7 -0.3
v -1 0.9 0.7
v -0.9 0.9 0.7
v 0.9 0.9 0.7
v 1 0.9 0.7
v -1 0.9 0.6
v -0.9 0.9 0.6
v 0.9 0.9 0.6
v 1 0.9 0.6
v -1 1 0.6
v -0.9 1 0.6
v 0.9 1 0.6
v 1 1 0.6
v -1 1 -0.3
v -0.9 1 -0.3
v 0.9 1 -0.3
v 1 1 -0.3
v -0.9 1 -0.7
v -0.7 1 -0.7
v 0.7 1 -0.7
v 0.9 1 -0.7
v -0.9 1 -1
v -0.7 1 -1
v 0.7 1 -1
v 0.9 1 -1
v -0.7 1.2 -0.7
v 0.7 1.2 -0.7
v -0.7 1.2 -1
v 0.7 1.2 -1
v -0.9 1.8 1
v -0.7 1.8 1
v 0.7 1.8 1
v 0.9 1.8 1
v -0.9 1.8 0.8
v -0.7 1.8 0.8
v 0.7 1.8 0.8
v 0.9 1.8 0.8
v -0.9 1.8 -0.5
v -0.7 1.8 -0.5
v 0.7 1.8 -0.5
v 0.9 1.8 -0.5
v -0.9 1.8 -0.7
v -0.7 1.8 -0.7
v 0.7 1.8 -0.7
v 0.9 1.8 -0.7
v -0.7 2 1
v 0.7 2 1
v -0.9 2 0.8
v -0.7 2 0.8
v 0.7 2 0.8
v 0.9 2 0.8
v -0.3 2 0.4
v 0 2 0.4
v 0.3 2 0.4
v -0.3 2 0.1
v 0.3 2 0.1
v -0.3 2 -0.2
v 0 2 -0.2
v 0.3 2 -0.2
v -0.9 2 -0.5
v -0.7 2 -0.5
v 0.7 2 -0.5
v 0.9 2 -0.5
v -0.7 2 -0.7
v 0.7 2 -0.7
v -0.3 2.2 0.4
v 0 2.2 0.4
v 0.3 2.2 0.4
v -0.2 2.2 0.3
v 0 2.2 0.3
v 0.2 2.2 0.3
v -0.3 2.2 0.1
v -0.2 2.2 0.1
v 0.2 2.2 0.1
v 0.3 2.2 0.1
v -0.2 2.2 -0.1
v 0 2.2 -0.1
v 0.2 2.2 -0.1
v -0.3 2.2 -0.2
v 0 2.2 -0.2
v 0.3 2.2 -0.2
v -0.2 2.4 0.3
v 0 2.4 0.3
v 0.2 2.4 0.3
v -0.1 2.4 0.2
v 0 2.4 0.2
v 0.1 2.4 0.2
v -0.2 2.4 0.1
v -0.1 2.4 0.1
v 0.1 2.4 0.1
v 0.2 2.4 0.1
v -0.1 2.4 0
v 0 2.4 0
v 0.1 2.4 0
v -0.2 2.4 -0.1
v 0 2.4 -0.1
v 0.2 2.4 -0.1
v -0.1 2.6 0.2
v 0 2.6 0.2
v 0.1 2.6 0.2
v -0.1 2.6 0.1
v 0 2.6 0.1
v 0.1 2.6 0.1
v -0.1 2.6 0
v 0 2.6 0
v 0.1 2.6 0

# faces
f 4/4/1 2/4/1 1/4/1
f 5/4/1 2/4/1 4/4/1
f 7/4/1 4/4/1 3/4/1
f 7/4/1 6/4/1 5/4/1
f 7/4/1 5/4/1 4/4/1
f 9/4/1 8/4/1 7/4/1
f 11/4/1 7/4/1 3/4/1
f 11/4/1 10/4/1 9/4/1
f 11/4/1 9/4/1 7/4/1
f 12/4/1 10/4/1 11/4/1
f 13/4/1 10/4/1 12/4/1
f 14/4/1 10/4/1 13/4/1
f 18/5/1 16/5/1 15/5/1
f 19/5/1 16/5/1 18/5/1
f 20/5/1 16/5/1 19/5/1
f 21/5/1 16/5/1 20/5/1
f 23/5/1 18/5/1 17/5/1
f 23/5/1 19/5/1 18/5/1
f 24/5/1 19/5/1 23/5/1
f 25/5/1 22/5/1 21/5/1
f 25/5/1 21/5/1 20/5/1
f 26/5/1 22/5/1 25/5/1
f 27/5/1 22/5/1 26/5/1
f 28/5/1 22/5/1 27/5/1
f 29/5/1 22/5/1 28/5/1
f 30/5/1 22/5/1 29/5/1
f 31/5/1 23/5/1 17/5/1
f 33/5/1 32/5/1 31/5/1
f 34/5/1 22/5/1 30/5/1
f 35/5/1 22/5/1 34/5/1
f 36/5/1 22/5/1 35/5/1
f 37/5/1 33/5/1 31/5/1
f 37/5/1 31/5/1 17/5/1
f 37/5/1 35/5/1 34/5/1
f 37/5/1 34/5/1 33/5/1
f 38/5/1 35/5/1 37/5/1
f 39/5/1 35/5/1 38/5/1
f 40/5/1 35/5/1 39/5/1
f 41/5/1 39/5/1 38/5/1
f 42/5/1 39/5/1 41/5/1
f 47/5/1 44/5/1 43/5/1
f 48/5/1 44/5/1 47/5/1
f 49/5/1 46/5/1 45/5/1
f 50/5/1 46/5/1 49/5/1
f 53/5/1 52/5/1 51/5/1
f 54/5/1 52/5/1 53/5/1
f 59/5/1 56/5/1 55/5/1
f 60/5/1 56/5/1 59/5/1
f 61/5/1 58/5/1 57/5/1
f 62/5/1 58/5/1 61/5/1
f 65/4/1 64/4/1 63/4/1
f 66/4/1 64/4/1 65/4/1
f 70/7/1 68/7/1 67/7/1
f 71/4/1 69/4/1 68/4/1
f 71/7/1 68/7/1 70/7/1
f 72/4/1 69/4/1 71/4/1
f 76/4/1 74/4/1 73/4/1
f 77/7/1 75/7/1 74/7/1
f 77/4/1 74/4/1 76/4/1
f 78/7/1 75/7/1 77/7/1
f 82/7/1 80/7/1 79/7/1
f 83/4/1 81/4/1 80/4/1
f 83/7/1 80/7/1 82/7/1
f 84/4/1 81/4/1 83/4/1
f 87/4/1 86/4/1 85/4/1
f 88/4/1 86/4/1 87/4/1
f 89/4/2 90/4/2 91/4/2
f 91/4/2 90/4/2 92/4/2
f 93/4/2 94/4/2 96/4/2
f 94/7/2 95/7/2 97/7/2
f 96/4/2 94/4/2 97/4/2
f 97/7/2 95/7/2 98/7/2
f 99/7/2 100/7/2 102/7/2
f 100/4/2 101/4/2 103/4/2
f 102/7/2 100/7/2 103/7/2
f 103/4/2 101/4/2 104/4/2
f 105/4/2 106/4/2 108/4/2
f 106/7/2 107/7/2 109/7/2
f 108/4/2 106/4/2 109/4/2
f 109/7/2 107/7/2 110/7/2
f 111/4/2 112/4/2 113/4/2
f 113/4/2 112/4/2 114/4/2
f 115/5/2 116/5/2 119/5/2
f 119/5/2 116/5/2 120/5/2
f 117/5/2 118/5/2 121/5/2
f 121/5/2 118/5/2 122/5/2
f 123/5/2 124/5/2 125/5/2
f 125/5/2 124/5/2 126/5/2
f 127/5/2 128/5/2 131/5/2
f 131/5/2 128/5/2 132/5/2
f 129/5/2 130/5/2 133/5/2
f 133/5/2 130/5/2 134/5/2
f 135/5/2 136/5/2 138/5/2
f 138/5/2 136/5/2 139/5/2
f 139/5/2 136/5/2 140/5/2
f 140/5/2 136/5/2 141/5/2
f 137/5/2 138/5/2 143/5/2
f 138/5/2 139/5/2 143/5/2
f 143/5/2 139/5/2 144/5/2
f 141/5/2 142/5/2 145/5/2
f 140/5/2 141/5/2 145/5/2
f 145/5/2 142/5/2 146/5/2
f 146/5/2 142/5/2 147/5/2
f 147/5/2 142/5/2 148/5/2
f 148/5/2 142/5/2 149/5/2
f 149/5/2 142/5/2 150/5/2
f 137/5/2 143/5/2 151/5/2
f 151/5/2 152/5/2 153/5/2
f 150/5/2 142/5/2 154/5/2
f 154/5/2 142/5/2 155/5/2
f 155/5/2 142/5/2 156/5/2
f 151/5/2 153/5/2 157/5/2
f 137/5/2 151/5/2 157/5/2
f 154/5/2 155/5/2 157/5/2
f 153/5/2 154/5/2 157/5/2
f 157/5/2 155/5/2 158/5/2
f 158/5/2 155/5/2 159/5/2
f 159/5/2 155/5/2 160/5/2
f 158/5/2 159/5/2 161/5/2
f 161/5/2 159/5/2 162/5/2
f 163/4/2 164/4/2 166/4/2
f 166/4/2 164/4/2 167/4/2
f 165/4/2 166/4/2 169/4/2
f 167/4/2 168/4/2 169/4/2
f 166/4/2 167/4/2 169/4/2
f 169/4/2 170/4/2 171/4/2
f 165/4/2 169/4/2 173/4/2
f 171/4/2 172/4/2 173/4/2
f 169/4/2 171/4/2 173/4/2
f 173/4/2 172/4/2 174/4/2
f 174/4/2 172/4/2 175/4/2
f 175/4/2 172/4/2 176/4/2
f 180/5/3 178/5/3 177/5/3
f 181/5/3 178/5/3 180/5/3
f 183/5/3 180/5/3 179/5/3
f 183/5/3 182/5/3 181/5/3
f 183/5/3 181/5/3 180/5/3
f 184/5/3 182/5/3 183/5/3
f 185/5/3 183/5/3 179/5/3
f 186/5/3 183/5/3 185/5/3
f 187/6/3 184/6/3 183/6/3
f 187/5/3 183/5/3 186/5/3
f 188/5/3 182/5/3 184/5/3
f 188/6/3 184/6/3 187/6/3
f 189/6/3 186/6/3 185/6/3
f 189/5/3 185/5/3 179/5/3
f 190/5/3 187/5/3 186/5/3
f 190/6/3 186/6/3 189/6/3
f 190/5/3 188/5/3 187/5/3
f 191/5/3 188/5/3 190/5/3
f 192/5/3 182/5/3 188/5/3
f 192/5/3 188/5/3 191/5/3
f 193/5/3 191/5/3 190/5/3
f 193/5/3 190/5/3 189/5/3
f 193/6/3 192/6/3 191/6/3
f 194/5/3 182/5/3 192/5/3
f 194/6/3 192/6/3 193/6/3
f 195/5/3 189/5/3 179/5/3
f 195/5/3 193/5/3 189/5/3
f 195/5/3 194/5/3 193/5/3
f 196/5/3 194/5/3 195/5/3
f 197/5/3 182/5/3 194/5/3
f 197/5/3 194/5/3 196/5/3
f 198/5/3 182/5/3 197/5/3
f 199/5/3 197/5/3 196/5/3
f 200/5/3 197/5/3 199/5/3
f 205/5/3 202/5/3 201/5/3
f 206/5/3 202/5/3 205/5/3
f 207/5/3 204/5/3 203/5/3
f 208/5/3 204/5/3 207/5/3
f 213/5/3 210/5/3 209/5/3
f 214/5/3 210/5/3 213/5/3
f 215/5/3 212/5/3 211/5/3
f 216/5/3 212/5/3 215/5/3
f 219/4/3 218/4/3 217/4/3
f 220/4/3 218/4/3 219/4/3
f 223/4/3 222/4/3 221/4/3
f 224/4/3 222/4/3 223/4/3
f 229/4/3 226/4/3 225/4/3
f 230/4/3 226/4/3 229/4/3
f 231/4/3 228/4/3 227/4/3
f 232/4/3 228/4/3 231/4/3
f 237/4/3 234/4/3 233/4/3
f 238/4/3 234/4/3 237/4/3
f 239/4/3 236/4/3 235/4/3
f 240/4/3 236/4/3 239/4/3
f 245/4/3 242/4/3 241/4/3
f 246/4/3 242/4/3 245/4/3
f 247/7/3 244/7/3 243/7/3
f 248/7/3 244/7/3 247/7/3
f 251/4/3 248/4/3 247/4/3
f 252/4/3 248/4/3 251/4/3
f 253/4/3 250/4/3 249/4/3
f 254/4/3 250/4/3 253/4/3
f 257/4/3 256/4/3 255/4/3
f 258/4/3 256/4/3 257/4/3
f 259/7/3 258/7/3 257/7/3
f 260/7/3 258/7/3 259/7/3
f 263/7/3 262/7/3 261/7/3
f 264/7/3 262/7/3 263/7/3
f 265/4/3 264/4/3 263/4/3
f 266/4/3 264/4/3 265/4/3
f 267/4/4 268/4/4 269/4/4
f 269/4/4 268/4/4 270/4/4
f 271/4/4 272/4/4 273/4/4
f 273/4/4 272/4/4 274/4/4
f 275/4/4 276/4/4 277/4/4
f 277/4/4 276/4/4 278/4/4
f 277/7/4 278/7/4 279/7/4
f 279/7/4 278/7/4 280/7/4
f 281/4/4 282/4/4 283/4/4
f 283/4/4 282/4/4 284/4/4
f 285/4/4 286/4/4 287/4/4
f 287/4/4 286/4/4 288/4/4
f 289/4/4 290/4/4 291/4/4
f 291/4/4 290/4/4 292/4/4
f 293/7/4 294/7/4 295/7/4
f 295/7/4 294/7/4 296/7/4
f 295/4/4 296/4/4 297/4/4
f 297/4/4 296/4/4 298/4/4
f 299/4/4 300/4/4 301/4/4
f 301/4/4 300/4/4 302/4/4
f 303/4/4 304/4/4 305/4/4
f 305/4/4 304/4/4 306/4/4
f 307/4/4 308/4/4 309/4/4
f 309/4/4 308/4/4 310/4/4
f 309/7/4 310/7/4 311/7/4
f 311/7/4 310/7/4 312/7/4
f 313/4/4 314/4/4 315/4/4
f 315/4/4 314/4/4 316/4/4
f 317/4/4 318/4/4 319/4/4
f 319/4/4 318/4/4 320/4/4
f 321/4/4 322/4/4 323/4/4
f 323/4/4 322/4/4 324/4/4
f 325/5/4 326/5/4 327/5/4
f 327/5/4 326/5/4 328/5/4
f 329/5/4 330/5/4 331/5/4
f 331/5/4 330/5/4 332/5/4
f 333/5/4 334/5/4 335/5/4
f 335/5/4 334/5/4 336/5/4
f 336/5/4 334/5/4 337/5/4
f 337/5/4 338/5/4 340/5/4
f 336/5/4 337/5/4 340/5/4
f 340/5/4 338/5/4 341/5/4
f 341/5/4 338/5/4 342/5/4
f 339/5/4 340/5/4 343/5/4
f 340/5/4 341/5/4 343/5/4
f 343/5/4 341/5/4 344/5/4
f 345/5/4 346/5/4 347/5/4
f 347/5/4 346/5/4 348/5/4
f 349/5/4 350/5/4 351/5/4
f 351/5/4 350/5/4 352/5/4
f 353/5/4 354/5/4 356/5/4
f 356/5/4 354/5/4 357/5/4
f 355/5/4 356/5/4 359/5/4
f 357/5/4 358/5/4 359/5/4
f 356/5/4 357/5/4 359/5/4
f 359/5/4 358/5/4 360/5/4
f 360/5/4 358/5/4 361/5/4
f 361/5/4 358/5/4 362/5/4
f 360/5/4 361/5/4 363/5/4
f 363/5/4 361/5/4 364/5/4
f 369/4/5 366/4/5 365/4/5
f 370/4/5 366/4/5 369/4/5
f 371/4/5 368/4/5 367/4/5
f 372/4/5 368/4/5 371/4/5
f 376/5/5 374/5/5 373/5/5
f 377/5/5 374/5/5 376/5/5
f 379/5/5 376/5/5 375/5/5
f 379/5/5 378/5/5 377/5/5
f 379/5/5 377/5/5 376/5/5
f 380/5/5 378/5/5 379/5/5
f 381/5/5 378/5/5 380/5/5
f 382/5/5 378/5/5 381/5/5
f 383/5/5 379/5/5 375/5/5
f 384/5/5 381/5/5 380/5/5
f 385/5/5 381/5/5 384/5/5
f 386/5/5 378/5/5 382/5/5
f 387/5/5 385/5/5 384/5/5
f 387/5/5 386/5/5 385/5/5
f 387/5/5 383/5/5 375/5/5
f 387/5/5 384/5/5 383/5/5
f 388/5/5 386/5/5 387/5/5
f 389/5/5 378/5/5 386/5/5
f 389/5/5 386/5/5 388/5/5
f 390/5/5 378/5/5 389/5/5
f 391/5/5 389/5/5 388/5/5
f 392/5/5 389/5/5 391/5/5
f 397/5/5 394/5/5 393/5/5
f 398/5/5 394/5/5 397/5/5
f 399/5/5 396/5/5 395/5/5
f 400/5/5 396/5/5 399/5/5
f 405/4/5 402/4/5 401/4/5
f 406/4/5 402/4/5 405/4/5
f 407/4/5 404/4/5 403/4/5
f 408/4/5 404/4/5 407/4/5
f 413/5/5 410/5/5 409/5/5
f 414/5/5 410/5/5 413/5/5
f 415/5/5 412/5/5 411/5/5
f 416/5/5 412/5/5 415/5/5
f 421/4/5 418/4/5 417/4/5
f 422/4/5 418/4/5 421/4/5
f 423/4/5 420/4/5 419/4/5
f 424/4/5 420/4/5 423/4/5
f 429/4/5 426/4/5 425/4/5
f 430/4/5 426/4/5 429/4/5
f 431/4/5 428/4/5 427/4/5
f 432/4/5 428/4/5 431/4/5
f 437/4/5 434/4/5 433/4/5
f 438/4/5 434/4/5 437/4/5
f 439/4/5 436/4/5 435/4/5
f 440/4/5 436/4/5 439/4/5
f 445/4/5 442/4/5 441/4/5
f 446/4/5 442/4/5 445/4/5
f 447/4/5 444/4/5 443/4/5
f 448/4/5 444/4/5 447/4/5
f 449/4/6 450/4/6 453/4/6
f 453/4/6 450/4/6 454/4/6
f 451/4/6 452/4/6 455/4/6
f 455/4/6 452/4/6 456/4/6
f 457/4/6 458/4/6 461/4/6
f 461/4/6 458/4/6 462/4/6
f 459/4/6 460/4/6 463/4/6
f 463/4/6 460/4/6 464/4/6
f 465/5/6 466/5/6 469/5/6
f 469/5/6 466/5/6 470/5/6
f 467/5/6 468/5/6 471/5/6
f 471/5/6 468/5/6 472/5/6
f 473/5/6 474/5/6 475/5/6
f 475/5/6 474/5/6 476/5/6
f 477/5/6 478/5/6 481/5/6
f 481/5/6 478/5/6 482/5/6
f 479/5/6 480/5/6 483/5/6
f 483/5/6 480/5/6 484/5/6
f 485/5/6 486/5/6 489/5/6
f 489/5/6 486/5/6 490/5/6
f 487/5/6 488/5/6 491/5/6
f 491/5/6 488/5/6 492/5/6
f 493/5/6 494/5/6 496/5/6
f 496/5/6 494/5/6 497/5/6
f 495/5/6 496/5/6 499/5/6
f 497/5/6 498/5/6 499/5/6
f 496/5/6 497/5/6 499/5/6
f 499/5/6 498/5/6 500/5/6
f 500/5/6 498/5/6 501/5/6
f 495/5/6 499/5/6 502/5/6
f 501/5/6 498/5/6 503/5/6
f 495/5/6 502/5/6 504/5/6
f 503/5/6 498/5/6 506/5/6
f 504/5/6 505/5/6 507/5/6
f 505/5/6 506/5/6 507/5/6
f 495/5/6 504/5/6 507/5/6
f 507/5/6 506/5/6 508/5/6
f 506/5/6 498/5/6 509/5/6
f 508/5/6 506/5/6 509/5/6
f 509/5/6 498/5/6 510/5/6
f 508/5/6 509/5/6 511/5/6
f 511/5/6 509/5/6 512/5/6
f 513/7/6 514/7/6 516/7/6
f 514/4/6 515/4/6 517/4/6
f 516/7/6 514/7/6 517/7/6
f 517/4/6 515/4/6 518/4/6
f 513/7/6 516/7/6 519/7/6
f 519/7/6 516/7/6 520/7/6
f 518/4/6 515/4/6 521/4/6
f 521/4/6 515/4/6 522/4/6
f 519/4/6 520/4/6 523/4/6
f 521/7/6 522/7/6 525/7/6
f 523/4/6 524/4/6 526/4/6
f 519/4/6 523/4/6 526/4/6
f 524/7/6 525/7/6 527/7/6
f 526/4/6 524/4/6 527/4/6
f 525/7/6 522/7/6 528/7/6
f 527/7/6 525/7/6 528/7/6
f 529/4/6 530/4/6 532/4/6
f 530/7/6 531/7/6 533/7/6
f 532/4/6 530/4/6 533/4/6
f 533/7/6 531/7/6 534/7/6
f 529/4/6 532/4/6 535/4/6
f 535/4/6 532/4/6 536/4/6
f 534/7/6 531/7/6 537/7/6
f 537/7/6 531/7/6 538/7/6
f 535/7/6 536/7/6 539/7/6
f 537/4/6 538/4/6 541/4/6
f 539/7/6 540/7/6 542/7/6
f 535/7/6 539/7/6 542/7/6
f 540/4/6 541/4/6 543/4/6
f 542/7/6 540/7/6 543/7/6
f 541/4/6 538/4/6 544/4/6
f 543/4/6 541/4/6 544/4/6
f 545/7/6 546/7/6 548/7/6
f 546/4/6 547/4/6 549/4/6
f 548/7/6 546/7/6 549/7/6
f 549/4/6 547/4/6 550/4/6
f 548/4/6 549/4/6 551/4/6
f 549/7/6 550/7/6 552/7/6
f 551/4/6 549/4/6 552/4/6
f 552/7/6 550/7/6 553/7/6
