# MagicaVoxel @ Ephtracy

# group
o 

# material
mtllib angel_bruiser.mtl
usemtl palette

# normals
vn -1 0 0
vn 1 0 0
vn 0 0 1
vn 0 0 -1
vn 0 -1 0
vn 0 1 0

# texcoords
vt 0.517578 0.5
vt 0.556641 0.5
vt 0.958984 0.5
vt 0.970703 0.5
vt 0.974609 0.5
vt 0.978516 0.5
vt 0.982422 0.5

# verts
v -1 0.4 0.6
v -1 0.4 0
v -1 0.5 0.7
v -1 0.5 0.6
v -1 0.5 0
v -1 0.5 -0.1
v -1 0.6 -0.1
v -1 0.6 -0.2
v -1 0.7 -0.2
v -1 0.7 -0.3
v -1 0.9 0.7
v -1 0.9 0.6
v -1 1 0.6
v -1 1 -0.3
v -0.9 0.2 0.8
v -0.9 0.2 -0.8
v -0.9 0.4 1
v -0.9 0.4 0.8
v -0.9 0.4 0.6
v -0.9 0.4 0
v -0.9 0.4 -0.8
v -0.9 0.4 -1
v -0.9 0.5 0.7
v -0.9 0.5 0.6
v -0.9 0.5 0
v -0.9 0.5 -0.1
v -0.9 0.6 -0.1
v -0.9 0.6 -0.2
v -0.9 0.7 -0.2
v -0.9 0.7 -0.3
v -0.9 0.9 0.7
v -0.9 0.9 0.6
v -0.9 1 0.6
v -0.9 1 -0.3
v -0.9 1 -0.7
v -0.9 1 -1
v -0.9 1.8 1
v -0.9 1.8 0.8
v -0.9 1.8 -0.5
v -0.9 1.8 -0.7
v -0.9 2 0.8
v -0.9 2 -0.5
v -0.8 1.8 1.1
v -0.8 1.8 1
v -0.8 1.8 0.8
v -0.8 1.9 1.1
v -0.8 1.9 0.8
v -0.7 0.2 1
v -0.7 0.2 0.8
v -0.7 0.2 -0.8
v -0.7 0.2 -1
v -0.7 0.4 1
v -0.7 0.4 0.8
v -0.7 0.4 -0.8
v -0.7 0.4 -1
v -0.7 1 -0.7
v -0.7 1 -1
v -0.7 1.2 -0.7
v -0.7 1.2 -1
v -0.7 1.8 -0.5
v -0.7 1.8 -0.7
v -0.7 1.9 1
v -0.7 1.9 0.8
v -0.7 2 1
v -0.7 2 0.8
v -0.7 2 -0.5
v -0.7 2 -0.7
v -0.6 0 0.4
v -0.6 0 0
v -0.6 0.2 0.4
v -0.6 0.2 0
v -0.6 1.7 1.1
v -0.6 1.7 1
v -0.6 1.8 1.1
v -0.6 1.8 1
v -0.6 1.9 1.1
v -0.6 1.9 1
v -0.6 2 1.1
v -0.6 2 1
v -0.5 1.6 1.1
v -0.5 1.6 1
v -0.5 1.7 1.1
v -0.5 1.7 1
v -0.5 2 1.1
v -0.5 2 1
v -0.5 2.1 1.1
v -0.5 2.1 1
v 0.1 1.7 1.1
v 0.1 1.7 1
v 0.1 1.8 1.1
v 0.1 1.8 1
v 0.1 1.9 1.1
v 0.1 1.9 1
v 0.1 2 1.1
v 0.1 2 1
v 0.2 0 0.4
v 0.2 0 0
v 0.2 0.2 0.4
v 0.2 0.2 0
v 0.2 1.6 1.1
v 0.2 1.6 1
v 0.2 1.7 1.1
v 0.2 1.7 1
v 0.2 2 1.1
v 0.2 2 1
v 0.2 2.1 1.1
v 0.2 2.1 1
v -0.2 0 0.4
v -0.2 0 0
v -0.2 0.2 0.4
v -0.2 0.2 0
v -0.2 1.6 1.1
v -0.2 1.6 1
v -0.2 1.7 1.1
v -0.2 1.7 1
v -0.2 2 1.1
v -0.2 2 1
v -0.2 2.1 1.1
v -0.2 2.1 1
v -0.1 1.7 1.1
v -0.1 1.7 1
v -0.1 1.8 1.1
v -0.1 1.8 1
v -0.1 1.9 1.1
v -0.1 1.9 1
v -0.1 2 1.1
v -0.1 2 1
v 0.5 1.6 1.1
v 0.5 1.6 1
v 0.5 1.7 1.1
v 0.5 1.7 1
v 0.5 2 1.1
v 0.5 2 1
v 0.5 2.1 1.1
v 0.5 2.1 1
v 0.6 0 0.4
v 0.6 0 0
v 0.6 0.2 0.4
v 0.6 0.2 0
v 0.6 1.7 1.1
v 0.6 1.7 1
v 0.6 1.8 1.1
v 0.6 1.8 1
v 0.6 1.9 1.1
v 0.6 1.9 1
v 0.6 2 1.1
v 0.6 2 1
v 0.7 0.2 1
v 0.7 0.2 0.8
v 0.7 0.2 -0.8
v 0.7 0.2 -1
v 0.7 0.4 1
v 0.7 0.4 0.8
v 0.7 0.4 -0.8
v 0.7 0.4 -1
v 0.7 1 -0.7
v 0.7 1 -1
v 0.7 1.2 -0.7
v 0.7 1.2 -1
v 0.7 1.8 -0.5
v 0.7 1.8 -0.7
v 0.7 1.9 1
v 0.7 1.9 0.8
v 0.7 2 1
v 0.7 2 0.8
v 0.7 2 -0.5
v 0.7 2 -0.7
v 0.8 1.8 1.1
v 0.8 1.8 1
v 0.8 1.8 0.8
v 0.8 1.9 1.1
v 0.8 1.9 0.8
v 0.9 0.2 0.8
v 0.9 0.2 -0.8
v 0.9 0.4 1
v 0.9 0.4 0.8
v 0.9 0.4 0.6
v 0.9 0.4 0
v 0.9 0.4 -0.8
v 0.9 0.4 -1
v 0.9 0.5 0.7
v 0.9 0.5 0.6
v 0.9 0.5 0
v 0.9 0.5 -0.1
v 0.9 0.6 -0.1
v 0.9 0.6 -0.2
v 0.9 0.7 -0.2
v 0.9 0.7 -0.3
v 0.9 0.9 0.7
v 0.9 0.9 0.6
v 0.9 1 0.6
v 0.9 1 -0.3
v 0.9 1 -0.7
v 0.9 1 -1
v 0.9 1.8 1
v 0.9 1.8 0.8
v 0.9 1.8 -0.5
v 0.9 1.8 -0.7
v 0.9 2 0.8
v 0.9 2 -0.5
v 1 0.4 0.6
v 1 0.4 0
v 1 0.5 0.7
v 1 0.5 0.6
v 1 0.5 0
v 1 0.5 -0.1
v 1 0.6 -0.1
v 1 0.6 -0.2
v 1 0.7 -0.2
v 1 0.7 -0.3
v 1 0.9 0.7
v 1 0.9 0.6
v 1 1 0.6
v 1 1 -0.3
v -0.8 1.8 1.1
v -0.8 1.9 1.1
v -0.6 1.7 1.1
v -0.6 1.8 1.1
v -0.6 1.9 1.1
v -0.6 2 1.1
v -0.5 1.6 1.1
v -0.5 1.7 1.1
v -0.5 2 1.1
v -0.5 2.1 1.1
v -0.2 1.6 1.1
v -0.2 1.7 1.1
v -0.2 2 1.1
v -0.2 2.1 1.1
v -0.1 1.7 1.1
v -0.1 1.8 1.1
v -0.1 1.9 1.1
v -0.1 2 1.1
v 0.1 1.7 1.1
v 0.1 1.8 1.1
v 0.1 1.9 1.1
v 0.1 2 1.1
v 0.2 1.6 1.1
v 0.2 1.7 1.1
v 0.2 2 1.1
v 0.2 2.1 1.1
v 0.5 1.6 1.1
v 0.5 1.7 1.1
v 0.5 2 1.1
v 0.5 2.1 1.1
v 0.6 1.7 1.1
v 0.6 1.8 1.1
v 0.6 1.9 1.1
v 0.6 2 1.1
v 0.8 1.8 1.1
v 0.8 1.9 1.1
v -0.9 0.4 1
v -0.9 1.8 1
v -0.8 1.8 1
v -0.7 0.2 1
v -0.7 0.4 1
v -0.7 1.9 1
v -0.7 2 1
v -0.6 1.7 1
v -0.6 1.8 1
v -0.6 1.9 1
v -0.6 2 1
v -0.5 1 1
v -0.5 1.4 1
v -0.5 1.6 1
v -0.5 1.7 1
v -0.2 0.7 1
v -0.2 0.8 1
v -0.2 1 1
v -0.2 1.4 1
v -0.2 1.6 1
v -0.2 1.7 1
v -0.1 1.7 1
v -0.1 1.8 1
v -0.1 1.9 1
v -0.1 2 1
v 0.1 1.7 1
v 0.1 1.8 1
v 0.1 1.9 1
v 0.1 2 1
v 0.2 0.7 1
v 0.2 0.8 1
v 0.2 1 1
v 0.2 1.4 1
v 0.2 1.6 1
v 0.2 1.7 1
v 0.5 1 1
v 0.5 1.4 1
v 0.5 1.6 1
v 0.5 1.7 1
v 0.6 1.7 1
v 0.6 1.8 1
v 0.6 1.9 1
v 0.6 2 1
v 0.7 0.2 1
v 0.7 0.4 1
v 0.7 1.9 1
v 0.7 2 1
v 0.8 1.8 1
v 0.9 0.4 1
v 0.9 1.8 1
v -0.9 0.2 0.8
v -0.9 0.4 0.8
v -0.9 1.8 0.8
v -0.9 2 0.8
v -0.8 1.8 0.8
v -0.8 1.9 0.8
v -0.7 0.2 0.8
v -0.7 0.4 0.8
v -0.7 1.9 0.8
v -0.7 2 0.8
v 0.7 0.2 0.8
v 0.7 0.4 0.8
v 0.7 1.9 0.8
v 0.7 2 0.8
v 0.8 1.8 0.8
v 0.8 1.9 0.8
v 0.9 0.2 0.8
v 0.9 0.4 0.8
v 0.9 1.8 0.8
v 0.9 2 0.8
v -1 0.5 0.7
v -1 0.9 0.7
v -0.9 0.5 0.7
v -0.9 0.9 0.7
v 0.9 0.5 0.7
v 0.9 0.9 0.7
v 1 0.5 0.7
v 1 0.9 0.7
v -1 0.4 0.6
v -1 0.5 0.6
v -1 0.9 0.6
v -1 1 0.6
v -0.9 0.4 0.6
v -0.9 0.5 0.6
v -0.9 0.9 0.6
v -0.9 1 0.6
v 0.9 0.4 0.6
v 0.9 0.5 0.6
v 0.9 0.9 0.6
v 0.9 1 0.6
v 1 0.4 0.6
v 1 0.5 0.6
v 1 0.9 0.6
v 1 1 0.6
v -0.6 0 0.4
v -0.6 0.2 0.4
v -0.2 0 0.4
v -0.2 0.2 0.4
v 0.2 0 0.4
v 0.2 0.2 0.4
v 0.6 0 0.4
v 0.6 0.2 0.4
v -0.5 2 1
v -0.5 2.1 1
v -0.2 2 1
v -0.2 2.1 1
v 0.2 2 1
v 0.2 2.1 1
v 0.5 2 1
v 0.5 2.1 1
v -1 0.4 0
v -1 0.5 0
v -0.9 0.4 0
v -0.9 0.5 0
v -0.6 0 0
v -0.6 0.2 0
v -0.2 0 0
v -0.2 0.2 0
v 0.2 0 0
v 0.2 0.2 0
v 0.6 0 0
v 0.6 0.2 0
v 0.9 0.4 0
v 0.9 0.5 0
v 1 0.4 0
v 1 0.5 0
v -1 0.5 -0.1
v -1 0.6 -0.1
v -0.9 0.5 -0.1
v -0.9 0.6 -0.1
v 0.9 0.5 -0.1
v 0.9 0.6 -0.1
v 1 0.5 -0.1
v 1 0.6 -0.1
v -1 0.6 -0.2
v -1 0.7 -0.2
v -0.9 0.6 -0.2
v -0.9 0.7 -0.2
v 0.9 0.6 -0.2
v 0.9 0.7 -0.2
v 1 0.6 -0.2
v 1 0.7 -0.2
v -1 0.7 -0.3
v -1 1 -0.3
v -0.9 0.7 -0.3
v -0.9 1 -0.3
v 0.9 0.7 -0.3
v 0.9 1 -0.3
v 1 0.7 -0.3
v 1 1 -0.3
v -0.9 1.8 -0.5
v -0.9 2 -0.5
v -0.7 1.8 -0.5
v -0.7 2 -0.5
v 0.7 1.8 -0.5
v 0.7 2 -0.5
v 0.9 1.8 -0.5
v 0.9 2 -0.5
v -0.9 1 -0.7
v -0.9 1.8 -0.7
v -0.7 1 -0.7
v -0.7 1.2 -0.7
v -0.7 1.8 -0.7
v -0.7 2 -0.7
v 0.7 1 -0.7
v 0.7 1.2 -0.7
v 0.7 1.8 -0.7
v 0.7 2 -0.7
v 0.9 1 -0.7
v 0.9 1.8 -0.7
v -0.9 0.2 -0.8
v -0.9 0.4 -0.8
v -0.7 0.2 -0.8
v -0.7 0.4 -0.8
v 0.7 0.2 -0.8
v 0.7 0.4 -0.8
v 0.9 0.2 -0.8
v 0.9 0.4 -0.8
v -0.9 0.4 -1
v -0.9 1 -1
v -0.7 0.2 -1
v -0.7 0.4 -1
v -0.7 1 -1
v -0.7 1.2 -1
v 0.7 0.2 -1
v 0.7 0.4 -1
v 0.7 1 -1
v 0.7 1.2 -1
v 0.9 0.4 -1
v 0.9 1 -1
v -0.6 0 0.4
v -0.2 0 0.4
v 0.2 0 0.4
v 0.6 0 0.4
v -0.6 0 0
v -0.2 0 0
v 0.2 0 0
v 0.6 0 0
v -0.7 0.2 1
v 0.7 0.2 1
v -0.9 0.2 0.8
v -0.7 0.2 0.8
v 0.7 0.2 0.8
v 0.9 0.2 0.8
v -0.6 0.2 0.4
v -0.2 0.2 0.4
v 0.2 0.2 0.4
v 0.6 0.2 0.4
v -0.6 0.2 0
v -0.2 0.2 0
v 0.2 0.2 0
v 0.6 0.2 0
v -0.9 0.2 -0.8
v -0.7 0.2 -0.8
v 0.7 0.2 -0.8
v 0.9 0.2 -0.8
v -0.7 0.2 -1
v 0.7 0.2 -1
v -0.9 0.4 1
v -0.7 0.4 1
v 0.7 0.4 1
v 0.9 0.4 1
v -0.9 0.4 0.8
v -0.7 0.4 0.8
v 0.7 0.4 0.8
v 0.9 0.4 0.8
v -1 0.4 0.6
v -0.9 0.4 0.6
v 0.9 0.4 0.6
v 1 0.4 0.6
v -1 0.4 0
v -0.9 0.4 0
v 0.9 0.4 0
v 1 0.4 0
v -0.9 0.4 -0.8
v -0.7 0.4 -0.8
v 0.7 0.4 -0.8
v 0.9 0.4 -0.8
v -0.9 0.4 -1
v -0.7 0.4 -1
v 0.7 0.4 -1
v 0.9 0.4 -1
v -1 0.5 0.7
v -0.9 0.5 0.7
v 0.9 0.5 0.7
v 1 0.5 0.7
v -1 0.5 0.6
v -0.9 0.5 0.6
v 0.9 0.5 0.6
v 1 0.5 0.6
v -1 0.5 0
v -0.9 0.5 0
v 0.9 0.5 0
v 1 0.5 0
v -1 0.5 -0.1
v -0.9 0.5 -0.1
v 0.9 0.5 -0.1
v 1 0.5 -0.1
v -1 0.6 -0.1
v -0.9 0.6 -0.1
v 0.9 0.6 -0.1
v 1 0.6 -0.1
v -1 0.6 -0.2
v -0.9 0.6 -0.2
v 0.9 0.6 -0.2
v 1 0.6 -0.2
v -1 0.7 -0.2
v -0.9 0.7 -0.2
v 0.9 0.7 -0.2
v 1 0.7 -0.2
v -1 0.7 -0.3
v -0.9 0.7 -0.3
v 0.9 0.7 -0.3
v 1 0.7 -0.3
v -0.5 1.6 1.1
v -0.2 1.6 1.1
v 0.2 1.6 1.1
v 0.5 1.6 1.1
v -0.5 1.6 1
v -0.2 1.6 1
v 0.2 1.6 1
v 0.5 1.6 1
v -0.6 1.7 1.1
v -0.5 1.7 1.1
v -0.2 1.7 1.1
v -0.1 1.7 1.1
v 0.1 1.7 1.1
v 0.2 1.7 1.1
v 0.5 1.7 1.1
v 0.6 1.7 1.1
v -0.6 1.7 1
v -0.5 1.7 1
v -0.2 1.7 1
v -0.1 1.7 1
v 0.1 1.7 1
v 0.2 1.7 1
v 0.5 1.7 1
v 0.6 1.7 1
v -0.8 1.8 1.1
v -0.6 1.8 1.1
v -0.1 1.8 1.1
v 0.1 1.8 1.1
v 0.6 1.8 1.1
v 0.8 1.8 1.1
v -0.8 1.8 1
v -0.6 1.8 1
v -0.1 1.8 1
v 0.1 1.8 1
v 0.6 1.8 1
v 0.8 1.8 1
v -1 0.9 0.7
v -0.9 0.9 0.7
v 0.9 0.9 0.7
v 1 0.9 0.7
v -1 0.9 0.6
v -0.9 0.9 0.6
v 0.9 0.9 0.6
v 1 0.9 0.6
v -1 1 0.6
v -0.9 1 0.6
v 0.9 1 0.6
v 1 1 0.6
v -1 1 -0.3
v -0.9 1 -0.3
v 0.9 1 -0.3
v 1 1 -0.3
v -0.9 1 -0.7
v -0.7 1 -0.7
v 0.7 1 -0.7
v 0.9 1 -0.7
v -0.9 1 -1
v -0.7 1 -1
v 0.7 1 -1
v 0.9 1 -1
v -0.7 1.2 -0.7
v 0.7 1.2 -0.7
v -0.7 1.2 -1
v 0.7 1.2 -1
v -0.9 1.8 1
v -0.8 1.8 1
v 0.8 1.8 1
v 0.9 1.8 1
v -0.9 1.8 0.8
v -0.8 1.8 0.8
v 0.8 1.8 0.8
v 0.9 1.8 0.8
v -0.9 1.8 -0.5
v -0.7 1.8 -0.5
v 0.7 1.8 -0.5
v 0.9 1.8 -0.5
v -0.9 1.8 -0.7
v -0.7 1.8 -0.7
v 0.7 1.8 -0.7
v 0.9 1.8 -0.7
v -0.8 1.9 1.1
v -0.6 1.9 1.1
v -0.1 1.9 1.1
v 0.1 1.9 1.1
v 0.6 1.9 1.1
v 0.8 1.9 1.1
v -0.7 1.9 1
v -0.6 1.9 1
v -0.1 1.9 1
v 0.1 1.9 1
v 0.6 1.9 1
v 0.7 1.9 1
v -0.8 1.9 0.8
v -0.7 1.9 0.8
v 0.7 1.9 0.8
v 0.8 1.9 0.8
v -0.6 2 1.1
v -0.5 2 1.1
v -0.2 2 1.1
v -0.1 2 1.1
v 0.1 2 1.1
v 0.2 2 1.1
v 0.5 2 1.1
v 0.6 2 1.1
v -0.7 2 1
v -0.6 2 1
v -0.5 2 1
v -0.2 2 1
v -0.1 2 1
v 0.1 2 1
v 0.2 2 1
v 0.5 2 1
v 0.6 2 1
v 0.7 2 1
v -0.9 2 0.8
v -0.7 2 0.8
v 0.7 2 0.8
v 0.9 2 0.8
v -0.9 2 -0.5
v -0.7 2 -0.5
v 0.7 2 -0.5
v 0.9 2 -0.5
v -0.7 2 -0.7
v 0.7 2 -0.7
v -0.5 2.1 1.1
v -0.2 2.1 1.1
v 0.2 2.1 1.1
v 0.5 2.1 1.1
v -0.5 2.1 1
v -0.2 2.1 1
v 0.2 2.1 1
v 0.5 2.1 1

# faces
f 4/4/1 2/4/1 1/4/1
f 5/4/1 2/4/1 4/4/1
f 7/4/1 4/4/1 3/4/1
f 7/4/1 6/4/1 5/4/1
f 7/4/1 5/4/1 4/4/1
f 9/4/1 8/4/1 7/4/1
f 11/4/1 7/4/1 3/4/1
f 11/4/1 10/4/1 9/4/1
f 11/4/1 9/4/1 7/4/1
f 12/4/1 10/4/1 11/4/1
f 13/4/1 10/4/1 12/4/1
f 14/4/1 10/4/1 13/4/1
f 18/5/1 16/5/1 15/5/1
f 19/5/1 16/5/1 18/5/1
f 20/5/1 16/5/1 19/5/1
f 21/5/1 16/5/1 20/5/1
f 23/5/1 18/5/1 17/5/1
f 23/5/1 19/5/1 18/5/1
f 24/5/1 19/5/1 23/5/1
f 25/5/1 22/5/1 21/5/1
f 25/5/1 21/5/1 20/5/1
f 26/5/1 22/5/1 25/5/1
f 27/5/1 22/5/1 26/5/1
f 28/5/1 22/5/1 27/5/1
f 29/5/1 22/5/1 28/5/1
f 30/5/1 22/5/1 29/5/1
f 31/5/1 23/5/1 17/5/1
f 33/5/1 32/5/1 31/5/1
f 34/5/1 22/5/1 30/5/1
f 35/5/1 22/5/1 34/5/1
f 36/5/1 22/5/1 35/5/1
f 37/5/1 33/5/1 31/5/1
f 37/5/1 31/5/1 17/5/1
f 37/5/1 35/5/1 34/5/1
f 37/5/1 34/5/1 33/5/1
f 38/5/1 35/5/1 37/5/1
f 39/5/1 35/5/1 38/5/1
f 40/5/1 35/5/1 39/5/1
f 41/5/1 39/5/1 38/5/1
f 42/5/1 39/5/1 41/5/1
f 46/4/1 44/4/1 43/4/1
f 46/4/1 45/4/1 44/4/1
f 47/4/1 45/4/1 46/4/1
f 52/5/1 49/5/1 48/5/1
f 53/5/1 49/5/1 52/5/1
f 54/5/1 51/5/1 50/5/1
f 55/5/1 51/5/1 54/5/1
f 58/5/1 57/5/1 56/5/1
f 59/5/1 57/5/1 58/5/1
f 64/5/1 63/5/1 62/5/1
f 65/5/1 63/5/1 64/5/1
f 66/5/1 61/5/1 60/5/1
f 67/5/1 61/5/1 66/5/1
f 70/4/1 69/4/1 68/4/1
f 71/4/1 69/4/1 70/4/1
f 74/4/1 73/4/1 72/4/1
f 75/4/1 73/4/1 74/4/1
f 78/4/1 77/4/1 76/4/1
f 79/4/1 77/4/1 78/4/1
f 82/4/1 81/4/1 80/4/1
f 83/4/1 81/4/1 82/4/1
f 86/4/1 85/4/1 84/4/1
f 87/4/1 85/4/1 86/4/1
f 90/4/1 89/4/1 88/4/1
f 91/4/1 89/4/1 90/4/1
f 94/4/1 93/4/1 92/4/1
f 95/4/1 93/4/1 94/4/1
f 98/4/1 97/4/1 96/4/1
f 99/4/1 97/4/1 98/4/1
f 102/4/1 101/4/1 100/4/1
f 103/4/1 101/4/1 102/4/1
f 106/4/1 105/4/1 104/4/1
f 107/4/1 105/4/1 106/4/1
f 108/4/2 109/4/2 110/4/2
f 110/4/2 109/4/2 111/4/2
f 112/4/2 113/4/2 114/4/2
f 114/4/2 113/4/2 115/4/2
f 116/4/2 117/4/2 118/4/2
f 118/4/2 117/4/2 119/4/2
f 120/4/2 121/4/2 122/4/2
f 122/4/2 121/4/2 123/4/2
f 124/4/2 125/4/2 126/4/2
f 126/4/2 125/4/2 127/4/2
f 128/4/2 129/4/2 130/4/2
f 130/4/2 129/4/2 131/4/2
f 132/4/2 133/4/2 134/4/2
f 134/4/2 133/4/2 135/4/2
f 136/4/2 137/4/2 138/4/2
f 138/4/2 137/4/2 139/4/2
f 140/4/2 141/4/2 142/4/2
f 142/4/2 141/4/2 143/4/2
f 144/4/2 145/4/2 146/4/2
f 146/4/2 145/4/2 147/4/2
f 148/5/2 149/5/2 152/5/2
f 152/5/2 149/5/2 153/5/2
f 150/5/2 151/5/2 154/5/2
f 154/5/2 151/5/2 155/5/2
f 156/5/2 157/5/2 158/5/2
f 158/5/2 157/5/2 159/5/2
f 162/5/2 163/5/2 164/5/2
f 164/5/2 163/5/2 165/5/2
f 160/5/2 161/5/2 166/5/2
f 166/5/2 161/5/2 167/5/2
f 168/4/2 169/4/2 171/4/2
f 169/4/2 170/4/2 171/4/2
f 171/4/2 170/4/2 172/4/2
f 173/5/2 174/5/2 176/5/2
f 176/5/2 174/5/2 177/5/2
f 177/5/2 174/5/2 178/5/2
f 178/5/2 174/5/2 179/5/2
f 175/5/2 176/5/2 181/5/2
f 176/5/2 177/5/2 181/5/2
f 181/5/2 177/5/2 182/5/2
f 179/5/2 180/5/2 183/5/2
f 178/5/2 179/5/2 183/5/2
f 183/5/2 180/5/2 184/5/2
f 184/5/2 180/5/2 185/5/2
f 185/5/2 180/5/2 186/5/2
f 186/5/2 180/5/2 187/5/2
f 187/5/2 180/5/2 188/5/2
f 175/5/2 181/5/2 189/5/2
f 189/5/2 190/5/2 191/5/2
f 188/5/2 180/5/2 192/5/2
f 192/5/2 180/5/2 193/5/2
f 193/5/2 180/5/2 194/5/2
f 189/5/2 191/5/2 195/5/2
f 175/5/2 189/5/2 195/5/2
f 192/5/2 193/5/2 195/5/2
f 191/5/2 192/5/2 195/5/2
f 195/5/2 193/5/2 196/5/2
f 196/5/2 193/5/2 197/5/2
f 197/5/2 193/5/2 198/5/2
f 196/5/2 197/5/2 199/5/2
f 199/5/2 197/5/2 200/5/2
f 201/4/2 202/4/2 204/4/2
f 204/4/2 202/4/2 205/4/2
f 203/4/2 204/4/2 207/4/2
f 205/4/2 206/4/2 207/4/2
f 204/4/2 205/4/2 207/4/2
f 207/4/2 208/4/2 209/4/2
f 203/4/2 207/4/2 211/4/2
f 209/4/2 210/4/2 211/4/2
f 207/4/2 209/4/2 211/4/2
f 211/4/2 210/4/2 212/4/2
f 212/4/2 210/4/2 213/4/2
f 213/4/2 210/4/2 214/4/2
f 218/4/3 216/4/3 215/4/3
f 219/4/3 216/4/3 218/4/3
f 222/4/3 218/4/3 217/4/3
f 222/4/3 220/4/3 219/4/3
f 222/4/3 219/4/3 218/4/3
f 223/4/3 220/4/3 222/4/3
f 225/4/3 222/4/3 221/4/3
f 226/7/3 223/7/3 222/7/3
f 226/4/3 222/4/3 225/4/3
f 227/4/3 224/4/3 223/4/3
f 227/7/3 223/7/3 226/7/3
f 228/4/3 224/4/3 227/4/3
f 229/4/3 227/4/3 226/4/3
f 230/4/3 227/4/3 229/4/3
f 231/4/3 227/4/3 230/4/3
f 232/4/3 227/4/3 231/4/3
f 234/4/3 231/4/3 230/4/3
f 235/4/3 231/4/3 234/4/3
f 238/4/3 234/4/3 233/4/3
f 238/4/3 236/4/3 235/4/3
f 238/4/3 235/4/3 234/4/3
f 239/4/3 236/4/3 238/4/3
f 241/4/3 238/4/3 237/4/3
f 242/7/3 239/7/3 238/7/3
f 242/4/3 238/4/3 241/4/3
f 243/4/3 240/4/3 239/4/3
f 243/7/3 239/7/3 242/7/3
f 244/4/3 240/4/3 243/4/3
f 245/4/3 243/4/3 242/4/3
f 246/4/3 243/4/3 245/4/3
f 247/4/3 243/4/3 246/4/3
f 248/4/3 243/4/3 247/4/3
f 249/4/3 247/4/3 246/4/3
f 250/4/3 247/4/3 249/4/3
f 253/5/3 252/5/3 251/5/3
f 255/5/3 253/5/3 251/5/3
f 258/5/3 255/5/3 254/5/3
f 258/5/3 253/5/3 255/5/3
f 259/5/3 253/5/3 258/5/3
f 260/5/3 257/5/3 256/5/3
f 261/5/3 257/5/3 260/5/3
f 262/5/3 258/5/3 254/5/3
f 263/5/3 258/5/3 262/5/3
f 264/5/3 258/5/3 263/5/3
f 265/5/3 258/5/3 264/5/3
f 266/5/3 262/5/3 254/5/3
f 267/5/3 262/5/3 266/5/3
f 268/6/3 263/6/3 262/6/3
f 268/5/3 262/5/3 267/5/3
f 269/5/3 264/5/3 263/5/3
f 269/6/3 263/6/3 268/6/3
f 270/5/3 264/5/3 269/5/3
f 272/5/3 268/5/3 267/5/3
f 272/5/3 271/5/3 270/5/3
f 272/5/3 270/5/3 269/5/3
f 272/5/3 269/5/3 268/5/3
f 276/5/3 272/5/3 267/5/3
f 276/5/3 273/5/3 272/5/3
f 277/5/3 273/5/3 276/5/3
f 278/5/3 275/5/3 274/5/3
f 279/5/3 275/5/3 278/5/3
f 280/6/3 267/6/3 266/6/3
f 280/5/3 266/5/3 254/5/3
f 281/5/3 276/5/3 267/5/3
f 281/6/3 267/6/3 280/6/3
f 282/5/3 276/5/3 281/5/3
f 283/5/3 276/5/3 282/5/3
f 284/5/3 276/5/3 283/5/3
f 285/5/3 276/5/3 284/5/3
f 286/5/3 281/5/3 280/5/3
f 286/5/3 282/5/3 281/5/3
f 286/6/3 283/6/3 282/6/3
f 287/5/3 284/5/3 283/5/3
f 287/6/3 283/6/3 286/6/3
f 288/5/3 284/5/3 287/5/3
f 290/5/3 287/5/3 286/5/3
f 290/5/3 289/5/3 288/5/3
f 290/5/3 288/5/3 287/5/3
f 294/5/3 280/5/3 254/5/3
f 294/5/3 290/5/3 286/5/3
f 294/5/3 291/5/3 290/5/3
f 294/5/3 286/5/3 280/5/3
f 295/5/3 291/5/3 294/5/3
f 296/5/3 293/5/3 292/5/3
f 297/5/3 293/5/3 296/5/3
f 298/5/3 291/5/3 295/5/3
f 299/5/3 298/5/3 295/5/3
f 300/5/3 298/5/3 299/5/3
f 305/5/3 304/5/3 303/5/3
f 306/5/3 304/5/3 305/5/3
f 307/5/3 302/5/3 301/5/3
f 308/5/3 302/5/3 307/5/3
f 309/5/3 304/5/3 306/5/3
f 310/5/3 304/5/3 309/5/3
f 316/5/3 314/5/3 313/5/3
f 317/5/3 312/5/3 311/5/3
f 318/5/3 312/5/3 317/5/3
f 319/5/3 316/5/3 315/5/3
f 320/5/3 314/5/3 316/5/3
f 320/5/3 316/5/3 319/5/3
f 323/4/3 322/4/3 321/4/3
f 324/4/3 322/4/3 323/4/3
f 327/4/3 326/4/3 325/4/3
f 328/4/3 326/4/3 327/4/3
f 333/4/3 330/4/3 329/4/3
f 334/4/3 330/4/3 333/4/3
f 335/4/3 332/4/3 331/4/3
f 336/4/3 332/4/3 335/4/3
f 341/4/3 338/4/3 337/4/3
f 342/4/3 338/4/3 341/4/3
f 343/4/3 340/4/3 339/4/3
f 344/4/3 340/4/3 343/4/3
f 347/4/3 346/4/3 345/4/3
f 348/4/3 346/4/3 347/4/3
f 351/4/3 350/4/3 349/4/3
f 352/4/3 350/4/3 351/4/3
f 353/4/4 354/4/4 355/4/4
f 355/4/4 354/4/4 356/4/4
f 357/4/4 358/4/4 359/4/4
f 359/4/4 358/4/4 360/4/4
f 361/4/4 362/4/4 363/4/4
f 363/4/4 362/4/4 364/4/4
f 365/4/4 366/4/4 367/4/4
f 367/4/4 366/4/4 368/4/4
f 369/4/4 370/4/4 371/4/4
f 371/4/4 370/4/4 372/4/4
f 373/4/4 374/4/4 375/4/4
f 375/4/4 374/4/4 376/4/4
f 377/4/4 378/4/4 379/4/4
f 379/4/4 378/4/4 380/4/4
f 381/4/4 382/4/4 383/4/4
f 383/4/4 382/4/4 384/4/4
f 385/4/4 386/4/4 387/4/4
f 387/4/4 386/4/4 388/4/4
f 389/4/4 390/4/4 391/4/4
f 391/4/4 390/4/4 392/4/4
f 393/4/4 394/4/4 395/4/4
f 395/4/4 394/4/4 396/4/4
f 397/4/4 398/4/4 399/4/4
f 399/4/4 398/4/4 400/4/4
f 401/5/4 402/5/4 403/5/4
f 403/5/4 402/5/4 404/5/4
f 405/5/4 406/5/4 407/5/4
f 407/5/4 406/5/4 408/5/4
f 409/5/4 410/5/4 411/5/4
f 411/5/4 410/5/4 412/5/4
f 412/5/4 410/5/4 413/5/4
f 413/5/4 414/5/4 416/5/4
f 412/5/4 413/5/4 416/5/4
f 416/5/4 414/5/4 417/5/4
f 417/5/4 414/5/4 418/5/4
f 415/5/4 416/5/4 419/5/4
f 416/5/4 417/5/4 419/5/4
f 419/5/4 417/5/4 420/5/4
f 421/5/4 422/5/4 423/5/4
f 423/5/4 422/5/4 424/5/4
f 425/5/4 426/5/4 427/5/4
f 427/5/4 426/5/4 428/5/4
f 429/5/4 430/5/4 432/5/4
f 432/5/4 430/5/4 433/5/4
f 431/5/4 432/5/4 435/5/4
f 433/5/4 434/5/4 435/5/4
f 432/5/4 433/5/4 435/5/4
f 435/5/4 434/5/4 436/5/4
f 436/5/4 434/5/4 437/5/4
f 437/5/4 434/5/4 438/5/4
f 436/5/4 437/5/4 439/5/4
f 439/5/4 437/5/4 440/5/4
f 445/4/5 442/4/5 441/4/5
f 446/4/5 442/4/5 445/4/5
f 447/4/5 444/4/5 443/4/5
f 448/4/5 444/4/5 447/4/5
f 452/5/5 450/5/5 449/5/5
f 453/5/5 450/5/5 452/5/5
f 455/5/5 452/5/5 451/5/5
f 455/5/5 454/5/5 453/5/5
f 455/5/5 453/5/5 452/5/5
f 456/5/5 454/5/5 455/5/5
f 457/5/5 454/5/5 456/5/5
f 458/5/5 454/5/5 457/5/5
f 459/5/5 455/5/5 451/5/5
f 460/5/5 457/5/5 456/5/5
f 461/5/5 457/5/5 460/5/5
f 462/5/5 454/5/5 458/5/5
f 463/5/5 461/5/5 460/5/5
f 463/5/5 462/5/5 461/5/5
f 463/5/5 459/5/5 451/5/5
f 463/5/5 460/5/5 459/5/5
f 464/5/5 462/5/5 463/5/5
f 465/5/5 454/5/5 462/5/5
f 465/5/5 462/5/5 464/5/5
f 466/5/5 454/5/5 465/5/5
f 467/5/5 465/5/5 464/5/5
f 468/5/5 465/5/5 467/5/5
f 473/5/5 470/5/5 469/5/5
f 474/5/5 470/5/5 473/5/5
f 475/5/5 472/5/5 471/5/5
f 476/5/5 472/5/5 475/5/5
f 481/4/5 478/4/5 477/4/5
f 482/4/5 478/4/5 481/4/5
f 483/4/5 480/4/5 479/4/5
f 484/4/5 480/4/5 483/4/5
f 489/5/5 486/5/5 485/5/5
f 490/5/5 486/5/5 489/5/5
f 491/5/5 488/5/5 487/5/5
f 492/5/5 488/5/5 491/5/5
f 497/4/5 494/4/5 493/4/5
f 498/4/5 494/4/5 497/4/5
f 499/4/5 496/4/5 495/4/5
f 500/4/5 496/4/5 499/4/5
f 505/4/5 502/4/5 501/4/5
f 506/4/5 502/4/5 505/4/5
f 507/4/5 504/4/5 503/4/5
f 508/4/5 504/4/5 507/4/5
f 513/4/5 510/4/5 509/4/5
f 514/4/5 510/4/5 513/4/5
f 515/4/5 512/4/5 511/4/5
f 516/4/5 512/4/5 515/4/5
f 521/4/5 518/4/5 517/4/5
f 522/4/5 518/4/5 521/4/5
f 523/4/5 520/4/5 519/4/5
f 524/4/5 520/4/5 523/4/5
f 529/4/5 526/4/5 525/4/5
f 530/4/5 526/4/5 529/4/5
f 531/4/5 528/4/5 527/4/5
f 532/4/5 528/4/5 531/4/5
f 541/4/5 534/4/5 533/4/5
f 542/4/5 534/4/5 541/4/5
f 543/4/5 536/4/5 535/4/5
f 544/4/5 536/4/5 543/4/5
f 545/4/5 538/4/5 537/4/5
f 546/4/5 538/4/5 545/4/5
f 547/4/5 540/4/5 539/4/5
f 548/4/5 540/4/5 547/4/5
f 555/4/5 550/4/5 549/4/5
f 556/4/5 550/4/5 555/4/5
f 557/4/5 552/4/5 551/4/5
f 558/4/5 552/4/5 557/4/5
f 559/4/5 554/4/5 553/4/5
f 560/4/5 554/4/5 559/4/5
f 561/4/6 562/4/6 565/4/6
f 565/4/6 562/4/6 566/4/6
f 563/4/6 564/4/6 567/4/6
f 567/4/6 564/4/6 568/4/6
f 569/4/6 570/4/6 573/4/6
f 573/4/6 570/4/6 574/4/6
f 571/4/6 572/4/6 575/4/6
f 575/4/6 572/4/6 576/4/6
f 577/5/6 578/5/6 581/5/6
f 581/5/6 578/5/6 582/5/6
f 579/5/6 580/5/6 583/5/6
f 583/5/6 580/5/6 584/5/6
f 585/5/6 586/5/6 587/5/6
f 587/5/6 586/5/6 588/5/6
f 589/5/6 590/5/6 593/5/6
f 593/5/6 590/5/6 594/5/6
f 591/5/6 592/5/6 595/5/6
f 595/5/6 592/5/6 596/5/6
f 597/5/6 598/5/6 601/5/6
f 601/5/6 598/5/6 602/5/6
f 599/5/6 600/5/6 603/5/6
f 603/5/6 600/5/6 604/5/6
f 605/4/6 606/4/6 611/4/6
f 611/4/6 606/4/6 612/4/6
f 607/4/6 608/4/6 613/4/6
f 613/4/6 608/4/6 614/4/6
f 609/4/6 610/4/6 615/4/6
f 615/4/6 610/4/6 616/4/6
f 605/4/6 611/4/6 617/4/6
f 617/4/6 611/4/6 618/4/6
f 616/4/6 610/4/6 619/4/6
f 619/4/6 610/4/6 620/4/6
f 621/4/6 622/4/6 630/4/6
f 630/4/6 622/4/6 631/4/6
f 623/4/6 624/4/6 632/4/6
f 632/4/6 624/4/6 633/4/6
f 625/4/6 626/4/6 634/4/6
f 634/4/6 626/4/6 635/4/6
f 627/4/6 628/4/6 636/4/6
f 636/4/6 628/4/6 637/4/6
f 634/5/6 635/5/6 640/5/6
f 637/5/6 638/5/6 640/5/6
f 636/5/6 637/5/6 640/5/6
f 635/5/6 636/5/6 640/5/6
f 630/5/6 631/5/6 640/5/6
f 633/5/6 634/5/6 640/5/6
f 632/5/6 633/5/6 640/5/6
f 631/5/6 632/5/6 640/5/6
f 629/5/6 630/5/6 640/5/6
f 640/5/6 638/5/6 641/5/6
f 639/5/6 640/5/6 643/5/6
f 641/5/6 642/5/6 643/5/6
f 640/5/6 641/5/6 643/5/6
f 643/5/6 642/5/6 644/5/6
f 644/5/6 642/5/6 645/5/6
f 645/5/6 642/5/6 646/5/6
f 644/5/6 645/5/6 647/5/6
f 647/5/6 645/5/6 648/5/6
f 649/4/6 650/4/6 653/4/6
f 653/4/6 650/4/6 654/4/6
f 651/4/6 652/4/6 655/4/6
f 655/4/6 652/4/6 656/4/6
