# MagicaVoxel @ Ephtracy

# group
o 

# material
mtllib angel_fly.mtl
usemtl palette

# normals
vn -1 0 0
vn 1 0 0
vn 0 0 1
vn 0 0 -1
vn 0 -1 0
vn 0 1 0

# texcoords
vt 0.517578 0.5
vt 0.958984 0.5
vt 0.970703 0.5
vt 0.974609 0.5
vt 0.978516 0.5

# verts
v -0.8 0.4 0.6
v -0.8 0.4 -0.5
v -0.8 0.6 0.9
v -0.8 0.6 0.8
v -0.8 0.6 0.7
v -0.8 0.6 0.6
v -0.8 0.6 -0.5
v -0.8 0.6 -0.7
v -0.8 1.1 0.8
v -0.8 1.1 0.7
v -0.8 1.4 0.9
v -0.8 1.4 0.7
v -0.8 1.4 -0.5
v -0.8 1.4 -0.7
v -0.8 1.6 0.7
v -0.8 1.6 -0.5
v -0.7 0.6 0.8
v -0.7 0.6 0.7
v -0.7 0.8 0.8
v -0.7 0.8 0.7
v -0.7 1 0.8
v -0.7 1 0.7
v -0.7 1.1 0.8
v -0.7 1.1 0.7
v -0.6 0 0.3
v -0.6 0 -0.1
v -0.6 0.2 0.3
v -0.6 0.2 -0.1
v -0.6 0.4 0.9
v -0.6 0.4 0.7
v -0.6 0.4 -0.5
v -0.6 0.4 -0.7
v -0.6 0.6 0.9
v -0.6 0.6 0.7
v -0.6 0.6 -0.5
v -0.6 0.6 -0.7
v -0.6 0.8 0.8
v -0.6 0.8 0.7
v -0.6 1 0.8
v -0.6 1 0.7
v -0.6 1.4 0.9
v -0.6 1.4 0.7
v -0.6 1.4 -0.5
v -0.6 1.4 -0.7
v -0.6 1.6 0.9
v -0.6 1.6 0.7
v -0.6 1.6 -0.5
v -0.6 1.6 -0.7
v -0.4 0.8 0.7
v -0.4 0.8 0.6
v -0.4 0.9 0.7
v -0.4 0.9 0.6
v -0.3 0.4 0.7
v -0.3 0.4 0.6
v -0.3 0.6 0.7
v -0.3 0.6 0.6
v -0.3 0.7 0.7
v -0.3 0.7 0.6
v -0.3 0.8 0.7
v -0.3 0.8 0.6
v -0.2 0.6 0.7
v -0.2 0.6 0.6
v -0.2 0.7 0.7
v -0.2 0.7 0.6
v -0.1 0.6 0.6
v -0.1 0.6 0.5
v -0.1 0.7 0.6
v -0.1 0.7 0.5
v 0.1 0.5 0.6
v 0.1 0.5 0.5
v 0.1 0.6 0.6
v 0.1 0.6 0.5
v 0.2 0 0.3
v 0.2 0 -0.1
v 0.2 0.2 0.3
v 0.2 0.2 -0.1
v 0.2 0.4 0.6
v 0.2 0.4 0.5
v 0.2 0.5 0.6
v 0.2 0.5 0.5
v -0.7 0.6 0.7
v -0.7 0.6 0.6
v -0.7 0.8 0.7
v -0.7 0.8 0.6
v -0.6 0.8 0.7
v -0.6 0.8 0.6
v -0.6 0.9 0.7
v -0.6 0.9 0.6
v -0.3 0.4 0.6
v -0.3 0.4 0.5
v -0.3 0.6 0.6
v -0.3 0.6 0.5
v -0.2 0 0.3
v -0.2 0 -0.1
v -0.2 0.2 0.3
v -0.2 0.2 -0.1
v -0.2 0.6 0.6
v -0.2 0.6 0.5
v -0.2 0.7 0.6
v -0.2 0.7 0.5
v 0.6 0 0.3
v 0.6 0 -0.1
v 0.6 0.2 0.3
v 0.6 0.2 -0.1
v 0.6 0.4 0.9
v 0.6 0.4 0.7
v 0.6 0.4 -0.5
v 0.6 0.4 -0.7
v 0.6 0.6 0.9
v 0.6 0.6 0.7
v 0.6 0.6 -0.5
v 0.6 0.6 -0.7
v 0.6 1.4 0.9
v 0.6 1.4 0.7
v 0.6 1.4 -0.5
v 0.6 1.4 -0.7
v 0.6 1.6 0.9
v 0.6 1.6 0.7
v 0.6 1.6 -0.5
v 0.6 1.6 -0.7
v 0.8 0.4 0.7
v 0.8 0.4 -0.5
v 0.8 0.6 0.9
v 0.8 0.6 0.7
v 0.8 0.6 -0.5
v 0.8 0.6 -0.7
v 0.8 1.4 0.9
v 0.8 1.4 0.7
v 0.8 1.4 -0.5
v 0.8 1.4 -0.7
v 0.8 1.6 0.7
v 0.8 1.6 -0.5
v -0.8 0.6 0.9
v -0.8 1.4 0.9
v -0.6 0.4 0.9
v -0.6 0.6 0.9
v -0.6 1.4 0.9
v -0.6 1.6 0.9
v -0.5 0.9 0.9
v -0.5 1.3 0.9
v -0.2 0.6 0.9
v -0.2 0.7 0.9
v -0.2 0.9 0.9
v -0.2 1.3 0.9
v 0.2 0.6 0.9
v 0.2 0.7 0.9
v 0.2 0.9 0.9
v 0.2 1.3 0.9
v 0.5 0.9 0.9
v 0.5 1.3 0.9
v 0.6 0.4 0.9
v 0.6 0.6 0.9
v 0.6 1.4 0.9
v 0.6 1.6 0.9
v 0.8 0.6 0.9
v 0.8 1.4 0.9
v -0.8 0.6 0.7
v -0.8 1.1 0.7
v -0.8 1.4 0.7
v -0.8 1.6 0.7
v -0.7 0.6 0.7
v -0.7 0.8 0.7
v -0.7 1 0.7
v -0.7 1.1 0.7
v -0.6 0.8 0.7
v -0.6 1 0.7
v -0.6 1.4 0.7
v -0.6 1.6 0.7
v 0.6 0.4 0.7
v 0.6 0.6 0.7
v 0.6 1.4 0.7
v 0.6 1.6 0.7
v 0.8 0.4 0.7
v 0.8 0.6 0.7
v 0.8 1.4 0.7
v 0.8 1.6 0.7
v -0.8 0.4 0.6
v -0.8 0.6 0.6
v -0.7 0.6 0.6
v -0.7 0.8 0.6
v -0.6 0.6 0.6
v -0.6 0.7 0.6
v -0.6 0.8 0.6
v -0.6 0.9 0.6
v -0.5 0.6 0.6
v -0.5 0.7 0.6
v -0.4 0.8 0.6
v -0.4 0.9 0.6
v -0.3 0.4 0.6
v -0.3 0.6 0.6
v -0.3 0.7 0.6
v -0.3 0.8 0.6
v -0.2 0.6 0.6
v -0.2 0.7 0.6
v -0.3 0.4 0.5
v -0.3 0.6 0.5
v -0.2 0.6 0.5
v -0.2 0.7 0.5
v -0.1 0.6 0.5
v -0.1 0.7 0.5
v 0.1 0.5 0.5
v 0.1 0.6 0.5
v 0.2 0.4 0.5
v 0.2 0.5 0.5
v -0.6 0 0.3
v -0.6 0.2 0.3
v -0.2 0 0.3
v -0.2 0.2 0.3
v 0.2 0 0.3
v 0.2 0.2 0.3
v 0.6 0 0.3
v 0.6 0.2 0.3
v -0.8 0.6 0.8
v -0.8 1.1 0.8
v -0.7 0.6 0.8
v -0.7 0.8 0.8
v -0.7 1 0.8
v -0.7 1.1 0.8
v -0.6 0.8 0.8
v -0.6 1 0.8
v -0.7 0.6 0.7
v -0.7 0.8 0.7
v -0.6 0.4 0.7
v -0.6 0.6 0.7
v -0.6 0.8 0.7
v -0.6 0.9 0.7
v -0.4 0.8 0.7
v -0.4 0.9 0.7
v -0.3 0.4 0.7
v -0.3 0.6 0.7
v -0.3 0.7 0.7
v -0.3 0.8 0.7
v -0.2 0.6 0.7
v -0.2 0.7 0.7
v -0.3 0.4 0.6
v -0.3 0.6 0.6
v -0.2 0.6 0.6
v -0.2 0.7 0.6
v -0.1 0.6 0.6
v -0.1 0.7 0.6
v 0.1 0.5 0.6
v 0.1 0.6 0.6
v 0.2 0.4 0.6
v 0.2 0.5 0.6
v -0.6 0 -0.1
v -0.6 0.2 -0.1
v -0.2 0 -0.1
v -0.2 0.2 -0.1
v 0.2 0 -0.1
v 0.2 0.2 -0.1
v 0.6 0 -0.1
v 0.6 0.2 -0.1
v -0.8 0.4 -0.5
v -0.8 0.6 -0.5
v -0.8 1.4 -0.5
v -0.8 1.6 -0.5
v -0.6 0.4 -0.5
v -0.6 0.6 -0.5
v -0.6 1.4 -0.5
v -0.6 1.6 -0.5
v 0.6 0.4 -0.5
v 0.6 0.6 -0.5
v 0.6 1.4 -0.5
v 0.6 1.6 -0.5
v 0.8 0.4 -0.5
v 0.8 0.6 -0.5
v 0.8 1.4 -0.5
v 0.8 1.6 -0.5
v -0.8 0.6 -0.7
v -0.8 1.4 -0.7
v -0.6 0.4 -0.7
v -0.6 0.6 -0.7
v -0.6 1.4 -0.7
v -0.6 1.6 -0.7
v 0.6 0.4 -0.7
v 0.6 0.6 -0.7
v 0.6 1.4 -0.7
v 0.6 1.6 -0.7
v 0.8 0.6 -0.7
v 0.8 1.4 -0.7
v -0.6 0 0.3
v -0.2 0 0.3
v 0.2 0 0.3
v 0.6 0 0.3
v -0.6 0 -0.1
v -0.2 0 -0.1
v 0.2 0 -0.1
v 0.6 0 -0.1
v -0.6 0.4 0.9
v 0.6 0.4 0.9
v -0.6 0.4 0.7
v -0.3 0.4 0.7
v 0.6 0.4 0.7
v 0.8 0.4 0.7
v -0.8 0.4 0.6
v -0.3 0.4 0.6
v 0.2 0.4 0.6
v -0.3 0.4 0.5
v 0.2 0.4 0.5
v -0.8 0.4 -0.5
v -0.6 0.4 -0.5
v 0.6 0.4 -0.5
v 0.8 0.4 -0.5
v -0.6 0.4 -0.7
v 0.6 0.4 -0.7
v 0.1 0.5 0.6
v 0.2 0.5 0.6
v 0.1 0.5 0.5
v 0.2 0.5 0.5
v -0.8 0.6 0.9
v -0.6 0.6 0.9
v 0.6 0.6 0.9
v 0.8 0.6 0.9
v -0.8 0.6 0.8
v -0.7 0.6 0.8
v -0.8 0.6 0.7
v -0.7 0.6 0.7
v -0.6 0.6 0.7
v 0.6 0.6 0.7
v 0.8 0.6 0.7
v -0.8 0.6 0.6
v -0.7 0.6 0.6
v -0.3 0.6 0.6
v -0.2 0.6 0.6
v -0.1 0.6 0.6
v 0.1 0.6 0.6
v -0.3 0.6 0.5
v -0.2 0.6 0.5
v -0.1 0.6 0.5
v 0.1 0.6 0.5
v -0.8 0.6 -0.5
v -0.6 0.6 -0.5
v 0.6 0.6 -0.5
v 0.8 0.6 -0.5
v -0.8 0.6 -0.7
v -0.6 0.6 -0.7
v 0.6 0.6 -0.7
v 0.8 0.6 -0.7
v -0.3 0.7 0.7
v -0.2 0.7 0.7
v -0.3 0.7 0.6
v -0.2 0.7 0.6
v -0.1 0.7 0.6
v -0.2 0.7 0.5
v -0.1 0.7 0.5
v -0.7 0.8 0.7
v -0.6 0.8 0.7
v -0.4 0.8 0.7
v -0.3 0.8 0.7
v -0.7 0.8 0.6
v -0.6 0.8 0.6
v -0.4 0.8 0.6
v -0.3 0.8 0.6
v -0.6 0.9 0.7
v -0.4 0.9 0.7
v -0.6 0.9 0.6
v -0.4 0.9 0.6
v -0.7 1 0.8
v -0.6 1 0.8
v -0.7 1 0.7
v -0.6 1 0.7
v -0.8 1.1 0.8
v -0.7 1.1 0.8
v -0.8 1.1 0.7
v -0.7 1.1 0.7
v -0.6 0.2 0.3
v -0.2 0.2 0.3
v 0.2 0.2 0.3
v 0.6 0.2 0.3
v -0.6 0.2 -0.1
v -0.2 0.2 -0.1
v 0.2 0.2 -0.1
v 0.6 0.2 -0.1
v -0.3 0.6 0.7
v -0.2 0.6 0.7
v -0.3 0.6 0.6
v -0.2 0.6 0.6
v -0.7 0.8 0.8
v -0.6 0.8 0.8
v -0.7 0.8 0.7
v -0.6 0.8 0.7
v -0.8 1.4 0.9
v -0.6 1.4 0.9
v 0.6 1.4 0.9
v 0.8 1.4 0.9
v -0.8 1.4 0.7
v -0.6 1.4 0.7
v 0.6 1.4 0.7
v 0.8 1.4 0.7
v -0.8 1.4 -0.5
v -0.6 1.4 -0.5
v 0.6 1.4 -0.5
v 0.8 1.4 -0.5
v -0.8 1.4 -0.7
v -0.6 1.4 -0.7
v 0.6 1.4 -0.7
v 0.8 1.4 -0.7
v -0.6 1.6 0.9
v 0.6 1.6 0.9
v -0.8 1.6 0.7
v -0.6 1.6 0.7
v 0.6 1.6 0.7
v 0.8 1.6 0.7
v -0.8 1.6 -0.5
v -0.6 1.6 -0.5
v 0.6 1.6 -0.5
v 0.8 1.6 -0.5
v -0.6 1.6 -0.7
v 0.6 1.6 -0.7

# faces
f 6/4/1 2/4/1 1/4/1
f 7/4/1 2/4/1 6/4/1
f 9/4/1 4/4/1 3/4/1
f 10/4/1 8/4/1 7/4/1
f 10/4/1 6/4/1 5/4/1
f 10/4/1 7/4/1 6/4/1
f 11/4/1 9/4/1 3/4/1
f 11/4/1 10/4/1 9/4/1
f 12/4/1 8/4/1 10/4/1
f 12/4/1 10/4/1 11/4/1
f 13/4/1 8/4/1 12/4/1
f 14/4/1 8/4/1 13/4/1
f 15/4/1 13/4/1 12/4/1
f 16/4/1 13/4/1 15/4/1
f 19/4/1 18/4/1 17/4/1
f 20/4/1 18/4/1 19/4/1
f 23/4/1 22/4/1 21/4/1
f 24/4/1 22/4/1 23/4/1
f 27/3/1 26/3/1 25/3/1
f 28/3/1 26/3/1 27/3/1
f 33/4/1 30/4/1 29/4/1
f 34/4/1 30/4/1 33/4/1
f 35/4/1 32/4/1 31/4/1
f 36/4/1 32/4/1 35/4/1
f 39/4/1 38/4/1 37/4/1
f 40/4/1 38/4/1 39/4/1
f 45/4/1 42/4/1 41/4/1
f 46/4/1 42/4/1 45/4/1
f 47/4/1 44/4/1 43/4/1
f 48/4/1 44/4/1 47/4/1
f 51/4/1 50/4/1 49/4/1
f 52/4/1 50/4/1 51/4/1
f 55/4/1 54/4/1 53/4/1
f 56/4/1 54/4/1 55/4/1
f 59/4/1 58/4/1 57/4/1
f 60/4/1 58/4/1 59/4/1
f 63/4/1 62/4/1 61/4/1
f 64/4/1 62/4/1 63/4/1
f 67/4/1 66/4/1 65/4/1
f 68/4/1 66/4/1 67/4/1
f 71/4/1 70/4/1 69/4/1
f 72/4/1 70/4/1 71/4/1
f 75/3/1 74/3/1 73/3/1
f 76/3/1 74/3/1 75/3/1
f 79/4/1 78/4/1 77/4/1
f 80/4/1 78/4/1 79/4/1
f 81/4/2 82/4/2 83/4/2
f 83/4/2 82/4/2 84/4/2
f 85/4/2 86/4/2 87/4/2
f 87/4/2 86/4/2 88/4/2
f 89/4/2 90/4/2 91/4/2
f 91/4/2 90/4/2 92/4/2
f 93/3/2 94/3/2 95/3/2
f 95/3/2 94/3/2 96/3/2
f 97/4/2 98/4/2 99/4/2
f 99/4/2 98/4/2 100/4/2
f 101/3/2 102/3/2 103/3/2
f 103/3/2 102/3/2 104/3/2
f 105/4/2 106/4/2 109/4/2
f 109/4/2 106/4/2 110/4/2
f 107/4/2 108/4/2 111/4/2
f 111/4/2 108/4/2 112/4/2
f 113/4/2 114/4/2 117/4/2
f 117/4/2 114/4/2 118/4/2
f 115/4/2 116/4/2 119/4/2
f 119/4/2 116/4/2 120/4/2
f 121/4/2 122/4/2 124/4/2
f 124/4/2 122/4/2 125/4/2
f 123/4/2 124/4/2 127/4/2
f 125/4/2 126/4/2 127/4/2
f 124/4/2 125/4/2 127/4/2
f 127/4/2 126/4/2 128/4/2
f 128/4/2 126/4/2 129/4/2
f 129/4/2 126/4/2 130/4/2
f 128/4/2 129/4/2 131/4/2
f 131/4/2 129/4/2 132/4/2
f 136/4/3 134/4/3 133/4/3
f 137/4/3 134/4/3 136/4/3
f 139/4/3 136/4/3 135/4/3
f 139/4/3 138/4/3 137/4/3
f 139/4/3 137/4/3 136/4/3
f 140/4/3 138/4/3 139/4/3
f 141/4/3 139/4/3 135/4/3
f 142/4/3 139/4/3 141/4/3
f 143/5/3 140/5/3 139/5/3
f 143/4/3 139/4/3 142/4/3
f 144/4/3 138/4/3 140/4/3
f 144/5/3 140/5/3 143/5/3
f 145/5/3 142/5/3 141/5/3
f 145/4/3 141/4/3 135/4/3
f 146/4/3 143/4/3 142/4/3
f 146/5/3 142/5/3 145/5/3
f 146/4/3 144/4/3 143/4/3
f 147/4/3 144/4/3 146/4/3
f 148/4/3 138/4/3 144/4/3
f 148/4/3 144/4/3 147/4/3
f 149/4/3 147/4/3 146/4/3
f 149/4/3 146/4/3 145/4/3
f 149/5/3 148/5/3 147/5/3
f 150/4/3 138/4/3 148/4/3
f 150/5/3 148/5/3 149/5/3
f 151/4/3 145/4/3 135/4/3
f 151/4/3 149/4/3 145/4/3
f 151/4/3 150/4/3 149/4/3
f 152/4/3 150/4/3 151/4/3
f 153/4/3 138/4/3 150/4/3
f 153/4/3 150/4/3 152/4/3
f 154/4/3 138/4/3 153/4/3
f 155/4/3 153/4/3 152/4/3
f 156/4/3 153/4/3 155/4/3
f 161/4/3 158/4/3 157/4/3
f 162/4/3 158/4/3 161/4/3
f 163/4/3 158/4/3 162/4/3
f 164/4/3 158/4/3 163/4/3
f 165/4/3 163/4/3 162/4/3
f 166/4/3 163/4/3 165/4/3
f 167/4/3 160/4/3 159/4/3
f 168/4/3 160/4/3 167/4/3
f 173/4/3 170/4/3 169/4/3
f 174/4/3 170/4/3 173/4/3
f 175/4/3 172/4/3 171/4/3
f 176/4/3 172/4/3 175/4/3
f 179/4/3 178/4/3 177/4/3
f 181/4/3 179/4/3 177/4/3
f 181/4/3 180/4/3 179/4/3
f 182/4/3 180/4/3 181/4/3
f 183/4/3 180/4/3 182/4/3
f 185/4/3 181/4/3 177/4/3
f 185/2/3 182/2/3 181/2/3
f 186/4/3 184/4/3 183/4/3
f 186/2/3 182/2/3 185/2/3
f 186/4/3 183/4/3 182/4/3
f 187/4/3 186/4/3 185/4/3
f 187/4/3 184/4/3 186/4/3
f 188/4/3 184/4/3 187/4/3
f 189/4/3 185/4/3 177/4/3
f 189/4/3 187/4/3 185/4/3
f 190/4/3 187/4/3 189/4/3
f 191/4/3 187/4/3 190/4/3
f 192/4/3 187/4/3 191/4/3
f 193/4/3 191/4/3 190/4/3
f 194/4/3 191/4/3 193/4/3
f 197/4/3 196/4/3 195/4/3
f 199/4/3 197/4/3 195/4/3
f 199/4/3 198/4/3 197/4/3
f 200/4/3 198/4/3 199/4/3
f 201/4/3 199/4/3 195/4/3
f 202/4/3 199/4/3 201/4/3
f 203/4/3 201/4/3 195/4/3
f 204/4/3 201/4/3 203/4/3
f 207/3/3 206/3/3 205/3/3
f 208/3/3 206/3/3 207/3/3
f 211/3/3 210/3/3 209/3/3
f 212/3/3 210/3/3 211/3/3
f 213/4/4 214/4/4 215/4/4
f 215/4/4 214/4/4 216/4/4
f 216/4/4 214/4/4 217/4/4
f 217/4/4 214/4/4 218/4/4
f 216/4/4 217/4/4 219/4/4
f 219/4/4 217/4/4 220/4/4
f 221/4/4 222/4/4 224/4/4
f 224/4/4 222/4/4 225/4/4
f 223/4/4 224/4/4 227/4/4
f 225/4/4 226/4/4 227/4/4
f 224/4/4 225/4/4 227/4/4
f 227/4/4 226/4/4 228/4/4
f 223/4/4 227/4/4 229/4/4
f 229/4/4 227/4/4 230/4/4
f 230/4/4 227/4/4 231/4/4
f 231/4/4 227/4/4 232/4/4
f 230/4/4 231/4/4 233/4/4
f 233/4/4 231/4/4 234/4/4
f 235/4/4 236/4/4 237/4/4
f 235/4/4 237/4/4 239/4/4
f 237/4/4 238/4/4 239/4/4
f 239/4/4 238/4/4 240/4/4
f 235/4/4 239/4/4 241/4/4
f 241/4/4 239/4/4 242/4/4
f 235/4/4 241/4/4 243/4/4
f 243/4/4 241/4/4 244/4/4
f 245/3/4 246/3/4 247/3/4
f 247/3/4 246/3/4 248/3/4
f 249/3/4 250/3/4 251/3/4
f 251/3/4 250/3/4 252/3/4
f 253/4/4 254/4/4 257/4/4
f 257/4/4 254/4/4 258/4/4
f 255/4/4 256/4/4 259/4/4
f 259/4/4 256/4/4 260/4/4
f 261/4/4 262/4/4 265/4/4
f 265/4/4 262/4/4 266/4/4
f 263/4/4 264/4/4 267/4/4
f 267/4/4 264/4/4 268/4/4
f 269/4/4 270/4/4 272/4/4
f 272/4/4 270/4/4 273/4/4
f 271/4/4 272/4/4 275/4/4
f 273/4/4 274/4/4 275/4/4
f 272/4/4 273/4/4 275/4/4
f 275/4/4 274/4/4 276/4/4
f 276/4/4 274/4/4 277/4/4
f 277/4/4 274/4/4 278/4/4
f 276/4/4 277/4/4 279/4/4
f 279/4/4 277/4/4 280/4/4
f 285/3/5 282/3/5 281/3/5
f 286/3/5 282/3/5 285/3/5
f 287/3/5 284/3/5 283/3/5
f 288/3/5 284/3/5 287/3/5
f 291/4/5 290/4/5 289/4/5
f 292/4/5 290/4/5 291/4/5
f 293/4/5 290/4/5 292/4/5
f 296/4/5 294/4/5 293/4/5
f 296/4/5 293/4/5 292/4/5
f 297/4/5 294/4/5 296/4/5
f 298/4/5 296/4/5 295/4/5
f 299/4/5 294/4/5 297/4/5
f 300/4/5 298/4/5 295/4/5
f 300/4/5 299/4/5 298/4/5
f 301/4/5 299/4/5 300/4/5
f 302/4/5 294/4/5 299/4/5
f 302/4/5 299/4/5 301/4/5
f 303/4/5 294/4/5 302/4/5
f 304/4/5 302/4/5 301/4/5
f 305/4/5 302/4/5 304/4/5
f 308/4/5 307/4/5 306/4/5
f 309/4/5 307/4/5 308/4/5
f 314/4/5 311/4/5 310/4/5
f 315/4/5 311/4/5 314/4/5
f 317/4/5 311/4/5 315/4/5
f 318/4/5 311/4/5 317/4/5
f 319/4/5 313/4/5 312/4/5
f 320/4/5 313/4/5 319/4/5
f 321/4/5 317/4/5 316/4/5
f 322/4/5 317/4/5 321/4/5
f 327/4/5 324/4/5 323/4/5
f 328/4/5 324/4/5 327/4/5
f 329/4/5 326/4/5 325/4/5
f 330/4/5 326/4/5 329/4/5
f 335/4/5 332/4/5 331/4/5
f 336/4/5 332/4/5 335/4/5
f 337/4/5 334/4/5 333/4/5
f 338/4/5 334/4/5 337/4/5
f 341/4/5 340/4/5 339/4/5
f 342/4/5 340/4/5 341/4/5
f 344/4/5 343/4/5 342/4/5
f 345/4/5 343/4/5 344/4/5
f 350/4/5 347/4/5 346/4/5
f 351/4/5 347/4/5 350/4/5
f 352/4/5 349/4/5 348/4/5
f 353/4/5 349/4/5 352/4/5
f 356/4/5 355/4/5 354/4/5
f 357/4/5 355/4/5 356/4/5
f 360/4/5 359/4/5 358/4/5
f 361/4/5 359/4/5 360/4/5
f 364/4/5 363/4/5 362/4/5
f 365/4/5 363/4/5 364/4/5
f 366/3/6 367/3/6 370/3/6
f 370/3/6 367/3/6 371/3/6
f 368/3/6 369/3/6 372/3/6
f 372/3/6 369/3/6 373/3/6
f 374/4/6 375/4/6 376/4/6
f 376/4/6 375/4/6 377/4/6
f 378/4/6 379/4/6 380/4/6
f 380/4/6 379/4/6 381/4/6
f 382/4/6 383/4/6 386/4/6
f 386/4/6 383/4/6 387/4/6
f 384/4/6 385/4/6 388/4/6
f 388/4/6 385/4/6 389/4/6
f 390/4/6 391/4/6 394/4/6
f 394/4/6 391/4/6 395/4/6
f 392/4/6 393/4/6 396/4/6
f 396/4/6 393/4/6 397/4/6
f 398/4/6 399/4/6 401/4/6
f 401/4/6 399/4/6 402/4/6
f 400/4/6 401/4/6 404/4/6
f 402/4/6 403/4/6 404/4/6
f 401/4/6 402/4/6 404/4/6
f 404/4/6 403/4/6 405/4/6
f 405/4/6 403/4/6 406/4/6
f 406/4/6 403/4/6 407/4/6
f 405/4/6 406/4/6 408/4/6
f 408/4/6 406/4/6 409/4/6
