# MagicaVoxel @ Ephtracy

# group
o 

# material
mtllib angel_junkie.mtl
usemtl palette

# normals
vn -1 0 0
vn 1 0 0
vn 0 0 1
vn 0 0 -1
vn 0 -1 0
vn 0 1 0

# texcoords
vt 0.517578 0.5
vt 0.556641 0.5
vt 0.958984 0.5
vt 0.970703 0.5
vt 0.974609 0.5
vt 0.978516 0.5

# verts
v -1 0.4 0.6
v -1 0.4 0
v -1 0.5 0.7
v -1 0.5 0.6
v -1 0.5 0
v -1 0.5 -0.0999999
v -1 0.6 -0.0999999
v -1 0.6 -0.2
v -1 0.7 -0.2
v -1 0.7 -0.3
v -1 0.9 0.7
v -1 0.9 0.6
v -1 1 0.6
v -1 1 -0.3
v -0.9 0.2 0.8
v -0.9 0.2 -0.8
v -0.9 0.4 1
v -0.9 0.4 0.8
v -0.9 0.4 0.6
v -0.9 0.4 0
v -0.9 0.4 -0.8
v -0.9 0.4 -1
v -0.9 0.5 0.7
v -0.9 0.5 0.6
v -0.9 0.5 0
v -0.9 0.5 -0.0999999
v -0.9 0.6 -0.0999999
v -0.9 0.6 -0.2
v -0.9 0.7 -0.2
v -0.9 0.7 -0.3
v -0.9 0.9 0.7
v -0.9 0.9 0.6
v -0.9 1 0.6
v -0.9 1 -0.3
v -0.9 1 -0.7
v -0.9 1 -1
v -0.9 1.8 1
v -0.9 1.8 0.8
v -0.9 1.8 -0.5
v -0.9 1.8 -0.7
v -0.9 2 0.8
v -0.9 2 -0.5
v -0.7 0.2 1
v -0.7 0.2 0.8
v -0.7 0.2 -0.8
v -0.7 0.2 -1
v -0.7 0.4 1
v -0.7 0.4 0.8
v -0.7 0.4 -0.8
v -0.7 0.4 -1
v -0.7 1 -0.7
v -0.7 1 -1
v -0.7 1.2 -0.7
v -0.7 1.2 -1
v -0.7 1.8 1
v -0.7 1.8 0.8
v -0.7 1.8 -0.5
v -0.7 1.8 -0.7
v -0.7 2 1
v -0.7 2 0.8
v -0.7 2 -0.5
v -0.7 2 -0.7
v -0.6 0 0.4
v -0.6 0 0
v -0.6 0.2 0.4
v -0.6 0.2 0
v -0.2 0.6 1.2
v -0.2 0.6 1
v -0.2 0.8 1.2
v -0.2 0.8 1
v 0.2 0 0.4
v 0.2 0 0
v 0.2 0.2 0.4
v 0.2 0.2 0
v -0.2 0 0.4
v -0.2 0 0
v -0.2 0.2 0.4
v -0.2 0.2 0
v 0.2 0.6 1.2
v 0.2 0.6 1
v 0.2 0.8 1.2
v 0.2 0.8 1
v 0.6 0 0.4
v 0.6 0 0
v 0.6 0.2 0.4
v 0.6 0.2 0
v 0.7 0.2 1
v 0.7 0.2 0.8
v 0.7 0.2 -0.8
v 0.7 0.2 -1
v 0.7 0.4 1
v 0.7 0.4 0.8
v 0.7 0.4 -0.8
v 0.7 0.4 -1
v 0.7 1 -0.7
v 0.7 1 -1
v 0.7 1.2 -0.7
v 0.7 1.2 -1
v 0.7 1.8 1
v 0.7 1.8 0.8
v 0.7 1.8 -0.5
v 0.7 1.8 -0.7
v 0.7 2 1
v 0.7 2 0.8
v 0.7 2 -0.5
v 0.7 2 -0.7
v 0.9 0.2 0.8
v 0.9 0.2 -0.8
v 0.9 0.4 1
v 0.9 0.4 0.8
v 0.9 0.4 0.6
v 0.9 0.4 0
v 0.9 0.4 -0.8
v 0.9 0.4 -1
v 0.9 0.5 0.7
v 0.9 0.5 0.6
v 0.9 0.5 0
v 0.9 0.5 -0.0999999
v 0.9 0.6 -0.0999999
v 0.9 0.6 -0.2
v 0.9 0.7 -0.2
v 0.9 0.7 -0.3
v 0.9 0.9 0.7
v 0.9 0.9 0.6
v 0.9 1 0.6
v 0.9 1 -0.3
v 0.9 1 -0.7
v 0.9 1 -1
v 0.9 1.8 1
v 0.9 1.8 0.8
v 0.9 1.8 -0.5
v 0.9 1.8 -0.7
v 0.9 2 0.8
v 0.9 2 -0.5
v 1 0.4 0.6
v 1 0.4 0
v 1 0.5 0.7
v 1 0.5 0.6
v 1 0.5 0
v 1 0.5 -0.0999999
v 1 0.6 -0.0999999
v 1 0.6 -0.2
v 1 0.7 -0.2
v 1 0.7 -0.3
v 1 0.9 0.7
v 1 0.9 0.6
v 1 1 0.6
v 1 1 -0.3
v -0.2 0.6 1.2
v -0.2 0.8 1.2
v 0.2 0.6 1.2
v 0.2 0.8 1.2
v -0.9 0.4 1
v -0.9 1.8 1
v -0.7 0.2 1
v -0.7 0.4 1
v -0.7 1.8 1
v -0.7 2 1
v -0.5 1 1
v -0.5 1.4 1
v -0.2 0.6 1
v -0.2 0.8 1
v -0.2 1 1
v -0.2 1.4 1
v 0.2 0.6 1
v 0.2 0.8 1
v 0.2 1 1
v 0.2 1.4 1
v 0.5 1 1
v 0.5 1.4 1
v 0.7 0.2 1
v 0.7 0.4 1
v 0.7 1.8 1
v 0.7 2 1
v 0.9 0.4 1
v 0.9 1.8 1
v -0.9 0.2 0.8
v -0.9 0.4 0.8
v -0.9 1.8 0.8
v -0.9 2 0.8
v -0.7 0.2 0.8
v -0.7 0.4 0.8
v -0.7 1.8 0.8
v -0.7 2 0.8
v 0.7 0.2 0.8
v 0.7 0.4 0.8
v 0.7 1.8 0.8
v 0.7 2 0.8
v 0.9 0.2 0.8
v 0.9 0.4 0.8
v 0.9 1.8 0.8
v 0.9 2 0.8
v -1 0.5 0.7
v -1 0.9 0.7
v -0.9 0.5 0.7
v -0.9 0.9 0.7
v 0.9 0.5 0.7
v 0.9 0.9 0.7
v 1 0.5 0.7
v 1 0.9 0.7
v -1 0.4 0.6
v -1 0.5 0.6
v -1 0.9 0.6
v -1 1 0.6
v -0.9 0.4 0.6
v -0.9 0.5 0.6
v -0.9 0.9 0.6
v -0.9 1 0.6
v 0.9 0.4 0.6
v 0.9 0.5 0.6
v 0.9 0.9 0.6
v 0.9 1 0.6
v 1 0.4 0.6
v 1 0.5 0.6
v 1 0.9 0.6
v 1 1 0.6
v -0.6 0 0.4
v -0.6 0.2 0.4
v -0.2 0 0.4
v -0.2 0.2 0.4
v 0.2 0 0.4
v 0.2 0.2 0.4
v 0.6 0 0.4
v 0.6 0.2 0.4
v -1 0.4 0
v -1 0.5 0
v -0.9 0.4 0
v -0.9 0.5 0
v -0.6 0 0
v -0.6 0.2 0
v -0.2 0 0
v -0.2 0.2 0
v 0.2 0 0
v 0.2 0.2 0
v 0.6 0 0
v 0.6 0.2 0
v 0.9 0.4 0
v 0.9 0.5 0
v 1 0.4 0
v 1 0.5 0
v -1 0.5 -0.0999999
v -1 0.6 -0.0999999
v -0.9 0.5 -0.0999999
v -0.9 0.6 -0.0999999
v 0.9 0.5 -0.0999999
v 0.9 0.6 -0.0999999
v 1 0.5 -0.0999999
v 1 0.6 -0.0999999
v -1 0.6 -0.2
v -1 0.7 -0.2
v -0.9 0.6 -0.2
v -0.9 0.7 -0.2
v 0.9 0.6 -0.2
v 0.9 0.7 -0.2
v 1 0.6 -0.2
v 1 0.7 -0.2
v -1 0.7 -0.3
v -1 1 -0.3
v -0.9 0.7 -0.3
v -0.9 1 -0.3
v 0.9 0.7 -0.3
v 0.9 1 -0.3
v 1 0.7 -0.3
v 1 1 -0.3
v -0.9 1.8 -0.5
v -0.9 2 -0.5
v -0.7 1.8 -0.5
v -0.7 2 -0.5
v 0.7 1.8 -0.5
v 0.7 2 -0.5
v 0.9 1.8 -0.5
v 0.9 2 -0.5
v -0.9 1 -0.7
v -0.9 1.8 -0.7
v -0.7 1 -0.7
v -0.7 1.2 -0.7
v -0.7 1.8 -0.7
v -0.7 2 -0.7
v 0.7 1 -0.7
v 0.7 1.2 -0.7
v 0.7 1.8 -0.7
v 0.7 2 -0.7
v 0.9 1 -0.7
v 0.9 1.8 -0.7
v -0.9 0.2 -0.8
v -0.9 0.4 -0.8
v -0.7 0.2 -0.8
v -0.7 0.4 -0.8
v 0.7 0.2 -0.8
v 0.7 0.4 -0.8
v 0.9 0.2 -0.8
v 0.9 0.4 -0.8
v -0.9 0.4 -1
v -0.9 1 -1
v -0.7 0.2 -1
v -0.7 0.4 -1
v -0.7 1 -1
v -0.7 1.2 -1
v 0.7 0.2 -1
v 0.7 0.4 -1
v 0.7 1 -1
v 0.7 1.2 -1
v 0.9 0.4 -1
v 0.9 1 -1
v -0.6 0 0.4
v -0.2 0 0.4
v 0.2 0 0.4
v 0.6 0 0.4
v -0.6 0 0
v -0.2 0 0
v 0.2 0 0
v 0.6 0 0
v -0.7 0.2 1
v 0.7 0.2 1
v -0.9 0.2 0.8
v -0.7 0.2 0.8
v 0.7 0.2 0.8
v 0.9 0.2 0.8
v -0.6 0.2 0.4
v -0.2 0.2 0.4
v 0.2 0.2 0.4
v 0.6 0.2 0.4
v -0.6 0.2 0
v -0.2 0.2 0
v 0.2 0.2 0
v 0.6 0.2 0
v -0.9 0.2 -0.8
v -0.7 0.2 -0.8
v 0.7 0.2 -0.8
v 0.9 0.2 -0.8
v -0.7 0.2 -1
v 0.7 0.2 -1
v -0.9 0.4 1
v -0.7 0.4 1
v 0.7 0.4 1
v 0.9 0.4 1
v -0.9 0.4 0.8
v -0.7 0.4 0.8
v 0.7 0.4 0.8
v 0.9 0.4 0.8
v -1 0.4 0.6
v -0.9 0.4 0.6
v 0.9 0.4 0.6
v 1 0.4 0.6
v -1 0.4 0
v -0.9 0.4 0
v 0.9 0.4 0
v 1 0.4 0
v -0.9 0.4 -0.8
v -0.7 0.4 -0.8
v 0.7 0.4 -0.8
v 0.9 0.4 -0.8
v -0.9 0.4 -1
v -0.7 0.4 -1
v 0.7 0.4 -1
v 0.9 0.4 -1
v -1 0.5 0.7
v -0.9 0.5 0.7
v 0.9 0.5 0.7
v 1 0.5 0.7
v -1 0.5 0.6
v -0.9 0.5 0.6
v 0.9 0.5 0.6
v 1 0.5 0.6
v -1 0.5 0
v -0.9 0.5 0
v 0.9 0.5 0
v 1 0.5 0
v -1 0.5 -0.0999999
v -0.9 0.5 -0.0999999
v 0.9 0.5 -0.0999999
v 1 0.5 -0.0999999
v -0.2 0.6 1.2
v 0.2 0.6 1.2
v -0.2 0.6 1
v 0.2 0.6 1
v -1 0.6 -0.0999999
v -0.9 0.6 -0.0999999
v 0.9 0.6 -0.0999999
v 1 0.6 -0.0999999
v -1 0.6 -0.2
v -0.9 0.6 -0.2
v 0.9 0.6 -0.2
v 1 0.6 -0.2
v -1 0.7 -0.2
v -0.9 0.7 -0.2
v 0.9 0.7 -0.2
v 1 0.7 -0.2
v -1 0.7 -0.3
v -0.9 0.7 -0.3
v 0.9 0.7 -0.3
v 1 0.7 -0.3
v -0.2 0.8 1.2
v 0.2 0.8 1.2
v -0.2 0.8 1
v 0.2 0.8 1
v -1 0.9 0.7
v -0.9 0.9 0.7
v 0.9 0.9 0.7
v 1 0.9 0.7
v -1 0.9 0.6
v -0.9 0.9 0.6
v 0.9 0.9 0.6
v 1 0.9 0.6
v -1 1 0.6
v -0.9 1 0.6
v 0.9 1 0.6
v 1 1 0.6
v -1 1 -0.3
v -0.9 1 -0.3
v 0.9 1 -0.3
v 1 1 -0.3
v -0.9 1 -0.7
v -0.7 1 -0.7
v 0.7 1 -0.7
v 0.9 1 -0.7
v -0.9 1 -1
v -0.7 1 -1
v 0.7 1 -1
v 0.9 1 -1
v -0.7 1.2 -0.7
v 0.7 1.2 -0.7
v -0.7 1.2 -1
v 0.7 1.2 -1
v -0.9 1.8 1
v -0.7 1.8 1
v 0.7 1.8 1
v 0.9 1.8 1
v -0.9 1.8 0.8
v -0.7 1.8 0.8
v 0.7 1.8 0.8
v 0.9 1.8 0.8
v -0.9 1.8 -0.5
v -0.7 1.8 -0.5
v 0.7 1.8 -0.5
v 0.9 1.8 -0.5
v -0.9 1.8 -0.7
v -0.7 1.8 -0.7
v 0.7 1.8 -0.7
v 0.9 1.8 -0.7
v -0.7 2 1
v 0.7 2 1
v -0.9 2 0.8
v -0.7 2 0.8
v 0.7 2 0.8
v 0.9 2 0.8
v -0.9 2 -0.5
v -0.7 2 -0.5
v 0.7 2 -0.5
v 0.9 2 -0.5
v -0.7 2 -0.7
v 0.7 2 -0.7

# faces
f 4/4/1 2/4/1 1/4/1
f 5/4/1 2/4/1 4/4/1
f 7/4/1 4/4/1 3/4/1
f 7/4/1 6/4/1 5/4/1
f 7/4/1 5/4/1 4/4/1
f 9/4/1 8/4/1 7/4/1
f 11/4/1 7/4/1 3/4/1
f 11/4/1 10/4/1 9/4/1
f 11/4/1 9/4/1 7/4/1
f 12/4/1 10/4/1 11/4/1
f 13/4/1 10/4/1 12/4/1
f 14/4/1 10/4/1 13/4/1
f 18/5/1 16/5/1 15/5/1
f 19/5/1 16/5/1 18/5/1
f 20/5/1 16/5/1 19/5/1
f 21/5/1 16/5/1 20/5/1
f 23/5/1 18/5/1 17/5/1
f 23/5/1 19/5/1 18/5/1
f 24/5/1 19/5/1 23/5/1
f 25/5/1 22/5/1 21/5/1
f 25/5/1 21/5/1 20/5/1
f 26/5/1 22/5/1 25/5/1
f 27/5/1 22/5/1 26/5/1
f 28/5/1 22/5/1 27/5/1
f 29/5/1 22/5/1 28/5/1
f 30/5/1 22/5/1 29/5/1
f 31/5/1 23/5/1 17/5/1
f 33/5/1 32/5/1 31/5/1
f 34/5/1 22/5/1 30/5/1
f 35/5/1 22/5/1 34/5/1
f 36/5/1 22/5/1 35/5/1
f 37/5/1 33/5/1 31/5/1
f 37/5/1 31/5/1 17/5/1
f 37/5/1 35/5/1 34/5/1
f 37/5/1 34/5/1 33/5/1
f 38/5/1 35/5/1 37/5/1
f 39/5/1 35/5/1 38/5/1
f 40/5/1 35/5/1 39/5/1
f 41/5/1 39/5/1 38/5/1
f 42/5/1 39/5/1 41/5/1
f 47/5/1 44/5/1 43/5/1
f 48/5/1 44/5/1 47/5/1
f 49/5/1 46/5/1 45/5/1
f 50/5/1 46/5/1 49/5/1
f 53/5/1 52/5/1 51/5/1
f 54/5/1 52/5/1 53/5/1
f 59/5/1 56/5/1 55/5/1
f 60/5/1 56/5/1 59/5/1
f 61/5/1 58/5/1 57/5/1
f 62/5/1 58/5/1 61/5/1
f 65/4/1 64/4/1 63/4/1
f 66/4/1 64/4/1 65/4/1
f 69/4/1 68/4/1 67/4/1
f 70/4/1 68/4/1 69/4/1
f 73/4/1 72/4/1 71/4/1
f 74/4/1 72/4/1 73/4/1
f 75/4/2 76/4/2 77/4/2
f 77/4/2 76/4/2 78/4/2
f 79/4/2 80/4/2 81/4/2
f 81/4/2 80/4/2 82/4/2
f 83/4/2 84/4/2 85/4/2
f 85/4/2 84/4/2 86/4/2
f 87/5/2 88/5/2 91/5/2
f 91/5/2 88/5/2 92/5/2
f 89/5/2 90/5/2 93/5/2
f 93/5/2 90/5/2 94/5/2
f 95/5/2 96/5/2 97/5/2
f 97/5/2 96/5/2 98/5/2
f 99/5/2 100/5/2 103/5/2
f 103/5/2 100/5/2 104/5/2
f 101/5/2 102/5/2 105/5/2
f 105/5/2 102/5/2 106/5/2
f 107/5/2 108/5/2 110/5/2
f 110/5/2 108/5/2 111/5/2
f 111/5/2 108/5/2 112/5/2
f 112/5/2 108/5/2 113/5/2
f 109/5/2 110/5/2 115/5/2
f 110/5/2 111/5/2 115/5/2
f 115/5/2 111/5/2 116/5/2
f 113/5/2 114/5/2 117/5/2
f 112/5/2 113/5/2 117/5/2
f 117/5/2 114/5/2 118/5/2
f 118/5/2 114/5/2 119/5/2
f 119/5/2 114/5/2 120/5/2
f 120/5/2 114/5/2 121/5/2
f 121/5/2 114/5/2 122/5/2
f 109/5/2 115/5/2 123/5/2
f 123/5/2 124/5/2 125/5/2
f 122/5/2 114/5/2 126/5/2
f 126/5/2 114/5/2 127/5/2
f 127/5/2 114/5/2 128/5/2
f 123/5/2 125/5/2 129/5/2
f 109/5/2 123/5/2 129/5/2
f 126/5/2 127/5/2 129/5/2
f 125/5/2 126/5/2 129/5/2
f 129/5/2 127/5/2 130/5/2
f 130/5/2 127/5/2 131/5/2
f 131/5/2 127/5/2 132/5/2
f 130/5/2 131/5/2 133/5/2
f 133/5/2 131/5/2 134/5/2
f 135/4/2 136/4/2 138/4/2
f 138/4/2 136/4/2 139/4/2
f 137/4/2 138/4/2 141/4/2
f 139/4/2 140/4/2 141/4/2
f 138/4/2 139/4/2 141/4/2
f 141/4/2 142/4/2 143/4/2
f 137/4/2 141/4/2 145/4/2
f 143/4/2 144/4/2 145/4/2
f 141/4/2 143/4/2 145/4/2
f 145/4/2 144/4/2 146/4/2
f 146/4/2 144/4/2 147/4/2
f 147/4/2 144/4/2 148/4/2
f 151/4/3 150/4/3 149/4/3
f 152/4/3 150/4/3 151/4/3
f 156/5/3 154/5/3 153/5/3
f 157/5/3 154/5/3 156/5/3
f 159/5/3 156/5/3 155/5/3
f 159/5/3 158/5/3 157/5/3
f 159/5/3 157/5/3 156/5/3
f 160/5/3 158/5/3 159/5/3
f 161/5/3 159/5/3 155/5/3
f 162/5/3 159/5/3 161/5/3
f 163/6/3 160/6/3 159/6/3
f 163/5/3 159/5/3 162/5/3
f 164/5/3 158/5/3 160/5/3
f 164/6/3 160/6/3 163/6/3
f 165/5/3 161/5/3 155/5/3
f 166/5/3 163/5/3 162/5/3
f 166/5/3 164/5/3 163/5/3
f 167/5/3 164/5/3 166/5/3
f 168/5/3 158/5/3 164/5/3
f 168/5/3 164/5/3 167/5/3
f 169/5/3 167/5/3 166/5/3
f 169/5/3 166/5/3 165/5/3
f 169/6/3 168/6/3 167/6/3
f 170/5/3 158/5/3 168/5/3
f 170/6/3 168/6/3 169/6/3
f 171/5/3 165/5/3 155/5/3
f 171/5/3 169/5/3 165/5/3
f 171/5/3 170/5/3 169/5/3
f 172/5/3 170/5/3 171/5/3
f 173/5/3 158/5/3 170/5/3
f 173/5/3 170/5/3 172/5/3
f 174/5/3 158/5/3 173/5/3
f 175/5/3 173/5/3 172/5/3
f 176/5/3 173/5/3 175/5/3
f 181/5/3 178/5/3 177/5/3
f 182/5/3 178/5/3 181/5/3
f 183/5/3 180/5/3 179/5/3
f 184/5/3 180/5/3 183/5/3
f 189/5/3 186/5/3 185/5/3
f 190/5/3 186/5/3 189/5/3
f 191/5/3 188/5/3 187/5/3
f 192/5/3 188/5/3 191/5/3
f 195/4/3 194/4/3 193/4/3
f 196/4/3 194/4/3 195/4/3
f 199/4/3 198/4/3 197/4/3
f 200/4/3 198/4/3 199/4/3
f 205/4/3 202/4/3 201/4/3
f 206/4/3 202/4/3 205/4/3
f 207/4/3 204/4/3 203/4/3
f 208/4/3 204/4/3 207/4/3
f 213/4/3 210/4/3 209/4/3
f 214/4/3 210/4/3 213/4/3
f 215/4/3 212/4/3 211/4/3
f 216/4/3 212/4/3 215/4/3
f 219/4/3 218/4/3 217/4/3
f 220/4/3 218/4/3 219/4/3
f 223/4/3 222/4/3 221/4/3
f 224/4/3 222/4/3 223/4/3
f 225/4/4 226/4/4 227/4/4
f 227/4/4 226/4/4 228/4/4
f 229/4/4 230/4/4 231/4/4
f 231/4/4 230/4/4 232/4/4
f 233/4/4 234/4/4 235/4/4
f 235/4/4 234/4/4 236/4/4
f 237/4/4 238/4/4 239/4/4
f 239/4/4 238/4/4 240/4/4
f 241/4/4 242/4/4 243/4/4
f 243/4/4 242/4/4 244/4/4
f 245/4/4 246/4/4 247/4/4
f 247/4/4 246/4/4 248/4/4
f 249/4/4 250/4/4 251/4/4
f 251/4/4 250/4/4 252/4/4
f 253/4/4 254/4/4 255/4/4
f 255/4/4 254/4/4 256/4/4
f 257/4/4 258/4/4 259/4/4
f 259/4/4 258/4/4 260/4/4
f 261/4/4 262/4/4 263/4/4
f 263/4/4 262/4/4 264/4/4
f 265/5/4 266/5/4 267/5/4
f 267/5/4 266/5/4 268/5/4
f 269/5/4 270/5/4 271/5/4
f 271/5/4 270/5/4 272/5/4
f 273/5/4 274/5/4 275/5/4
f 275/5/4 274/5/4 276/5/4
f 276/5/4 274/5/4 277/5/4
f 277/5/4 278/5/4 280/5/4
f 276/5/4 277/5/4 280/5/4
f 280/5/4 278/5/4 281/5/4
f 281/5/4 278/5/4 282/5/4
f 279/5/4 280/5/4 283/5/4
f 280/5/4 281/5/4 283/5/4
f 283/5/4 281/5/4 284/5/4
f 285/5/4 286/5/4 287/5/4
f 287/5/4 286/5/4 288/5/4
f 289/5/4 290/5/4 291/5/4
f 291/5/4 290/5/4 292/5/4
f 293/5/4 294/5/4 296/5/4
f 296/5/4 294/5/4 297/5/4
f 295/5/4 296/5/4 299/5/4
f 297/5/4 298/5/4 299/5/4
f 296/5/4 297/5/4 299/5/4
f 299/5/4 298/5/4 300/5/4
f 300/5/4 298/5/4 301/5/4
f 301/5/4 298/5/4 302/5/4
f 300/5/4 301/5/4 303/5/4
f 303/5/4 301/5/4 304/5/4
f 309/4/5 306/4/5 305/4/5
f 310/4/5 306/4/5 309/4/5
f 311/4/5 308/4/5 307/4/5
f 312/4/5 308/4/5 311/4/5
f 316/5/5 314/5/5 313/5/5
f 317/5/5 314/5/5 316/5/5
f 319/5/5 316/5/5 315/5/5
f 319/5/5 318/5/5 317/5/5
f 319/5/5 317/5/5 316/5/5
f 320/5/5 318/5/5 319/5/5
f 321/5/5 318/5/5 320/5/5
f 322/5/5 318/5/5 321/5/5
f 323/5/5 319/5/5 315/5/5
f 324/5/5 321/5/5 320/5/5
f 325/5/5 321/5/5 324/5/5
f 326/5/5 318/5/5 322/5/5
f 327/5/5 325/5/5 324/5/5
f 327/5/5 326/5/5 325/5/5
f 327/5/5 323/5/5 315/5/5
f 327/5/5 324/5/5 323/5/5
f 328/5/5 326/5/5 327/5/5
f 329/5/5 318/5/5 326/5/5
f 329/5/5 326/5/5 328/5/5
f 330/5/5 318/5/5 329/5/5
f 331/5/5 329/5/5 328/5/5
f 332/5/5 329/5/5 331/5/5
f 337/5/5 334/5/5 333/5/5
f 338/5/5 334/5/5 337/5/5
f 339/5/5 336/5/5 335/5/5
f 340/5/5 336/5/5 339/5/5
f 345/4/5 342/4/5 341/4/5
f 346/4/5 342/4/5 345/4/5
f 347/4/5 344/4/5 343/4/5
f 348/4/5 344/4/5 347/4/5
f 353/5/5 350/5/5 349/5/5
f 354/5/5 350/5/5 353/5/5
f 355/5/5 352/5/5 351/5/5
f 356/5/5 352/5/5 355/5/5
f 361/4/5 358/4/5 357/4/5
f 362/4/5 358/4/5 361/4/5
f 363/4/5 360/4/5 359/4/5
f 364/4/5 360/4/5 363/4/5
f 369/4/5 366/4/5 365/4/5
f 370/4/5 366/4/5 369/4/5
f 371/4/5 368/4/5 367/4/5
f 372/4/5 368/4/5 371/4/5
f 375/4/5 374/4/5 373/4/5
f 376/4/5 374/4/5 375/4/5
f 381/4/5 378/4/5 377/4/5
f 382/4/5 378/4/5 381/4/5
f 383/4/5 380/4/5 379/4/5
f 384/4/5 380/4/5 383/4/5
f 389/4/5 386/4/5 385/4/5
f 390/4/5 386/4/5 389/4/5
f 391/4/5 388/4/5 387/4/5
f 392/4/5 388/4/5 391/4/5
f 393/4/6 394/4/6 395/4/6
f 395/4/6 394/4/6 396/4/6
f 397/4/6 398/4/6 401/4/6
f 401/4/6 398/4/6 402/4/6
f 399/4/6 400/4/6 403/4/6
f 403/4/6 400/4/6 404/4/6
f 405/4/6 406/4/6 409/4/6
f 409/4/6 406/4/6 410/4/6
f 407/4/6 408/4/6 411/4/6
f 411/4/6 408/4/6 412/4/6
f 413/5/6 414/5/6 417/5/6
f 417/5/6 414/5/6 418/5/6
f 415/5/6 416/5/6 419/5/6
f 419/5/6 416/5/6 420/5/6
f 421/5/6 422/5/6 423/5/6
f 423/5/6 422/5/6 424/5/6
f 425/5/6 426/5/6 429/5/6
f 429/5/6 426/5/6 430/5/6
f 427/5/6 428/5/6 431/5/6
f 431/5/6 428/5/6 432/5/6
f 433/5/6 434/5/6 437/5/6
f 437/5/6 434/5/6 438/5/6
f 435/5/6 436/5/6 439/5/6
f 439/5/6 436/5/6 440/5/6
f 441/5/6 442/5/6 444/5/6
f 444/5/6 442/5/6 445/5/6
f 443/5/6 444/5/6 447/5/6
f 445/5/6 446/5/6 447/5/6
f 444/5/6 445/5/6 447/5/6
f 447/5/6 446/5/6 448/5/6
f 448/5/6 446/5/6 449/5/6
f 449/5/6 446/5/6 450/5/6
f 448/5/6 449/5/6 451/5/6
f 451/5/6 449/5/6 452/5/6
