# MagicaVoxel @ Ephtracy

# group
o 

# material
mtllib angel_baby.mtl
usemtl palette

# normals
vn -1 0 0
vn 1 0 0
vn 0 0 1
vn 0 0 -1
vn 0 -1 0
vn 0 1 0

# texcoords
vt 0.517578 0.5
vt 0.556641 0.5
vt 0.958984 0.5
vt 0.970703 0.5
vt 0.974609 0.5
vt 0.978516 0.5

# verts
v -1 0.4 0.6
v -1 0.4 0
v -1 0.5 0.7
v -1 0.5 0.6
v -1 0.5 0
v -1 0.5 -0.1
v -1 0.6 -0.1
v -1 0.6 -0.2
v -1 0.7 -0.2
v -1 0.7 -0.3
v -1 0.9 0.7
v -1 0.9 0.6
v -1 1 0.6
v -1 1 -0.3
v -0.9 0.2 0.8
v -0.9 0.2 -0.8
v -0.9 0.4 1
v -0.9 0.4 0.8
v -0.9 0.4 0.6
v -0.9 0.4 0
v -0.9 0.4 -0.8
v -0.9 0.4 -1
v -0.9 0.5 0.7
v -0.9 0.5 0.6
v -0.9 0.5 0
v -0.9 0.5 -0.1
v -0.9 0.6 -0.1
v -0.9 0.6 -0.2
v -0.9 0.7 -0.2
v -0.9 0.7 -0.3
v -0.9 0.9 0.7
v -0.9 0.9 0.6
v -0.9 1 0.6
v -0.9 1 -0.3
v -0.9 1 -0.7
v -0.9 1 -1
v -0.9 1.8 1
v -0.9 1.8 0.8
v -0.9 1.8 -0.5
v -0.9 1.8 -0.7
v -0.9 2 0.8
v -0.9 2 -0.5
v -0.7 0.2 1
v -0.7 0.2 0.8
v -0.7 0.2 -0.8
v -0.7 0.2 -1
v -0.7 0.4 1
v -0.7 0.4 0.8
v -0.7 0.4 -0.8
v -0.7 0.4 -1
v -0.7 1 -0.7
v -0.7 1 -1
v -0.7 1.2 -0.7
v -0.7 1.2 -1
v -0.7 1.8 1
v -0.7 1.8 0.8
v -0.7 1.8 -0.5
v -0.7 1.8 -0.7
v -0.7 2 1
v -0.7 2 0.8
v -0.7 2 -0.5
v -0.7 2 -0.7
v -0.6 0 0.4
v -0.6 0 0
v -0.6 0.2 0.4
v -0.6 0.2 0
v -0.4 2.2 0.5
v -0.4 2.2 -0.1
v -0.4 2.4 0.5
v -0.4 2.4 -0.1
v -0.3 2.2 0.6
v -0.3 2.2 0.5
v -0.3 2.2 -0.1
v -0.3 2.2 -0.2
v -0.3 2.4 0.6
v -0.3 2.4 0.5
v -0.3 2.4 -0.1
v -0.3 2.4 -0.2
v 0.1 2.2 0.4
v 0.1 2.2 0.3
v 0.1 2.2 0.1
v 0.1 2.2 0
v 0.1 2.4 0.4
v 0.1 2.4 0.3
v 0.1 2.4 0.1
v 0.1 2.4 0
v 0.2 0 0.4
v 0.2 0 0
v 0.2 0.2 0.4
v 0.2 0.2 0
v 0.2 2.2 0.5
v 0.2 2.2 0.4
v 0.2 2.2 0.3
v 0.2 2.2 0.1
v 0.2 2.3 0.5
v 0.2 2.3 0.4
v 0.2 2.4 0.3
v 0.2 2.4 0.1
v -0.2 0 0.4
v -0.2 0 0
v -0.2 0.2 0.4
v -0.2 0.2 0
v -0.2 2.2 0.3
v -0.2 2.2 0.1
v -0.2 2.4 0.3
v -0.2 2.4 0.1
v -0.1 2.2 0.4
v -0.1 2.2 0.3
v -0.1 2.2 0.1
v -0.1 2.2 0
v -0.1 2.4 0.4
v -0.1 2.4 0.3
v -0.1 2.4 0.1
v -0.1 2.4 0
v 0.1 2.2 0.5
v 0.1 2.2 0.4
v 0.1 2.3 0.5
v 0.1 2.3 0.4
v 0.3 2.2 0.6
v 0.3 2.2 0.5
v 0.3 2.2 -0.1
v 0.3 2.2 -0.2
v 0.3 2.4 0.6
v 0.3 2.4 0.5
v 0.3 2.4 -0.1
v 0.3 2.4 -0.2
v 0.4 2.2 0.5
v 0.4 2.2 -0.1
v 0.4 2.4 0.5
v 0.4 2.4 -0.1
v 0.6 0 0.4
v 0.6 0 0
v 0.6 0.2 0.4
v 0.6 0.2 0
v 0.7 0.2 1
v 0.7 0.2 0.8
v 0.7 0.2 -0.8
v 0.7 0.2 -1
v 0.7 0.4 1
v 0.7 0.4 0.8
v 0.7 0.4 -0.8
v 0.7 0.4 -1
v 0.7 1 -0.7
v 0.7 1 -1
v 0.7 1.2 -0.7
v 0.7 1.2 -1
v 0.7 1.8 1
v 0.7 1.8 0.8
v 0.7 1.8 -0.5
v 0.7 1.8 -0.7
v 0.7 2 1
v 0.7 2 0.8
v 0.7 2 -0.5
v 0.7 2 -0.7
v 0.9 0.2 0.8
v 0.9 0.2 -0.8
v 0.9 0.4 1
v 0.9 0.4 0.8
v 0.9 0.4 0.6
v 0.9 0.4 0
v 0.9 0.4 -0.8
v 0.9 0.4 -1
v 0.9 0.5 0.7
v 0.9 0.5 0.6
v 0.9 0.5 0
v 0.9 0.5 -0.1
v 0.9 0.6 -0.1
v 0.9 0.6 -0.2
v 0.9 0.7 -0.2
v 0.9 0.7 -0.3
v 0.9 0.9 0.7
v 0.9 0.9 0.6
v 0.9 1 0.6
v 0.9 1 -0.3
v 0.9 1 -0.7
v 0.9 1 -1
v 0.9 1.8 1
v 0.9 1.8 0.8
v 0.9 1.8 -0.5
v 0.9 1.8 -0.7
v 0.9 2 0.8
v 0.9 2 -0.5
v 1 0.4 0.6
v 1 0.4 0
v 1 0.5 0.7
v 1 0.5 0.6
v 1 0.5 0
v 1 0.5 -0.1
v 1 0.6 -0.1
v 1 0.6 -0.2
v 1 0.7 -0.2
v 1 0.7 -0.3
v 1 0.9 0.7
v 1 0.9 0.6
v 1 1 0.6
v 1 1 -0.3
v -0.9 0.4 1
v -0.9 1.8 1
v -0.7 0.2 1
v -0.7 0.4 1
v -0.7 1.8 1
v -0.7 2 1
v -0.5 1 1
v -0.5 1.4 1
v -0.2 0.7 1
v -0.2 0.8 1
v -0.2 1 1
v -0.2 1.4 1
v 0.2 0.7 1
v 0.2 0.8 1
v 0.2 1 1
v 0.2 1.4 1
v 0.5 1 1
v 0.5 1.4 1
v 0.7 0.2 1
v 0.7 0.4 1
v 0.7 1.8 1
v 0.7 2 1
v 0.9 0.4 1
v 0.9 1.8 1
v -0.9 0.2 0.8
v -0.9 0.4 0.8
v -0.9 1.8 0.8
v -0.9 2 0.8
v -0.7 0.2 0.8
v -0.7 0.4 0.8
v -0.7 1.8 0.8
v -0.7 2 0.8
v 0.7 0.2 0.8
v 0.7 0.4 0.8
v 0.7 1.8 0.8
v 0.7 2 0.8
v 0.9 0.2 0.8
v 0.9 0.4 0.8
v 0.9 1.8 0.8
v 0.9 2 0.8
v -1 0.5 0.7
v -1 0.9 0.7
v -0.9 0.5 0.7
v -0.9 0.9 0.7
v 0.9 0.5 0.7
v 0.9 0.9 0.7
v 1 0.5 0.7
v 1 0.9 0.7
v -1 0.4 0.6
v -1 0.5 0.6
v -1 0.9 0.6
v -1 1 0.6
v -0.9 0.4 0.6
v -0.9 0.5 0.6
v -0.9 0.9 0.6
v -0.9 1 0.6
v -0.3 2.2 0.6
v -0.3 2.4 0.6
v 0.3 2.2 0.6
v 0.3 2.4 0.6
v 0.9 0.4 0.6
v 0.9 0.5 0.6
v 0.9 0.9 0.6
v 0.9 1 0.6
v 1 0.4 0.6
v 1 0.5 0.6
v 1 0.9 0.6
v 1 1 0.6
v -0.4 2.2 0.5
v -0.4 2.4 0.5
v -0.3 2.2 0.5
v -0.3 2.4 0.5
v 0.3 2.2 0.5
v 0.3 2.4 0.5
v 0.4 2.2 0.5
v 0.4 2.4 0.5
v -0.6 0 0.4
v -0.6 0.2 0.4
v -0.2 0 0.4
v -0.2 0.2 0.4
v 0.1 2.2 0.4
v 0.1 2.3 0.4
v 0.2 0 0.4
v 0.2 0.2 0.4
v 0.2 2.2 0.4
v 0.2 2.3 0.4
v 0.6 0 0.4
v 0.6 0.2 0.4
v -0.2 2.2 0.1
v -0.2 2.4 0.1
v -0.1 2.2 0.1
v -0.1 2.4 0.1
v 0.1 2.2 0.1
v 0.1 2.4 0.1
v 0.2 2.2 0.1
v 0.2 2.4 0.1
v -0.1 2.2 0
v -0.1 2.4 0
v 0.1 2.2 0
v 0.1 2.4 0
v 0.1 2.2 0.5
v 0.1 2.3 0.5
v 0.2 2.2 0.5
v 0.2 2.3 0.5
v -0.1 2.2 0.4
v -0.1 2.4 0.4
v 0.1 2.2 0.4
v 0.1 2.4 0.4
v -0.2 2.2 0.3
v -0.2 2.4 0.3
v -0.1 2.2 0.3
v -0.1 2.4 0.3
v 0.1 2.2 0.3
v 0.1 2.4 0.3
v 0.2 2.2 0.3
v 0.2 2.4 0.3
v -1 0.4 0
v -1 0.5 0
v -0.9 0.4 0
v -0.9 0.5 0
v -0.6 0 0
v -0.6 0.2 0
v -0.2 0 0
v -0.2 0.2 0
v 0.2 0 0
v 0.2 0.2 0
v 0.6 0 0
v 0.6 0.2 0
v 0.9 0.4 0
v 0.9 0.5 0
v 1 0.4 0
v 1 0.5 0
v -1 0.5 -0.1
v -1 0.6 -0.1
v -0.9 0.5 -0.1
v -0.9 0.6 -0.1
v -0.4 2.2 -0.1
v -0.4 2.4 -0.1
v -0.3 2.2 -0.1
v -0.3 2.4 -0.1
v 0.3 2.2 -0.1
v 0.3 2.4 -0.1
v 0.4 2.2 -0.1
v 0.4 2.4 -0.1
v 0.9 0.5 -0.1
v 0.9 0.6 -0.1
v 1 0.5 -0.1
v 1 0.6 -0.1
v -1 0.6 -0.2
v -1 0.7 -0.2
v -0.9 0.6 -0.2
v -0.9 0.7 -0.2
v -0.3 2.2 -0.2
v -0.3 2.4 -0.2
v 0.3 2.2 -0.2
v 0.3 2.4 -0.2
v 0.9 0.6 -0.2
v 0.9 0.7 -0.2
v 1 0.6 -0.2
v 1 0.7 -0.2
v -1 0.7 -0.3
v -1 1 -0.3
v -0.9 0.7 -0.3
v -0.9 1 -0.3
v 0.9 0.7 -0.3
v 0.9 1 -0.3
v 1 0.7 -0.3
v 1 1 -0.3
v -0.9 1.8 -0.5
v -0.9 2 -0.5
v -0.7 1.8 -0.5
v -0.7 2 -0.5
v 0.7 1.8 -0.5
v 0.7 2 -0.5
v 0.9 1.8 -0.5
v 0.9 2 -0.5
v -0.9 1 -0.7
v -0.9 1.8 -0.7
v -0.7 1 -0.7
v -0.7 1.2 -0.7
v -0.7 1.8 -0.7
v -0.7 2 -0.7
v 0.7 1 -0.7
v 0.7 1.2 -0.7
v 0.7 1.8 -0.7
v 0.7 2 -0.7
v 0.9 1 -0.7
v 0.9 1.8 -0.7
v -0.9 0.2 -0.8
v -0.9 0.4 -0.8
v -0.7 0.2 -0.8
v -0.7 0.4 -0.8
v 0.7 0.2 -0.8
v 0.7 0.4 -0.8
v 0.9 0.2 -0.8
v 0.9 0.4 -0.8
v -0.9 0.4 -1
v -0.9 1 -1
v -0.7 0.2 -1
v -0.7 0.4 -1
v -0.7 1 -1
v -0.7 1.2 -1
v 0.7 0.2 -1
v 0.7 0.4 -1
v 0.7 1 -1
v 0.7 1.2 -1
v 0.9 0.4 -1
v 0.9 1 -1
v -0.6 0 0.4
v -0.2 0 0.4
v 0.2 0 0.4
v 0.6 0 0.4
v -0.6 0 0
v -0.2 0 0
v 0.2 0 0
v 0.6 0 0
v -0.7 0.2 1
v 0.7 0.2 1
v -0.9 0.2 0.8
v -0.7 0.2 0.8
v 0.7 0.2 0.8
v 0.9 0.2 0.8
v -0.6 0.2 0.4
v -0.2 0.2 0.4
v 0.2 0.2 0.4
v 0.6 0.2 0.4
v -0.6 0.2 0
v -0.2 0.2 0
v 0.2 0.2 0
v 0.6 0.2 0
v -0.9 0.2 -0.8
v -0.7 0.2 -0.8
v 0.7 0.2 -0.8
v 0.9 0.2 -0.8
v -0.7 0.2 -1
v 0.7 0.2 -1
v -0.9 0.4 1
v -0.7 0.4 1
v 0.7 0.4 1
v 0.9 0.4 1
v -0.9 0.4 0.8
v -0.7 0.4 0.8
v 0.7 0.4 0.8
v 0.9 0.4 0.8
v -1 0.4 0.6
v -0.9 0.4 0.6
v 0.9 0.4 0.6
v 1 0.4 0.6
v -1 0.4 0
v -0.9 0.4 0
v 0.9 0.4 0
v 1 0.4 0
v -0.9 0.4 -0.8
v -0.7 0.4 -0.8
v 0.7 0.4 -0.8
v 0.9 0.4 -0.8
v -0.9 0.4 -1
v -0.7 0.4 -1
v 0.7 0.4 -1
v 0.9 0.4 -1
v -1 0.5 0.7
v -0.9 0.5 0.7
v 0.9 0.5 0.7
v 1 0.5 0.7
v -1 0.5 0.6
v -0.9 0.5 0.6
v 0.9 0.5 0.6
v 1 0.5 0.6
v -1 0.5 0
v -0.9 0.5 0
v 0.9 0.5 0
v 1 0.5 0
v -1 0.5 -0.1
v -0.9 0.5 -0.1
v 0.9 0.5 -0.1
v 1 0.5 -0.1
v -1 0.6 -0.1
v -0.9 0.6 -0.1
v 0.9 0.6 -0.1
v 1 0.6 -0.1
v -1 0.6 -0.2
v -0.9 0.6 -0.2
v 0.9 0.6 -0.2
v 1 0.6 -0.2
v -1 0.7 -0.2
v -0.9 0.7 -0.2
v 0.9 0.7 -0.2
v 1 0.7 -0.2
v -1 0.7 -0.3
v -0.9 0.7 -0.3
v 0.9 0.7 -0.3
v 1 0.7 -0.3
v -0.3 2.2 0.6
v 0.3 2.2 0.6
v -0.4 2.2 0.5
v -0.3 2.2 0.5
v 0.1 2.2 0.5
v 0.2 2.2 0.5
v 0.3 2.2 0.5
v 0.4 2.2 0.5
v -0.1 2.2 0.4
v 0.1 2.2 0.4
v 0.2 2.2 0.4
v -0.2 2.2 0.3
v -0.1 2.2 0.3
v 0.1 2.2 0.3
v 0.2 2.2 0.3
v -0.2 2.2 0.1
v -0.1 2.2 0.1
v 0.1 2.2 0.1
v 0.2 2.2 0.1
v -0.1 2.2 0
v 0.1 2.2 0
v -0.4 2.2 -0.1
v -0.3 2.2 -0.1
v 0.3 2.2 -0.1
v 0.4 2.2 -0.1
v -0.3 2.2 -0.2
v 0.3 2.2 -0.2
v 0.1 2.3 0.5
v 0.2 2.3 0.5
v 0.1 2.3 0.4
v 0.2 2.3 0.4
v -1 0.9 0.7
v -0.9 0.9 0.7
v 0.9 0.9 0.7
v 1 0.9 0.7
v -1 0.9 0.6
v -0.9 0.9 0.6
v 0.9 0.9 0.6
v 1 0.9 0.6
v -1 1 0.6
v -0.9 1 0.6
v 0.9 1 0.6
v 1 1 0.6
v -1 1 -0.3
v -0.9 1 -0.3
v 0.9 1 -0.3
v 1 1 -0.3
v -0.9 1 -0.7
v -0.7 1 -0.7
v 0.7 1 -0.7
v 0.9 1 -0.7
v -0.9 1 -1
v -0.7 1 -1
v 0.7 1 -1
v 0.9 1 -1
v -0.7 1.2 -0.7
v 0.7 1.2 -0.7
v -0.7 1.2 -1
v 0.7 1.2 -1
v -0.9 1.8 1
v -0.7 1.8 1
v 0.7 1.8 1
v 0.9 1.8 1
v -0.9 1.8 0.8
v -0.7 1.8 0.8
v 0.7 1.8 0.8
v 0.9 1.8 0.8
v -0.9 1.8 -0.5
v -0.7 1.8 -0.5
v 0.7 1.8 -0.5
v 0.9 1.8 -0.5
v -0.9 1.8 -0.7
v -0.7 1.8 -0.7
v 0.7 1.8 -0.7
v 0.9 1.8 -0.7
v -0.7 2 1
v 0.7 2 1
v -0.9 2 0.8
v -0.7 2 0.8
v 0.7 2 0.8
v 0.9 2 0.8
v -0.9 2 -0.5
v -0.7 2 -0.5
v 0.7 2 -0.5
v 0.9 2 -0.5
v -0.7 2 -0.7
v 0.7 2 -0.7
v -0.3 2.4 0.6
v 0.3 2.4 0.6
v -0.4 2.4 0.5
v -0.3 2.4 0.5
v 0.3 2.4 0.5
v 0.4 2.4 0.5
v -0.1 2.4 0.4
v 0.1 2.4 0.4
v -0.2 2.4 0.3
v -0.1 2.4 0.3
v 0.1 2.4 0.3
v 0.2 2.4 0.3
v -0.2 2.4 0.1
v -0.1 2.4 0.1
v 0.1 2.4 0.1
v 0.2 2.4 0.1
v -0.1 2.4 0
v 0.1 2.4 0
v -0.4 2.4 -0.1
v -0.3 2.4 -0.1
v 0.3 2.4 -0.1
v 0.4 2.4 -0.1
v -0.3 2.4 -0.2
v 0.3 2.4 -0.2

# faces
f 4/4/1 2/4/1 1/4/1
f 5/4/1 2/4/1 4/4/1
f 7/4/1 4/4/1 3/4/1
f 7/4/1 6/4/1 5/4/1
f 7/4/1 5/4/1 4/4/1
f 9/4/1 8/4/1 7/4/1
f 11/4/1 7/4/1 3/4/1
f 11/4/1 10/4/1 9/4/1
f 11/4/1 9/4/1 7/4/1
f 12/4/1 10/4/1 11/4/1
f 13/4/1 10/4/1 12/4/1
f 14/4/1 10/4/1 13/4/1
f 18/5/1 16/5/1 15/5/1
f 19/5/1 16/5/1 18/5/1
f 20/5/1 16/5/1 19/5/1
f 21/5/1 16/5/1 20/5/1
f 23/5/1 18/5/1 17/5/1
f 23/5/1 19/5/1 18/5/1
f 24/5/1 19/5/1 23/5/1
f 25/5/1 22/5/1 21/5/1
f 25/5/1 21/5/1 20/5/1
f 26/5/1 22/5/1 25/5/1
f 27/5/1 22/5/1 26/5/1
f 28/5/1 22/5/1 27/5/1
f 29/5/1 22/5/1 28/5/1
f 30/5/1 22/5/1 29/5/1
f 31/5/1 23/5/1 17/5/1
f 33/5/1 32/5/1 31/5/1
f 34/5/1 22/5/1 30/5/1
f 35/5/1 22/5/1 34/5/1
f 36/5/1 22/5/1 35/5/1
f 37/5/1 33/5/1 31/5/1
f 37/5/1 31/5/1 17/5/1
f 37/5/1 35/5/1 34/5/1
f 37/5/1 34/5/1 33/5/1
f 38/5/1 35/5/1 37/5/1
f 39/5/1 35/5/1 38/5/1
f 40/5/1 35/5/1 39/5/1
f 41/5/1 39/5/1 38/5/1
f 42/5/1 39/5/1 41/5/1
f 47/5/1 44/5/1 43/5/1
f 48/5/1 44/5/1 47/5/1
f 49/5/1 46/5/1 45/5/1
f 50/5/1 46/5/1 49/5/1
f 53/5/1 52/5/1 51/5/1
f 54/5/1 52/5/1 53/5/1
f 59/5/1 56/5/1 55/5/1
f 60/5/1 56/5/1 59/5/1
f 61/5/1 58/5/1 57/5/1
f 62/5/1 58/5/1 61/5/1
f 65/4/1 64/4/1 63/4/1
f 66/4/1 64/4/1 65/4/1
f 69/4/1 68/4/1 67/4/1
f 70/4/1 68/4/1 69/4/1
f 75/4/1 72/4/1 71/4/1
f 76/4/1 72/4/1 75/4/1
f 77/4/1 74/4/1 73/4/1
f 78/4/1 74/4/1 77/4/1
f 83/4/1 80/4/1 79/4/1
f 84/4/1 80/4/1 83/4/1
f 85/4/1 82/4/1 81/4/1
f 86/4/1 82/4/1 85/4/1
f 89/4/1 88/4/1 87/4/1
f 90/4/1 88/4/1 89/4/1
f 95/4/1 92/4/1 91/4/1
f 96/4/1 92/4/1 95/4/1
f 97/4/1 94/4/1 93/4/1
f 98/4/1 94/4/1 97/4/1
f 99/4/2 100/4/2 101/4/2
f 101/4/2 100/4/2 102/4/2
f 103/4/2 104/4/2 105/4/2
f 105/4/2 104/4/2 106/4/2
f 107/4/2 108/4/2 111/4/2
f 111/4/2 108/4/2 112/4/2
f 109/4/2 110/4/2 113/4/2
f 113/4/2 110/4/2 114/4/2
f 115/4/2 116/4/2 117/4/2
f 117/4/2 116/4/2 118/4/2
f 119/4/2 120/4/2 123/4/2
f 123/4/2 120/4/2 124/4/2
f 121/4/2 122/4/2 125/4/2
f 125/4/2 122/4/2 126/4/2
f 127/4/2 128/4/2 129/4/2
f 129/4/2 128/4/2 130/4/2
f 131/4/2 132/4/2 133/4/2
f 133/4/2 132/4/2 134/4/2
f 135/5/2 136/5/2 139/5/2
f 139/5/2 136/5/2 140/5/2
f 137/5/2 138/5/2 141/5/2
f 141/5/2 138/5/2 142/5/2
f 143/5/2 144/5/2 145/5/2
f 145/5/2 144/5/2 146/5/2
f 147/5/2 148/5/2 151/5/2
f 151/5/2 148/5/2 152/5/2
f 149/5/2 150/5/2 153/5/2
f 153/5/2 150/5/2 154/5/2
f 155/5/2 156/5/2 158/5/2
f 158/5/2 156/5/2 159/5/2
f 159/5/2 156/5/2 160/5/2
f 160/5/2 156/5/2 161/5/2
f 157/5/2 158/5/2 163/5/2
f 158/5/2 159/5/2 163/5/2
f 163/5/2 159/5/2 164/5/2
f 161/5/2 162/5/2 165/5/2
f 160/5/2 161/5/2 165/5/2
f 165/5/2 162/5/2 166/5/2
f 166/5/2 162/5/2 167/5/2
f 167/5/2 162/5/2 168/5/2
f 168/5/2 162/5/2 169/5/2
f 169/5/2 162/5/2 170/5/2
f 157/5/2 163/5/2 171/5/2
f 171/5/2 172/5/2 173/5/2
f 170/5/2 162/5/2 174/5/2
f 174/5/2 162/5/2 175/5/2
f 175/5/2 162/5/2 176/5/2
f 171/5/2 173/5/2 177/5/2
f 157/5/2 171/5/2 177/5/2
f 174/5/2 175/5/2 177/5/2
f 173/5/2 174/5/2 177/5/2
f 177/5/2 175/5/2 178/5/2
f 178/5/2 175/5/2 179/5/2
f 179/5/2 175/5/2 180/5/2
f 178/5/2 179/5/2 181/5/2
f 181/5/2 179/5/2 182/5/2
f 183/4/2 184/4/2 186/4/2
f 186/4/2 184/4/2 187/4/2
f 185/4/2 186/4/2 189/4/2
f 187/4/2 188/4/2 189/4/2
f 186/4/2 187/4/2 189/4/2
f 189/4/2 190/4/2 191/4/2
f 185/4/2 189/4/2 193/4/2
f 191/4/2 192/4/2 193/4/2
f 189/4/2 191/4/2 193/4/2
f 193/4/2 192/4/2 194/4/2
f 194/4/2 192/4/2 195/4/2
f 195/4/2 192/4/2 196/4/2
f 200/5/3 198/5/3 197/5/3
f 201/5/3 198/5/3 200/5/3
f 203/5/3 200/5/3 199/5/3
f 203/5/3 202/5/3 201/5/3
f 203/5/3 201/5/3 200/5/3
f 204/5/3 202/5/3 203/5/3
f 205/5/3 203/5/3 199/5/3
f 206/5/3 203/5/3 205/5/3
f 207/6/3 204/6/3 203/6/3
f 207/5/3 203/5/3 206/5/3
f 208/5/3 202/5/3 204/5/3
f 208/6/3 204/6/3 207/6/3
f 209/6/3 206/6/3 205/6/3
f 209/5/3 205/5/3 199/5/3
f 210/5/3 207/5/3 206/5/3
f 210/6/3 206/6/3 209/6/3
f 210/5/3 208/5/3 207/5/3
f 211/5/3 208/5/3 210/5/3
f 212/5/3 202/5/3 208/5/3
f 212/5/3 208/5/3 211/5/3
f 213/5/3 211/5/3 210/5/3
f 213/5/3 210/5/3 209/5/3
f 213/6/3 212/6/3 211/6/3
f 214/5/3 202/5/3 212/5/3
f 214/6/3 212/6/3 213/6/3
f 215/5/3 209/5/3 199/5/3
f 215/5/3 213/5/3 209/5/3
f 215/5/3 214/5/3 213/5/3
f 216/5/3 214/5/3 215/5/3
f 217/5/3 202/5/3 214/5/3
f 217/5/3 214/5/3 216/5/3
f 218/5/3 202/5/3 217/5/3
f 219/5/3 217/5/3 216/5/3
f 220/5/3 217/5/3 219/5/3
f 225/5/3 222/5/3 221/5/3
f 226/5/3 222/5/3 225/5/3
f 227/5/3 224/5/3 223/5/3
f 228/5/3 224/5/3 227/5/3
f 233/5/3 230/5/3 229/5/3
f 234/5/3 230/5/3 233/5/3
f 235/5/3 232/5/3 231/5/3
f 236/5/3 232/5/3 235/5/3
f 239/4/3 238/4/3 237/4/3
f 240/4/3 238/4/3 239/4/3
f 243/4/3 242/4/3 241/4/3
f 244/4/3 242/4/3 243/4/3
f 249/4/3 246/4/3 245/4/3
f 250/4/3 246/4/3 249/4/3
f 251/4/3 248/4/3 247/4/3
f 252/4/3 248/4/3 251/4/3
f 255/4/3 254/4/3 253/4/3
f 256/4/3 254/4/3 255/4/3
f 261/4/3 258/4/3 257/4/3
f 262/4/3 258/4/3 261/4/3
f 263/4/3 260/4/3 259/4/3
f 264/4/3 260/4/3 263/4/3
f 267/4/3 266/4/3 265/4/3
f 268/4/3 266/4/3 267/4/3
f 271/4/3 270/4/3 269/4/3
f 272/4/3 270/4/3 271/4/3
f 275/4/3 274/4/3 273/4/3
f 276/4/3 274/4/3 275/4/3
f 281/4/3 278/4/3 277/4/3
f 282/4/3 278/4/3 281/4/3
f 283/4/3 280/4/3 279/4/3
f 284/4/3 280/4/3 283/4/3
f 287/4/3 286/4/3 285/4/3
f 288/4/3 286/4/3 287/4/3
f 291/4/3 290/4/3 289/4/3
f 292/4/3 290/4/3 291/4/3
f 295/4/3 294/4/3 293/4/3
f 296/4/3 294/4/3 295/4/3
f 297/4/4 298/4/4 299/4/4
f 299/4/4 298/4/4 300/4/4
f 301/4/4 302/4/4 303/4/4
f 303/4/4 302/4/4 304/4/4
f 305/4/4 306/4/4 307/4/4
f 307/4/4 306/4/4 308/4/4
f 309/4/4 310/4/4 311/4/4
f 311/4/4 310/4/4 312/4/4
f 313/4/4 314/4/4 315/4/4
f 315/4/4 314/4/4 316/4/4
f 317/4/4 318/4/4 319/4/4
f 319/4/4 318/4/4 320/4/4
f 321/4/4 322/4/4 323/4/4
f 323/4/4 322/4/4 324/4/4
f 325/4/4 326/4/4 327/4/4
f 327/4/4 326/4/4 328/4/4
f 329/4/4 330/4/4 331/4/4
f 331/4/4 330/4/4 332/4/4
f 333/4/4 334/4/4 335/4/4
f 335/4/4 334/4/4 336/4/4
f 337/4/4 338/4/4 339/4/4
f 339/4/4 338/4/4 340/4/4
f 341/4/4 342/4/4 343/4/4
f 343/4/4 342/4/4 344/4/4
f 345/4/4 346/4/4 347/4/4
f 347/4/4 346/4/4 348/4/4
f 349/4/4 350/4/4 351/4/4
f 351/4/4 350/4/4 352/4/4
f 353/4/4 354/4/4 355/4/4
f 355/4/4 354/4/4 356/4/4
f 357/4/4 358/4/4 359/4/4
f 359/4/4 358/4/4 360/4/4
f 361/4/4 362/4/4 363/4/4
f 363/4/4 362/4/4 364/4/4
f 365/5/4 366/5/4 367/5/4
f 367/5/4 366/5/4 368/5/4
f 369/5/4 370/5/4 371/5/4
f 371/5/4 370/5/4 372/5/4
f 373/5/4 374/5/4 375/5/4
f 375/5/4 374/5/4 376/5/4
f 376/5/4 374/5/4 377/5/4
f 377/5/4 378/5/4 380/5/4
f 376/5/4 377/5/4 380/5/4
f 380/5/4 378/5/4 381/5/4
f 381/5/4 378/5/4 382/5/4
f 379/5/4 380/5/4 383/5/4
f 380/5/4 381/5/4 383/5/4
f 383/5/4 381/5/4 384/5/4
f 385/5/4 386/5/4 387/5/4
f 387/5/4 386/5/4 388/5/4
f 389/5/4 390/5/4 391/5/4
f 391/5/4 390/5/4 392/5/4
f 393/5/4 394/5/4 396/5/4
f 396/5/4 394/5/4 397/5/4
f 395/5/4 396/5/4 399/5/4
f 397/5/4 398/5/4 399/5/4
f 396/5/4 397/5/4 399/5/4
f 399/5/4 398/5/4 400/5/4
f 400/5/4 398/5/4 401/5/4
f 401/5/4 398/5/4 402/5/4
f 400/5/4 401/5/4 403/5/4
f 403/5/4 401/5/4 404/5/4
f 409/4/5 406/4/5 405/4/5
f 410/4/5 406/4/5 409/4/5
f 411/4/5 408/4/5 407/4/5
f 412/4/5 408/4/5 411/4/5
f 416/5/5 414/5/5 413/5/5
f 417/5/5 414/5/5 416/5/5
f 419/5/5 416/5/5 415/5/5
f 419/5/5 418/5/5 417/5/5
f 419/5/5 417/5/5 416/5/5
f 420/5/5 418/5/5 419/5/5
f 421/5/5 418/5/5 420/5/5
f 422/5/5 418/5/5 421/5/5
f 423/5/5 419/5/5 415/5/5
f 424/5/5 421/5/5 420/5/5
f 425/5/5 421/5/5 424/5/5
f 426/5/5 418/5/5 422/5/5
f 427/5/5 425/5/5 424/5/5
f 427/5/5 426/5/5 425/5/5
f 427/5/5 423/5/5 415/5/5
f 427/5/5 424/5/5 423/5/5
f 428/5/5 426/5/5 427/5/5
f 429/5/5 418/5/5 426/5/5
f 429/5/5 426/5/5 428/5/5
f 430/5/5 418/5/5 429/5/5
f 431/5/5 429/5/5 428/5/5
f 432/5/5 429/5/5 431/5/5
f 437/5/5 434/5/5 433/5/5
f 438/5/5 434/5/5 437/5/5
f 439/5/5 436/5/5 435/5/5
f 440/5/5 436/5/5 439/5/5
f 445/4/5 442/4/5 441/4/5
f 446/4/5 442/4/5 445/4/5
f 447/4/5 444/4/5 443/4/5
f 448/4/5 444/4/5 447/4/5
f 453/5/5 450/5/5 449/5/5
f 454/5/5 450/5/5 453/5/5
f 455/5/5 452/5/5 451/5/5
f 456/5/5 452/5/5 455/5/5
f 461/4/5 458/4/5 457/4/5
f 462/4/5 458/4/5 461/4/5
f 463/4/5 460/4/5 459/4/5
f 464/4/5 460/4/5 463/4/5
f 469/4/5 466/4/5 465/4/5
f 470/4/5 466/4/5 469/4/5
f 471/4/5 468/4/5 467/4/5
f 472/4/5 468/4/5 471/4/5
f 477/4/5 474/4/5 473/4/5
f 478/4/5 474/4/5 477/4/5
f 479/4/5 476/4/5 475/4/5
f 480/4/5 476/4/5 479/4/5
f 485/4/5 482/4/5 481/4/5
f 486/4/5 482/4/5 485/4/5
f 487/4/5 484/4/5 483/4/5
f 488/4/5 484/4/5 487/4/5
f 492/4/5 490/4/5 489/4/5
f 493/4/5 490/4/5 492/4/5
f 494/4/5 490/4/5 493/4/5
f 495/4/5 490/4/5 494/4/5
f 497/4/5 492/4/5 491/4/5
f 497/4/5 493/4/5 492/4/5
f 498/4/5 493/4/5 497/4/5
f 499/4/5 496/4/5 495/4/5
f 499/4/5 495/4/5 494/4/5
f 500/4/5 497/4/5 491/4/5
f 501/4/5 497/4/5 500/4/5
f 502/4/5 499/4/5 498/4/5
f 503/4/5 496/4/5 499/4/5
f 503/4/5 499/4/5 502/4/5
f 504/4/5 500/4/5 491/4/5
f 507/4/5 496/4/5 503/4/5
f 508/4/5 505/4/5 504/4/5
f 509/4/5 507/4/5 506/4/5
f 510/4/5 508/4/5 504/4/5
f 510/4/5 509/4/5 508/4/5
f 510/4/5 504/4/5 491/4/5
f 511/4/5 509/4/5 510/4/5
f 512/4/5 507/4/5 509/4/5
f 512/4/5 509/4/5 511/4/5
f 512/4/5 496/4/5 507/4/5
f 513/4/5 496/4/5 512/4/5
f 514/4/5 512/4/5 511/4/5
f 515/4/5 512/4/5 514/4/5
f 518/4/5 517/4/5 516/4/5
f 519/4/5 517/4/5 518/4/5
f 520/4/6 521/4/6 524/4/6
f 524/4/6 521/4/6 525/4/6
f 522/4/6 523/4/6 526/4/6
f 526/4/6 523/4/6 527/4/6
f 528/4/6 529/4/6 532/4/6
f 532/4/6 529/4/6 533/4/6
f 530/4/6 531/4/6 534/4/6
f 534/4/6 531/4/6 535/4/6
f 536/5/6 537/5/6 540/5/6
f 540/5/6 537/5/6 541/5/6
f 538/5/6 539/5/6 542/5/6
f 542/5/6 539/5/6 543/5/6
f 544/5/6 545/5/6 546/5/6
f 546/5/6 545/5/6 547/5/6
f 548/5/6 549/5/6 552/5/6
f 552/5/6 549/5/6 553/5/6
f 550/5/6 551/5/6 554/5/6
f 554/5/6 551/5/6 555/5/6
f 556/5/6 557/5/6 560/5/6
f 560/5/6 557/5/6 561/5/6
f 558/5/6 559/5/6 562/5/6
f 562/5/6 559/5/6 563/5/6
f 564/5/6 565/5/6 567/5/6
f 567/5/6 565/5/6 568/5/6
f 566/5/6 567/5/6 570/5/6
f 568/5/6 569/5/6 570/5/6
f 567/5/6 568/5/6 570/5/6
f 570/5/6 569/5/6 571/5/6
f 571/5/6 569/5/6 572/5/6
f 572/5/6 569/5/6 573/5/6
f 571/5/6 572/5/6 574/5/6
f 574/5/6 572/5/6 575/5/6
f 576/4/6 577/4/6 579/4/6
f 579/4/6 577/4/6 580/4/6
f 578/4/6 579/4/6 582/4/6
f 580/4/6 581/4/6 582/4/6
f 579/4/6 580/4/6 582/4/6
f 582/4/6 581/4/6 583/4/6
f 578/4/6 582/4/6 584/4/6
f 584/4/6 582/4/6 585/4/6
f 583/4/6 581/4/6 586/4/6
f 586/4/6 581/4/6 587/4/6
f 578/4/6 584/4/6 588/4/6
f 587/4/6 581/4/6 591/4/6
f 588/4/6 589/4/6 592/4/6
f 590/4/6 591/4/6 593/4/6
f 588/4/6 592/4/6 594/4/6
f 592/4/6 593/4/6 594/4/6
f 578/4/6 588/4/6 594/4/6
f 594/4/6 593/4/6 595/4/6
f 593/4/6 591/4/6 596/4/6
f 595/4/6 593/4/6 596/4/6
f 591/4/6 581/4/6 596/4/6
f 596/4/6 581/4/6 597/4/6
f 595/4/6 596/4/6 598/4/6
f 598/4/6 596/4/6 599/4/6
