# MagicaVoxel @ Ephtracy

# group
o 

# material
mtllib angel_looter.mtl
usemtl palette

# normals
vn -1 0 0
vn 1 0 0
vn 0 0 1
vn 0 0 -1
vn 0 -1 0
vn 0 1 0

# texcoords
vt 0.517578 0.5
vt 0.556641 0.5
vt 0.958984 0.5
vt 0.970703 0.5
vt 0.974609 0.5
vt 0.978516 0.5
vt 0.982422 0.5
vt 0.990234 0.5

# verts
v -1 0.4 0.6
v -1 0.4 0
v -1 0.5 0.7
v -1 0.5 0.6
v -1 0.5 0
v -1 0.5 -0.1
v -1 0.6 -0.1
v -1 0.6 -0.2
v -1 0.7 -0.2
v -1 0.7 -0.3
v -1 0.9 0.7
v -1 0.9 0.6
v -1 1 0.6
v -1 1 -0.3
v -0.9 0.2 0.8
v -0.9 0.2 -0.7
v -0.9 0.4 1
v -0.9 0.4 0.8
v -0.9 0.4 0.6
v -0.9 0.4 0
v -0.9 0.5 0.7
v -0.9 0.5 0.6
v -0.9 0.5 0
v -0.9 0.5 -0.1
v -0.9 0.6 -0.1
v -0.9 0.6 -0.2
v -0.9 0.7 -0.2
v -0.9 0.7 -0.3
v -0.9 0.9 0.7
v -0.9 0.9 0.6
v -0.9 1 0.6
v -0.9 1 -0.3
v -0.9 1.8 1
v -0.9 1.8 0.8
v -0.9 1.8 -0.5
v -0.9 1.8 -0.7
v -0.9 2 0.8
v -0.9 2 -0.5
v -0.7 0.2 1
v -0.7 0.2 0.8
v -0.7 0.4 1
v -0.7 0.4 0.8
v -0.7 0.5 -0.7
v -0.7 0.5 -1
v -0.7 1 -0.7
v -0.7 1 -1
v -0.7 1.1 -0.7
v -0.7 1.1 -1
v -0.7 1.2 -0.7
v -0.7 1.2 -1
v -0.7 1.8 1
v -0.7 1.8 0.8
v -0.7 1.8 -0.5
v -0.7 1.8 -0.7
v -0.7 2 1
v -0.7 2 0.8
v -0.7 2 -0.5
v -0.7 2 -0.7
v -0.6 0 0.4
v -0.6 0 0
v -0.6 0.2 0.4
v -0.6 0.2 0
v -0.6 1.2 -0.7
v -0.6 1.2 -1
v -0.6 1.4 -0.8
v -0.6 1.4 -1
v -0.6 2 -0.7
v -0.6 2 -0.8
v -0.1 1.4 -0.9
v -0.1 1.4 -1
v -0.1 1.5 -0.9
v -0.1 1.5 -1
v 0.2 0 0.4
v 0.2 0 0
v 0.2 0.2 0.4
v 0.2 0.2 0
v 0.4 1.4 -0.7
v 0.4 1.4 -0.8
v 0.4 2 -0.7
v 0.4 2 -0.8
v -0.4 1.4 -0.7
v -0.4 1.4 -0.8
v -0.4 2 -0.7
v -0.4 2 -0.8
v -0.2 0 0.4
v -0.2 0 0
v -0.2 0.2 0.4
v -0.2 0.2 0
v 0.1 1.4 -0.9
v 0.1 1.4 -1
v 0.1 1.5 -0.9
v 0.1 1.5 -1
v 0.6 0 0.4
v 0.6 0 0
v 0.6 0.2 0.4
v 0.6 0.2 0
v 0.6 1.2 -0.7
v 0.6 1.2 -1
v 0.6 1.4 -0.8
v 0.6 1.4 -1
v 0.6 2 -0.7
v 0.6 2 -0.8
v 0.7 0.2 1
v 0.7 0.2 0.8
v 0.7 0.4 1
v 0.7 0.4 0.8
v 0.7 0.5 -0.7
v 0.7 0.5 -1
v 0.7 1 -0.7
v 0.7 1 -1
v 0.7 1.1 -0.7
v 0.7 1.1 -1
v 0.7 1.2 -0.7
v 0.7 1.2 -1
v 0.7 1.8 1
v 0.7 1.8 0.8
v 0.7 1.8 -0.5
v 0.7 1.8 -0.7
v 0.7 2 1
v 0.7 2 0.8
v 0.7 2 -0.5
v 0.7 2 -0.7
v 0.9 0.2 0.8
v 0.9 0.2 -0.7
v 0.9 0.4 1
v 0.9 0.4 0.8
v 0.9 0.4 0.6
v 0.9 0.4 0
v 0.9 0.5 0.7
v 0.9 0.5 0.6
v 0.9 0.5 0
v 0.9 0.5 -0.1
v 0.9 0.6 -0.1
v 0.9 0.6 -0.2
v 0.9 0.7 -0.2
v 0.9 0.7 -0.3
v 0.9 0.9 0.7
v 0.9 0.9 0.6
v 0.9 1 0.6
v 0.9 1 -0.3
v 0.9 1.8 1
v 0.9 1.8 0.8
v 0.9 1.8 -0.5
v 0.9 1.8 -0.7
v 0.9 2 0.8
v 0.9 2 -0.5
v 1 0.4 0.6
v 1 0.4 0
v 1 0.5 0.7
v 1 0.5 0.6
v 1 0.5 0
v 1 0.5 -0.1
v 1 0.6 -0.1
v 1 0.6 -0.2
v 1 0.7 -0.2
v 1 0.7 -0.3
v 1 0.9 0.7
v 1 0.9 0.6
v 1 1 0.6
v 1 1 -0.3
v -0.9 0.4 1
v -0.9 1.8 1
v -0.7 0.2 1
v -0.7 0.4 1
v -0.7 1.8 1
v -0.7 2 1
v -0.5 1 1
v -0.5 1.4 1
v -0.2 0.7 1
v -0.2 0.8 1
v -0.2 1 1
v -0.2 1.4 1
v 0.2 0.7 1
v 0.2 0.8 1
v 0.2 1 1
v 0.2 1.4 1
v 0.5 1 1
v 0.5 1.4 1
v 0.7 0.2 1
v 0.7 0.4 1
v 0.7 1.8 1
v 0.7 2 1
v 0.9 0.4 1
v 0.9 1.8 1
v -0.9 0.2 0.8
v -0.9 0.4 0.8
v -0.9 1.8 0.8
v -0.9 2 0.8
v -0.7 0.2 0.8
v -0.7 0.4 0.8
v -0.7 1.8 0.8
v -0.7 2 0.8
v 0.7 0.2 0.8
v 0.7 0.4 0.8
v 0.7 1.8 0.8
v 0.7 2 0.8
v 0.9 0.2 0.8
v 0.9 0.4 0.8
v 0.9 1.8 0.8
v 0.9 2 0.8
v -1 0.5 0.7
v -1 0.9 0.7
v -0.9 0.5 0.7
v -0.9 0.9 0.7
v 0.9 0.5 0.7
v 0.9 0.9 0.7
v 1 0.5 0.7
v 1 0.9 0.7
v -1 0.4 0.6
v -1 0.5 0.6
v -1 0.9 0.6
v -1 1 0.6
v -0.9 0.4 0.6
v -0.9 0.5 0.6
v -0.9 0.9 0.6
v -0.9 1 0.6
v 0.9 0.4 0.6
v 0.9 0.5 0.6
v 0.9 0.9 0.6
v 0.9 1 0.6
v 1 0.4 0.6
v 1 0.5 0.6
v 1 0.9 0.6
v 1 1 0.6
v -0.6 0 0.4
v -0.6 0.2 0.4
v -0.2 0 0.4
v -0.2 0.2 0.4
v 0.2 0 0.4
v 0.2 0.2 0.4
v 0.6 0 0.4
v 0.6 0.2 0.4
v -0.1 1.4 -0.9
v -0.1 1.5 -0.9
v 0.1 1.4 -0.9
v 0.1 1.5 -0.9
v -1 0.4 0
v -1 0.5 0
v -0.9 0.4 0
v -0.9 0.5 0
v -0.6 0 0
v -0.6 0.2 0
v -0.2 0 0
v -0.2 0.2 0
v 0.2 0 0
v 0.2 0.2 0
v 0.6 0 0
v 0.6 0.2 0
v 0.9 0.4 0
v 0.9 0.5 0
v 1 0.4 0
v 1 0.5 0
v -1 0.5 -0.1
v -1 0.6 -0.1
v -0.9 0.5 -0.1
v -0.9 0.6 -0.1
v 0.9 0.5 -0.1
v 0.9 0.6 -0.1
v 1 0.5 -0.1
v 1 0.6 -0.1
v -1 0.6 -0.2
v -1 0.7 -0.2
v -0.9 0.6 -0.2
v -0.9 0.7 -0.2
v 0.9 0.6 -0.2
v 0.9 0.7 -0.2
v 1 0.6 -0.2
v 1 0.7 -0.2
v -1 0.7 -0.3
v -1 1 -0.3
v -0.9 0.7 -0.3
v -0.9 1 -0.3
v 0.9 0.7 -0.3
v 0.9 1 -0.3
v 1 0.7 -0.3
v 1 1 -0.3
v -0.9 1.8 -0.5
v -0.9 2 -0.5
v -0.7 1.8 -0.5
v -0.7 2 -0.5
v 0.7 1.8 -0.5
v 0.7 2 -0.5
v 0.9 1.8 -0.5
v 0.9 2 -0.5
v -0.9 0.2 -0.7
v -0.9 1.8 -0.7
v -0.7 0.5 -0.7
v -0.7 1 -0.7
v -0.7 1.1 -0.7
v -0.7 1.2 -0.7
v -0.7 1.8 -0.7
v -0.7 2 -0.7
v -0.6 1.2 -0.7
v -0.6 2 -0.7
v -0.4 1.4 -0.7
v -0.4 2 -0.7
v 0.4 1.4 -0.7
v 0.4 2 -0.7
v 0.6 1.2 -0.7
v 0.6 2 -0.7
v 0.7 0.5 -0.7
v 0.7 1 -0.7
v 0.7 1.1 -0.7
v 0.7 1.2 -0.7
v 0.7 1.8 -0.7
v 0.7 2 -0.7
v 0.9 0.2 -0.7
v 0.9 1.8 -0.7
v -0.6 1.4 -0.8
v -0.6 2 -0.8
v -0.4 1.4 -0.8
v -0.4 2 -0.8
v 0.4 1.4 -0.8
v 0.4 2 -0.8
v 0.6 1.4 -0.8
v 0.6 2 -0.8
v -0.7 0.5 -1
v -0.7 1 -1
v -0.7 1.1 -1
v -0.7 1.2 -1
v -0.6 1.2 -1
v -0.6 1.4 -1
v -0.3 1 -1
v -0.3 1.1 -1
v -0.2 1 -1
v -0.2 1.3 -1
v -0.1 0.9 -1
v -0.1 1 -1
v -0.1 1.3 -1
v -0.1 1.4 -1
v -0.1 1.5 -1
v 0.1 0.9 -1
v 0.1 1 -1
v 0.1 1.3 -1
v 0.1 1.4 -1
v 0.1 1.5 -1
v 0.2 1 -1
v 0.2 1.3 -1
v 0.3 1 -1
v 0.3 1.1 -1
v 0.6 1.2 -1
v 0.6 1.4 -1
v 0.7 0.5 -1
v 0.7 1 -1
v 0.7 1.1 -1
v 0.7 1.2 -1
v -0.6 0 0.4
v -0.2 0 0.4
v 0.2 0 0.4
v 0.6 0 0.4
v -0.6 0 0
v -0.2 0 0
v 0.2 0 0
v 0.6 0 0
v -0.7 0.2 1
v 0.7 0.2 1
v -0.9 0.2 0.8
v -0.7 0.2 0.8
v 0.7 0.2 0.8
v 0.9 0.2 0.8
v -0.6 0.2 0.4
v -0.2 0.2 0.4
v 0.2 0.2 0.4
v 0.6 0.2 0.4
v -0.6 0.2 0
v -0.2 0.2 0
v 0.2 0.2 0
v 0.6 0.2 0
v -0.9 0.2 -0.7
v 0.9 0.2 -0.7
v -0.9 0.4 1
v -0.7 0.4 1
v 0.7 0.4 1
v 0.9 0.4 1
v -0.9 0.4 0.8
v -0.7 0.4 0.8
v 0.7 0.4 0.8
v 0.9 0.4 0.8
v -1 0.4 0.6
v -0.9 0.4 0.6
v 0.9 0.4 0.6
v 1 0.4 0.6
v -1 0.4 0
v -0.9 0.4 0
v 0.9 0.4 0
v 1 0.4 0
v -1 0.5 0.7
v -0.9 0.5 0.7
v 0.9 0.5 0.7
v 1 0.5 0.7
v -1 0.5 0.6
v -0.9 0.5 0.6
v 0.9 0.5 0.6
v 1 0.5 0.6
v -1 0.5 0
v -0.9 0.5 0
v 0.9 0.5 0
v 1 0.5 0
v -1 0.5 -0.1
v -0.9 0.5 -0.1
v 0.9 0.5 -0.1
v 1 0.5 -0.1
v -0.7 0.5 -0.7
v 0.7 0.5 -0.7
v -0.7 0.5 -1
v 0.7 0.5 -1
v -1 0.6 -0.1
v -0.9 0.6 -0.1
v 0.9 0.6 -0.1
v 1 0.6 -0.1
v -1 0.6 -0.2
v -0.9 0.6 -0.2
v 0.9 0.6 -0.2
v 1 0.6 -0.2
v -1 0.7 -0.2
v -0.9 0.7 -0.2
v 0.9 0.7 -0.2
v 1 0.7 -0.2
v -1 0.7 -0.3
v -0.9 0.7 -0.3
v 0.9 0.7 -0.3
v 1 0.7 -0.3
v -1 0.9 0.7
v -0.9 0.9 0.7
v 0.9 0.9 0.7
v 1 0.9 0.7
v -1 0.9 0.6
v -0.9 0.9 0.6
v 0.9 0.9 0.6
v 1 0.9 0.6
v -1 1 0.6
v -0.9 1 0.6
v 0.9 1 0.6
v 1 1 0.6
v -1 1 -0.3
v -0.9 1 -0.3
v 0.9 1 -0.3
v 1 1 -0.3
v -0.7 1.2 -0.7
v -0.6 1.2 -0.7
v 0.6 1.2 -0.7
v 0.7 1.2 -0.7
v -0.7 1.2 -1
v -0.6 1.2 -1
v 0.6 1.2 -1
v 0.7 1.2 -1
v -0.4 1.4 -0.7
v 0.4 1.4 -0.7
v -0.6 1.4 -0.8
v -0.4 1.4 -0.8
v 0.4 1.4 -0.8
v 0.6 1.4 -0.8
v -0.1 1.4 -0.9
v 0.1 1.4 -0.9
v -0.6 1.4 -1
v -0.1 1.4 -1
v 0.1 1.4 -1
v 0.6 1.4 -1
v -0.1 1.5 -0.9
v 0.1 1.5 -0.9
v -0.1 1.5 -1
v 0.1 1.5 -1
v -0.9 1.8 1
v -0.7 1.8 1
v 0.7 1.8 1
v 0.9 1.8 1
v -0.9 1.8 0.8
v -0.7 1.8 0.8
v 0.7 1.8 0.8
v 0.9 1.8 0.8
v -0.9 1.8 -0.5
v -0.7 1.8 -0.5
v 0.7 1.8 -0.5
v 0.9 1.8 -0.5
v -0.9 1.8 -0.7
v -0.7 1.8 -0.7
v 0.7 1.8 -0.7
v 0.9 1.8 -0.7
v -0.7 2 1
v 0.7 2 1
v -0.9 2 0.8
v -0.7 2 0.8
v 0.7 2 0.8
v 0.9 2 0.8
v -0.9 2 -0.5
v -0.7 2 -0.5
v 0.7 2 -0.5
v 0.9 2 -0.5
v -0.7 2 -0.7
v -0.6 2 -0.7
v -0.4 2 -0.7
v 0.4 2 -0.7
v 0.6 2 -0.7
v 0.7 2 -0.7
v -0.6 2 -0.8
v -0.4 2 -0.8
v 0.4 2 -0.8
v 0.6 2 -0.8

# faces
f 4/4/1 2/4/1 1/4/1
f 5/4/1 2/4/1 4/4/1
f 7/4/1 4/4/1 3/4/1
f 7/4/1 6/4/1 5/4/1
f 7/4/1 5/4/1 4/4/1
f 9/4/1 8/4/1 7/4/1
f 11/4/1 7/4/1 3/4/1
f 11/4/1 10/4/1 9/4/1
f 11/4/1 9/4/1 7/4/1
f 12/4/1 10/4/1 11/4/1
f 13/4/1 10/4/1 12/4/1
f 14/4/1 10/4/1 13/4/1
f 18/5/1 16/5/1 15/5/1
f 19/5/1 16/5/1 18/5/1
f 20/5/1 16/5/1 19/5/1
f 21/5/1 18/5/1 17/5/1
f 21/5/1 19/5/1 18/5/1
f 22/5/1 19/5/1 21/5/1
f 23/5/1 16/5/1 20/5/1
f 24/5/1 16/5/1 23/5/1
f 25/5/1 16/5/1 24/5/1
f 26/5/1 16/5/1 25/5/1
f 27/5/1 16/5/1 26/5/1
f 28/5/1 16/5/1 27/5/1
f 29/5/1 21/5/1 17/5/1
f 31/5/1 30/5/1 29/5/1
f 32/5/1 16/5/1 28/5/1
f 33/5/1 31/5/1 29/5/1
f 33/5/1 32/5/1 31/5/1
f 33/5/1 29/5/1 17/5/1
f 34/5/1 32/5/1 33/5/1
f 35/5/1 16/5/1 32/5/1
f 35/5/1 32/5/1 34/5/1
f 36/5/1 16/5/1 35/5/1
f 37/5/1 35/5/1 34/5/1
f 38/5/1 35/5/1 37/5/1
f 41/5/1 40/5/1 39/5/1
f 42/5/1 40/5/1 41/5/1
f 45/4/1 44/4/1 43/4/1
f 46/4/1 44/4/1 45/4/1
f 47/8/1 46/8/1 45/8/1
f 48/8/1 46/8/1 47/8/1
f 49/4/1 48/4/1 47/4/1
f 50/4/1 48/4/1 49/4/1
f 55/5/1 52/5/1 51/5/1
f 56/5/1 52/5/1 55/5/1
f 57/5/1 54/5/1 53/5/1
f 58/5/1 54/5/1 57/5/1
f 61/4/1 60/4/1 59/4/1
f 62/4/1 60/4/1 61/4/1
f 65/4/1 64/4/1 63/4/1
f 66/4/1 64/4/1 65/4/1
f 67/4/1 65/4/1 63/4/1
f 68/4/1 65/4/1 67/4/1
f 71/8/1 70/8/1 69/8/1
f 72/8/1 70/8/1 71/8/1
f 75/4/1 74/4/1 73/4/1
f 76/4/1 74/4/1 75/4/1
f 79/4/1 78/4/1 77/4/1
f 80/4/1 78/4/1 79/4/1
f 81/4/2 82/4/2 83/4/2
f 83/4/2 82/4/2 84/4/2
f 85/4/2 86/4/2 87/4/2
f 87/4/2 86/4/2 88/4/2
f 89/8/2 90/8/2 91/8/2
f 91/8/2 90/8/2 92/8/2
f 93/4/2 94/4/2 95/4/2
f 95/4/2 94/4/2 96/4/2
f 97/4/2 98/4/2 99/4/2
f 99/4/2 98/4/2 100/4/2
f 97/4/2 99/4/2 101/4/2
f 101/4/2 99/4/2 102/4/2
f 103/5/2 104/5/2 105/5/2
f 105/5/2 104/5/2 106/5/2
f 107/4/2 108/4/2 109/4/2
f 109/4/2 108/4/2 110/4/2
f 109/8/2 110/8/2 111/8/2
f 111/8/2 110/8/2 112/8/2
f 111/4/2 112/4/2 113/4/2
f 113/4/2 112/4/2 114/4/2
f 115/5/2 116/5/2 119/5/2
f 119/5/2 116/5/2 120/5/2
f 117/5/2 118/5/2 121/5/2
f 121/5/2 118/5/2 122/5/2
f 123/5/2 124/5/2 126/5/2
f 126/5/2 124/5/2 127/5/2
f 127/5/2 124/5/2 128/5/2
f 125/5/2 126/5/2 129/5/2
f 126/5/2 127/5/2 129/5/2
f 129/5/2 127/5/2 130/5/2
f 128/5/2 124/5/2 131/5/2
f 131/5/2 124/5/2 132/5/2
f 132/5/2 124/5/2 133/5/2
f 133/5/2 124/5/2 134/5/2
f 134/5/2 124/5/2 135/5/2
f 135/5/2 124/5/2 136/5/2
f 125/5/2 129/5/2 137/5/2
f 137/5/2 138/5/2 139/5/2
f 136/5/2 124/5/2 140/5/2
f 137/5/2 139/5/2 141/5/2
f 139/5/2 140/5/2 141/5/2
f 125/5/2 137/5/2 141/5/2
f 141/5/2 140/5/2 142/5/2
f 140/5/2 124/5/2 143/5/2
f 142/5/2 140/5/2 143/5/2
f 143/5/2 124/5/2 144/5/2
f 142/5/2 143/5/2 145/5/2
f 145/5/2 143/5/2 146/5/2
f 147/4/2 148/4/2 150/4/2
f 150/4/2 148/4/2 151/4/2
f 149/4/2 150/4/2 153/4/2
f 151/4/2 152/4/2 153/4/2
f 150/4/2 151/4/2 153/4/2
f 153/4/2 154/4/2 155/4/2
f 149/4/2 153/4/2 157/4/2
f 155/4/2 156/4/2 157/4/2
f 153/4/2 155/4/2 157/4/2
f 157/4/2 156/4/2 158/4/2
f 158/4/2 156/4/2 159/4/2
f 159/4/2 156/4/2 160/4/2
f 164/5/3 162/5/3 161/5/3
f 165/5/3 162/5/3 164/5/3
f 167/5/3 164/5/3 163/5/3
f 167/5/3 166/5/3 165/5/3
f 167/5/3 165/5/3 164/5/3
f 168/5/3 166/5/3 167/5/3
f 169/5/3 167/5/3 163/5/3
f 170/5/3 167/5/3 169/5/3
f 171/6/3 168/6/3 167/6/3
f 171/5/3 167/5/3 170/5/3
f 172/5/3 166/5/3 168/5/3
f 172/6/3 168/6/3 171/6/3
f 173/6/3 170/6/3 169/6/3
f 173/5/3 169/5/3 163/5/3
f 174/5/3 171/5/3 170/5/3
f 174/6/3 170/6/3 173/6/3
f 174/5/3 172/5/3 171/5/3
f 175/5/3 172/5/3 174/5/3
f 176/5/3 166/5/3 172/5/3
f 176/5/3 172/5/3 175/5/3
f 177/5/3 175/5/3 174/5/3
f 177/5/3 174/5/3 173/5/3
f 177/6/3 176/6/3 175/6/3
f 178/5/3 166/5/3 176/5/3
f 178/6/3 176/6/3 177/6/3
f 179/5/3 173/5/3 163/5/3
f 179/5/3 177/5/3 173/5/3
f 179/5/3 178/5/3 177/5/3
f 180/5/3 178/5/3 179/5/3
f 181/5/3 166/5/3 178/5/3
f 181/5/3 178/5/3 180/5/3
f 182/5/3 166/5/3 181/5/3
f 183/5/3 181/5/3 180/5/3
f 184/5/3 181/5/3 183/5/3
f 189/5/3 186/5/3 185/5/3
f 190/5/3 186/5/3 189/5/3
f 191/5/3 188/5/3 187/5/3
f 192/5/3 188/5/3 191/5/3
f 197/5/3 194/5/3 193/5/3
f 198/5/3 194/5/3 197/5/3
f 199/5/3 196/5/3 195/5/3
f 200/5/3 196/5/3 199/5/3
f 203/4/3 202/4/3 201/4/3
f 204/4/3 202/4/3 203/4/3
f 207/4/3 206/4/3 205/4/3
f 208/4/3 206/4/3 207/4/3
f 213/4/3 210/4/3 209/4/3
f 214/4/3 210/4/3 213/4/3
f 215/4/3 212/4/3 211/4/3
f 216/4/3 212/4/3 215/4/3
f 221/4/3 218/4/3 217/4/3
f 222/4/3 218/4/3 221/4/3
f 223/4/3 220/4/3 219/4/3
f 224/4/3 220/4/3 223/4/3
f 227/4/3 226/4/3 225/4/3
f 228/4/3 226/4/3 227/4/3
f 231/4/3 230/4/3 229/4/3
f 232/4/3 230/4/3 231/4/3
f 235/8/3 234/8/3 233/8/3
f 236/8/3 234/8/3 235/8/3
f 237/4/4 238/4/4 239/4/4
f 239/4/4 238/4/4 240/4/4
f 241/4/4 242/4/4 243/4/4
f 243/4/4 242/4/4 244/4/4
f 245/4/4 246/4/4 247/4/4
f 247/4/4 246/4/4 248/4/4
f 249/4/4 250/4/4 251/4/4
f 251/4/4 250/4/4 252/4/4
f 253/4/4 254/4/4 255/4/4
f 255/4/4 254/4/4 256/4/4
f 257/4/4 258/4/4 259/4/4
f 259/4/4 258/4/4 260/4/4
f 261/4/4 262/4/4 263/4/4
f 263/4/4 262/4/4 264/4/4
f 265/4/4 266/4/4 267/4/4
f 267/4/4 266/4/4 268/4/4
f 269/4/4 270/4/4 271/4/4
f 271/4/4 270/4/4 272/4/4
f 273/4/4 274/4/4 275/4/4
f 275/4/4 274/4/4 276/4/4
f 277/5/4 278/5/4 279/5/4
f 279/5/4 278/5/4 280/5/4
f 281/5/4 282/5/4 283/5/4
f 283/5/4 282/5/4 284/5/4
f 285/5/4 286/5/4 287/5/4
f 287/5/4 286/5/4 288/5/4
f 288/5/4 286/5/4 289/5/4
f 289/5/4 286/5/4 290/5/4
f 290/5/4 286/5/4 291/5/4
f 291/5/4 292/5/4 293/5/4
f 290/5/4 291/5/4 293/5/4
f 293/5/4 292/5/4 294/5/4
f 295/5/4 296/5/4 297/5/4
f 297/5/4 296/5/4 298/5/4
f 285/5/4 287/5/4 301/5/4
f 299/5/4 300/5/4 304/5/4
f 304/5/4 300/5/4 305/5/4
f 305/5/4 300/5/4 306/5/4
f 302/5/4 303/5/4 307/5/4
f 285/5/4 301/5/4 307/5/4
f 304/5/4 305/5/4 307/5/4
f 303/5/4 304/5/4 307/5/4
f 301/5/4 302/5/4 307/5/4
f 307/5/4 305/5/4 308/5/4
f 309/4/4 310/4/4 311/4/4
f 311/4/4 310/4/4 312/4/4
f 313/4/4 314/4/4 315/4/4
f 315/4/4 314/4/4 316/4/4
f 319/4/4 320/4/4 321/4/4
f 317/4/4 318/4/4 323/4/4
f 318/8/4 319/8/4 323/8/4
f 321/4/4 322/4/4 324/4/4
f 323/8/4 319/8/4 324/8/4
f 319/4/4 321/4/4 324/4/4
f 317/4/4 323/4/4 325/4/4
f 323/4/4 324/4/4 325/4/4
f 324/4/4 322/4/4 326/4/4
f 325/4/4 324/4/4 326/4/4
f 317/4/4 325/4/4 327/4/4
f 325/8/4 326/8/4 328/8/4
f 327/4/4 325/4/4 328/4/4
f 326/4/4 322/4/4 329/4/4
f 328/8/4 326/8/4 329/8/4
f 329/4/4 322/4/4 330/4/4
f 327/8/4 328/8/4 332/8/4
f 330/8/4 331/8/4 332/8/4
f 329/8/4 330/8/4 332/8/4
f 328/8/4 329/8/4 332/8/4
f 317/4/4 327/4/4 332/4/4
f 332/8/4 331/8/4 333/8/4
f 333/8/4 331/8/4 334/8/4
f 334/8/4 331/8/4 335/8/4
f 335/8/4 331/8/4 336/8/4
f 332/4/4 333/4/4 337/4/4
f 333/8/4 334/8/4 337/8/4
f 334/4/4 335/4/4 338/4/4
f 337/8/4 334/8/4 338/8/4
f 332/4/4 337/4/4 339/4/4
f 337/4/4 338/4/4 339/4/4
f 339/4/4 338/4/4 340/4/4
f 340/4/4 338/4/4 341/4/4
f 338/4/4 335/4/4 342/4/4
f 341/4/4 338/4/4 342/4/4
f 317/4/4 332/4/4 343/4/4
f 332/4/4 339/4/4 343/4/4
f 339/8/4 340/8/4 344/8/4
f 343/4/4 339/4/4 344/4/4
f 340/4/4 341/4/4 345/4/4
f 344/8/4 340/8/4 345/8/4
f 345/4/4 341/4/4 346/4/4
f 351/4/5 348/4/5 347/4/5
f 352/4/5 348/4/5 351/4/5
f 353/4/5 350/4/5 349/4/5
f 354/4/5 350/4/5 353/4/5
f 358/5/5 356/5/5 355/5/5
f 359/5/5 356/5/5 358/5/5
f 361/5/5 358/5/5 357/5/5
f 361/5/5 360/5/5 359/5/5
f 361/5/5 359/5/5 358/5/5
f 362/5/5 360/5/5 361/5/5
f 363/5/5 360/5/5 362/5/5
f 364/5/5 360/5/5 363/5/5
f 365/5/5 361/5/5 357/5/5
f 366/5/5 363/5/5 362/5/5
f 367/5/5 363/5/5 366/5/5
f 368/5/5 360/5/5 364/5/5
f 369/5/5 367/5/5 366/5/5
f 369/5/5 368/5/5 367/5/5
f 369/5/5 365/5/5 357/5/5
f 369/5/5 366/5/5 365/5/5
f 370/5/5 360/5/5 368/5/5
f 370/5/5 368/5/5 369/5/5
f 375/5/5 372/5/5 371/5/5
f 376/5/5 372/5/5 375/5/5
f 377/5/5 374/5/5 373/5/5
f 378/5/5 374/5/5 377/5/5
f 383/4/5 380/4/5 379/4/5
f 384/4/5 380/4/5 383/4/5
f 385/4/5 382/4/5 381/4/5
f 386/4/5 382/4/5 385/4/5
f 391/4/5 388/4/5 387/4/5
f 392/4/5 388/4/5 391/4/5
f 393/4/5 390/4/5 389/4/5
f 394/4/5 390/4/5 393/4/5
f 399/4/5 396/4/5 395/4/5
f 400/4/5 396/4/5 399/4/5
f 401/4/5 398/4/5 397/4/5
f 402/4/5 398/4/5 401/4/5
f 405/4/5 404/4/5 403/4/5
f 406/4/5 404/4/5 405/4/5
f 411/4/5 408/4/5 407/4/5
f 412/4/5 408/4/5 411/4/5
f 413/4/5 410/4/5 409/4/5
f 414/4/5 410/4/5 413/4/5
f 419/4/5 416/4/5 415/4/5
f 420/4/5 416/4/5 419/4/5
f 421/4/5 418/4/5 417/4/5
f 422/4/5 418/4/5 421/4/5
f 423/4/6 424/4/6 427/4/6
f 427/4/6 424/4/6 428/4/6
f 425/4/6 426/4/6 429/4/6
f 429/4/6 426/4/6 430/4/6
f 431/4/6 432/4/6 435/4/6
f 435/4/6 432/4/6 436/4/6
f 433/4/6 434/4/6 437/4/6
f 437/4/6 434/4/6 438/4/6
f 439/4/6 440/4/6 443/4/6
f 443/4/6 440/4/6 444/4/6
f 441/4/6 442/4/6 445/4/6
f 445/4/6 442/4/6 446/4/6
f 447/4/6 448/4/6 450/4/6
f 450/4/6 448/4/6 451/4/6
f 449/4/6 450/4/6 453/4/6
f 451/4/6 452/4/6 453/4/6
f 450/4/6 451/4/6 453/4/6
f 453/4/6 452/4/6 454/4/6
f 449/4/6 453/4/6 455/4/6
f 455/4/6 453/4/6 456/4/6
f 454/4/6 452/4/6 457/4/6
f 457/4/6 452/4/6 458/4/6
f 459/8/6 460/8/6 461/8/6
f 461/8/6 460/8/6 462/8/6
f 463/5/6 464/5/6 467/5/6
f 467/5/6 464/5/6 468/5/6
f 465/5/6 466/5/6 469/5/6
f 469/5/6 466/5/6 470/5/6
f 471/5/6 472/5/6 475/5/6
f 475/5/6 472/5/6 476/5/6
f 473/5/6 474/5/6 477/5/6
f 477/5/6 474/5/6 478/5/6
f 479/5/6 480/5/6 482/5/6
f 482/5/6 480/5/6 483/5/6
f 481/5/6 482/5/6 485/5/6
f 483/5/6 484/5/6 485/5/6
f 482/5/6 483/5/6 485/5/6
f 485/5/6 484/5/6 486/5/6
f 486/5/6 484/5/6 487/5/6
f 487/5/6 484/5/6 488/5/6
f 486/5/6 487/5/6 489/5/6
f 489/5/6 487/5/6 490/5/6
f 490/5/6 487/5/6 491/5/6
f 491/5/6 487/5/6 492/5/6
f 492/5/6 487/5/6 493/5/6
f 493/5/6 487/5/6 494/5/6
f 490/4/6 491/4/6 495/4/6
f 495/4/6 491/4/6 496/4/6
f 492/4/6 493/4/6 497/4/6
f 497/4/6 493/4/6 498/4/6
