# MagicaVoxel @ Ephtracy

# group
o 

# material
mtllib angel_spawner.mtl
usemtl palette

# normals
vn -1 0 0
vn 1 0 0
vn 0 0 1
vn 0 0 -1
vn 0 -1 0
vn 0 1 0

# texcoords
vt 0.517578 0.5
vt 0.556641 0.5
vt 0.958984 0.5
vt 0.970703 0.5
vt 0.974609 0.5
vt 0.978516 0.5
vt 0.982422 0.5

# verts
v -1 0.4 0.6
v -1 0.4 0
v -1 0.5 0.7
v -1 0.5 0.6
v -1 0.5 0
v -1 0.5 -0.1
v -1 0.6 -0.1
v -1 0.6 -0.2
v -1 0.7 -0.2
v -1 0.7 -0.3
v -1 0.9 0.7
v -1 0.9 0.6
v -1 1 0.6
v -1 1 -0.3
v -0.9 0.2 0.8
v -0.9 0.2 -0.8
v -0.9 0.4 1
v -0.9 0.4 0.8
v -0.9 0.4 0.6
v -0.9 0.4 0
v -0.9 0.4 -0.8
v -0.9 0.4 -1
v -0.9 0.5 0.7
v -0.9 0.5 0.6
v -0.9 0.5 0
v -0.9 0.5 -0.1
v -0.9 0.6 -0.1
v -0.9 0.6 -0.2
v -0.9 0.7 -0.2
v -0.9 0.7 -0.3
v -0.9 0.9 0.7
v -0.9 0.9 0.6
v -0.9 1 0.6
v -0.9 1 -0.3
v -0.9 1 -0.7
v -0.9 1 -1
v -0.9 1.8 1
v -0.9 1.8 0.8
v -0.9 1.8 -0.5
v -0.9 1.8 -0.7
v -0.9 2 0.8
v -0.9 2 -0.5
v -0.7 0.2 1
v -0.7 0.2 0.8
v -0.7 0.2 -0.8
v -0.7 0.2 -1
v -0.7 0.4 1
v -0.7 0.4 0.8
v -0.7 0.4 -0.8
v -0.7 0.4 -1
v -0.7 1 -0.7
v -0.7 1 -1
v -0.7 1.2 -0.7
v -0.7 1.2 -1
v -0.7 1.8 1
v -0.7 1.8 0.8
v -0.7 1.8 -0.5
v -0.7 1.8 -0.7
v -0.7 2 1
v -0.7 2 0.8
v -0.7 2 -0.5
v -0.7 2 -0.7
v -0.6 0 0.4
v -0.6 0 0
v -0.6 0.2 0.4
v -0.6 0.2 0
v -0.3 2.1 0.3
v -0.3 2.1 -0.1
v -0.3 2.2 0.4
v -0.3 2.2 0.3
v -0.3 2.2 0.2
v -0.3 2.2 0
v -0.3 2.2 -0.1
v -0.3 2.2 -0.2
v -0.3 2.4 0.4
v -0.3 2.4 0.3
v -0.3 2.4 0.2
v -0.3 2.4 0
v -0.3 2.4 -0.1
v -0.3 2.4 -0.2
v -0.3 2.5 0.3
v -0.3 2.5 -0.1
v -0.2 2 0.3
v -0.2 2 -0.1
v -0.2 2.1 0.4
v -0.2 2.1 0.3
v -0.2 2.1 -0.1
v -0.2 2.1 -0.2
v -0.2 2.2 0.4
v -0.2 2.2 0.3
v -0.2 2.2 -0.1
v -0.2 2.2 -0.2
v -0.2 2.4 0.4
v -0.2 2.4 0.3
v -0.2 2.4 -0.1
v -0.2 2.4 -0.2
v -0.2 2.5 0.4
v -0.2 2.5 0.3
v -0.2 2.5 -0.1
v -0.2 2.5 -0.2
v -0.2 2.6 0.3
v -0.2 2.6 0.2
v -0.2 2.6 0
v -0.2 2.6 -0.1
v -0.2 2.7 0.2
v -0.2 2.7 0
v -0.1 2.6 0.3
v -0.1 2.6 0.2
v -0.1 2.6 0
v -0.1 2.6 -0.1
v -0.1 2.7 0.3
v -0.1 2.7 0.2
v -0.1 2.7 0
v -0.1 2.7 -0.1
v 0.2 0 0.4
v 0.2 0 0
v 0.2 0.2 0.4
v 0.2 0.2 0
v -0.2 0 0.4
v -0.2 0 0
v -0.2 0.2 0.4
v -0.2 0.2 0
v 0.1 2.6 0.3
v 0.1 2.6 0.2
v 0.1 2.6 0
v 0.1 2.6 -0.1
v 0.1 2.7 0.3
v 0.1 2.7 0.2
v 0.1 2.7 0
v 0.1 2.7 -0.1
v 0.2 2 0.3
v 0.2 2 -0.1
v 0.2 2.1 0.4
v 0.2 2.1 0.3
v 0.2 2.1 0
v 0.2 2.1 -0.1
v 0.2 2.1 -0.2
v 0.2 2.2 0.4
v 0.2 2.2 0.3
v 0.2 2.2 -0.1
v 0.2 2.2 -0.2
v 0.2 2.4 0.4
v 0.2 2.4 0.3
v 0.2 2.4 -0.1
v 0.2 2.4 -0.2
v 0.2 2.5 0.4
v 0.2 2.5 0.3
v 0.2 2.5 0.2
v 0.2 2.5 -0.1
v 0.2 2.5 -0.2
v 0.2 2.6 0.3
v 0.2 2.6 0.2
v 0.2 2.6 0
v 0.2 2.6 -0.1
v 0.2 2.7 0.2
v 0.2 2.7 0
v 0.3 2.1 0.3
v 0.3 2.1 0
v 0.3 2.1 -0.1
v 0.3 2.2 0.4
v 0.3 2.2 0.3
v 0.3 2.2 0
v 0.3 2.2 -0.1
v 0.3 2.2 -0.2
v 0.3 2.3 0.4
v 0.3 2.3 0.2
v 0.3 2.4 0.4
v 0.3 2.4 0.3
v 0.3 2.4 -0.1
v 0.3 2.4 -0.2
v 0.3 2.5 0.3
v 0.3 2.5 0.2
v 0.3 2.5 -0.1
v 0.6 0 0.4
v 0.6 0 0
v 0.6 0.2 0.4
v 0.6 0.2 0
v 0.7 0.2 1
v 0.7 0.2 0.8
v 0.7 0.2 -0.8
v 0.7 0.2 -1
v 0.7 0.4 1
v 0.7 0.4 0.8
v 0.7 0.4 -0.8
v 0.7 0.4 -1
v 0.7 1 -0.7
v 0.7 1 -1
v 0.7 1.2 -0.7
v 0.7 1.2 -1
v 0.7 1.8 1
v 0.7 1.8 0.8
v 0.7 1.8 -0.5
v 0.7 1.8 -0.7
v 0.7 2 1
v 0.7 2 0.8
v 0.7 2 -0.5
v 0.7 2 -0.7
v 0.9 0.2 0.8
v 0.9 0.2 -0.8
v 0.9 0.4 1
v 0.9 0.4 0.8
v 0.9 0.4 0.6
v 0.9 0.4 0
v 0.9 0.4 -0.8
v 0.9 0.4 -1
v 0.9 0.5 0.7
v 0.9 0.5 0.6
v 0.9 0.5 0
v 0.9 0.5 -0.1
v 0.9 0.6 -0.1
v 0.9 0.6 -0.2
v 0.9 0.7 -0.2
v 0.9 0.7 -0.3
v 0.9 0.9 0.7
v 0.9 0.9 0.6
v 0.9 1 0.6
v 0.9 1 -0.3
v 0.9 1 -0.7
v 0.9 1 -1
v 0.9 1.8 1
v 0.9 1.8 0.8
v 0.9 1.8 -0.5
v 0.9 1.8 -0.7
v 0.9 2 0.8
v 0.9 2 -0.5
v 1 0.4 0.6
v 1 0.4 0
v 1 0.5 0.7
v 1 0.5 0.6
v 1 0.5 0
v 1 0.5 -0.1
v 1 0.6 -0.1
v 1 0.6 -0.2
v 1 0.7 -0.2
v 1 0.7 -0.3
v 1 0.9 0.7
v 1 0.9 0.6
v 1 1 0.6
v 1 1 -0.3
v -0.9 0.4 1
v -0.9 1.8 1
v -0.7 0.2 1
v -0.7 0.4 1
v -0.7 1.8 1
v -0.7 2 1
v -0.5 1 1
v -0.5 1.4 1
v -0.2 0.7 1
v -0.2 0.8 1
v -0.2 1 1
v -0.2 1.4 1
v 0.2 0.7 1
v 0.2 0.8 1
v 0.2 1 1
v 0.2 1.4 1
v 0.5 1 1
v 0.5 1.4 1
v 0.7 0.2 1
v 0.7 0.4 1
v 0.7 1.8 1
v 0.7 2 1
v 0.9 0.4 1
v 0.9 1.8 1
v -0.9 0.2 0.8
v -0.9 0.4 0.8
v -0.9 1.8 0.8
v -0.9 2 0.8
v -0.7 0.2 0.8
v -0.7 0.4 0.8
v -0.7 1.8 0.8
v -0.7 2 0.8
v 0.7 0.2 0.8
v 0.7 0.4 0.8
v 0.7 1.8 0.8
v 0.7 2 0.8
v 0.9 0.2 0.8
v 0.9 0.4 0.8
v 0.9 1.8 0.8
v 0.9 2 0.8
v -1 0.5 0.7
v -1 0.9 0.7
v -0.9 0.5 0.7
v -0.9 0.9 0.7
v 0.9 0.5 0.7
v 0.9 0.9 0.7
v 1 0.5 0.7
v 1 0.9 0.7
v -1 0.4 0.6
v -1 0.5 0.6
v -1 0.9 0.6
v -1 1 0.6
v -0.9 0.4 0.6
v -0.9 0.5 0.6
v -0.9 0.9 0.6
v -0.9 1 0.6
v 0.9 0.4 0.6
v 0.9 0.5 0.6
v 0.9 0.9 0.6
v 0.9 1 0.6
v 1 0.4 0.6
v 1 0.5 0.6
v 1 0.9 0.6
v 1 1 0.6
v -0.6 0 0.4
v -0.6 0.2 0.4
v -0.3 2.2 0.4
v -0.3 2.4 0.4
v -0.2 0 0.4
v -0.2 0.2 0.4
v -0.2 2.1 0.4
v -0.2 2.2 0.4
v -0.2 2.4 0.4
v -0.2 2.5 0.4
v 0.1 2.3 0.4
v 0.1 2.5 0.4
v 0.2 0 0.4
v 0.2 0.2 0.4
v 0.2 2.1 0.4
v 0.2 2.2 0.4
v 0.2 2.4 0.4
v 0.2 2.5 0.4
v 0.3 2.2 0.4
v 0.3 2.3 0.4
v 0.3 2.4 0.4
v 0.6 0 0.4
v 0.6 0.2 0.4
v -0.3 2.1 0.3
v -0.3 2.2 0.3
v -0.3 2.4 0.3
v -0.3 2.5 0.3
v -0.2 2 0.3
v -0.2 2.1 0.3
v -0.2 2.2 0.3
v -0.2 2.4 0.3
v -0.2 2.5 0.3
v -0.2 2.6 0.3
v -0.1 2.6 0.3
v -0.1 2.7 0.3
v 0.1 2.5 0.3
v 0.1 2.6 0.3
v 0.1 2.7 0.3
v 0.2 2 0.3
v 0.2 2.1 0.3
v 0.2 2.2 0.3
v 0.2 2.4 0.3
v 0.2 2.5 0.3
v 0.2 2.6 0.3
v 0.3 2.1 0.3
v 0.3 2.2 0.3
v 0.3 2.4 0.3
v 0.3 2.5 0.3
v -0.2 2.6 0.2
v -0.2 2.7 0.2
v -0.1 2.6 0.2
v -0.1 2.7 0.2
v 0.1 2.6 0.2
v 0.1 2.7 0.2
v 0.2 2.6 0.2
v 0.2 2.7 0.2
v -1 0.4 0
v -1 0.5 0
v -0.9 0.4 0
v -0.9 0.5 0
v -0.6 0 0
v -0.6 0.2 0
v -0.2 0 0
v -0.2 0.2 0
v -0.2 2.6 0
v -0.2 2.7 0
v -0.1 2.6 0
v -0.1 2.7 0
v 0.1 2.6 0
v 0.1 2.7 0
v 0.2 0 0
v 0.2 0.2 0
v 0.2 2.6 0
v 0.2 2.7 0
v 0.6 0 0
v 0.6 0.2 0
v 0.9 0.4 0
v 0.9 0.5 0
v 1 0.4 0
v 1 0.5 0
v -1 0.5 -0.1
v -1 0.6 -0.1
v -0.9 0.5 -0.1
v -0.9 0.6 -0.1
v -0.3 2.1 -0.1
v -0.3 2.2 -0.1
v -0.3 2.4 -0.1
v -0.3 2.5 -0.1
v -0.2 2 -0.1
v -0.2 2.1 -0.1
v -0.2 2.2 -0.1
v -0.2 2.4 -0.1
v -0.2 2.5 -0.1
v -0.2 2.6 -0.1
v -0.1 2.5 -0.1
v -0.1 2.6 -0.1
v -0.1 2.7 -0.1
v 0.1 2.1 -0.1
v 0.1 2.5 -0.1
v 0.1 2.6 -0.1
v 0.1 2.7 -0.1
v 0.2 2 -0.1
v 0.2 2.1 -0.1
v 0.2 2.2 -0.1
v 0.2 2.4 -0.1
v 0.2 2.5 -0.1
v 0.2 2.6 -0.1
v 0.3 2.1 -0.1
v 0.3 2.2 -0.1
v 0.3 2.4 -0.1
v 0.3 2.5 -0.1
v 0.9 0.5 -0.1
v 0.9 0.6 -0.1
v 1 0.5 -0.1
v 1 0.6 -0.1
v -1 0.6 -0.2
v -1 0.7 -0.2
v -0.9 0.6 -0.2
v -0.9 0.7 -0.2
v -0.3 2.2 -0.2
v -0.3 2.4 -0.2
v -0.2 2.1 -0.2
v -0.2 2.2 -0.2
v -0.2 2.4 -0.2
v -0.2 2.5 -0.2
v -0.1 2.4 -0.2
v -0.1 2.5 -0.2
v 0.1 2.1 -0.2
v 0.1 2.2 -0.2
v 0.1 2.4 -0.2
v 0.1 2.5 -0.2
v 0.2 2.1 -0.2
v 0.2 2.2 -0.2
v 0.2 2.4 -0.2
v 0.2 2.5 -0.2
v 0.3 2.2 -0.2
v 0.3 2.4 -0.2
v 0.9 0.6 -0.2
v 0.9 0.7 -0.2
v 1 0.6 -0.2
v 1 0.7 -0.2
v -1 0.7 -0.3
v -1 1 -0.3
v -0.9 0.7 -0.3
v -0.9 1 -0.3
v 0.9 0.7 -0.3
v 0.9 1 -0.3
v 1 0.7 -0.3
v 1 1 -0.3
v -0.9 1.8 -0.5
v -0.9 2 -0.5
v -0.7 1.8 -0.5
v -0.7 2 -0.5
v 0.7 1.8 -0.5
v 0.7 2 -0.5
v 0.9 1.8 -0.5
v 0.9 2 -0.5
v -0.9 1 -0.7
v -0.9 1.8 -0.7
v -0.7 1 -0.7
v -0.7 1.2 -0.7
v -0.7 1.8 -0.7
v -0.7 2 -0.7
v 0.7 1 -0.7
v 0.7 1.2 -0.7
v 0.7 1.8 -0.7
v 0.7 2 -0.7
v 0.9 1 -0.7
v 0.9 1.8 -0.7
v -0.9 0.2 -0.8
v -0.9 0.4 -0.8
v -0.7 0.2 -0.8
v -0.7 0.4 -0.8
v 0.7 0.2 -0.8
v 0.7 0.4 -0.8
v 0.9 0.2 -0.8
v 0.9 0.4 -0.8
v -0.9 0.4 -1
v -0.9 1 -1
v -0.7 0.2 -1
v -0.7 0.4 -1
v -0.7 1 -1
v -0.7 1.2 -1
v 0.7 0.2 -1
v 0.7 0.4 -1
v 0.7 1 -1
v 0.7 1.2 -1
v 0.9 0.4 -1
v 0.9 1 -1
v -0.6 0 0.4
v -0.2 0 0.4
v 0.2 0 0.4
v 0.6 0 0.4
v -0.6 0 0
v -0.2 0 0
v 0.2 0 0
v 0.6 0 0
v -0.7 0.2 1
v 0.7 0.2 1
v -0.9 0.2 0.8
v -0.7 0.2 0.8
v 0.7 0.2 0.8
v 0.9 0.2 0.8
v -0.6 0.2 0.4
v -0.2 0.2 0.4
v 0.2 0.2 0.4
v 0.6 0.2 0.4
v -0.6 0.2 0
v -0.2 0.2 0
v 0.2 0.2 0
v 0.6 0.2 0
v -0.9 0.2 -0.8
v -0.7 0.2 -0.8
v 0.7 0.2 -0.8
v 0.9 0.2 -0.8
v -0.7 0.2 -1
v 0.7 0.2 -1
v -0.9 0.4 1
v -0.7 0.4 1
v 0.7 0.4 1
v 0.9 0.4 1
v -0.9 0.4 0.8
v -0.7 0.4 0.8
v 0.7 0.4 0.8
v 0.9 0.4 0.8
v -1 0.4 0.6
v -0.9 0.4 0.6
v 0.9 0.4 0.6
v 1 0.4 0.6
v -1 0.4 0
v -0.9 0.4 0
v 0.9 0.4 0
v 1 0.4 0
v -0.9 0.4 -0.8
v -0.7 0.4 -0.8
v 0.7 0.4 -0.8
v 0.9 0.4 -0.8
v -0.9 0.4 -1
v -0.7 0.4 -1
v 0.7 0.4 -1
v 0.9 0.4 -1
v -1 0.5 0.7
v -0.9 0.5 0.7
v 0.9 0.5 0.7
v 1 0.5 0.7
v -1 0.5 0.6
v -0.9 0.5 0.6
v 0.9 0.5 0.6
v 1 0.5 0.6
v -1 0.5 0
v -0.9 0.5 0
v 0.9 0.5 0
v 1 0.5 0
v -1 0.5 -0.1
v -0.9 0.5 -0.1
v 0.9 0.5 -0.1
v 1 0.5 -0.1
v -1 0.6 -0.1
v -0.9 0.6 -0.1
v 0.9 0.6 -0.1
v 1 0.6 -0.1
v -1 0.6 -0.2
v -0.9 0.6 -0.2
v 0.9 0.6 -0.2
v 1 0.6 -0.2
v -1 0.7 -0.2
v -0.9 0.7 -0.2
v 0.9 0.7 -0.2
v 1 0.7 -0.2
v -1 0.7 -0.3
v -0.9 0.7 -0.3
v 0.9 0.7 -0.3
v 1 0.7 -0.3
v -0.2 2.1 0.4
v 0.2 2.1 0.4
v -0.3 2.1 0.3
v -0.2 2.1 0.3
v 0.2 2.1 0.3
v 0.3 2.1 0.3
v 0.2 2.1 0
v 0.3 2.1 0
v -0.3 2.1 -0.1
v -0.2 2.1 -0.1
v 0.1 2.1 -0.1
v 0.2 2.1 -0.1
v 0.3 2.1 -0.1
v -0.2 2.1 -0.2
v 0.1 2.1 -0.2
v 0.2 2.1 -0.2
v -0.3 2.2 0.4
v -0.2 2.2 0.4
v 0.2 2.2 0.4
v 0.3 2.2 0.4
v -0.3 2.2 0.3
v -0.2 2.2 0.3
v 0.2 2.2 0.3
v 0.3 2.2 0.3
v -0.3 2.2 -0.1
v -0.2 2.2 -0.1
v 0.2 2.2 -0.1
v 0.3 2.2 -0.1
v -0.3 2.2 -0.2
v -0.2 2.2 -0.2
v 0.2 2.2 -0.2
v 0.3 2.2 -0.2
v -1 0.9 0.7
v -0.9 0.9 0.7
v 0.9 0.9 0.7
v 1 0.9 0.7
v -1 0.9 0.6
v -0.9 0.9 0.6
v 0.9 0.9 0.6
v 1 0.9 0.6
v -1 1 0.6
v -0.9 1 0.6
v 0.9 1 0.6
v 1 1 0.6
v -1 1 -0.3
v -0.9 1 -0.3
v 0.9 1 -0.3
v 1 1 -0.3
v -0.9 1 -0.7
v -0.7 1 -0.7
v 0.7 1 -0.7
v 0.9 1 -0.7
v -0.9 1 -1
v -0.7 1 -1
v 0.7 1 -1
v 0.9 1 -1
v -0.7 1.2 -0.7
v 0.7 1.2 -0.7
v -0.7 1.2 -1
v 0.7 1.2 -1
v -0.9 1.8 1
v -0.7 1.8 1
v 0.7 1.8 1
v 0.9 1.8 1
v -0.9 1.8 0.8
v -0.7 1.8 0.8
v 0.7 1.8 0.8
v 0.9 1.8 0.8
v -0.9 1.8 -0.5
v -0.7 1.8 -0.5
v 0.7 1.8 -0.5
v 0.9 1.8 -0.5
v -0.9 1.8 -0.7
v -0.7 1.8 -0.7
v 0.7 1.8 -0.7
v 0.9 1.8 -0.7
v -0.7 2 1
v 0.7 2 1
v -0.9 2 0.8
v -0.7 2 0.8
v 0.7 2 0.8
v 0.9 2 0.8
v -0.2 2 0.3
v 0.2 2 0.3
v -0.2 2 -0.1
v 0.2 2 -0.1
v -0.9 2 -0.5
v -0.7 2 -0.5
v 0.7 2 -0.5
v 0.9 2 -0.5
v -0.7 2 -0.7
v 0.7 2 -0.7
v -0.3 2.4 0.4
v -0.2 2.4 0.4
v 0.2 2.4 0.4
v 0.3 2.4 0.4
v -0.3 2.4 0.3
v -0.2 2.4 0.3
v 0.2 2.4 0.3
v 0.3 2.4 0.3
v -0.3 2.4 -0.1
v -0.2 2.4 -0.1
v 0.2 2.4 -0.1
v 0.3 2.4 -0.1
v -0.3 2.4 -0.2
v -0.2 2.4 -0.2
v 0.2 2.4 -0.2
v 0.3 2.4 -0.2
v -0.2 2.5 0.4
v 0.1 2.5 0.4
v 0.2 2.5 0.4
v -0.3 2.5 0.3
v -0.2 2.5 0.3
v 0.1 2.5 0.3
v 0.2 2.5 0.3
v 0.3 2.5 0.3
v 0.2 2.5 0.2
v 0.3 2.5 0.2
v -0.3 2.5 -0.1
v -0.2 2.5 -0.1
v -0.1 2.5 -0.1
v 0.1 2.5 -0.1
v 0.2 2.5 -0.1
v 0.3 2.5 -0.1
v -0.2 2.5 -0.2
v -0.1 2.5 -0.2
v 0.1 2.5 -0.2
v 0.2 2.5 -0.2
v -0.2 2.6 0.3
v -0.1 2.6 0.3
v 0.1 2.6 0.3
v 0.2 2.6 0.3
v -0.2 2.6 0.2
v -0.1 2.6 0.2
v 0.1 2.6 0.2
v 0.2 2.6 0.2
v -0.2 2.6 0
v -0.1 2.6 0
v 0.1 2.6 0
v 0.2 2.6 0
v -0.2 2.6 -0.1
v -0.1 2.6 -0.1
v 0.1 2.6 -0.1
v 0.2 2.6 -0.1
v -0.1 2.7 0.3
v 0.1 2.7 0.3
v -0.2 2.7 0.2
v -0.1 2.7 0.2
v 0.1 2.7 0.2
v 0.2 2.7 0.2
v -0.2 2.7 0
v -0.1 2.7 0
v 0.1 2.7 0
v 0.2 2.7 0
v -0.1 2.7 -0.1
v 0.1 2.7 -0.1

# faces
f 4/4/1 2/4/1 1/4/1
f 5/4/1 2/4/1 4/4/1
f 7/4/1 4/4/1 3/4/1
f 7/4/1 6/4/1 5/4/1
f 7/4/1 5/4/1 4/4/1
f 9/4/1 8/4/1 7/4/1
f 11/4/1 7/4/1 3/4/1
f 11/4/1 10/4/1 9/4/1
f 11/4/1 9/4/1 7/4/1
f 12/4/1 10/4/1 11/4/1
f 13/4/1 10/4/1 12/4/1
f 14/4/1 10/4/1 13/4/1
f 18/5/1 16/5/1 15/5/1
f 19/5/1 16/5/1 18/5/1
f 20/5/1 16/5/1 19/5/1
f 21/5/1 16/5/1 20/5/1
f 23/5/1 18/5/1 17/5/1
f 23/5/1 19/5/1 18/5/1
f 24/5/1 19/5/1 23/5/1
f 25/5/1 22/5/1 21/5/1
f 25/5/1 21/5/1 20/5/1
f 26/5/1 22/5/1 25/5/1
f 27/5/1 22/5/1 26/5/1
f 28/5/1 22/5/1 27/5/1
f 29/5/1 22/5/1 28/5/1
f 30/5/1 22/5/1 29/5/1
f 31/5/1 23/5/1 17/5/1
f 33/5/1 32/5/1 31/5/1
f 34/5/1 22/5/1 30/5/1
f 35/5/1 22/5/1 34/5/1
f 36/5/1 22/5/1 35/5/1
f 37/5/1 33/5/1 31/5/1
f 37/5/1 31/5/1 17/5/1
f 37/5/1 35/5/1 34/5/1
f 37/5/1 34/5/1 33/5/1
f 38/5/1 35/5/1 37/5/1
f 39/5/1 35/5/1 38/5/1
f 40/5/1 35/5/1 39/5/1
f 41/5/1 39/5/1 38/5/1
f 42/5/1 39/5/1 41/5/1
f 47/5/1 44/5/1 43/5/1
f 48/5/1 44/5/1 47/5/1
f 49/5/1 46/5/1 45/5/1
f 50/5/1 46/5/1 49/5/1
f 53/5/1 52/5/1 51/5/1
f 54/5/1 52/5/1 53/5/1
f 59/5/1 56/5/1 55/5/1
f 60/5/1 56/5/1 59/5/1
f 61/5/1 58/5/1 57/5/1
f 62/5/1 58/5/1 61/5/1
f 65/4/1 64/4/1 63/4/1
f 66/4/1 64/4/1 65/4/1
f 70/7/1 68/7/1 67/7/1
f 71/7/1 68/7/1 70/7/1
f 72/7/1 68/7/1 71/7/1
f 73/7/1 68/7/1 72/7/1
f 75/7/1 70/7/1 69/7/1
f 75/7/1 71/7/1 70/7/1
f 76/7/1 71/7/1 75/7/1
f 77/4/1 72/4/1 71/4/1
f 77/7/1 71/7/1 76/7/1
f 78/7/1 74/7/1 73/7/1
f 78/4/1 72/4/1 77/4/1
f 78/7/1 73/7/1 72/7/1
f 79/7/1 74/7/1 78/7/1
f 80/7/1 74/7/1 79/7/1
f 81/7/1 77/7/1 76/7/1
f 81/7/1 79/7/1 78/7/1
f 81/7/1 78/7/1 77/7/1
f 82/7/1 79/7/1 81/7/1
f 86/7/1 84/7/1 83/7/1
f 87/7/1 84/7/1 86/7/1
f 89/7/1 86/7/1 85/7/1
f 90/7/1 86/7/1 89/7/1
f 91/7/1 88/7/1 87/7/1
f 92/7/1 88/7/1 91/7/1
f 97/7/1 94/7/1 93/7/1
f 98/7/1 94/7/1 97/7/1
f 99/7/1 96/7/1 95/7/1
f 100/7/1 96/7/1 99/7/1
f 101/7/1 99/7/1 98/7/1
f 102/7/1 99/7/1 101/7/1
f 103/7/1 99/7/1 102/7/1
f 104/7/1 99/7/1 103/7/1
f 105/7/1 103/7/1 102/7/1
f 106/7/1 103/7/1 105/7/1
f 111/7/1 108/7/1 107/7/1
f 112/7/1 108/7/1 111/7/1
f 113/7/1 110/7/1 109/7/1
f 114/7/1 110/7/1 113/7/1
f 117/4/1 116/4/1 115/4/1
f 118/4/1 116/4/1 117/4/1
f 119/4/2 120/4/2 121/4/2
f 121/4/2 120/4/2 122/4/2
f 123/7/2 124/7/2 127/7/2
f 127/7/2 124/7/2 128/7/2
f 125/7/2 126/7/2 129/7/2
f 129/7/2 126/7/2 130/7/2
f 131/7/2 132/7/2 134/7/2
f 134/7/2 132/7/2 135/7/2
f 135/7/2 132/7/2 136/7/2
f 133/7/2 134/7/2 138/7/2
f 138/7/2 134/7/2 139/7/2
f 136/4/2 137/4/2 140/4/2
f 140/4/2 137/4/2 141/4/2
f 142/4/2 143/4/2 146/4/2
f 146/4/2 143/4/2 147/4/2
f 144/7/2 145/7/2 149/7/2
f 149/7/2 145/7/2 150/7/2
f 147/7/2 148/7/2 151/7/2
f 148/7/2 149/7/2 151/7/2
f 151/7/2 149/7/2 152/7/2
f 152/7/2 149/7/2 153/7/2
f 153/7/2 149/7/2 154/7/2
f 152/7/2 153/7/2 155/7/2
f 155/7/2 153/7/2 156/7/2
f 157/7/2 158/7/2 161/7/2
f 158/4/2 159/4/2 162/4/2
f 161/7/2 158/7/2 162/7/2
f 162/4/2 159/4/2 163/4/2
f 160/7/2 161/7/2 165/7/2
f 163/7/2 164/7/2 165/7/2
f 162/7/2 163/7/2 165/7/2
f 161/7/2 162/7/2 165/7/2
f 165/7/2 164/7/2 166/7/2
f 165/4/2 166/4/2 167/4/2
f 167/4/2 166/4/2 168/4/2
f 166/7/2 164/7/2 169/7/2
f 169/7/2 164/7/2 170/7/2
f 168/4/2 166/4/2 171/4/2
f 166/7/2 169/7/2 172/7/2
f 171/4/2 166/4/2 172/4/2
f 172/7/2 169/7/2 173/7/2
f 174/4/2 175/4/2 176/4/2
f 176/4/2 175/4/2 177/4/2
f 178/5/2 179/5/2 182/5/2
f 182/5/2 179/5/2 183/5/2
f 180/5/2 181/5/2 184/5/2
f 184/5/2 181/5/2 185/5/2
f 186/5/2 187/5/2 188/5/2
f 188/5/2 187/5/2 189/5/2
f 190/5/2 191/5/2 194/5/2
f 194/5/2 191/5/2 195/5/2
f 192/5/2 193/5/2 196/5/2
f 196/5/2 193/5/2 197/5/2
f 198/5/2 199/5/2 201/5/2
f 201/5/2 199/5/2 202/5/2
f 202/5/2 199/5/2 203/5/2
f 203/5/2 199/5/2 204/5/2
f 200/5/2 201/5/2 206/5/2
f 201/5/2 202/5/2 206/5/2
f 206/5/2 202/5/2 207/5/2
f 204/5/2 205/5/2 208/5/2
f 203/5/2 204/5/2 208/5/2
f 208/5/2 205/5/2 209/5/2
f 209/5/2 205/5/2 210/5/2
f 210/5/2 205/5/2 211/5/2
f 211/5/2 205/5/2 212/5/2
f 212/5/2 205/5/2 213/5/2
f 200/5/2 206/5/2 214/5/2
f 214/5/2 215/5/2 216/5/2
f 213/5/2 205/5/2 217/5/2
f 217/5/2 205/5/2 218/5/2
f 218/5/2 205/5/2 219/5/2
f 214/5/2 216/5/2 220/5/2
f 200/5/2 214/5/2 220/5/2
f 217/5/2 218/5/2 220/5/2
f 216/5/2 217/5/2 220/5/2
f 220/5/2 218/5/2 221/5/2
f 221/5/2 218/5/2 222/5/2
f 222/5/2 218/5/2 223/5/2
f 221/5/2 222/5/2 224/5/2
f 224/5/2 222/5/2 225/5/2
f 226/4/2 227/4/2 229/4/2
f 229/4/2 227/4/2 230/4/2
f 228/4/2 229/4/2 232/4/2
f 230/4/2 231/4/2 232/4/2
f 229/4/2 230/4/2 232/4/2
f 232/4/2 233/4/2 234/4/2
f 228/4/2 232/4/2 236/4/2
f 234/4/2 235/4/2 236/4/2
f 232/4/2 234/4/2 236/4/2
f 236/4/2 235/4/2 237/4/2
f 237/4/2 235/4/2 238/4/2
f 238/4/2 235/4/2 239/4/2
f 243/5/3 241/5/3 240/5/3
f 244/5/3 241/5/3 243/5/3
f 246/5/3 243/5/3 242/5/3
f 246/5/3 245/5/3 244/5/3
f 246/5/3 244/5/3 243/5/3
f 247/5/3 245/5/3 246/5/3
f 248/5/3 246/5/3 242/5/3
f 249/5/3 246/5/3 248/5/3
f 250/6/3 247/6/3 246/6/3
f 250/5/3 246/5/3 249/5/3
f 251/5/3 245/5/3 247/5/3
f 251/6/3 247/6/3 250/6/3
f 252/6/3 249/6/3 248/6/3
f 252/5/3 248/5/3 242/5/3
f 253/5/3 250/5/3 249/5/3
f 253/6/3 249/6/3 252/6/3
f 253/5/3 251/5/3 250/5/3
f 254/5/3 251/5/3 253/5/3
f 255/5/3 245/5/3 251/5/3
f 255/5/3 251/5/3 254/5/3
f 256/5/3 254/5/3 253/5/3
f 256/5/3 253/5/3 252/5/3
f 256/6/3 255/6/3 254/6/3
f 257/5/3 245/5/3 255/5/3
f 257/6/3 255/6/3 256/6/3
f 258/5/3 252/5/3 242/5/3
f 258/5/3 256/5/3 252/5/3
f 258/5/3 257/5/3 256/5/3
f 259/5/3 257/5/3 258/5/3
f 260/5/3 245/5/3 257/5/3
f 260/5/3 257/5/3 259/5/3
f 261/5/3 245/5/3 260/5/3
f 262/5/3 260/5/3 259/5/3
f 263/5/3 260/5/3 262/5/3
f 268/5/3 265/5/3 264/5/3
f 269/5/3 265/5/3 268/5/3
f 270/5/3 267/5/3 266/5/3
f 271/5/3 267/5/3 270/5/3
f 276/5/3 273/5/3 272/5/3
f 277/5/3 273/5/3 276/5/3
f 278/5/3 275/5/3 274/5/3
f 279/5/3 275/5/3 278/5/3
f 282/4/3 281/4/3 280/4/3
f 283/4/3 281/4/3 282/4/3
f 286/4/3 285/4/3 284/4/3
f 287/4/3 285/4/3 286/4/3
f 292/4/3 289/4/3 288/4/3
f 293/4/3 289/4/3 292/4/3
f 294/4/3 291/4/3 290/4/3
f 295/4/3 291/4/3 294/4/3
f 300/4/3 297/4/3 296/4/3
f 301/4/3 297/4/3 300/4/3
f 302/4/3 299/4/3 298/4/3
f 303/4/3 299/4/3 302/4/3
f 308/4/3 305/4/3 304/4/3
f 309/4/3 305/4/3 308/4/3
f 311/7/3 307/7/3 306/7/3
f 312/7/3 307/7/3 311/7/3
f 314/7/3 313/7/3 312/7/3
f 314/7/3 312/7/3 311/7/3
f 314/7/3 311/7/3 310/7/3
f 315/7/3 313/7/3 314/7/3
f 318/7/3 314/7/3 310/7/3
f 319/7/3 314/7/3 318/7/3
f 320/4/3 315/4/3 314/4/3
f 321/4/3 315/4/3 320/4/3
f 322/7/3 314/7/3 319/7/3
f 323/4/3 320/4/3 314/4/3
f 323/7/3 314/7/3 322/7/3
f 324/4/3 320/4/3 323/4/3
f 325/4/3 317/4/3 316/4/3
f 326/4/3 317/4/3 325/4/3
f 332/7/3 328/7/3 327/7/3
f 333/7/3 328/7/3 332/7/3
f 334/7/3 330/7/3 329/7/3
f 335/7/3 330/7/3 334/7/3
f 337/7/3 336/7/3 335/7/3
f 339/7/3 337/7/3 335/7/3
f 339/7/3 338/7/3 337/7/3
f 340/7/3 338/7/3 339/7/3
f 341/7/3 338/7/3 340/7/3
f 342/7/3 332/7/3 331/7/3
f 343/7/3 332/7/3 342/7/3
f 346/7/3 340/7/3 339/7/3
f 347/7/3 340/7/3 346/7/3
f 348/7/3 344/7/3 343/7/3
f 349/7/3 344/7/3 348/7/3
f 350/4/3 346/4/3 345/4/3
f 351/4/3 346/4/3 350/4/3
f 354/7/3 353/7/3 352/7/3
f 355/7/3 353/7/3 354/7/3
f 358/7/3 357/7/3 356/7/3
f 359/7/3 357/7/3 358/7/3
f 360/4/4 361/4/4 362/4/4
f 362/4/4 361/4/4 363/4/4
f 364/4/4 365/4/4 366/4/4
f 366/4/4 365/4/4 367/4/4
f 368/7/4 369/7/4 370/7/4
f 370/7/4 369/7/4 371/7/4
f 372/7/4 373/7/4 376/7/4
f 376/7/4 373/7/4 377/7/4
f 374/4/4 375/4/4 378/4/4
f 378/4/4 375/4/4 379/4/4
f 380/4/4 381/4/4 382/4/4
f 382/4/4 381/4/4 383/4/4
f 384/4/4 385/4/4 386/4/4
f 386/4/4 385/4/4 387/4/4
f 388/7/4 389/7/4 393/7/4
f 393/7/4 389/7/4 394/7/4
f 390/7/4 391/7/4 395/7/4
f 395/7/4 391/7/4 396/7/4
f 396/7/4 397/7/4 398/7/4
f 398/7/4 397/7/4 399/7/4
f 392/7/4 393/7/4 401/7/4
f 398/4/4 399/4/4 402/4/4
f 399/7/4 400/7/4 403/7/4
f 402/4/4 399/4/4 403/4/4
f 403/7/4 400/7/4 404/7/4
f 392/7/4 401/7/4 405/7/4
f 405/7/4 401/7/4 406/7/4
f 402/7/4 403/7/4 409/7/4
f 409/7/4 403/7/4 410/7/4
f 406/4/4 407/4/4 411/4/4
f 411/4/4 407/4/4 412/4/4
f 408/7/4 409/7/4 413/7/4
f 413/7/4 409/7/4 414/7/4
f 415/4/4 416/4/4 417/4/4
f 417/4/4 416/4/4 418/4/4
f 419/4/4 420/4/4 421/4/4
f 421/4/4 420/4/4 422/4/4
f 423/7/4 424/7/4 426/7/4
f 426/7/4 424/7/4 427/7/4
f 425/7/4 426/7/4 429/7/4
f 427/7/4 428/7/4 429/7/4
f 426/7/4 427/7/4 429/7/4
f 429/7/4 428/7/4 430/7/4
f 425/7/4 429/7/4 431/7/4
f 431/7/4 429/7/4 432/7/4
f 429/4/4 430/4/4 433/4/4
f 432/7/4 429/7/4 433/7/4
f 433/4/4 430/4/4 434/4/4
f 431/4/4 432/4/4 435/4/4
f 432/7/4 433/7/4 436/7/4
f 435/4/4 432/4/4 436/4/4
f 433/7/4 434/7/4 436/7/4
f 436/7/4 434/7/4 437/7/4
f 437/7/4 434/7/4 438/7/4
f 436/7/4 437/7/4 439/7/4
f 439/7/4 437/7/4 440/7/4
f 441/4/4 442/4/4 443/4/4
f 443/4/4 442/4/4 444/4/4
f 445/4/4 446/4/4 447/4/4
f 447/4/4 446/4/4 448/4/4
f 449/4/4 450/4/4 451/4/4
f 451/4/4 450/4/4 452/4/4
f 453/5/4 454/5/4 455/5/4
f 455/5/4 454/5/4 456/5/4
f 457/5/4 458/5/4 459/5/4
f 459/5/4 458/5/4 460/5/4
f 461/5/4 462/5/4 463/5/4
f 463/5/4 462/5/4 464/5/4
f 464/5/4 462/5/4 465/5/4
f 465/5/4 466/5/4 468/5/4
f 464/5/4 465/5/4 468/5/4
f 468/5/4 466/5/4 469/5/4
f 469/5/4 466/5/4 470/5/4
f 467/5/4 468/5/4 471/5/4
f 468/5/4 469/5/4 471/5/4
f 471/5/4 469/5/4 472/5/4
f 473/5/4 474/5/4 475/5/4
f 475/5/4 474/5/4 476/5/4
f 477/5/4 478/5/4 479/5/4
f 479/5/4 478/5/4 480/5/4
f 481/5/4 482/5/4 484/5/4
f 484/5/4 482/5/4 485/5/4
f 483/5/4 484/5/4 487/5/4
f 485/5/4 486/5/4 487/5/4
f 484/5/4 485/5/4 487/5/4
f 487/5/4 486/5/4 488/5/4
f 488/5/4 486/5/4 489/5/4
f 489/5/4 486/5/4 490/5/4
f 488/5/4 489/5/4 491/5/4
f 491/5/4 489/5/4 492/5/4
f 497/4/5 494/4/5 493/4/5
f 498/4/5 494/4/5 497/4/5
f 499/4/5 496/4/5 495/4/5
f 500/4/5 496/4/5 499/4/5
f 504/5/5 502/5/5 501/5/5
f 505/5/5 502/5/5 504/5/5
f 507/5/5 504/5/5 503/5/5
f 507/5/5 506/5/5 505/5/5
f 507/5/5 505/5/5 504/5/5
f 508/5/5 506/5/5 507/5/5
f 509/5/5 506/5/5 508/5/5
f 510/5/5 506/5/5 509/5/5
f 511/5/5 507/5/5 503/5/5
f 512/5/5 509/5/5 508/5/5
f 513/5/5 509/5/5 512/5/5
f 514/5/5 506/5/5 510/5/5
f 515/5/5 513/5/5 512/5/5
f 515/5/5 514/5/5 513/5/5
f 515/5/5 511/5/5 503/5/5
f 515/5/5 512/5/5 511/5/5
f 516/5/5 514/5/5 515/5/5
f 517/5/5 506/5/5 514/5/5
f 517/5/5 514/5/5 516/5/5
f 518/5/5 506/5/5 517/5/5
f 519/5/5 517/5/5 516/5/5
f 520/5/5 517/5/5 519/5/5
f 525/5/5 522/5/5 521/5/5
f 526/5/5 522/5/5 525/5/5
f 527/5/5 524/5/5 523/5/5
f 528/5/5 524/5/5 527/5/5
f 533/4/5 530/4/5 529/4/5
f 534/4/5 530/4/5 533/4/5
f 535/4/5 532/4/5 531/4/5
f 536/4/5 532/4/5 535/4/5
f 541/5/5 538/5/5 537/5/5
f 542/5/5 538/5/5 541/5/5
f 543/5/5 540/5/5 539/5/5
f 544/5/5 540/5/5 543/5/5
f 549/4/5 546/4/5 545/4/5
f 550/4/5 546/4/5 549/4/5
f 551/4/5 548/4/5 547/4/5
f 552/4/5 548/4/5 551/4/5
f 557/4/5 554/4/5 553/4/5
f 558/4/5 554/4/5 557/4/5
f 559/4/5 556/4/5 555/4/5
f 560/4/5 556/4/5 559/4/5
f 565/4/5 562/4/5 561/4/5
f 566/4/5 562/4/5 565/4/5
f 567/4/5 564/4/5 563/4/5
f 568/4/5 564/4/5 567/4/5
f 573/4/5 570/4/5 569/4/5
f 574/4/5 570/4/5 573/4/5
f 575/4/5 572/4/5 571/4/5
f 576/4/5 572/4/5 575/4/5
f 580/7/5 578/7/5 577/7/5
f 581/7/5 578/7/5 580/7/5
f 583/7/5 582/7/5 581/7/5
f 584/7/5 582/7/5 583/7/5
f 585/7/5 580/7/5 579/7/5
f 586/7/5 580/7/5 585/7/5
f 588/4/5 584/4/5 583/4/5
f 589/4/5 584/4/5 588/4/5
f 590/7/5 587/7/5 586/7/5
f 591/4/5 588/4/5 587/4/5
f 591/7/5 587/7/5 590/7/5
f 592/4/5 588/4/5 591/4/5
f 597/7/5 594/7/5 593/7/5
f 598/7/5 594/7/5 597/7/5
f 599/7/5 596/7/5 595/7/5
f 600/7/5 596/7/5 599/7/5
f 605/7/5 602/7/5 601/7/5
f 606/7/5 602/7/5 605/7/5
f 607/7/5 604/7/5 603/7/5
f 608/7/5 604/7/5 607/7/5
f 609/4/6 610/4/6 613/4/6
f 613/4/6 610/4/6 614/4/6
f 611/4/6 612/4/6 615/4/6
f 615/4/6 612/4/6 616/4/6
f 617/4/6 618/4/6 621/4/6
f 621/4/6 618/4/6 622/4/6
f 619/4/6 620/4/6 623/4/6
f 623/4/6 620/4/6 624/4/6
f 625/5/6 626/5/6 629/5/6
f 629/5/6 626/5/6 630/5/6
f 627/5/6 628/5/6 631/5/6
f 631/5/6 628/5/6 632/5/6
f 633/5/6 634/5/6 635/5/6
f 635/5/6 634/5/6 636/5/6
f 637/5/6 638/5/6 641/5/6
f 641/5/6 638/5/6 642/5/6
f 639/5/6 640/5/6 643/5/6
f 643/5/6 640/5/6 644/5/6
f 645/5/6 646/5/6 649/5/6
f 649/5/6 646/5/6 650/5/6
f 647/5/6 648/5/6 651/5/6
f 651/5/6 648/5/6 652/5/6
f 653/5/6 654/5/6 656/5/6
f 656/5/6 654/5/6 657/5/6
f 655/5/6 656/5/6 659/5/6
f 657/5/6 658/5/6 659/5/6
f 656/5/6 657/5/6 659/5/6
f 659/5/6 658/5/6 660/5/6
f 655/5/6 659/5/6 661/5/6
f 660/5/6 658/5/6 662/5/6
f 655/5/6 661/5/6 663/5/6
f 661/5/6 662/5/6 663/5/6
f 663/5/6 662/5/6 664/5/6
f 662/5/6 658/5/6 665/5/6
f 664/5/6 662/5/6 665/5/6
f 665/5/6 658/5/6 666/5/6
f 664/5/6 665/5/6 667/5/6
f 667/5/6 665/5/6 668/5/6
f 669/7/6 670/7/6 673/7/6
f 673/7/6 670/7/6 674/7/6
f 671/4/6 672/4/6 675/4/6
f 675/4/6 672/4/6 676/4/6
f 677/7/6 678/7/6 681/7/6
f 681/7/6 678/7/6 682/7/6
f 679/7/6 680/7/6 683/7/6
f 683/7/6 680/7/6 684/7/6
f 685/7/6 686/7/6 689/7/6
f 686/4/6 687/4/6 690/4/6
f 689/7/6 686/7/6 690/7/6
f 690/4/6 687/4/6 691/4/6
f 691/4/6 692/4/6 693/4/6
f 693/4/6 692/4/6 694/4/6
f 688/7/6 689/7/6 695/7/6
f 695/7/6 689/7/6 696/7/6
f 693/7/6 694/7/6 699/7/6
f 699/7/6 694/7/6 700/7/6
f 696/7/6 697/7/6 701/7/6
f 697/4/6 698/4/6 702/4/6
f 701/7/6 697/7/6 702/7/6
f 698/7/6 699/7/6 703/7/6
f 702/4/6 698/4/6 703/4/6
f 703/7/6 699/7/6 704/7/6
f 705/7/6 706/7/6 709/7/6
f 709/7/6 706/7/6 710/7/6
f 707/7/6 708/7/6 711/7/6
f 711/7/6 708/7/6 712/7/6
f 713/7/6 714/7/6 717/7/6
f 717/7/6 714/7/6 718/7/6
f 715/7/6 716/7/6 719/7/6
f 719/7/6 716/7/6 720/7/6
f 721/7/6 722/7/6 724/7/6
f 724/7/6 722/7/6 725/7/6
f 723/7/6 724/7/6 727/7/6
f 725/7/6 726/7/6 727/7/6
f 724/7/6 725/7/6 727/7/6
f 727/7/6 726/7/6 728/7/6
f 728/7/6 726/7/6 729/7/6
f 729/7/6 726/7/6 730/7/6
f 728/7/6 729/7/6 731/7/6
f 731/7/6 729/7/6 732/7/6
