# MagicaVoxel @ Ephtracy

# group
o 

# material
mtllib chaser.mtl
usemtl palette

# normals
vn -1 0 0
vn 1 0 0
vn 0 0 1
vn 0 0 -1
vn 0 -1 0
vn 0 1 0

# texcoords
vt 0.517578 0.5
vt 0.556641 0.5
vt 0.958984 0.5
vt 0.970703 0.5
vt 0.974609 0.5
vt 0.978516 0.5

# verts
v -1 0.4 0.6
v -1 0.4 0
v -1 0.5 0.7
v -1 0.5 0.6
v -1 0.5 0
v -1 0.5 -0.1
v -1 0.6 -0.1
v -1 0.6 -0.2
v -1 0.7 -0.2
v -1 0.7 -0.3
v -1 0.9 0.7
v -1 0.9 0.6
v -1 1 0.6
v -1 1 -0.3
v -1 1.2 -0.4
v -1 1.2 -0.6
v -1 1.7 -0.4
v -1 1.7 -0.6
v -0.9 0.2 0.8
v -0.9 0.2 -0.8
v -0.9 0.4 1
v -0.9 0.4 0.8
v -0.9 0.4 0.6
v -0.9 0.4 0
v -0.9 0.4 -0.8
v -0.9 0.4 -1
v -0.9 0.5 0.7
v -0.9 0.5 0.6
v -0.9 0.5 0
v -0.9 0.5 -0.1
v -0.9 0.6 -0.1
v -0.9 0.6 -0.2
v -0.9 0.7 -0.2
v -0.9 0.7 -0.3
v -0.9 0.9 0.7
v -0.9 0.9 0.6
v -0.9 1 0.6
v -0.9 1 -0.3
v -0.9 1 -0.4
v -0.9 1 -0.6
v -0.9 1 -1
v -0.9 1.2 -0.4
v -0.9 1.2 -0.6
v -0.9 1.2 -0.7
v -0.9 1.7 -0.4
v -0.9 1.7 -0.6
v -0.9 1.7 -0.7
v -0.9 1.8 1
v -0.9 1.8 0.8
v -0.9 2 0.8
v -0.9 2 -0.4
v -0.9 2 -0.6
v -0.8 1 -0.6
v -0.8 1 -0.7
v -0.8 1.2 -0.6
v -0.8 1.2 -0.7
v -0.8 1.7 -0.6
v -0.8 1.7 -0.7
v -0.8 2 -0.4
v -0.8 2 -0.6
v -0.8 2 -0.7
v -0.8 2.1 -0.4
v -0.8 2.1 -0.6
v -0.7 0.2 1
v -0.7 0.2 0.8
v -0.7 0.2 -0.8
v -0.7 0.2 -1
v -0.7 0.4 1
v -0.7 0.4 0.8
v -0.7 0.4 -0.8
v -0.7 0.4 -1
v -0.7 1 -0.7
v -0.7 1 -1
v -0.7 1.2 -0.7
v -0.7 1.2 -1
v -0.7 1.8 1
v -0.7 1.8 0.8
v -0.7 2 1
v -0.7 2 0.8
v -0.7 2 -0.6
v -0.7 2 -0.7
v -0.7 2.1 -0.4
v -0.7 2.1 -0.6
v -0.7 2.1 -0.7
v -0.7 2.2 -0.4
v -0.7 2.2 -0.6
v -0.6 0 0.4
v -0.6 0 0
v -0.6 0.2 0.4
v -0.6 0.2 0
v -0.6 2.1 -0.6
v -0.6 2.1 -0.7
v -0.6 2.2 -0.4
v -0.6 2.2 -0.6
v -0.6 2.2 -0.7
v -0.6 2.3 -0.4
v -0.6 2.3 -0.6
v -0.3 2.2 -0.6
v -0.3 2.2 -0.7
v -0.3 2.3 -0.4
v -0.3 2.3 -0.6
v -0.3 2.3 -0.7
v -0.3 2.4 -0.4
v -0.3 2.4 -0.6
v 0.2 0 0.4
v 0.2 0 0
v 0.2 0.2 0.4
v 0.2 0.2 0
v -0.2 0 0.4
v -0.2 0 0
v -0.2 0.2 0.4
v -0.2 0.2 0
v 0.3 2.2 -0.6
v 0.3 2.2 -0.7
v 0.3 2.3 -0.4
v 0.3 2.3 -0.6
v 0.3 2.3 -0.7
v 0.3 2.4 -0.4
v 0.3 2.4 -0.6
v 0.6 0 0.4
v 0.6 0 0
v 0.6 0.2 0.4
v 0.6 0.2 0
v 0.6 2.1 -0.6
v 0.6 2.1 -0.7
v 0.6 2.2 -0.4
v 0.6 2.2 -0.6
v 0.6 2.2 -0.7
v 0.6 2.3 -0.4
v 0.6 2.3 -0.6
v 0.7 0.2 1
v 0.7 0.2 0.8
v 0.7 0.2 -0.8
v 0.7 0.2 -1
v 0.7 0.4 1
v 0.7 0.4 0.8
v 0.7 0.4 -0.8
v 0.7 0.4 -1
v 0.7 1 -0.7
v 0.7 1 -1
v 0.7 1.2 -0.7
v 0.7 1.2 -1
v 0.7 1.8 1
v 0.7 1.8 0.8
v 0.7 2 1
v 0.7 2 0.8
v 0.7 2 -0.6
v 0.7 2 -0.7
v 0.7 2.1 -0.4
v 0.7 2.1 -0.6
v 0.7 2.1 -0.7
v 0.7 2.2 -0.4
v 0.7 2.2 -0.6
v 0.8 1 -0.6
v 0.8 1 -0.7
v 0.8 1.2 -0.6
v 0.8 1.2 -0.7
v 0.8 1.7 -0.6
v 0.8 1.7 -0.7
v 0.8 2 -0.4
v 0.8 2 -0.6
v 0.8 2 -0.7
v 0.8 2.1 -0.4
v 0.8 2.1 -0.6
v 0.9 0.2 0.8
v 0.9 0.2 -0.8
v 0.9 0.4 1
v 0.9 0.4 0.8
v 0.9 0.4 0.6
v 0.9 0.4 0
v 0.9 0.4 -0.8
v 0.9 0.4 -1
v 0.9 0.5 0.7
v 0.9 0.5 0.6
v 0.9 0.5 0
v 0.9 0.5 -0.1
v 0.9 0.6 -0.1
v 0.9 0.6 -0.2
v 0.9 0.7 -0.2
v 0.9 0.7 -0.3
v 0.9 0.9 0.7
v 0.9 0.9 0.6
v 0.9 1 0.6
v 0.9 1 -0.3
v 0.9 1 -0.4
v 0.9 1 -0.6
v 0.9 1 -1
v 0.9 1.2 -0.4
v 0.9 1.2 -0.6
v 0.9 1.2 -0.7
v 0.9 1.7 -0.4
v 0.9 1.7 -0.6
v 0.9 1.7 -0.7
v 0.9 1.8 1
v 0.9 1.8 0.8
v 0.9 2 0.8
v 0.9 2 -0.4
v 0.9 2 -0.6
v 1 0.4 0.6
v 1 0.4 0
v 1 0.5 0.7
v 1 0.5 0.6
v 1 0.5 0
v 1 0.5 -0.1
v 1 0.6 -0.1
v 1 0.6 -0.2
v 1 0.7 -0.2
v 1 0.7 -0.3
v 1 0.9 0.7
v 1 0.9 0.6
v 1 1 0.6
v 1 1 -0.3
v 1 1.2 -0.4
v 1 1.2 -0.6
v 1 1.7 -0.4
v 1 1.7 -0.6
v -0.9 0.4 1
v -0.9 1.8 1
v -0.7 0.2 1
v -0.7 0.4 1
v -0.7 1.8 1
v -0.7 2 1
v -0.5 1 1
v -0.5 1.4 1
v -0.2 0.7 1
v -0.2 0.8 1
v -0.2 1 1
v -0.2 1.4 1
v 0.2 0.7 1
v 0.2 0.8 1
v 0.2 1 1
v 0.2 1.4 1
v 0.5 1 1
v 0.5 1.4 1
v 0.7 0.2 1
v 0.7 0.4 1
v 0.7 1.8 1
v 0.7 2 1
v 0.9 0.4 1
v 0.9 1.8 1
v -0.9 0.2 0.8
v -0.9 0.4 0.8
v -0.9 1.8 0.8
v -0.9 2 0.8
v -0.7 0.2 0.8
v -0.7 0.4 0.8
v -0.7 1.8 0.8
v -0.7 2 0.8
v 0.7 0.2 0.8
v 0.7 0.4 0.8
v 0.7 1.8 0.8
v 0.7 2 0.8
v 0.9 0.2 0.8
v 0.9 0.4 0.8
v 0.9 1.8 0.8
v 0.9 2 0.8
v -1 0.5 0.7
v -1 0.9 0.7
v -0.9 0.5 0.7
v -0.9 0.9 0.7
v 0.9 0.5 0.7
v 0.9 0.9 0.7
v 1 0.5 0.7
v 1 0.9 0.7
v -1 0.4 0.6
v -1 0.5 0.6
v -1 0.9 0.6
v -1 1 0.6
v -0.9 0.4 0.6
v -0.9 0.5 0.6
v -0.9 0.9 0.6
v -0.9 1 0.6
v 0.9 0.4 0.6
v 0.9 0.5 0.6
v 0.9 0.9 0.6
v 0.9 1 0.6
v 1 0.4 0.6
v 1 0.5 0.6
v 1 0.9 0.6
v 1 1 0.6
v -0.6 0 0.4
v -0.6 0.2 0.4
v -0.2 0 0.4
v -0.2 0.2 0.4
v 0.2 0 0.4
v 0.2 0.2 0.4
v 0.6 0 0.4
v 0.6 0.2 0.4
v -1 1.2 -0.4
v -1 1.7 -0.4
v -0.9 1.2 -0.4
v -0.9 1.7 -0.4
v -0.8 2 -0.4
v -0.8 2.1 -0.4
v -0.7 2.1 -0.4
v -0.7 2.2 -0.4
v -0.6 2.2 -0.4
v -0.6 2.3 -0.4
v -0.3 2.3 -0.4
v -0.3 2.4 -0.4
v 0.3 2.3 -0.4
v 0.3 2.4 -0.4
v 0.6 2.2 -0.4
v 0.6 2.3 -0.4
v 0.7 2.1 -0.4
v 0.7 2.2 -0.4
v 0.8 2 -0.4
v 0.8 2.1 -0.4
v 0.9 1.2 -0.4
v 0.9 1.7 -0.4
v 1 1.2 -0.4
v 1 1.7 -0.4
v -1 0.4 0
v -1 0.5 0
v -0.9 0.4 0
v -0.9 0.5 0
v -0.6 0 0
v -0.6 0.2 0
v -0.2 0 0
v -0.2 0.2 0
v 0.2 0 0
v 0.2 0.2 0
v 0.6 0 0
v 0.6 0.2 0
v 0.9 0.4 0
v 0.9 0.5 0
v 1 0.4 0
v 1 0.5 0
v -1 0.5 -0.1
v -1 0.6 -0.1
v -0.9 0.5 -0.1
v -0.9 0.6 -0.1
v 0.9 0.5 -0.1
v 0.9 0.6 -0.1
v 1 0.5 -0.1
v 1 0.6 -0.1
v -1 0.6 -0.2
v -1 0.7 -0.2
v -0.9 0.6 -0.2
v -0.9 0.7 -0.2
v 0.9 0.6 -0.2
v 0.9 0.7 -0.2
v 1 0.6 -0.2
v 1 0.7 -0.2
v -1 0.7 -0.3
v -1 1 -0.3
v -0.9 0.7 -0.3
v -0.9 1 -0.3
v 0.9 0.7 -0.3
v 0.9 1 -0.3
v 1 0.7 -0.3
v 1 1 -0.3
v -1 1.2 -0.6
v -1 1.7 -0.6
v -0.9 1 -0.6
v -0.9 1.2 -0.6
v -0.9 1.7 -0.6
v -0.9 2 -0.6
v -0.8 1 -0.6
v -0.8 1.2 -0.6
v -0.8 1.7 -0.6
v -0.8 2 -0.6
v -0.8 2.1 -0.6
v -0.7 2 -0.6
v -0.7 2.1 -0.6
v -0.7 2.2 -0.6
v -0.6 2.1 -0.6
v -0.6 2.2 -0.6
v -0.6 2.3 -0.6
v -0.3 2.2 -0.6
v -0.3 2.3 -0.6
v -0.3 2.4 -0.6
v 0.3 2.2 -0.6
v 0.3 2.3 -0.6
v 0.3 2.4 -0.6
v 0.6 2.1 -0.6
v 0.6 2.2 -0.6
v 0.6 2.3 -0.6
v 0.7 2 -0.6
v 0.7 2.1 -0.6
v 0.7 2.2 -0.6
v 0.8 1 -0.6
v 0.8 1.2 -0.6
v 0.8 1.7 -0.6
v 0.8 2 -0.6
v 0.8 2.1 -0.6
v 0.9 1 -0.6
v 0.9 1.2 -0.6
v 0.9 1.7 -0.6
v 0.9 2 -0.6
v 1 1.2 -0.6
v 1 1.7 -0.6
v -0.9 1.2 -0.7
v -0.9 1.7 -0.7
v -0.8 1 -0.7
v -0.8 1.2 -0.7
v -0.8 1.7 -0.7
v -0.8 2 -0.7
v -0.7 1 -0.7
v -0.7 1.2 -0.7
v -0.7 2 -0.7
v -0.7 2.1 -0.7
v -0.6 2.1 -0.7
v -0.6 2.2 -0.7
v -0.3 2.2 -0.7
v -0.3 2.3 -0.7
v 0.3 2.2 -0.7
v 0.3 2.3 -0.7
v 0.6 2.1 -0.7
v 0.6 2.2 -0.7
v 0.7 1 -0.7
v 0.7 1.2 -0.7
v 0.7 2 -0.7
v 0.7 2.1 -0.7
v 0.8 1 -0.7
v 0.8 1.2 -0.7
v 0.8 1.7 -0.7
v 0.8 2 -0.7
v 0.9 1.2 -0.7
v 0.9 1.7 -0.7
v -0.9 0.2 -0.8
v -0.9 0.4 -0.8
v -0.7 0.2 -0.8
v -0.7 0.4 -0.8
v 0.7 0.2 -0.8
v 0.7 0.4 -0.8
v 0.9 0.2 -0.8
v 0.9 0.4 -0.8
v -0.9 0.4 -1
v -0.9 1 -1
v -0.7 0.2 -1
v -0.7 0.4 -1
v -0.7 1 -1
v -0.7 1.2 -1
v 0.7 0.2 -1
v 0.7 0.4 -1
v 0.7 1 -1
v 0.7 1.2 -1
v 0.9 0.4 -1
v 0.9 1 -1
v -0.6 0 0.4
v -0.2 0 0.4
v 0.2 0 0.4
v 0.6 0 0.4
v -0.6 0 0
v -0.2 0 0
v 0.2 0 0
v 0.6 0 0
v -0.7 0.2 1
v 0.7 0.2 1
v -0.9 0.2 0.8
v -0.7 0.2 0.8
v 0.7 0.2 0.8
v 0.9 0.2 0.8
v -0.6 0.2 0.4
v -0.2 0.2 0.4
v 0.2 0.2 0.4
v 0.6 0.2 0.4
v -0.6 0.2 0
v -0.2 0.2 0
v 0.2 0.2 0
v 0.6 0.2 0
v -0.9 0.2 -0.8
v -0.7 0.2 -0.8
v 0.7 0.2 -0.8
v 0.9 0.2 -0.8
v -0.7 0.2 -1
v 0.7 0.2 -1
v -0.9 0.4 1
v -0.7 0.4 1
v 0.7 0.4 1
v 0.9 0.4 1
v -0.9 0.4 0.8
v -0.7 0.4 0.8
v 0.7 0.4 0.8
v 0.9 0.4 0.8
v -1 0.4 0.6
v -0.9 0.4 0.6
v 0.9 0.4 0.6
v 1 0.4 0.6
v -1 0.4 0
v -0.9 0.4 0
v 0.9 0.4 0
v 1 0.4 0
v -0.9 0.4 -0.8
v -0.7 0.4 -0.8
v 0.7 0.4 -0.8
v 0.9 0.4 -0.8
v -0.9 0.4 -1
v -0.7 0.4 -1
v 0.7 0.4 -1
v 0.9 0.4 -1
v -1 0.5 0.7
v -0.9 0.5 0.7
v 0.9 0.5 0.7
v 1 0.5 0.7
v -1 0.5 0.6
v -0.9 0.5 0.6
v 0.9 0.5 0.6
v 1 0.5 0.6
v -1 0.5 0
v -0.9 0.5 0
v 0.9 0.5 0
v 1 0.5 0
v -1 0.5 -0.1
v -0.9 0.5 -0.1
v 0.9 0.5 -0.1
v 1 0.5 -0.1
v -1 0.6 -0.1
v -0.9 0.6 -0.1
v 0.9 0.6 -0.1
v 1 0.6 -0.1
v -1 0.6 -0.2
v -0.9 0.6 -0.2
v 0.9 0.6 -0.2
v 1 0.6 -0.2
v -1 0.7 -0.2
v -0.9 0.7 -0.2
v 0.9 0.7 -0.2
v 1 0.7 -0.2
v -1 0.7 -0.3
v -0.9 0.7 -0.3
v 0.9 0.7 -0.3
v 1 0.7 -0.3
v -1 1.2 -0.4
v -0.9 1.2 -0.4
v 0.9 1.2 -0.4
v 1 1.2 -0.4
v -1 1.2 -0.6
v -0.9 1.2 -0.6
v -0.8 1.2 -0.6
v 0.8 1.2 -0.6
v 0.9 1.2 -0.6
v 1 1.2 -0.6
v -0.9 1.2 -0.7
v -0.8 1.2 -0.7
v 0.8 1.2 -0.7
v 0.9 1.2 -0.7
v -1 0.9 0.7
v -0.9 0.9 0.7
v 0.9 0.9 0.7
v 1 0.9 0.7
v -1 0.9 0.6
v -0.9 0.9 0.6
v 0.9 0.9 0.6
v 1 0.9 0.6
v -1 1 0.6
v -0.9 1 0.6
v 0.9 1 0.6
v 1 1 0.6
v -1 1 -0.3
v -0.9 1 -0.3
v 0.9 1 -0.3
v 1 1 -0.3
v -0.9 1 -0.6
v -0.8 1 -0.6
v 0.8 1 -0.6
v 0.9 1 -0.6
v -0.8 1 -0.7
v -0.7 1 -0.7
v 0.7 1 -0.7
v 0.8 1 -0.7
v -0.9 1 -1
v -0.7 1 -1
v 0.7 1 -1
v 0.9 1 -1
v -0.7 1.2 -0.7
v 0.7 1.2 -0.7
v -0.7 1.2 -1
v 0.7 1.2 -1
v -1 1.7 -0.4
v -0.9 1.7 -0.4
v 0.9 1.7 -0.4
v 1 1.7 -0.4
v -1 1.7 -0.6
v -0.9 1.7 -0.6
v -0.8 1.7 -0.6
v 0.8 1.7 -0.6
v 0.9 1.7 -0.6
v 1 1.7 -0.6
v -0.9 1.7 -0.7
v -0.8 1.7 -0.7
v 0.8 1.7 -0.7
v 0.9 1.7 -0.7
v -0.9 1.8 1
v -0.7 1.8 1
v 0.7 1.8 1
v 0.9 1.8 1
v -0.9 1.8 0.8
v -0.7 1.8 0.8
v 0.7 1.8 0.8
v 0.9 1.8 0.8
v -0.7 2 1
v 0.7 2 1
v -0.9 2 0.8
v -0.7 2 0.8
v 0.7 2 0.8
v 0.9 2 0.8
v -0.9 2 -0.4
v -0.8 2 -0.4
v 0.8 2 -0.4
v 0.9 2 -0.4
v -0.9 2 -0.6
v -0.8 2 -0.6
v -0.7 2 -0.6
v 0.7 2 -0.6
v 0.8 2 -0.6
v 0.9 2 -0.6
v -0.8 2 -0.7
v -0.7 2 -0.7
v 0.7 2 -0.7
v 0.8 2 -0.7
v -0.8 2.1 -0.4
v -0.7 2.1 -0.4
v 0.7 2.1 -0.4
v 0.8 2.1 -0.4
v -0.8 2.1 -0.6
v -0.7 2.1 -0.6
v -0.6 2.1 -0.6
v 0.6 2.1 -0.6
v 0.7 2.1 -0.6
v 0.8 2.1 -0.6
v -0.7 2.1 -0.7
v -0.6 2.1 -0.7
v 0.6 2.1 -0.7
v 0.7 2.1 -0.7
v -0.7 2.2 -0.4
v -0.6 2.2 -0.4
v 0.6 2.2 -0.4
v 0.7 2.2 -0.4
v -0.7 2.2 -0.6
v -0.6 2.2 -0.6
v -0.3 2.2 -0.6
v 0.3 2.2 -0.6
v 0.6 2.2 -0.6
v 0.7 2.2 -0.6
v -0.6 2.2 -0.7
v -0.3 2.2 -0.7
v 0.3 2.2 -0.7
v 0.6 2.2 -0.7
v -0.6 2.3 -0.4
v -0.3 2.3 -0.4
v 0.3 2.3 -0.4
v 0.6 2.3 -0.4
v -0.6 2.3 -0.6
v -0.3 2.3 -0.6
v 0.3 2.3 -0.6
v 0.6 2.3 -0.6
v -0.3 2.3 -0.7
v 0.3 2.3 -0.7
v -0.3 2.4 -0.4
v 0.3 2.4 -0.4
v -0.3 2.4 -0.6
v 0.3 2.4 -0.6

# faces
f 4/4/1 2/4/1 1/4/1
f 5/4/1 2/4/1 4/4/1
f 7/4/1 4/4/1 3/4/1
f 7/4/1 6/4/1 5/4/1
f 7/4/1 5/4/1 4/4/1
f 9/4/1 8/4/1 7/4/1
f 11/4/1 7/4/1 3/4/1
f 11/4/1 10/4/1 9/4/1
f 11/4/1 9/4/1 7/4/1
f 12/4/1 10/4/1 11/4/1
f 13/4/1 10/4/1 12/4/1
f 14/4/1 10/4/1 13/4/1
f 17/4/1 16/4/1 15/4/1
f 18/4/1 16/4/1 17/4/1
f 22/5/1 20/5/1 19/5/1
f 23/5/1 20/5/1 22/5/1
f 24/5/1 20/5/1 23/5/1
f 25/5/1 20/5/1 24/5/1
f 27/5/1 22/5/1 21/5/1
f 27/5/1 23/5/1 22/5/1
f 28/5/1 23/5/1 27/5/1
f 29/5/1 26/5/1 25/5/1
f 29/5/1 25/5/1 24/5/1
f 30/5/1 26/5/1 29/5/1
f 31/5/1 26/5/1 30/5/1
f 32/5/1 26/5/1 31/5/1
f 33/5/1 26/5/1 32/5/1
f 34/5/1 26/5/1 33/5/1
f 35/5/1 27/5/1 21/5/1
f 37/5/1 36/5/1 35/5/1
f 38/5/1 26/5/1 34/5/1
f 39/5/1 26/5/1 38/5/1
f 40/5/1 26/5/1 39/5/1
f 41/5/1 26/5/1 40/5/1
f 42/5/1 38/5/1 37/5/1
f 42/5/1 39/5/1 38/5/1
f 42/4/1 40/4/1 39/4/1
f 43/4/1 40/4/1 42/4/1
f 45/5/1 42/5/1 37/5/1
f 46/4/1 44/4/1 43/4/1
f 47/4/1 44/4/1 46/4/1
f 48/5/1 37/5/1 35/5/1
f 48/5/1 35/5/1 21/5/1
f 48/5/1 45/5/1 37/5/1
f 49/5/1 45/5/1 48/5/1
f 50/5/1 45/5/1 49/5/1
f 51/4/1 46/4/1 45/4/1
f 51/5/1 45/5/1 50/5/1
f 52/4/1 46/4/1 51/4/1
f 55/4/1 54/4/1 53/4/1
f 56/4/1 54/4/1 55/4/1
f 60/4/1 58/4/1 57/4/1
f 61/4/1 58/4/1 60/4/1
f 62/4/1 60/4/1 59/4/1
f 63/4/1 60/4/1 62/4/1
f 68/5/1 65/5/1 64/5/1
f 69/5/1 65/5/1 68/5/1
f 70/5/1 67/5/1 66/5/1
f 71/5/1 67/5/1 70/5/1
f 74/5/1 73/5/1 72/5/1
f 75/5/1 73/5/1 74/5/1
f 78/5/1 77/5/1 76/5/1
f 79/5/1 77/5/1 78/5/1
f 83/4/1 81/4/1 80/4/1
f 84/4/1 81/4/1 83/4/1
f 85/4/1 83/4/1 82/4/1
f 86/4/1 83/4/1 85/4/1
f 89/4/1 88/4/1 87/4/1
f 90/4/1 88/4/1 89/4/1
f 94/4/1 92/4/1 91/4/1
f 95/4/1 92/4/1 94/4/1
f 96/4/1 94/4/1 93/4/1
f 97/4/1 94/4/1 96/4/1
f 101/4/1 99/4/1 98/4/1
f 102/4/1 99/4/1 101/4/1
f 103/4/1 101/4/1 100/4/1
f 104/4/1 101/4/1 103/4/1
f 107/4/1 106/4/1 105/4/1
f 108/4/1 106/4/1 107/4/1
f 109/4/2 110/4/2 111/4/2
f 111/4/2 110/4/2 112/4/2
f 113/4/2 114/4/2 116/4/2
f 116/4/2 114/4/2 117/4/2
f 115/4/2 116/4/2 118/4/2
f 118/4/2 116/4/2 119/4/2
f 120/4/2 121/4/2 122/4/2
f 122/4/2 121/4/2 123/4/2
f 124/4/2 125/4/2 127/4/2
f 127/4/2 125/4/2 128/4/2
f 126/4/2 127/4/2 129/4/2
f 129/4/2 127/4/2 130/4/2
f 131/5/2 132/5/2 135/5/2
f 135/5/2 132/5/2 136/5/2
f 133/5/2 134/5/2 137/5/2
f 137/5/2 134/5/2 138/5/2
f 139/5/2 140/5/2 141/5/2
f 141/5/2 140/5/2 142/5/2
f 143/5/2 144/5/2 145/5/2
f 145/5/2 144/5/2 146/5/2
f 147/4/2 148/4/2 150/4/2
f 150/4/2 148/4/2 151/4/2
f 149/4/2 150/4/2 152/4/2
f 152/4/2 150/4/2 153/4/2
f 154/4/2 155/4/2 156/4/2
f 156/4/2 155/4/2 157/4/2
f 158/4/2 159/4/2 161/4/2
f 161/4/2 159/4/2 162/4/2
f 160/4/2 161/4/2 163/4/2
f 163/4/2 161/4/2 164/4/2
f 165/5/2 166/5/2 168/5/2
f 168/5/2 166/5/2 169/5/2
f 169/5/2 166/5/2 170/5/2
f 170/5/2 166/5/2 171/5/2
f 167/5/2 168/5/2 173/5/2
f 168/5/2 169/5/2 173/5/2
f 173/5/2 169/5/2 174/5/2
f 171/5/2 172/5/2 175/5/2
f 170/5/2 171/5/2 175/5/2
f 175/5/2 172/5/2 176/5/2
f 176/5/2 172/5/2 177/5/2
f 177/5/2 172/5/2 178/5/2
f 178/5/2 172/5/2 179/5/2
f 179/5/2 172/5/2 180/5/2
f 167/5/2 173/5/2 181/5/2
f 181/5/2 182/5/2 183/5/2
f 180/5/2 172/5/2 184/5/2
f 184/5/2 172/5/2 185/5/2
f 185/5/2 172/5/2 186/5/2
f 186/5/2 172/5/2 187/5/2
f 183/5/2 184/5/2 188/5/2
f 184/5/2 185/5/2 188/5/2
f 185/4/2 186/4/2 188/4/2
f 188/4/2 186/4/2 189/4/2
f 183/5/2 188/5/2 191/5/2
f 189/4/2 190/4/2 192/4/2
f 192/4/2 190/4/2 193/4/2
f 181/5/2 183/5/2 194/5/2
f 167/5/2 181/5/2 194/5/2
f 183/5/2 191/5/2 194/5/2
f 194/5/2 191/5/2 195/5/2
f 195/5/2 191/5/2 196/5/2
f 191/4/2 192/4/2 197/4/2
f 196/5/2 191/5/2 197/5/2
f 197/4/2 192/4/2 198/4/2
f 199/4/2 200/4/2 202/4/2
f 202/4/2 200/4/2 203/4/2
f 201/4/2 202/4/2 205/4/2
f 203/4/2 204/4/2 205/4/2
f 202/4/2 203/4/2 205/4/2
f 205/4/2 206/4/2 207/4/2
f 201/4/2 205/4/2 209/4/2
f 207/4/2 208/4/2 209/4/2
f 205/4/2 207/4/2 209/4/2
f 209/4/2 208/4/2 210/4/2
f 210/4/2 208/4/2 211/4/2
f 211/4/2 208/4/2 212/4/2
f 213/4/2 214/4/2 215/4/2
f 215/4/2 214/4/2 216/4/2
f 220/5/3 218/5/3 217/5/3
f 221/5/3 218/5/3 220/5/3
f 223/5/3 220/5/3 219/5/3
f 223/5/3 222/5/3 221/5/3
f 223/5/3 221/5/3 220/5/3
f 224/5/3 222/5/3 223/5/3
f 225/5/3 223/5/3 219/5/3
f 226/5/3 223/5/3 225/5/3
f 227/6/3 224/6/3 223/6/3
f 227/5/3 223/5/3 226/5/3
f 228/5/3 222/5/3 224/5/3
f 228/6/3 224/6/3 227/6/3
f 229/6/3 226/6/3 225/6/3
f 229/5/3 225/5/3 219/5/3
f 230/5/3 227/5/3 226/5/3
f 230/6/3 226/6/3 229/6/3
f 230/5/3 228/5/3 227/5/3
f 231/5/3 228/5/3 230/5/3
f 232/5/3 222/5/3 228/5/3
f 232/5/3 228/5/3 231/5/3
f 233/5/3 231/5/3 230/5/3
f 233/5/3 230/5/3 229/5/3
f 233/6/3 232/6/3 231/6/3
f 234/5/3 222/5/3 232/5/3
f 234/6/3 232/6/3 233/6/3
f 235/5/3 229/5/3 219/5/3
f 235/5/3 233/5/3 229/5/3
f 235/5/3 234/5/3 233/5/3
f 236/5/3 234/5/3 235/5/3
f 237/5/3 222/5/3 234/5/3
f 237/5/3 234/5/3 236/5/3
f 238/5/3 222/5/3 237/5/3
f 239/5/3 237/5/3 236/5/3
f 240/5/3 237/5/3 239/5/3
f 245/5/3 242/5/3 241/5/3
f 246/5/3 242/5/3 245/5/3
f 247/5/3 244/5/3 243/5/3
f 248/5/3 244/5/3 247/5/3
f 253/5/3 250/5/3 249/5/3
f 254/5/3 250/5/3 253/5/3
f 255/5/3 252/5/3 251/5/3
f 256/5/3 252/5/3 255/5/3
f 259/4/3 258/4/3 257/4/3
f 260/4/3 258/4/3 259/4/3
f 263/4/3 262/4/3 261/4/3
f 264/4/3 262/4/3 263/4/3
f 269/4/3 266/4/3 265/4/3
f 270/4/3 266/4/3 269/4/3
f 271/4/3 268/4/3 267/4/3
f 272/4/3 268/4/3 271/4/3
f 277/4/3 274/4/3 273/4/3
f 278/4/3 274/4/3 277/4/3
f 279/4/3 276/4/3 275/4/3
f 280/4/3 276/4/3 279/4/3
f 283/4/3 282/4/3 281/4/3
f 284/4/3 282/4/3 283/4/3
f 287/4/3 286/4/3 285/4/3
f 288/4/3 286/4/3 287/4/3
f 291/4/3 290/4/3 289/4/3
f 292/4/3 290/4/3 291/4/3
f 295/4/3 294/4/3 293/4/3
f 297/4/3 296/4/3 295/4/3
f 299/4/3 298/4/3 297/4/3
f 301/4/3 299/4/3 297/4/3
f 301/4/3 300/4/3 299/4/3
f 302/4/3 300/4/3 301/4/3
f 303/4/3 297/4/3 295/4/3
f 303/4/3 301/4/3 297/4/3
f 304/4/3 301/4/3 303/4/3
f 305/4/3 295/4/3 293/4/3
f 305/4/3 303/4/3 295/4/3
f 306/4/3 303/4/3 305/4/3
f 307/4/3 305/4/3 293/4/3
f 308/4/3 305/4/3 307/4/3
f 311/4/3 310/4/3 309/4/3
f 312/4/3 310/4/3 311/4/3
f 313/4/4 314/4/4 315/4/4
f 315/4/4 314/4/4 316/4/4
f 317/4/4 318/4/4 319/4/4
f 319/4/4 318/4/4 320/4/4
f 321/4/4 322/4/4 323/4/4
f 323/4/4 322/4/4 324/4/4
f 325/4/4 326/4/4 327/4/4
f 327/4/4 326/4/4 328/4/4
f 329/4/4 330/4/4 331/4/4
f 331/4/4 330/4/4 332/4/4
f 333/4/4 334/4/4 335/4/4
f 335/4/4 334/4/4 336/4/4
f 337/4/4 338/4/4 339/4/4
f 339/4/4 338/4/4 340/4/4
f 341/4/4 342/4/4 343/4/4
f 343/4/4 342/4/4 344/4/4
f 345/4/4 346/4/4 347/4/4
f 347/4/4 346/4/4 348/4/4
f 349/4/4 350/4/4 351/4/4
f 351/4/4 350/4/4 352/4/4
f 353/4/4 354/4/4 356/4/4
f 356/4/4 354/4/4 357/4/4
f 355/4/4 356/4/4 359/4/4
f 359/4/4 356/4/4 360/4/4
f 357/4/4 358/4/4 361/4/4
f 361/4/4 358/4/4 362/4/4
f 362/4/4 363/4/4 364/4/4
f 364/4/4 363/4/4 365/4/4
f 365/4/4 366/4/4 367/4/4
f 367/4/4 366/4/4 368/4/4
f 368/4/4 369/4/4 370/4/4
f 370/4/4 369/4/4 371/4/4
f 371/4/4 372/4/4 374/4/4
f 374/4/4 372/4/4 375/4/4
f 373/4/4 374/4/4 377/4/4
f 377/4/4 374/4/4 378/4/4
f 376/4/4 377/4/4 380/4/4
f 380/4/4 377/4/4 381/4/4
f 379/4/4 380/4/4 385/4/4
f 385/4/4 380/4/4 386/4/4
f 382/4/4 383/4/4 387/4/4
f 387/4/4 383/4/4 388/4/4
f 384/4/4 385/4/4 389/4/4
f 389/4/4 385/4/4 390/4/4
f 388/4/4 389/4/4 391/4/4
f 391/4/4 389/4/4 392/4/4
f 393/4/4 394/4/4 396/4/4
f 396/4/4 394/4/4 397/4/4
f 395/4/4 396/4/4 399/4/4
f 397/4/4 398/4/4 399/4/4
f 396/4/4 397/4/4 399/4/4
f 399/4/4 398/4/4 400/4/4
f 400/4/4 398/4/4 401/4/4
f 401/4/4 402/4/4 403/4/4
f 400/4/4 401/4/4 403/4/4
f 403/4/4 404/4/4 405/4/4
f 403/4/4 405/4/4 407/4/4
f 405/4/4 406/4/4 407/4/4
f 407/4/4 406/4/4 408/4/4
f 400/4/4 403/4/4 409/4/4
f 403/4/4 407/4/4 409/4/4
f 409/4/4 407/4/4 410/4/4
f 400/4/4 409/4/4 412/4/4
f 412/4/4 409/4/4 413/4/4
f 413/4/4 409/4/4 414/4/4
f 411/4/4 412/4/4 415/4/4
f 412/4/4 413/4/4 415/4/4
f 415/4/4 413/4/4 416/4/4
f 416/4/4 413/4/4 417/4/4
f 417/4/4 413/4/4 418/4/4
f 416/4/4 417/4/4 419/4/4
f 419/4/4 417/4/4 420/4/4
f 421/5/4 422/5/4 423/5/4
f 423/5/4 422/5/4 424/5/4
f 425/5/4 426/5/4 427/5/4
f 427/5/4 426/5/4 428/5/4
f 429/5/4 430/5/4 432/5/4
f 432/5/4 430/5/4 433/5/4
f 431/5/4 432/5/4 435/5/4
f 433/5/4 434/5/4 435/5/4
f 432/5/4 433/5/4 435/5/4
f 435/5/4 434/5/4 436/5/4
f 436/5/4 434/5/4 437/5/4
f 437/5/4 434/5/4 438/5/4
f 436/5/4 437/5/4 439/5/4
f 439/5/4 437/5/4 440/5/4
f 445/4/5 442/4/5 441/4/5
f 446/4/5 442/4/5 445/4/5
f 447/4/5 444/4/5 443/4/5
f 448/4/5 444/4/5 447/4/5
f 452/5/5 450/5/5 449/5/5
f 453/5/5 450/5/5 452/5/5
f 455/5/5 452/5/5 451/5/5
f 455/5/5 454/5/5 453/5/5
f 455/5/5 453/5/5 452/5/5
f 456/5/5 454/5/5 455/5/5
f 457/5/5 454/5/5 456/5/5
f 458/5/5 454/5/5 457/5/5
f 459/5/5 455/5/5 451/5/5
f 460/5/5 457/5/5 456/5/5
f 461/5/5 457/5/5 460/5/5
f 462/5/5 454/5/5 458/5/5
f 463/5/5 461/5/5 460/5/5
f 463/5/5 462/5/5 461/5/5
f 463/5/5 459/5/5 451/5/5
f 463/5/5 460/5/5 459/5/5
f 464/5/5 462/5/5 463/5/5
f 465/5/5 454/5/5 462/5/5
f 465/5/5 462/5/5 464/5/5
f 466/5/5 454/5/5 465/5/5
f 467/5/5 465/5/5 464/5/5
f 468/5/5 465/5/5 467/5/5
f 473/5/5 470/5/5 469/5/5
f 474/5/5 470/5/5 473/5/5
f 475/5/5 472/5/5 471/5/5
f 476/5/5 472/5/5 475/5/5
f 481/4/5 478/4/5 477/4/5
f 482/4/5 478/4/5 481/4/5
f 483/4/5 480/4/5 479/4/5
f 484/4/5 480/4/5 483/4/5
f 489/5/5 486/5/5 485/5/5
f 490/5/5 486/5/5 489/5/5
f 491/5/5 488/5/5 487/5/5
f 492/5/5 488/5/5 491/5/5
f 497/4/5 494/4/5 493/4/5
f 498/4/5 494/4/5 497/4/5
f 499/4/5 496/4/5 495/4/5
f 500/4/5 496/4/5 499/4/5
f 505/4/5 502/4/5 501/4/5
f 506/4/5 502/4/5 505/4/5
f 507/4/5 504/4/5 503/4/5
f 508/4/5 504/4/5 507/4/5
f 513/4/5 510/4/5 509/4/5
f 514/4/5 510/4/5 513/4/5
f 515/4/5 512/4/5 511/4/5
f 516/4/5 512/4/5 515/4/5
f 521/4/5 518/4/5 517/4/5
f 522/4/5 518/4/5 521/4/5
f 523/4/5 520/4/5 519/4/5
f 524/4/5 520/4/5 523/4/5
f 529/4/5 526/4/5 525/4/5
f 530/4/5 526/4/5 529/4/5
f 533/4/5 528/4/5 527/4/5
f 534/4/5 528/4/5 533/4/5
f 535/4/5 531/4/5 530/4/5
f 536/4/5 531/4/5 535/4/5
f 537/4/5 533/4/5 532/4/5
f 538/4/5 533/4/5 537/4/5
f 539/4/6 540/4/6 543/4/6
f 543/4/6 540/4/6 544/4/6
f 541/4/6 542/4/6 545/4/6
f 545/4/6 542/4/6 546/4/6
f 547/4/6 548/4/6 551/4/6
f 551/4/6 548/4/6 552/4/6
f 549/4/6 550/4/6 553/4/6
f 553/4/6 550/4/6 554/4/6
f 555/5/6 556/5/6 559/5/6
f 557/5/6 558/5/6 562/5/6
f 559/5/6 560/5/6 563/5/6
f 555/5/6 559/5/6 563/5/6
f 563/5/6 560/5/6 564/5/6
f 561/5/6 562/5/6 565/5/6
f 562/5/6 558/5/6 566/5/6
f 565/5/6 562/5/6 566/5/6
f 567/5/6 568/5/6 569/5/6
f 569/5/6 568/5/6 570/5/6
f 571/4/6 572/4/6 575/4/6
f 575/4/6 572/4/6 576/4/6
f 573/4/6 574/4/6 579/4/6
f 579/4/6 574/4/6 580/4/6
f 576/4/6 577/4/6 581/4/6
f 581/4/6 577/4/6 582/4/6
f 578/4/6 579/4/6 583/4/6
f 583/4/6 579/4/6 584/4/6
f 585/5/6 586/5/6 589/5/6
f 589/5/6 586/5/6 590/5/6
f 587/5/6 588/5/6 591/5/6
f 591/5/6 588/5/6 592/5/6
f 593/5/6 594/5/6 596/5/6
f 596/5/6 594/5/6 597/5/6
f 595/5/6 596/5/6 599/5/6
f 597/5/6 598/5/6 599/5/6
f 596/5/6 597/5/6 599/5/6
f 599/5/6 598/5/6 600/5/6
f 600/5/6 598/5/6 601/5/6
f 601/5/6 598/5/6 602/5/6
f 599/4/6 600/4/6 603/4/6
f 603/4/6 600/4/6 604/4/6
f 601/4/6 602/4/6 607/4/6
f 607/4/6 602/4/6 608/4/6
f 604/4/6 605/4/6 609/4/6
f 609/4/6 605/4/6 610/4/6
f 606/4/6 607/4/6 611/4/6
f 611/4/6 607/4/6 612/4/6
f 613/4/6 614/4/6 617/4/6
f 617/4/6 614/4/6 618/4/6
f 615/4/6 616/4/6 621/4/6
f 621/4/6 616/4/6 622/4/6
f 618/4/6 619/4/6 623/4/6
f 623/4/6 619/4/6 624/4/6
f 620/4/6 621/4/6 625/4/6
f 625/4/6 621/4/6 626/4/6
f 627/4/6 628/4/6 631/4/6
f 631/4/6 628/4/6 632/4/6
f 629/4/6 630/4/6 635/4/6
f 635/4/6 630/4/6 636/4/6
f 632/4/6 633/4/6 637/4/6
f 637/4/6 633/4/6 638/4/6
f 634/4/6 635/4/6 639/4/6
f 639/4/6 635/4/6 640/4/6
f 641/4/6 642/4/6 645/4/6
f 645/4/6 642/4/6 646/4/6
f 643/4/6 644/4/6 647/4/6
f 647/4/6 644/4/6 648/4/6
f 646/4/6 647/4/6 649/4/6
f 649/4/6 647/4/6 650/4/6
f 651/4/6 652/4/6 653/4/6
f 653/4/6 652/4/6 654/4/6
