# MagicaVoxel @ Ephtracy

# group
o 

# material
mtllib helmet.mtl
usemtl palette

# normals
vn -1 0 0
vn 1 0 0
vn 0 0 1
vn 0 0 -1
vn 0 -1 0
vn 0 1 0

# texcoords
vt 0.517578 0.5
vt 0.556641 0.5
vt 0.958984 0.5
vt 0.970703 0.5
vt 0.974609 0.5
vt 0.978516 0.5
vt 0.982422 0.5

# verts
v -1 0.4 0.6
v -1 0.4 0
v -1 0.5 0.7
v -1 0.5 0.6
v -1 0.5 0
v -1 0.5 -0.1
v -1 0.6 -0.1
v -1 0.6 -0.2
v -1 0.7 -0.2
v -1 0.7 -0.3
v -1 0.9 0.7
v -1 0.9 0.6
v -1 1 0.6
v -1 1 -0.3
v -1 1.4 0.1
v -1 1.4 -0.7
v -1 1.5 1
v -1 1.5 0.1
v -1 1.9 1
v -1 1.9 0.9
v -1 1.9 -0.6
v -1 1.9 -0.7
v -1 2 0.9
v -1 2 -0.6
v -0.9 0.2 0.8
v -0.9 0.2 -0.8
v -0.9 0.4 1
v -0.9 0.4 0.8
v -0.9 0.4 0.6
v -0.9 0.4 0
v -0.9 0.4 -0.8
v -0.9 0.4 -1
v -0.9 0.5 0.7
v -0.9 0.5 0.6
v -0.9 0.5 0
v -0.9 0.5 -0.1
v -0.9 0.6 -0.1
v -0.9 0.6 -0.2
v -0.9 0.7 -0.2
v -0.9 0.7 -0.3
v -0.9 0.9 0.7
v -0.9 0.9 0.6
v -0.9 1 0.6
v -0.9 1 -0.3
v -0.9 1 -0.8
v -0.9 1 -1
v -0.9 1.2 -0.7
v -0.9 1.2 -0.8
v -0.9 1.4 0.1
v -0.9 1.4 -0.7
v -0.9 1.4 -0.8
v -0.9 1.5 1.1
v -0.9 1.5 1
v -0.9 1.5 0.1
v -0.9 1.9 1.1
v -0.9 1.9 1
v -0.9 1.9 0.9
v -0.9 1.9 -0.6
v -0.9 1.9 -0.7
v -0.9 1.9 -0.8
v -0.9 2 1
v -0.9 2 0.9
v -0.9 2 -0.6
v -0.9 2.1 0.9
v -0.9 2.1 -0.7
v -0.8 1.9 1.1
v -0.8 1.9 1
v -0.8 1.9 -0.7
v -0.8 1.9 -0.8
v -0.8 2 1.1
v -0.8 2 1
v -0.8 2 0.9
v -0.8 2.1 1
v -0.8 2.1 0.9
v -0.8 2.1 -0.7
v -0.8 2.1 -0.8
v -0.7 0.2 1
v -0.7 0.2 0.8
v -0.7 0.2 -0.8
v -0.7 0.2 -1
v -0.7 0.4 1
v -0.7 0.4 0.8
v -0.7 0.4 -0.8
v -0.7 0.4 -1
v -0.7 1 -0.8
v -0.7 1 -1
v -0.7 1.2 -0.8
v -0.7 1.2 -1
v -0.6 0 0.4
v -0.6 0 0
v -0.6 0.2 0.4
v -0.6 0.2 0
v -0.2 1.8 -0.8
v -0.2 1.8 -0.9
v -0.2 2.1 0.2
v -0.2 2.1 -0.8
v -0.2 2.2 0.2
v -0.2 2.2 0.1
v -0.2 2.2 -0.8
v -0.2 2.2 -0.9
v -0.2 2.3 0.1
v -0.2 2.3 -0.8
v -0.1 1.8 -0.9
v -0.1 1.8 -1
v -0.1 2.1 0.3
v -0.1 2.1 0.2
v -0.1 2.2 0.3
v -0.1 2.2 0.2
v -0.1 2.2 0.1
v -0.1 2.2 -0.8
v -0.1 2.2 -0.9
v -0.1 2.2 -1
v -0.1 2.3 0.2
v -0.1 2.3 0.1
v -0.1 2.3 -0.8
v -0.1 2.3 -0.9
v -0.1 2.4 0.1
v -0.1 2.4 -0.8
v 0.2 0 0.4
v 0.2 0 0
v 0.2 0.2 0.4
v 0.2 0.2 0
v 0.6 1.6 1.1
v 0.6 1.6 1
v 0.6 1.7 1.1
v 0.6 1.7 1
v 0.7 1.5 1.1
v 0.7 1.5 1
v 0.7 1.6 1.1
v 0.7 1.6 1
v -0.7 1.5 1.1
v -0.7 1.5 1
v -0.7 1.6 1.1
v -0.7 1.6 1
v -0.6 1.6 1.1
v -0.6 1.6 1
v -0.6 1.7 1.1
v -0.6 1.7 1
v -0.2 0 0.4
v -0.2 0 0
v -0.2 0.2 0.4
v -0.2 0.2 0
v 0.1 1.8 -0.9
v 0.1 1.8 -1
v 0.1 2.1 0.3
v 0.1 2.1 0.2
v 0.1 2.2 0.3
v 0.1 2.2 0.2
v 0.1 2.2 0.1
v 0.1 2.2 -0.8
v 0.1 2.2 -0.9
v 0.1 2.2 -1
v 0.1 2.3 0.2
v 0.1 2.3 0.1
v 0.1 2.3 -0.8
v 0.1 2.3 -0.9
v 0.1 2.4 0.1
v 0.1 2.4 -0.8
v 0.2 1.8 -0.8
v 0.2 1.8 -0.9
v 0.2 2.1 0.2
v 0.2 2.1 -0.8
v 0.2 2.2 0.2
v 0.2 2.2 0.1
v 0.2 2.2 -0.8
v 0.2 2.2 -0.9
v 0.2 2.3 0.1
v 0.2 2.3 -0.8
v 0.6 0 0.4
v 0.6 0 0
v 0.6 0.2 0.4
v 0.6 0.2 0
v 0.7 0.2 1
v 0.7 0.2 0.8
v 0.7 0.2 -0.8
v 0.7 0.2 -1
v 0.7 0.4 1
v 0.7 0.4 0.8
v 0.7 0.4 -0.8
v 0.7 0.4 -1
v 0.7 1 -0.8
v 0.7 1 -1
v 0.7 1.2 -0.8
v 0.7 1.2 -1
v 0.8 1.9 1.1
v 0.8 1.9 1
v 0.8 1.9 -0.7
v 0.8 1.9 -0.8
v 0.8 2 1.1
v 0.8 2 1
v 0.8 2 0.9
v 0.8 2.1 1
v 0.8 2.1 0.9
v 0.8 2.1 -0.7
v 0.8 2.1 -0.8
v 0.9 0.2 0.8
v 0.9 0.2 -0.8
v 0.9 0.4 1
v 0.9 0.4 0.8
v 0.9 0.4 0.6
v 0.9 0.4 0
v 0.9 0.4 -0.8
v 0.9 0.4 -1
v 0.9 0.5 0.7
v 0.9 0.5 0.6
v 0.9 0.5 0
v 0.9 0.5 -0.1
v 0.9 0.6 -0.1
v 0.9 0.6 -0.2
v 0.9 0.7 -0.2
v 0.9 0.7 -0.3
v 0.9 0.9 0.7
v 0.9 0.9 0.6
v 0.9 1 0.6
v 0.9 1 -0.3
v 0.9 1 -0.8
v 0.9 1 -1
v 0.9 1.2 -0.7
v 0.9 1.2 -0.8
v 0.9 1.4 0.1
v 0.9 1.4 -0.7
v 0.9 1.4 -0.8
v 0.9 1.5 1.1
v 0.9 1.5 1
v 0.9 1.5 0.1
v 0.9 1.9 1.1
v 0.9 1.9 1
v 0.9 1.9 0.9
v 0.9 1.9 -0.6
v 0.9 1.9 -0.7
v 0.9 1.9 -0.8
v 0.9 2 1
v 0.9 2 0.9
v 0.9 2 -0.6
v 0.9 2.1 0.9
v 0.9 2.1 -0.7
v 1 0.4 0.6
v 1 0.4 0
v 1 0.5 0.7
v 1 0.5 0.6
v 1 0.5 0
v 1 0.5 -0.1
v 1 0.6 -0.1
v 1 0.6 -0.2
v 1 0.7 -0.2
v 1 0.7 -0.3
v 1 0.9 0.7
v 1 0.9 0.6
v 1 1 0.6
v 1 1 -0.3
v 1 1.4 0.1
v 1 1.4 -0.7
v 1 1.5 1
v 1 1.5 0.1
v 1 1.9 1
v 1 1.9 0.9
v 1 1.9 -0.6
v 1 1.9 -0.7
v 1 2 0.9
v 1 2 -0.6
v -0.9 1.5 1.1
v -0.9 1.9 1.1
v -0.8 1.9 1.1
v -0.8 2 1.1
v -0.7 1.5 1.1
v -0.7 1.6 1.1
v -0.6 1.6 1.1
v -0.6 1.7 1.1
v 0.6 1.6 1.1
v 0.6 1.7 1.1
v 0.7 1.5 1.1
v 0.7 1.6 1.1
v 0.8 1.9 1.1
v 0.8 2 1.1
v 0.9 1.5 1.1
v 0.9 1.9 1.1
v -1 1.5 1
v -1 1.9 1
v -0.9 0.4 1
v -0.9 1.5 1
v -0.9 1.9 1
v -0.9 2 1
v -0.8 1.9 1
v -0.8 2 1
v -0.8 2.1 1
v -0.7 0.2 1
v -0.7 0.4 1
v -0.7 1.5 1
v -0.7 1.6 1
v -0.6 1.6 1
v -0.6 1.7 1
v -0.5 1 1
v -0.5 1.4 1
v -0.2 0.7 1
v -0.2 0.8 1
v -0.2 1 1
v -0.2 1.4 1
v 0.2 0.7 1
v 0.2 0.8 1
v 0.2 1 1
v 0.2 1.4 1
v 0.5 1 1
v 0.5 1.4 1
v 0.6 1.6 1
v 0.6 1.7 1
v 0.7 0.2 1
v 0.7 0.4 1
v 0.7 1.5 1
v 0.7 1.6 1
v 0.8 1.9 1
v 0.8 2 1
v 0.8 2.1 1
v 0.9 0.4 1
v 0.9 1.5 1
v 0.9 1.9 1
v 0.9 2 1
v 1 1.5 1
v 1 1.9 1
v -1 1.9 0.9
v -1 2 0.9
v -0.9 1.9 0.9
v -0.9 2 0.9
v -0.9 2.1 0.9
v -0.8 2 0.9
v -0.8 2.1 0.9
v 0.8 2 0.9
v 0.8 2.1 0.9
v 0.9 1.9 0.9
v 0.9 2 0.9
v 0.9 2.1 0.9
v 1 1.9 0.9
v 1 2 0.9
v -0.9 0.2 0.8
v -0.9 0.4 0.8
v -0.7 0.2 0.8
v -0.7 0.4 0.8
v 0.7 0.2 0.8
v 0.7 0.4 0.8
v 0.9 0.2 0.8
v 0.9 0.4 0.8
v -1 0.5 0.7
v -1 0.9 0.7
v -0.9 0.5 0.7
v -0.9 0.9 0.7
v 0.9 0.5 0.7
v 0.9 0.9 0.7
v 1 0.5 0.7
v 1 0.9 0.7
v -1 0.4 0.6
v -1 0.5 0.6
v -1 0.9 0.6
v -1 1 0.6
v -0.9 0.4 0.6
v -0.9 0.5 0.6
v -0.9 0.9 0.6
v -0.9 1 0.6
v 0.9 0.4 0.6
v 0.9 0.5 0.6
v 0.9 0.9 0.6
v 0.9 1 0.6
v 1 0.4 0.6
v 1 0.5 0.6
v 1 0.9 0.6
v 1 1 0.6
v -0.6 0 0.4
v -0.6 0.2 0.4
v -0.2 0 0.4
v -0.2 0.2 0.4
v 0.2 0 0.4
v 0.2 0.2 0.4
v 0.6 0 0.4
v 0.6 0.2 0.4
v -0.1 2.1 0.3
v -0.1 2.2 0.3
v 0.1 2.1 0.3
v 0.1 2.2 0.3
v -0.2 2.1 0.2
v -0.2 2.2 0.2
v -0.1 2.1 0.2
v -0.1 2.2 0.2
v -0.1 2.3 0.2
v 0.1 2.1 0.2
v 0.1 2.2 0.2
v 0.1 2.3 0.2
v 0.2 2.1 0.2
v 0.2 2.2 0.2
v -1 1.4 0.1
v -1 1.5 0.1
v -0.9 1.4 0.1
v -0.9 1.5 0.1
v -0.2 2.2 0.1
v -0.2 2.3 0.1
v -0.1 2.2 0.1
v -0.1 2.3 0.1
v -0.1 2.4 0.1
v 0.1 2.2 0.1
v 0.1 2.3 0.1
v 0.1 2.4 0.1
v 0.2 2.2 0.1
v 0.2 2.3 0.1
v 0.9 1.4 0.1
v 0.9 1.5 0.1
v 1 1.4 0.1
v 1 1.5 0.1
v -1 0.4 0
v -1 0.5 0
v -0.9 0.4 0
v -0.9 0.5 0
v -0.6 0 0
v -0.6 0.2 0
v -0.2 0 0
v -0.2 0.2 0
v 0.2 0 0
v 0.2 0.2 0
v 0.6 0 0
v 0.6 0.2 0
v 0.9 0.4 0
v 0.9 0.5 0
v 1 0.4 0
v 1 0.5 0
v -1 0.5 -0.1
v -1 0.6 -0.1
v -0.9 0.5 -0.1
v -0.9 0.6 -0.1
v 0.9 0.5 -0.1
v 0.9 0.6 -0.1
v 1 0.5 -0.1
v 1 0.6 -0.1
v -1 0.6 -0.2
v -1 0.7 -0.2
v -0.9 0.6 -0.2
v -0.9 0.7 -0.2
v 0.9 0.6 -0.2
v 0.9 0.7 -0.2
v 1 0.6 -0.2
v 1 0.7 -0.2
v -1 0.7 -0.3
v -1 1 -0.3
v -0.9 0.7 -0.3
v -0.9 1 -0.3
v 0.9 0.7 -0.3
v 0.9 1 -0.3
v 1 0.7 -0.3
v 1 1 -0.3
v -1 1.9 -0.6
v -1 2 -0.6
v -0.9 1.9 -0.6
v -0.9 2 -0.6
v 0.9 1.9 -0.6
v 0.9 2 -0.6
v 1 1.9 -0.6
v 1 2 -0.6
v -1 1.4 -0.7
v -1 1.9 -0.7
v -0.9 1.2 -0.7
v -0.9 1.4 -0.7
v -0.9 1.9 -0.7
v -0.9 2.1 -0.7
v -0.8 1.9 -0.7
v -0.8 2.1 -0.7
v 0.8 1.9 -0.7
v 0.8 2.1 -0.7
v 0.9 1.2 -0.7
v 0.9 1.4 -0.7
v 0.9 1.9 -0.7
v 0.9 2.1 -0.7
v 1 1.4 -0.7
v 1 1.9 -0.7
v -0.9 0.2 -0.8
v -0.9 0.4 -0.8
v -0.9 1 -0.8
v -0.9 1.2 -0.8
v -0.9 1.4 -0.8
v -0.9 1.9 -0.8
v -0.8 1.9 -0.8
v -0.8 2.1 -0.8
v -0.7 0.2 -0.8
v -0.7 0.4 -0.8
v -0.7 1 -0.8
v -0.7 1.2 -0.8
v -0.2 1.8 -0.8
v -0.2 2.1 -0.8
v -0.2 2.2 -0.8
v -0.2 2.3 -0.8
v -0.1 2.2 -0.8
v -0.1 2.3 -0.8
v -0.1 2.4 -0.8
v 0.1 2.2 -0.8
v 0.1 2.3 -0.8
v 0.1 2.4 -0.8
v 0.2 1.8 -0.8
v 0.2 2.1 -0.8
v 0.2 2.2 -0.8
v 0.2 2.3 -0.8
v 0.7 0.2 -0.8
v 0.7 0.4 -0.8
v 0.7 1 -0.8
v 0.7 1.2 -0.8
v 0.8 1.9 -0.8
v 0.8 2.1 -0.8
v 0.9 0.2 -0.8
v 0.9 0.4 -0.8
v 0.9 1 -0.8
v 0.9 1.2 -0.8
v 0.9 1.4 -0.8
v 0.9 1.9 -0.8
v -0.2 1.8 -0.9
v -0.2 2.2 -0.9
v -0.1 1.8 -0.9
v -0.1 2.2 -0.9
v -0.1 2.3 -0.9
v 0.1 1.8 -0.9
v 0.1 2.2 -0.9
v 0.1 2.3 -0.9
v 0.2 1.8 -0.9
v 0.2 2.2 -0.9
v -0.9 0.4 -1
v -0.9 1 -1
v -0.7 0.2 -1
v -0.7 0.4 -1
v -0.7 1 -1
v -0.7 1.2 -1
v -0.1 1.8 -1
v -0.1 2.2 -1
v 0.1 1.8 -1
v 0.1 2.2 -1
v 0.7 0.2 -1
v 0.7 0.4 -1
v 0.7 1 -1
v 0.7 1.2 -1
v 0.9 0.4 -1
v 0.9 1 -1
v -0.6 0 0.4
v -0.2 0 0.4
v 0.2 0 0.4
v 0.6 0 0.4
v -0.6 0 0
v -0.2 0 0
v 0.2 0 0
v 0.6 0 0
v -0.7 0.2 1
v 0.7 0.2 1
v -0.9 0.2 0.8
v -0.7 0.2 0.8
v 0.7 0.2 0.8
v 0.9 0.2 0.8
v -0.6 0.2 0.4
v -0.2 0.2 0.4
v 0.2 0.2 0.4
v 0.6 0.2 0.4
v -0.6 0.2 0
v -0.2 0.2 0
v 0.2 0.2 0
v 0.6 0.2 0
v -0.9 0.2 -0.8
v -0.7 0.2 -0.8
v 0.7 0.2 -0.8
v 0.9 0.2 -0.8
v -0.7 0.2 -1
v 0.7 0.2 -1
v -0.9 0.4 1
v -0.7 0.4 1
v 0.7 0.4 1
v 0.9 0.4 1
v -0.9 0.4 0.8
v -0.7 0.4 0.8
v 0.7 0.4 0.8
v 0.9 0.4 0.8
v -1 0.4 0.6
v -0.9 0.4 0.6
v 0.9 0.4 0.6
v 1 0.4 0.6
v -1 0.4 0
v -0.9 0.4 0
v 0.9 0.4 0
v 1 0.4 0
v -0.9 0.4 -0.8
v -0.7 0.4 -0.8
v 0.7 0.4 -0.8
v 0.9 0.4 -0.8
v -0.9 0.4 -1
v -0.7 0.4 -1
v 0.7 0.4 -1
v 0.9 0.4 -1
v -1 0.5 0.7
v -0.9 0.5 0.7
v 0.9 0.5 0.7
v 1 0.5 0.7
v -1 0.5 0.6
v -0.9 0.5 0.6
v 0.9 0.5 0.6
v 1 0.5 0.6
v -1 0.5 0
v -0.9 0.5 0
v 0.9 0.5 0
v 1 0.5 0
v -1 0.5 -0.1
v -0.9 0.5 -0.1
v 0.9 0.5 -0.1
v 1 0.5 -0.1
v -1 0.6 -0.1
v -0.9 0.6 -0.1
v 0.9 0.6 -0.1
v 1 0.6 -0.1
v -1 0.6 -0.2
v -0.9 0.6 -0.2
v 0.9 0.6 -0.2
v 1 0.6 -0.2
v -1 0.7 -0.2
v -0.9 0.7 -0.2
v 0.9 0.7 -0.2
v 1 0.7 -0.2
v -1 0.7 -0.3
v -0.9 0.7 -0.3
v 0.9 0.7 -0.3
v 1 0.7 -0.3
v -1 1.4 0.1
v -0.9 1.4 0.1
v 0.9 1.4 0.1
v 1 1.4 0.1
v -1 1.4 -0.7
v -0.9 1.4 -0.7
v 0.9 1.4 -0.7
v 1 1.4 -0.7
v -0.9 1.4 -0.8
v 0.9 1.4 -0.8
v -0.9 1.5 1.1
v -0.7 1.5 1.1
v 0.7 1.5 1.1
v 0.9 1.5 1.1
v -1 1.5 1
v -0.9 1.5 1
v -0.7 1.5 1
v 0.7 1.5 1
v 0.9 1.5 1
v 1 1.5 1
v -1 1.5 0.1
v -0.9 1.5 0.1
v 0.9 1.5 0.1
v 1 1.5 0.1
v -0.7 1.6 1.1
v -0.6 1.6 1.1
v 0.6 1.6 1.1
v 0.7 1.6 1.1
v -0.7 1.6 1
v -0.6 1.6 1
v 0.6 1.6 1
v 0.7 1.6 1
v -0.6 1.7 1.1
v 0.6 1.7 1.1
v -0.6 1.7 1
v 0.6 1.7 1
v -0.2 1.8 -0.8
v 0.2 1.8 -0.8
v -0.2 1.8 -0.9
v -0.1 1.8 -0.9
v 0.1 1.8 -0.9
v 0.2 1.8 -0.9
v -0.1 1.8 -1
v 0.1 1.8 -1
v -1 0.9 0.7
v -0.9 0.9 0.7
v 0.9 0.9 0.7
v 1 0.9 0.7
v -1 0.9 0.6
v -0.9 0.9 0.6
v 0.9 0.9 0.6
v 1 0.9 0.6
v -1 1 0.6
v -0.9 1 0.6
v 0.9 1 0.6
v 1 1 0.6
v -1 1 -0.3
v -0.9 1 -0.3
v 0.9 1 -0.3
v 1 1 -0.3
v -0.9 1 -0.8
v -0.7 1 -0.8
v 0.7 1 -0.8
v 0.9 1 -0.8
v -0.9 1 -1
v -0.7 1 -1
v 0.7 1 -1
v 0.9 1 -1
v -0.9 1.2 -0.7
v 0.9 1.2 -0.7
v -0.9 1.2 -0.8
v -0.7 1.2 -0.8
v 0.7 1.2 -0.8
v 0.9 1.2 -0.8
v -0.7 1.2 -1
v 0.7 1.2 -1
v -0.9 1.9 1.1
v -0.8 1.9 1.1
v 0.8 1.9 1.1
v 0.9 1.9 1.1
v -1 1.9 1
v -0.9 1.9 1
v -0.8 1.9 1
v 0.8 1.9 1
v 0.9 1.9 1
v 1 1.9 1
v -1 1.9 0.9
v -0.9 1.9 0.9
v 0.9 1.9 0.9
v 1 1.9 0.9
v -1 1.9 -0.6
v -0.9 1.9 -0.6
v 0.9 1.9 -0.6
v 1 1.9 -0.6
v -1 1.9 -0.7
v -0.9 1.9 -0.7
v -0.8 1.9 -0.7
v 0.8 1.9 -0.7
v 0.9 1.9 -0.7
v 1 1.9 -0.7
v -0.9 1.9 -0.8
v -0.8 1.9 -0.8
v 0.8 1.9 -0.8
v 0.9 1.9 -0.8
v -0.8 2 1.1
v 0.8 2 1.1
v -0.9 2 1
v -0.8 2 1
v 0.8 2 1
v 0.9 2 1
v -1 2 0.9
v -0.9 2 0.9
v -0.8 2 0.9
v 0.8 2 0.9
v 0.9 2 0.9
v 1 2 0.9
v -1 2 -0.6
v -0.9 2 -0.6
v 0.9 2 -0.6
v 1 2 -0.6
v -0.8 2.1 1
v 0.8 2.1 1
v -0.9 2.1 0.9
v -0.8 2.1 0.9
v 0.8 2.1 0.9
v 0.9 2.1 0.9
v -0.1 2.1 0.3
v 0.1 2.1 0.3
v -0.2 2.1 0.2
v -0.1 2.1 0.2
v 0.1 2.1 0.2
v 0.2 2.1 0.2
v -0.9 2.1 -0.7
v -0.8 2.1 -0.7
v 0.8 2.1 -0.7
v 0.9 2.1 -0.7
v -0.8 2.1 -0.8
v -0.2 2.1 -0.8
v 0.2 2.1 -0.8
v 0.8 2.1 -0.8
v -0.1 2.2 0.3
v 0.1 2.2 0.3
v -0.2 2.2 0.2
v -0.1 2.2 0.2
v 0.1 2.2 0.2
v 0.2 2.2 0.2
v -0.2 2.2 0.1
v -0.1 2.2 0.1
v 0.1 2.2 0.1
v 0.2 2.2 0.1
v -0.2 2.2 -0.8
v -0.1 2.2 -0.8
v 0.1 2.2 -0.8
v 0.2 2.2 -0.8
v -0.2 2.2 -0.9
v -0.1 2.2 -0.9
v 0.1 2.2 -0.9
v 0.2 2.2 -0.9
v -0.1 2.2 -1
v 0.1 2.2 -1
v -0.1 2.3 0.2
v 0.1 2.3 0.2
v -0.2 2.3 0.1
v -0.1 2.3 0.1
v 0.1 2.3 0.1
v 0.2 2.3 0.1
v -0.2 2.3 -0.8
v -0.1 2.3 -0.8
v 0.1 2.3 -0.8
v 0.2 2.3 -0.8
v -0.1 2.3 -0.9
v 0.1 2.3 -0.9
v -0.1 2.4 0.1
v 0.1 2.4 0.1
v -0.1 2.4 -0.8
v 0.1 2.4 -0.8

# faces
f 4/4/1 2/4/1 1/4/1
f 5/4/1 2/4/1 4/4/1
f 7/4/1 4/4/1 3/4/1
f 7/4/1 6/4/1 5/4/1
f 7/4/1 5/4/1 4/4/1
f 9/4/1 8/4/1 7/4/1
f 11/4/1 7/4/1 3/4/1
f 11/4/1 10/4/1 9/4/1
f 11/4/1 9/4/1 7/4/1
f 12/4/1 10/4/1 11/4/1
f 13/4/1 10/4/1 12/4/1
f 14/4/1 10/4/1 13/4/1
f 18/4/1 16/4/1 15/4/1
f 19/4/1 18/4/1 17/4/1
f 20/4/1 18/4/1 19/4/1
f 21/4/1 16/4/1 18/4/1
f 21/4/1 18/4/1 20/4/1
f 22/4/1 16/4/1 21/4/1
f 23/4/1 21/4/1 20/4/1
f 24/4/1 21/4/1 23/4/1
f 28/5/1 26/5/1 25/5/1
f 29/5/1 26/5/1 28/5/1
f 30/5/1 26/5/1 29/5/1
f 31/5/1 26/5/1 30/5/1
f 33/5/1 28/5/1 27/5/1
f 33/5/1 29/5/1 28/5/1
f 34/5/1 29/5/1 33/5/1
f 35/5/1 32/5/1 31/5/1
f 35/5/1 31/5/1 30/5/1
f 36/5/1 32/5/1 35/5/1
f 37/5/1 32/5/1 36/5/1
f 38/5/1 32/5/1 37/5/1
f 39/5/1 32/5/1 38/5/1
f 40/5/1 32/5/1 39/5/1
f 41/5/1 33/5/1 27/5/1
f 43/5/1 42/5/1 41/5/1
f 44/5/1 32/5/1 40/5/1
f 45/5/1 32/5/1 44/5/1
f 46/5/1 32/5/1 45/5/1
f 47/5/1 44/5/1 43/5/1
f 47/5/1 45/5/1 44/5/1
f 48/5/1 45/5/1 47/5/1
f 49/5/1 47/5/1 43/5/1
f 50/5/1 47/5/1 49/5/1
f 53/5/1 43/5/1 41/5/1
f 53/5/1 41/5/1 27/5/1
f 53/5/1 49/5/1 43/5/1
f 54/5/1 49/5/1 53/5/1
f 55/4/1 53/4/1 52/4/1
f 56/4/1 53/4/1 55/4/1
f 59/4/1 51/4/1 50/4/1
f 60/4/1 51/4/1 59/4/1
f 61/4/1 57/4/1 56/4/1
f 62/4/1 57/4/1 61/4/1
f 63/4/1 59/4/1 58/4/1
f 64/4/1 63/4/1 62/4/1
f 65/4/1 59/4/1 63/4/1
f 65/4/1 63/4/1 64/4/1
f 70/4/1 67/4/1 66/4/1
f 71/4/1 67/4/1 70/4/1
f 73/4/1 72/4/1 71/4/1
f 74/4/1 72/4/1 73/4/1
f 75/4/1 69/4/1 68/4/1
f 76/4/1 69/4/1 75/4/1
f 81/5/1 78/5/1 77/5/1
f 82/5/1 78/5/1 81/5/1
f 83/5/1 80/5/1 79/5/1
f 84/5/1 80/5/1 83/5/1
f 87/5/1 86/5/1 85/5/1
f 88/5/1 86/5/1 87/5/1
f 91/4/1 90/4/1 89/4/1
f 92/4/1 90/4/1 91/4/1
f 96/7/1 94/7/1 93/7/1
f 97/7/1 96/7/1 95/7/1
f 98/7/1 96/7/1 97/7/1
f 99/7/1 94/7/1 96/7/1
f 99/7/1 96/7/1 98/7/1
f 100/7/1 94/7/1 99/7/1
f 101/7/1 99/7/1 98/7/1
f 102/7/1 99/7/1 101/7/1
f 107/7/1 106/7/1 105/7/1
f 108/7/1 106/7/1 107/7/1
f 111/7/1 104/7/1 103/7/1
f 112/7/1 104/7/1 111/7/1
f 113/7/1 109/7/1 108/7/1
f 114/7/1 109/7/1 113/7/1
f 115/7/1 111/7/1 110/7/1
f 116/7/1 111/7/1 115/7/1
f 117/7/1 115/7/1 114/7/1
f 118/7/1 115/7/1 117/7/1
f 121/4/1 120/4/1 119/4/1
f 122/4/1 120/4/1 121/4/1
f 125/4/1 124/4/1 123/4/1
f 126/4/1 124/4/1 125/4/1
f 129/4/1 128/4/1 127/4/1
f 130/4/1 128/4/1 129/4/1
f 131/4/2 132/4/2 133/4/2
f 133/4/2 132/4/2 134/4/2
f 135/4/2 136/4/2 137/4/2
f 137/4/2 136/4/2 138/4/2
f 139/4/2 140/4/2 141/4/2
f 141/4/2 140/4/2 142/4/2
f 145/7/2 146/7/2 147/7/2
f 147/7/2 146/7/2 148/7/2
f 143/7/2 144/7/2 151/7/2
f 151/7/2 144/7/2 152/7/2
f 148/7/2 149/7/2 153/7/2
f 153/7/2 149/7/2 154/7/2
f 150/7/2 151/7/2 155/7/2
f 155/7/2 151/7/2 156/7/2
f 154/7/2 155/7/2 157/7/2
f 157/7/2 155/7/2 158/7/2
f 159/7/2 160/7/2 162/7/2
f 161/7/2 162/7/2 163/7/2
f 163/7/2 162/7/2 164/7/2
f 162/7/2 160/7/2 165/7/2
f 164/7/2 162/7/2 165/7/2
f 165/7/2 160/7/2 166/7/2
f 164/7/2 165/7/2 167/7/2
f 167/7/2 165/7/2 168/7/2
f 169/4/2 170/4/2 171/4/2
f 171/4/2 170/4/2 172/4/2
f 173/5/2 174/5/2 177/5/2
f 177/5/2 174/5/2 178/5/2
f 175/5/2 176/5/2 179/5/2
f 179/5/2 176/5/2 180/5/2
f 181/5/2 182/5/2 183/5/2
f 183/5/2 182/5/2 184/5/2
f 185/4/2 186/4/2 189/4/2
f 189/4/2 186/4/2 190/4/2
f 190/4/2 191/4/2 192/4/2
f 192/4/2 191/4/2 193/4/2
f 187/4/2 188/4/2 194/4/2
f 194/4/2 188/4/2 195/4/2
f 196/5/2 197/5/2 199/5/2
f 199/5/2 197/5/2 200/5/2
f 200/5/2 197/5/2 201/5/2
f 201/5/2 197/5/2 202/5/2
f 198/5/2 199/5/2 204/5/2
f 199/5/2 200/5/2 204/5/2
f 204/5/2 200/5/2 205/5/2
f 202/5/2 203/5/2 206/5/2
f 201/5/2 202/5/2 206/5/2
f 206/5/2 203/5/2 207/5/2
f 207/5/2 203/5/2 208/5/2
f 208/5/2 203/5/2 209/5/2
f 209/5/2 203/5/2 210/5/2
f 210/5/2 203/5/2 211/5/2
f 198/5/2 204/5/2 212/5/2
f 212/5/2 213/5/2 214/5/2
f 211/5/2 203/5/2 215/5/2
f 215/5/2 203/5/2 216/5/2
f 216/5/2 203/5/2 217/5/2
f 214/5/2 215/5/2 218/5/2
f 215/5/2 216/5/2 218/5/2
f 218/5/2 216/5/2 219/5/2
f 214/5/2 218/5/2 220/5/2
f 220/5/2 218/5/2 221/5/2
f 212/5/2 214/5/2 224/5/2
f 198/5/2 212/5/2 224/5/2
f 214/5/2 220/5/2 224/5/2
f 224/5/2 220/5/2 225/5/2
f 223/4/2 224/4/2 226/4/2
f 226/4/2 224/4/2 227/4/2
f 221/4/2 222/4/2 230/4/2
f 230/4/2 222/4/2 231/4/2
f 227/4/2 228/4/2 232/4/2
f 232/4/2 228/4/2 233/4/2
f 229/4/2 230/4/2 234/4/2
f 233/4/2 234/4/2 235/4/2
f 234/4/2 230/4/2 236/4/2
f 235/4/2 234/4/2 236/4/2
f 237/4/2 238/4/2 240/4/2
f 240/4/2 238/4/2 241/4/2
f 239/4/2 240/4/2 243/4/2
f 241/4/2 242/4/2 243/4/2
f 240/4/2 241/4/2 243/4/2
f 243/4/2 244/4/2 245/4/2
f 239/4/2 243/4/2 247/4/2
f 245/4/2 246/4/2 247/4/2
f 243/4/2 245/4/2 247/4/2
f 247/4/2 246/4/2 248/4/2
f 248/4/2 246/4/2 249/4/2
f 249/4/2 246/4/2 250/4/2
f 251/4/2 252/4/2 254/4/2
f 253/4/2 254/4/2 255/4/2
f 255/4/2 254/4/2 256/4/2
f 254/4/2 252/4/2 257/4/2
f 256/4/2 254/4/2 257/4/2
f 257/4/2 252/4/2 258/4/2
f 256/4/2 257/4/2 259/4/2
f 259/4/2 257/4/2 260/4/2
f 263/4/3 262/4/3 261/4/3
f 265/4/3 263/4/3 261/4/3
f 265/4/3 264/4/3 263/4/3
f 266/4/3 264/4/3 265/4/3
f 267/4/3 264/4/3 266/4/3
f 268/4/3 264/4/3 267/4/3
f 270/4/3 264/4/3 268/4/3
f 272/4/3 270/4/3 269/4/3
f 273/4/3 264/4/3 270/4/3
f 273/4/3 272/4/3 271/4/3
f 273/4/3 270/4/3 272/4/3
f 274/4/3 264/4/3 273/4/3
f 275/4/3 273/4/3 271/4/3
f 276/4/3 273/4/3 275/4/3
f 280/4/3 278/4/3 277/4/3
f 281/4/3 278/4/3 280/4/3
f 283/4/3 282/4/3 281/4/3
f 284/4/3 282/4/3 283/4/3
f 287/5/3 280/5/3 279/5/3
f 288/5/3 280/5/3 287/5/3
f 290/5/3 287/5/3 286/5/3
f 290/5/3 289/5/3 288/5/3
f 290/5/3 288/5/3 287/5/3
f 292/5/3 290/5/3 286/5/3
f 292/5/3 291/5/3 290/5/3
f 293/5/3 291/5/3 292/5/3
f 294/5/3 292/5/3 286/5/3
f 295/5/3 292/5/3 294/5/3
f 296/6/3 293/6/3 292/6/3
f 296/5/3 292/5/3 295/5/3
f 297/5/3 291/5/3 293/5/3
f 297/6/3 293/6/3 296/6/3
f 298/6/3 295/6/3 294/6/3
f 298/5/3 294/5/3 286/5/3
f 299/5/3 296/5/3 295/5/3
f 299/6/3 295/6/3 298/6/3
f 299/5/3 297/5/3 296/5/3
f 300/5/3 297/5/3 299/5/3
f 301/5/3 291/5/3 297/5/3
f 301/5/3 297/5/3 300/5/3
f 302/5/3 300/5/3 299/5/3
f 302/5/3 299/5/3 298/5/3
f 302/6/3 301/6/3 300/6/3
f 303/5/3 291/5/3 301/5/3
f 303/6/3 301/6/3 302/6/3
f 304/5/3 303/5/3 302/5/3
f 304/5/3 291/5/3 303/5/3
f 305/5/3 291/5/3 304/5/3
f 306/5/3 298/5/3 286/5/3
f 306/5/3 302/5/3 298/5/3
f 306/5/3 304/5/3 302/5/3
f 307/5/3 304/5/3 306/5/3
f 308/5/3 304/5/3 307/5/3
f 309/5/3 304/5/3 308/5/3
f 311/4/3 285/4/3 284/4/3
f 312/4/3 285/4/3 311/4/3
f 313/5/3 308/5/3 307/5/3
f 314/5/3 308/5/3 313/5/3
f 315/4/3 311/4/3 310/4/3
f 316/4/3 311/4/3 315/4/3
f 317/4/3 315/4/3 314/4/3
f 318/4/3 315/4/3 317/4/3
f 321/4/3 320/4/3 319/4/3
f 322/4/3 320/4/3 321/4/3
f 324/4/3 323/4/3 322/4/3
f 325/4/3 323/4/3 324/4/3
f 329/4/3 327/4/3 326/4/3
f 330/4/3 327/4/3 329/4/3
f 331/4/3 329/4/3 328/4/3
f 332/4/3 329/4/3 331/4/3
f 335/5/3 334/5/3 333/5/3
f 336/5/3 334/5/3 335/5/3
f 339/5/3 338/5/3 337/5/3
f 340/5/3 338/5/3 339/5/3
f 343/4/3 342/4/3 341/4/3
f 344/4/3 342/4/3 343/4/3
f 347/4/3 346/4/3 345/4/3
f 348/4/3 346/4/3 347/4/3
f 353/4/3 350/4/3 349/4/3
f 354/4/3 350/4/3 353/4/3
f 355/4/3 352/4/3 351/4/3
f 356/4/3 352/4/3 355/4/3
f 361/4/3 358/4/3 357/4/3
f 362/4/3 358/4/3 361/4/3
f 363/4/3 360/4/3 359/4/3
f 364/4/3 360/4/3 363/4/3
f 367/4/3 366/4/3 365/4/3
f 368/4/3 366/4/3 367/4/3
f 371/4/3 370/4/3 369/4/3
f 372/4/3 370/4/3 371/4/3
f 375/7/3 374/7/3 373/7/3
f 376/7/3 374/7/3 375/7/3
f 379/7/3 378/7/3 377/7/3
f 380/7/3 378/7/3 379/7/3
f 383/7/3 381/7/3 380/7/3
f 384/7/3 381/7/3 383/7/3
f 385/7/3 383/7/3 382/7/3
f 386/7/3 383/7/3 385/7/3
f 389/4/3 388/4/3 387/4/3
f 390/4/3 388/4/3 389/4/3
f 393/7/3 392/7/3 391/7/3
f 394/7/3 392/7/3 393/7/3
f 397/7/3 395/7/3 394/7/3
f 398/7/3 395/7/3 397/7/3
f 399/7/3 397/7/3 396/7/3
f 400/7/3 397/7/3 399/7/3
f 403/4/3 402/4/3 401/4/3
f 404/4/3 402/4/3 403/4/3
f 405/4/4 406/4/4 407/4/4
f 407/4/4 406/4/4 408/4/4
f 409/4/4 410/4/4 411/4/4
f 411/4/4 410/4/4 412/4/4
f 413/4/4 414/4/4 415/4/4
f 415/4/4 414/4/4 416/4/4
f 417/4/4 418/4/4 419/4/4
f 419/4/4 418/4/4 420/4/4
f 421/4/4 422/4/4 423/4/4
f 423/4/4 422/4/4 424/4/4
f 425/4/4 426/4/4 427/4/4
f 427/4/4 426/4/4 428/4/4
f 429/4/4 430/4/4 431/4/4
f 431/4/4 430/4/4 432/4/4
f 433/4/4 434/4/4 435/4/4
f 435/4/4 434/4/4 436/4/4
f 437/4/4 438/4/4 439/4/4
f 439/4/4 438/4/4 440/4/4
f 441/4/4 442/4/4 443/4/4
f 443/4/4 442/4/4 444/4/4
f 445/4/4 446/4/4 447/4/4
f 447/4/4 446/4/4 448/4/4
f 449/4/4 450/4/4 451/4/4
f 451/4/4 450/4/4 452/4/4
f 453/4/4 454/4/4 456/4/4
f 456/4/4 454/4/4 457/4/4
f 457/4/4 458/4/4 459/4/4
f 459/4/4 458/4/4 460/4/4
f 455/5/4 456/5/4 463/5/4
f 463/5/4 456/5/4 464/5/4
f 461/4/4 462/4/4 465/4/4
f 465/4/4 462/4/4 466/4/4
f 464/4/4 465/4/4 467/4/4
f 467/4/4 465/4/4 468/4/4
f 473/4/4 474/4/4 475/4/4
f 469/5/4 470/5/4 477/5/4
f 477/5/4 470/5/4 478/5/4
f 471/5/4 472/5/4 479/5/4
f 479/5/4 472/5/4 480/5/4
f 475/4/4 476/4/4 481/4/4
f 473/4/4 475/4/4 481/4/4
f 481/4/4 476/4/4 482/4/4
f 483/7/4 484/7/4 485/7/4
f 485/7/4 484/7/4 486/7/4
f 486/7/4 487/7/4 489/7/4
f 489/7/4 487/7/4 490/7/4
f 473/4/4 481/4/4 491/4/4
f 488/7/4 489/7/4 493/7/4
f 493/7/4 489/7/4 494/7/4
f 491/4/4 492/4/4 499/4/4
f 499/4/4 492/4/4 500/4/4
f 495/5/4 496/5/4 501/5/4
f 501/5/4 496/5/4 502/5/4
f 497/5/4 498/5/4 503/5/4
f 503/5/4 498/5/4 504/5/4
f 473/4/4 491/4/4 505/4/4
f 491/4/4 499/4/4 505/4/4
f 505/4/4 499/4/4 506/4/4
f 507/7/4 508/7/4 509/7/4
f 509/7/4 508/7/4 510/7/4
f 510/7/4 511/7/4 513/7/4
f 513/7/4 511/7/4 514/7/4
f 512/7/4 513/7/4 515/7/4
f 515/7/4 513/7/4 516/7/4
f 517/5/4 518/5/4 520/5/4
f 520/5/4 518/5/4 521/5/4
f 523/7/4 524/7/4 525/7/4
f 525/7/4 524/7/4 526/7/4
f 519/5/4 520/5/4 527/5/4
f 520/5/4 521/5/4 527/5/4
f 521/5/4 522/5/4 527/5/4
f 527/5/4 522/5/4 528/5/4
f 528/5/4 522/5/4 529/5/4
f 529/5/4 522/5/4 530/5/4
f 528/5/4 529/5/4 531/5/4
f 531/5/4 529/5/4 532/5/4
f 537/4/5 534/4/5 533/4/5
f 538/4/5 534/4/5 537/4/5
f 539/4/5 536/4/5 535/4/5
f 540/4/5 536/4/5 539/4/5
f 544/5/5 542/5/5 541/5/5
f 545/5/5 542/5/5 544/5/5
f 547/5/5 544/5/5 543/5/5
f 547/5/5 546/5/5 545/5/5
f 547/5/5 545/5/5 544/5/5
f 548/5/5 546/5/5 547/5/5
f 549/5/5 546/5/5 548/5/5
f 550/5/5 546/5/5 549/5/5
f 551/5/5 547/5/5 543/5/5
f 552/5/5 549/5/5 548/5/5
f 553/5/5 549/5/5 552/5/5
f 554/5/5 546/5/5 550/5/5
f 555/5/5 553/5/5 552/5/5
f 555/5/5 554/5/5 553/5/5
f 555/5/5 551/5/5 543/5/5
f 555/5/5 552/5/5 551/5/5
f 556/5/5 554/5/5 555/5/5
f 557/5/5 546/5/5 554/5/5
f 557/5/5 554/5/5 556/5/5
f 558/5/5 546/5/5 557/5/5
f 559/5/5 557/5/5 556/5/5
f 560/5/5 557/5/5 559/5/5
f 565/5/5 562/5/5 561/5/5
f 566/5/5 562/5/5 565/5/5
f 567/5/5 564/5/5 563/5/5
f 568/5/5 564/5/5 567/5/5
f 573/4/5 570/4/5 569/4/5
f 574/4/5 570/4/5 573/4/5
f 575/4/5 572/4/5 571/4/5
f 576/4/5 572/4/5 575/4/5
f 581/5/5 578/5/5 577/5/5
f 582/5/5 578/5/5 581/5/5
f 583/5/5 580/5/5 579/5/5
f 584/5/5 580/5/5 583/5/5
f 589/4/5 586/4/5 585/4/5
f 590/4/5 586/4/5 589/4/5
f 591/4/5 588/4/5 587/4/5
f 592/4/5 588/4/5 591/4/5
f 597/4/5 594/4/5 593/4/5
f 598/4/5 594/4/5 597/4/5
f 599/4/5 596/4/5 595/4/5
f 600/4/5 596/4/5 599/4/5
f 605/4/5 602/4/5 601/4/5
f 606/4/5 602/4/5 605/4/5
f 607/4/5 604/4/5 603/4/5
f 608/4/5 604/4/5 607/4/5
f 613/4/5 610/4/5 609/4/5
f 614/4/5 610/4/5 613/4/5
f 615/4/5 612/4/5 611/4/5
f 616/4/5 612/4/5 615/4/5
f 621/4/5 618/4/5 617/4/5
f 622/4/5 618/4/5 621/4/5
f 623/4/5 620/4/5 619/4/5
f 624/4/5 620/4/5 623/4/5
f 625/4/5 623/4/5 622/4/5
f 626/4/5 623/4/5 625/4/5
f 632/4/5 628/4/5 627/4/5
f 633/4/5 628/4/5 632/4/5
f 634/4/5 630/4/5 629/4/5
f 635/4/5 630/4/5 634/4/5
f 637/4/5 632/4/5 631/4/5
f 638/4/5 632/4/5 637/4/5
f 639/4/5 636/4/5 635/4/5
f 640/4/5 636/4/5 639/4/5
f 645/4/5 642/4/5 641/4/5
f 646/4/5 642/4/5 645/4/5
f 647/4/5 644/4/5 643/4/5
f 648/4/5 644/4/5 647/4/5
f 651/4/5 650/4/5 649/4/5
f 652/4/5 650/4/5 651/4/5
f 655/7/5 654/7/5 653/7/5
f 656/7/5 654/7/5 655/7/5
f 657/7/5 654/7/5 656/7/5
f 658/7/5 654/7/5 657/7/5
f 659/7/5 657/7/5 656/7/5
f 660/7/5 657/7/5 659/7/5
f 661/4/6 662/4/6 665/4/6
f 665/4/6 662/4/6 666/4/6
f 663/4/6 664/4/6 667/4/6
f 667/4/6 664/4/6 668/4/6
f 669/4/6 670/4/6 673/4/6
f 673/4/6 670/4/6 674/4/6
f 671/4/6 672/4/6 675/4/6
f 675/4/6 672/4/6 676/4/6
f 677/5/6 678/5/6 681/5/6
f 681/5/6 678/5/6 682/5/6
f 679/5/6 680/5/6 683/5/6
f 683/5/6 680/5/6 684/5/6
f 685/5/6 686/5/6 687/5/6
f 687/5/6 686/5/6 688/5/6
f 688/5/6 686/5/6 689/5/6
f 689/5/6 686/5/6 690/5/6
f 688/5/6 689/5/6 691/5/6
f 691/5/6 689/5/6 692/5/6
f 693/4/6 694/4/6 698/4/6
f 698/4/6 694/4/6 699/4/6
f 695/4/6 696/4/6 700/4/6
f 700/4/6 696/4/6 701/4/6
f 697/4/6 698/4/6 703/4/6
f 703/4/6 698/4/6 704/4/6
f 701/4/6 702/4/6 705/4/6
f 705/4/6 702/4/6 706/4/6
f 707/4/6 708/4/6 711/4/6
f 711/4/6 708/4/6 712/4/6
f 709/4/6 710/4/6 715/4/6
f 715/4/6 710/4/6 716/4/6
f 712/4/6 713/4/6 717/4/6
f 717/4/6 713/4/6 718/4/6
f 714/4/6 715/4/6 719/4/6
f 719/4/6 715/4/6 720/4/6
f 721/4/6 722/4/6 724/4/6
f 724/4/6 722/4/6 725/4/6
f 723/4/6 724/4/6 728/4/6
f 728/4/6 724/4/6 729/4/6
f 725/4/6 726/4/6 730/4/6
f 730/4/6 726/4/6 731/4/6
f 727/4/6 728/4/6 733/4/6
f 733/4/6 728/4/6 734/4/6
f 731/4/6 732/4/6 735/4/6
f 735/4/6 732/4/6 736/4/6
f 737/4/6 738/4/6 740/4/6
f 740/4/6 738/4/6 741/4/6
f 739/4/6 740/4/6 743/4/6
f 741/4/6 742/4/6 743/4/6
f 740/4/6 741/4/6 743/4/6
f 743/4/6 742/4/6 744/4/6
f 739/4/6 743/4/6 745/4/6
f 745/4/6 743/4/6 746/4/6
f 744/4/6 742/4/6 747/4/6
f 747/4/6 742/4/6 748/4/6
f 739/4/6 745/4/6 749/4/6
f 749/4/6 745/4/6 750/4/6
f 748/4/6 742/4/6 751/4/6
f 751/4/6 742/4/6 752/4/6
f 750/4/6 745/4/6 753/4/6
f 753/4/6 745/4/6 754/4/6
f 748/4/6 751/4/6 755/4/6
f 755/4/6 751/4/6 756/4/6
f 757/7/6 758/7/6 760/7/6
f 760/7/6 758/7/6 761/7/6
f 759/7/6 760/7/6 763/7/6
f 763/7/6 760/7/6 764/7/6
f 761/7/6 762/7/6 765/7/6
f 765/7/6 762/7/6 766/7/6
f 767/7/6 768/7/6 771/7/6
f 771/7/6 768/7/6 772/7/6
f 769/7/6 770/7/6 773/7/6
f 773/7/6 770/7/6 774/7/6
f 772/7/6 773/7/6 775/7/6
f 775/7/6 773/7/6 776/7/6
f 777/7/6 778/7/6 780/7/6
f 780/7/6 778/7/6 781/7/6
f 779/7/6 780/7/6 783/7/6
f 783/7/6 780/7/6 784/7/6
f 781/7/6 782/7/6 785/7/6
f 785/7/6 782/7/6 786/7/6
f 784/7/6 785/7/6 787/7/6
f 787/7/6 785/7/6 788/7/6
f 789/7/6 790/7/6 791/7/6
f 791/7/6 790/7/6 792/7/6
