# MagicaVoxel @ Ephtracy

# group
o 

# material
mtllib lucifer.mtl
usemtl palette

# normals
vn -1 0 0
vn 1 0 0
vn 0 0 1
vn 0 0 -1
vn 0 -1 0
vn 0 1 0

# texcoords
vt 0.517578 0.5
vt 0.556641 0.5
vt 0.958984 0.5
vt 0.970703 0.5
vt 0.974609 0.5
vt 0.978516 0.5

# verts
v -1 0.5 0.3
v -1 0.5 0
v -1 0.6 0.4
v -1 0.6 0.3
v -1 0.6 0
v -1 0.6 -0.2
v -1 0.7 -0.2
v -1 0.7 -0.3
v -1 0.9 0.4
v -1 0.9 0.3
v -1 1 0.3
v -1 1 -0.3
v -0.9 0.2 0.8
v -0.9 0.2 -0.8
v -0.9 0.4 1
v -0.9 0.4 0.8
v -0.9 0.4 -0.8
v -0.9 0.4 -1
v -0.9 0.5 0.3
v -0.9 0.5 0
v -0.9 0.6 1
v -0.9 0.6 0.9
v -0.9 0.6 0.4
v -0.9 0.6 0.3
v -0.9 0.6 0
v -0.9 0.6 -0.2
v -0.9 0.7 -0.2
v -0.9 0.7 -0.3
v -0.9 0.8 1
v -0.9 0.8 0.9
v -0.9 0.9 1
v -0.9 0.9 0.9
v -0.9 0.9 0.4
v -0.9 0.9 0.3
v -0.9 1 0.3
v -0.9 1 -0.3
v -0.9 1 -0.8
v -0.9 1 -1
v -0.9 1.1 1
v -0.9 1.1 0.9
v -0.9 1.2 -0.7
v -0.9 1.2 -0.8
v -0.9 1.8 1
v -0.9 1.8 0.8
v -0.9 1.8 -0.5
v -0.9 1.8 -0.7
v -0.9 2 0.8
v -0.9 2 0.2
v -0.9 2 0
v -0.9 2 -0.5
v -0.9 2.5 0.2
v -0.9 2.5 0
v -0.7 0.2 1
v -0.7 0.2 0.8
v -0.7 0.2 -0.8
v -0.7 0.2 -1
v -0.7 0.4 1
v -0.7 0.4 0.8
v -0.7 0.4 -0.8
v -0.7 0.4 -1
v -0.7 1 -0.8
v -0.7 1 -1
v -0.7 1.2 -0.8
v -0.7 1.2 -1
v -0.7 1.8 1
v -0.7 1.8 0.8
v -0.7 1.8 -0.5
v -0.7 1.8 -0.7
v -0.7 2 1
v -0.7 2 0.8
v -0.7 2 -0.5
v -0.7 2 -0.7
v -0.6 0 0.4
v -0.6 0 0
v -0.6 0.2 0.4
v -0.6 0.2 0
v 0.2 0 0.4
v 0.2 0 0
v 0.2 0.2 0.4
v 0.2 0.2 0
v 0.5 2 0.2
v 0.5 2 0
v 0.5 2.3 0.2
v 0.5 2.3 0
v 0.7 2.3 0.2
v 0.7 2.3 0
v 0.7 2.5 0.2
v 0.7 2.5 0
v -0.7 2.3 0.2
v -0.7 2.3 0
v -0.7 2.5 0.2
v -0.7 2.5 0
v -0.5 2 0.2
v -0.5 2 0
v -0.5 2.3 0.2
v -0.5 2.3 0
v -0.2 0 0.4
v -0.2 0 0
v -0.2 0.2 0.4
v -0.2 0.2 0
v 0.6 0 0.4
v 0.6 0 0
v 0.6 0.2 0.4
v 0.6 0.2 0
v 0.7 0.2 1
v 0.7 0.2 0.8
v 0.7 0.2 -0.8
v 0.7 0.2 -1
v 0.7 0.4 1
v 0.7 0.4 0.8
v 0.7 0.4 -0.8
v 0.7 0.4 -1
v 0.7 1 -0.8
v 0.7 1 -1
v 0.7 1.2 -0.8
v 0.7 1.2 -1
v 0.7 1.8 1
v 0.7 1.8 0.8
v 0.7 1.8 -0.5
v 0.7 1.8 -0.7
v 0.7 2 1
v 0.7 2 0.8
v 0.7 2 -0.5
v 0.7 2 -0.7
v 0.9 0.2 0.8
v 0.9 0.2 -0.8
v 0.9 0.4 1
v 0.9 0.4 0.8
v 0.9 0.4 -0.8
v 0.9 0.4 -1
v 0.9 0.5 0.3
v 0.9 0.5 0
v 0.9 0.6 1
v 0.9 0.6 0.9
v 0.9 0.6 0.4
v 0.9 0.6 0.3
v 0.9 0.6 0
v 0.9 0.6 -0.2
v 0.9 0.7 -0.2
v 0.9 0.7 -0.3
v 0.9 0.8 1
v 0.9 0.8 0.9
v 0.9 0.9 1
v 0.9 0.9 0.9
v 0.9 0.9 0.4
v 0.9 0.9 0.3
v 0.9 1 0.3
v 0.9 1 -0.3
v 0.9 1 -0.8
v 0.9 1 -1
v 0.9 1.1 1
v 0.9 1.1 0.9
v 0.9 1.2 -0.7
v 0.9 1.2 -0.8
v 0.9 1.8 1
v 0.9 1.8 0.8
v 0.9 1.8 -0.5
v 0.9 1.8 -0.7
v 0.9 2 0.8
v 0.9 2 0.2
v 0.9 2 0
v 0.9 2 -0.5
v 0.9 2.5 0.2
v 0.9 2.5 0
v 1 0.5 0.3
v 1 0.5 0
v 1 0.6 0.4
v 1 0.6 0.3
v 1 0.6 0
v 1 0.6 -0.2
v 1 0.7 -0.2
v 1 0.7 -0.3
v 1 0.9 0.4
v 1 0.9 0.3
v 1 1 0.3
v 1 1 -0.3
v -0.9 0.4 1
v -0.9 0.6 1
v -0.9 0.8 1
v -0.9 0.9 1
v -0.9 1.1 1
v -0.9 1.8 1
v -0.7 0.2 1
v -0.7 0.4 1
v -0.7 1.8 1
v -0.7 2 1
v -0.6 0.9 1
v -0.6 1.1 1
v -0.5 1 1
v -0.5 1.4 1
v -0.5 1.5 1
v -0.5 1.6 1
v -0.4 0.6 1
v -0.4 0.8 1
v -0.2 0.7 1
v -0.2 0.8 1
v -0.2 1 1
v -0.2 1.4 1
v -0.2 1.5 1
v -0.2 1.6 1
v 0.2 0.7 1
v 0.2 0.8 1
v 0.2 1 1
v 0.2 1.4 1
v 0.2 1.5 1
v 0.2 1.6 1
v 0.4 0.6 1
v 0.4 0.8 1
v 0.5 1 1
v 0.5 1.4 1
v 0.5 1.5 1
v 0.5 1.6 1
v 0.6 0.9 1
v 0.6 1.1 1
v 0.7 0.2 1
v 0.7 0.4 1
v 0.7 1.8 1
v 0.7 2 1
v 0.9 0.4 1
v 0.9 0.6 1
v 0.9 0.8 1
v 0.9 0.9 1
v 0.9 1.1 1
v 0.9 1.8 1
v -0.9 0.2 0.8
v -0.9 0.4 0.8
v -0.9 1.8 0.8
v -0.9 2 0.8
v -0.7 0.2 0.8
v -0.7 0.4 0.8
v -0.7 1.8 0.8
v -0.7 2 0.8
v 0.7 0.2 0.8
v 0.7 0.4 0.8
v 0.7 1.8 0.8
v 0.7 2 0.8
v 0.9 0.2 0.8
v 0.9 0.4 0.8
v 0.9 1.8 0.8
v 0.9 2 0.8
v -1 0.6 0.4
v -1 0.9 0.4
v -0.9 0.6 0.4
v -0.9 0.9 0.4
v -0.6 0 0.4
v -0.6 0.2 0.4
v -0.2 0 0.4
v -0.2 0.2 0.4
v 0.2 0 0.4
v 0.2 0.2 0.4
v 0.6 0 0.4
v 0.6 0.2 0.4
v 0.9 0.6 0.4
v 0.9 0.9 0.4
v 1 0.6 0.4
v 1 0.9 0.4
v -1 0.5 0.3
v -1 0.6 0.3
v -1 0.9 0.3
v -1 1 0.3
v -0.9 0.5 0.3
v -0.9 0.6 0.3
v -0.9 0.9 0.3
v -0.9 1 0.3
v 0.9 0.5 0.3
v 0.9 0.6 0.3
v 0.9 0.9 0.3
v 0.9 1 0.3
v 1 0.5 0.3
v 1 0.6 0.3
v 1 0.9 0.3
v 1 1 0.3
v -0.9 2 0.2
v -0.9 2.5 0.2
v -0.7 2.3 0.2
v -0.7 2.5 0.2
v -0.5 2 0.2
v -0.5 2.3 0.2
v 0.5 2 0.2
v 0.5 2.3 0.2
v 0.7 2.3 0.2
v 0.7 2.5 0.2
v 0.9 2 0.2
v 0.9 2.5 0.2
v -1 0.5 0
v -1 0.6 0
v -0.9 0.5 0
v -0.9 0.6 0
v -0.9 2 0
v -0.9 2.5 0
v -0.7 2.3 0
v -0.7 2.5 0
v -0.6 0 0
v -0.6 0.2 0
v -0.5 2 0
v -0.5 2.3 0
v -0.2 0 0
v -0.2 0.2 0
v 0.2 0 0
v 0.2 0.2 0
v 0.5 2 0
v 0.5 2.3 0
v 0.6 0 0
v 0.6 0.2 0
v 0.7 2.3 0
v 0.7 2.5 0
v 0.9 0.5 0
v 0.9 0.6 0
v 0.9 2 0
v 0.9 2.5 0
v 1 0.5 0
v 1 0.6 0
v -1 0.6 -0.2
v -1 0.7 -0.2
v -0.9 0.6 -0.2
v -0.9 0.7 -0.2
v 0.9 0.6 -0.2
v 0.9 0.7 -0.2
v 1 0.6 -0.2
v 1 0.7 -0.2
v -1 0.7 -0.3
v -1 1 -0.3
v -0.9 0.7 -0.3
v -0.9 1 -0.3
v 0.9 0.7 -0.3
v 0.9 1 -0.3
v 1 0.7 -0.3
v 1 1 -0.3
v -0.9 1.8 -0.5
v -0.9 2 -0.5
v -0.7 1.8 -0.5
v -0.7 2 -0.5
v 0.7 1.8 -0.5
v 0.7 2 -0.5
v 0.9 1.8 -0.5
v 0.9 2 -0.5
v -0.9 1.2 -0.7
v -0.9 1.8 -0.7
v -0.7 1.8 -0.7
v -0.7 2 -0.7
v 0.7 1.8 -0.7
v 0.7 2 -0.7
v 0.9 1.2 -0.7
v 0.9 1.8 -0.7
v -0.9 0.2 -0.8
v -0.9 0.4 -0.8
v -0.9 1 -0.8
v -0.9 1.2 -0.8
v -0.7 0.2 -0.8
v -0.7 0.4 -0.8
v -0.7 1 -0.8
v -0.7 1.2 -0.8
v 0.7 0.2 -0.8
v 0.7 0.4 -0.8
v 0.7 1 -0.8
v 0.7 1.2 -0.8
v 0.9 0.2 -0.8
v 0.9 0.4 -0.8
v 0.9 1 -0.8
v 0.9 1.2 -0.8
v -0.9 0.4 -1
v -0.9 1 -1
v -0.7 0.2 -1
v -0.7 0.4 -1
v -0.7 1 -1
v -0.7 1.2 -1
v 0.7 0.2 -1
v 0.7 0.4 -1
v 0.7 1 -1
v 0.7 1.2 -1
v 0.9 0.4 -1
v 0.9 1 -1
v -0.6 0 0.4
v -0.2 0 0.4
v 0.2 0 0.4
v 0.6 0 0.4
v -0.6 0 0
v -0.2 0 0
v 0.2 0 0
v 0.6 0 0
v -0.7 0.2 1
v 0.7 0.2 1
v -0.9 0.2 0.8
v -0.7 0.2 0.8
v 0.7 0.2 0.8
v 0.9 0.2 0.8
v -0.6 0.2 0.4
v -0.2 0.2 0.4
v 0.2 0.2 0.4
v 0.6 0.2 0.4
v -0.6 0.2 0
v -0.2 0.2 0
v 0.2 0.2 0
v 0.6 0.2 0
v -0.9 0.2 -0.8
v -0.7 0.2 -0.8
v 0.7 0.2 -0.8
v 0.9 0.2 -0.8
v -0.7 0.2 -1
v 0.7 0.2 -1
v -0.9 0.4 1
v -0.7 0.4 1
v 0.7 0.4 1
v 0.9 0.4 1
v -0.9 0.4 0.8
v -0.7 0.4 0.8
v 0.7 0.4 0.8
v 0.9 0.4 0.8
v -0.9 0.4 -0.8
v -0.7 0.4 -0.8
v 0.7 0.4 -0.8
v 0.9 0.4 -0.8
v -0.9 0.4 -1
v -0.7 0.4 -1
v 0.7 0.4 -1
v 0.9 0.4 -1
v -1 0.5 0.3
v -0.9 0.5 0.3
v 0.9 0.5 0.3
v 1 0.5 0.3
v -1 0.5 0
v -0.9 0.5 0
v 0.9 0.5 0
v 1 0.5 0
v -1 0.6 0.4
v -0.9 0.6 0.4
v 0.9 0.6 0.4
v 1 0.6 0.4
v -1 0.6 0.3
v -0.9 0.6 0.3
v 0.9 0.6 0.3
v 1 0.6 0.3
v -1 0.6 0
v -0.9 0.6 0
v 0.9 0.6 0
v 1 0.6 0
v -1 0.6 -0.2
v -0.9 0.6 -0.2
v 0.9 0.6 -0.2
v 1 0.6 -0.2
v -1 0.7 -0.2
v -0.9 0.7 -0.2
v 0.9 0.7 -0.2
v 1 0.7 -0.2
v -1 0.7 -0.3
v -0.9 0.7 -0.3
v 0.9 0.7 -0.3
v 1 0.7 -0.3
v -1 0.9 0.4
v -0.9 0.9 0.4
v 0.9 0.9 0.4
v 1 0.9 0.4
v -1 0.9 0.3
v -0.9 0.9 0.3
v 0.9 0.9 0.3
v 1 0.9 0.3
v -1 1 0.3
v -0.9 1 0.3
v 0.9 1 0.3
v 1 1 0.3
v -1 1 -0.3
v -0.9 1 -0.3
v 0.9 1 -0.3
v 1 1 -0.3
v -0.9 1 -0.8
v -0.7 1 -0.8
v 0.7 1 -0.8
v 0.9 1 -0.8
v -0.9 1 -1
v -0.7 1 -1
v 0.7 1 -1
v 0.9 1 -1
v -0.9 1.2 -0.7
v 0.9 1.2 -0.7
v -0.9 1.2 -0.8
v -0.7 1.2 -0.8
v 0.7 1.2 -0.8
v 0.9 1.2 -0.8
v -0.7 1.2 -1
v 0.7 1.2 -1
v -0.9 1.8 1
v -0.7 1.8 1
v 0.7 1.8 1
v 0.9 1.8 1
v -0.9 1.8 0.8
v -0.7 1.8 0.8
v 0.7 1.8 0.8
v 0.9 1.8 0.8
v -0.9 1.8 -0.5
v -0.7 1.8 -0.5
v 0.7 1.8 -0.5
v 0.9 1.8 -0.5
v -0.9 1.8 -0.7
v -0.7 1.8 -0.7
v 0.7 1.8 -0.7
v 0.9 1.8 -0.7
v -0.7 2 1
v 0.7 2 1
v -0.9 2 0.8
v -0.7 2 0.8
v 0.7 2 0.8
v 0.9 2 0.8
v -0.9 2 0.2
v -0.5 2 0.2
v 0.5 2 0.2
v 0.9 2 0.2
v -0.9 2 0
v -0.5 2 0
v 0.5 2 0
v 0.9 2 0
v -0.9 2 -0.5
v -0.7 2 -0.5
v 0.7 2 -0.5
v 0.9 2 -0.5
v -0.7 2 -0.7
v 0.7 2 -0.7
v -0.7 2.3 0.2
v -0.5 2.3 0.2
v 0.5 2.3 0.2
v 0.7 2.3 0.2
v -0.7 2.3 0
v -0.5 2.3 0
v 0.5 2.3 0
v 0.7 2.3 0
v -0.9 2.5 0.2
v -0.7 2.5 0.2
v 0.7 2.5 0.2
v 0.9 2.5 0.2
v -0.9 2.5 0
v -0.7 2.5 0
v 0.7 2.5 0
v 0.9 2.5 0

# faces
f 4/5/1 2/5/1 1/5/1
f 5/5/1 2/5/1 4/5/1
f 7/5/1 4/5/1 3/5/1
f 7/5/1 6/5/1 5/5/1
f 7/5/1 5/5/1 4/5/1
f 9/5/1 7/5/1 3/5/1
f 9/5/1 8/5/1 7/5/1
f 10/5/1 8/5/1 9/5/1
f 11/5/1 8/5/1 10/5/1
f 12/5/1 8/5/1 11/5/1
f 16/6/1 14/6/1 13/6/1
f 17/6/1 14/6/1 16/6/1
f 19/6/1 16/6/1 15/6/1
f 19/6/1 18/6/1 17/6/1
f 19/6/1 17/6/1 16/6/1
f 20/6/1 18/6/1 19/6/1
f 21/6/1 19/6/1 15/6/1
f 22/6/1 19/6/1 21/6/1
f 23/6/1 19/6/1 22/6/1
f 24/6/1 19/6/1 23/6/1
f 25/6/1 18/6/1 20/6/1
f 26/6/1 18/6/1 25/6/1
f 27/6/1 18/6/1 26/6/1
f 28/6/1 18/6/1 27/6/1
f 29/5/1 22/5/1 21/5/1
f 30/6/1 23/6/1 22/6/1
f 30/5/1 22/5/1 29/5/1
f 31/6/1 30/6/1 29/6/1
f 32/6/1 23/6/1 30/6/1
f 32/6/1 30/6/1 31/6/1
f 33/6/1 23/6/1 32/6/1
f 35/6/1 33/6/1 32/6/1
f 35/6/1 34/6/1 33/6/1
f 36/6/1 18/6/1 28/6/1
f 37/6/1 18/6/1 36/6/1
f 38/6/1 18/6/1 37/6/1
f 39/5/1 32/5/1 31/5/1
f 40/6/1 35/6/1 32/6/1
f 40/5/1 32/5/1 39/5/1
f 40/6/1 36/6/1 35/6/1
f 40/6/1 37/6/1 36/6/1
f 41/6/1 40/6/1 39/6/1
f 41/6/1 37/6/1 40/6/1
f 42/6/1 37/6/1 41/6/1
f 43/6/1 41/6/1 39/6/1
f 44/6/1 41/6/1 43/6/1
f 45/6/1 41/6/1 44/6/1
f 46/6/1 41/6/1 45/6/1
f 47/6/1 45/6/1 44/6/1
f 48/6/1 45/6/1 47/6/1
f 49/6/1 45/6/1 48/6/1
f 50/6/1 45/6/1 49/6/1
f 51/5/1 49/5/1 48/5/1
f 52/5/1 49/5/1 51/5/1
f 57/6/1 54/6/1 53/6/1
f 58/6/1 54/6/1 57/6/1
f 59/6/1 56/6/1 55/6/1
f 60/6/1 56/6/1 59/6/1
f 63/6/1 62/6/1 61/6/1
f 64/6/1 62/6/1 63/6/1
f 69/6/1 66/6/1 65/6/1
f 70/6/1 66/6/1 69/6/1
f 71/6/1 68/6/1 67/6/1
f 72/6/1 68/6/1 71/6/1
f 75/5/1 74/5/1 73/5/1
f 76/5/1 74/5/1 75/5/1
f 79/5/1 78/5/1 77/5/1
f 80/5/1 78/5/1 79/5/1
f 83/5/1 82/5/1 81/5/1
f 84/5/1 82/5/1 83/5/1
f 87/5/1 86/5/1 85/5/1
f 88/5/1 86/5/1 87/5/1
f 89/5/2 90/5/2 91/5/2
f 91/5/2 90/5/2 92/5/2
f 93/5/2 94/5/2 95/5/2
f 95/5/2 94/5/2 96/5/2
f 97/5/2 98/5/2 99/5/2
f 99/5/2 98/5/2 100/5/2
f 101/5/2 102/5/2 103/5/2
f 103/5/2 102/5/2 104/5/2
f 105/6/2 106/6/2 109/6/2
f 109/6/2 106/6/2 110/6/2
f 107/6/2 108/6/2 111/6/2
f 111/6/2 108/6/2 112/6/2
f 113/6/2 114/6/2 115/6/2
f 115/6/2 114/6/2 116/6/2
f 117/6/2 118/6/2 121/6/2
f 121/6/2 118/6/2 122/6/2
f 119/6/2 120/6/2 123/6/2
f 123/6/2 120/6/2 124/6/2
f 125/6/2 126/6/2 128/6/2
f 128/6/2 126/6/2 129/6/2
f 127/6/2 128/6/2 131/6/2
f 129/6/2 130/6/2 131/6/2
f 128/6/2 129/6/2 131/6/2
f 131/6/2 130/6/2 132/6/2
f 127/6/2 131/6/2 133/6/2
f 133/6/2 131/6/2 134/6/2
f 134/6/2 131/6/2 135/6/2
f 135/6/2 131/6/2 136/6/2
f 132/6/2 130/6/2 137/6/2
f 137/6/2 130/6/2 138/6/2
f 138/6/2 130/6/2 139/6/2
f 139/6/2 130/6/2 140/6/2
f 133/5/2 134/5/2 141/5/2
f 134/6/2 135/6/2 142/6/2
f 141/5/2 134/5/2 142/5/2
f 141/6/2 142/6/2 143/6/2
f 142/6/2 135/6/2 144/6/2
f 143/6/2 142/6/2 144/6/2
f 144/6/2 135/6/2 145/6/2
f 144/6/2 145/6/2 147/6/2
f 145/6/2 146/6/2 147/6/2
f 140/6/2 130/6/2 148/6/2
f 148/6/2 130/6/2 149/6/2
f 149/6/2 130/6/2 150/6/2
f 143/5/2 144/5/2 151/5/2
f 144/6/2 147/6/2 152/6/2
f 151/5/2 144/5/2 152/5/2
f 147/6/2 148/6/2 152/6/2
f 148/6/2 149/6/2 152/6/2
f 151/6/2 152/6/2 153/6/2
f 152/6/2 149/6/2 153/6/2
f 153/6/2 149/6/2 154/6/2
f 151/6/2 153/6/2 155/6/2
f 155/6/2 153/6/2 156/6/2
f 156/6/2 153/6/2 157/6/2
f 157/6/2 153/6/2 158/6/2
f 156/6/2 157/6/2 159/6/2
f 159/6/2 157/6/2 160/6/2
f 160/6/2 157/6/2 161/6/2
f 161/6/2 157/6/2 162/6/2
f 160/5/2 161/5/2 163/5/2
f 163/5/2 161/5/2 164/5/2
f 165/5/2 166/5/2 168/5/2
f 168/5/2 166/5/2 169/5/2
f 167/5/2 168/5/2 171/5/2
f 169/5/2 170/5/2 171/5/2
f 168/5/2 169/5/2 171/5/2
f 167/5/2 171/5/2 173/5/2
f 171/5/2 172/5/2 173/5/2
f 173/5/2 172/5/2 174/5/2
f 174/5/2 172/5/2 175/5/2
f 175/5/2 172/5/2 176/5/2
f 184/6/3 178/6/3 177/6/3
f 185/6/3 182/6/3 181/6/3
f 187/6/3 180/6/3 179/6/3
f 187/5/3 181/5/3 180/5/3
f 188/6/3 186/6/3 185/6/3
f 188/5/3 181/5/3 187/5/3
f 188/6/3 185/6/3 181/6/3
f 189/6/3 188/6/3 187/6/3
f 190/6/3 186/6/3 188/6/3
f 190/6/3 188/6/3 189/6/3
f 191/6/3 186/6/3 190/6/3
f 192/6/3 186/6/3 191/6/3
f 193/6/3 184/6/3 183/6/3
f 193/5/3 179/5/3 178/5/3
f 193/6/3 178/6/3 184/6/3
f 194/6/3 187/6/3 179/6/3
f 194/5/3 179/5/3 193/5/3
f 194/6/3 189/6/3 187/6/3
f 195/6/3 194/6/3 193/6/3
f 196/6/3 189/6/3 194/6/3
f 196/6/3 194/6/3 195/6/3
f 197/4/3 190/4/3 189/4/3
f 197/6/3 189/6/3 196/6/3
f 198/6/3 191/6/3 190/6/3
f 198/4/3 190/4/3 197/4/3
f 199/4/3 192/4/3 191/4/3
f 199/6/3 191/6/3 198/6/3
f 200/6/3 186/6/3 192/6/3
f 200/4/3 192/4/3 199/4/3
f 201/4/3 196/4/3 195/4/3
f 201/6/3 195/6/3 193/6/3
f 202/6/3 199/6/3 198/6/3
f 202/4/3 196/4/3 201/4/3
f 202/6/3 198/6/3 197/6/3
f 202/6/3 200/6/3 199/6/3
f 202/6/3 197/6/3 196/6/3
f 203/6/3 200/6/3 202/6/3
f 204/6/3 200/6/3 203/6/3
f 205/6/3 200/6/3 204/6/3
f 206/6/3 186/6/3 200/6/3
f 206/6/3 200/6/3 205/6/3
f 207/6/3 201/6/3 193/6/3
f 207/6/3 193/6/3 183/6/3
f 207/6/3 202/6/3 201/6/3
f 207/6/3 203/6/3 202/6/3
f 208/6/3 203/6/3 207/6/3
f 209/4/3 204/4/3 203/4/3
f 209/6/3 203/6/3 208/6/3
f 210/6/3 205/6/3 204/6/3
f 210/4/3 204/4/3 209/4/3
f 211/4/3 206/4/3 205/4/3
f 211/6/3 205/6/3 210/6/3
f 212/6/3 186/6/3 206/6/3
f 212/4/3 206/4/3 211/4/3
f 213/6/3 211/6/3 210/6/3
f 213/6/3 209/6/3 208/6/3
f 213/6/3 212/6/3 211/6/3
f 213/6/3 210/6/3 209/6/3
f 214/6/3 212/6/3 213/6/3
f 215/6/3 207/6/3 183/6/3
f 216/6/3 207/6/3 215/6/3
f 217/6/3 186/6/3 212/6/3
f 217/6/3 212/6/3 214/6/3
f 218/6/3 186/6/3 217/6/3
f 219/6/3 207/6/3 216/6/3
f 220/5/3 208/5/3 207/5/3
f 220/6/3 207/6/3 219/6/3
f 221/6/3 213/6/3 208/6/3
f 221/5/3 208/5/3 220/5/3
f 222/5/3 214/5/3 213/5/3
f 222/6/3 213/6/3 221/6/3
f 223/6/3 217/6/3 214/6/3
f 223/5/3 214/5/3 222/5/3
f 224/6/3 217/6/3 223/6/3
f 229/6/3 226/6/3 225/6/3
f 230/6/3 226/6/3 229/6/3
f 231/6/3 228/6/3 227/6/3
f 232/6/3 228/6/3 231/6/3
f 237/6/3 234/6/3 233/6/3
f 238/6/3 234/6/3 237/6/3
f 239/6/3 236/6/3 235/6/3
f 240/6/3 236/6/3 239/6/3
f 243/5/3 242/5/3 241/5/3
f 244/5/3 242/5/3 243/5/3
f 247/5/3 246/5/3 245/5/3
f 248/5/3 246/5/3 247/5/3
f 251/5/3 250/5/3 249/5/3
f 252/5/3 250/5/3 251/5/3
f 255/5/3 254/5/3 253/5/3
f 256/5/3 254/5/3 255/5/3
f 261/5/3 258/5/3 257/5/3
f 262/5/3 258/5/3 261/5/3
f 263/5/3 260/5/3 259/5/3
f 264/5/3 260/5/3 263/5/3
f 269/5/3 266/5/3 265/5/3
f 270/5/3 266/5/3 269/5/3
f 271/5/3 268/5/3 267/5/3
f 272/5/3 268/5/3 271/5/3
f 275/5/3 274/5/3 273/5/3
f 276/5/3 274/5/3 275/5/3
f 277/5/3 275/5/3 273/5/3
f 278/5/3 275/5/3 277/5/3
f 281/5/3 280/5/3 279/5/3
f 283/5/3 281/5/3 279/5/3
f 283/5/3 282/5/3 281/5/3
f 284/5/3 282/5/3 283/5/3
f 285/5/4 286/5/4 287/5/4
f 287/5/4 286/5/4 288/5/4
f 289/5/4 290/5/4 291/5/4
f 291/5/4 290/5/4 292/5/4
f 289/5/4 291/5/4 295/5/4
f 295/5/4 291/5/4 296/5/4
f 293/5/4 294/5/4 297/5/4
f 297/5/4 294/5/4 298/5/4
f 299/5/4 300/5/4 303/5/4
f 303/5/4 300/5/4 304/5/4
f 301/5/4 302/5/4 305/5/4
f 301/5/4 305/5/4 309/5/4
f 305/5/4 306/5/4 309/5/4
f 309/5/4 306/5/4 310/5/4
f 307/5/4 308/5/4 311/5/4
f 311/5/4 308/5/4 312/5/4
f 313/5/4 314/5/4 315/5/4
f 315/5/4 314/5/4 316/5/4
f 317/5/4 318/5/4 319/5/4
f 319/5/4 318/5/4 320/5/4
f 321/5/4 322/5/4 323/5/4
f 323/5/4 322/5/4 324/5/4
f 325/5/4 326/5/4 327/5/4
f 327/5/4 326/5/4 328/5/4
f 329/6/4 330/6/4 331/6/4
f 331/6/4 330/6/4 332/6/4
f 333/6/4 334/6/4 335/6/4
f 335/6/4 334/6/4 336/6/4
f 337/6/4 338/6/4 339/6/4
f 337/6/4 339/6/4 341/6/4
f 339/6/4 340/6/4 341/6/4
f 341/6/4 340/6/4 342/6/4
f 337/6/4 341/6/4 343/6/4
f 343/6/4 341/6/4 344/6/4
f 345/6/4 346/6/4 349/6/4
f 349/6/4 346/6/4 350/6/4
f 347/6/4 348/6/4 351/6/4
f 351/6/4 348/6/4 352/6/4
f 353/6/4 354/6/4 357/6/4
f 357/6/4 354/6/4 358/6/4
f 355/6/4 356/6/4 359/6/4
f 359/6/4 356/6/4 360/6/4
f 361/6/4 362/6/4 364/6/4
f 364/6/4 362/6/4 365/6/4
f 363/6/4 364/6/4 367/6/4
f 365/6/4 366/6/4 367/6/4
f 364/6/4 365/6/4 367/6/4
f 367/6/4 366/6/4 368/6/4
f 368/6/4 366/6/4 369/6/4
f 369/6/4 366/6/4 370/6/4
f 368/6/4 369/6/4 371/6/4
f 371/6/4 369/6/4 372/6/4
f 377/5/5 374/5/5 373/5/5
f 378/5/5 374/5/5 377/5/5
f 379/5/5 376/5/5 375/5/5
f 380/5/5 376/5/5 379/5/5
f 384/6/5 382/6/5 381/6/5
f 385/6/5 382/6/5 384/6/5
f 387/6/5 384/6/5 383/6/5
f 387/6/5 386/6/5 385/6/5
f 387/6/5 385/6/5 384/6/5
f 388/6/5 386/6/5 387/6/5
f 389/6/5 386/6/5 388/6/5
f 390/6/5 386/6/5 389/6/5
f 391/6/5 387/6/5 383/6/5
f 392/6/5 389/6/5 388/6/5
f 393/6/5 389/6/5 392/6/5
f 394/6/5 386/6/5 390/6/5
f 395/6/5 393/6/5 392/6/5
f 395/6/5 394/6/5 393/6/5
f 395/6/5 391/6/5 383/6/5
f 395/6/5 392/6/5 391/6/5
f 396/6/5 394/6/5 395/6/5
f 397/6/5 386/6/5 394/6/5
f 397/6/5 394/6/5 396/6/5
f 398/6/5 386/6/5 397/6/5
f 399/6/5 397/6/5 396/6/5
f 400/6/5 397/6/5 399/6/5
f 405/6/5 402/6/5 401/6/5
f 406/6/5 402/6/5 405/6/5
f 407/6/5 404/6/5 403/6/5
f 408/6/5 404/6/5 407/6/5
f 413/6/5 410/6/5 409/6/5
f 414/6/5 410/6/5 413/6/5
f 415/6/5 412/6/5 411/6/5
f 416/6/5 412/6/5 415/6/5
f 421/5/5 418/5/5 417/5/5
f 422/5/5 418/5/5 421/5/5
f 423/5/5 420/5/5 419/5/5
f 424/5/5 420/5/5 423/5/5
f 429/5/5 426/5/5 425/5/5
f 430/5/5 426/5/5 429/5/5
f 431/5/5 428/5/5 427/5/5
f 432/5/5 428/5/5 431/5/5
f 437/5/5 434/5/5 433/5/5
f 438/5/5 434/5/5 437/5/5
f 439/5/5 436/5/5 435/5/5
f 440/5/5 436/5/5 439/5/5
f 445/5/5 442/5/5 441/5/5
f 446/5/5 442/5/5 445/5/5
f 447/5/5 444/5/5 443/5/5
f 448/5/5 444/5/5 447/5/5
f 449/5/6 450/5/6 453/5/6
f 453/5/6 450/5/6 454/5/6
f 451/5/6 452/5/6 455/5/6
f 455/5/6 452/5/6 456/5/6
f 457/5/6 458/5/6 461/5/6
f 461/5/6 458/5/6 462/5/6
f 459/5/6 460/5/6 463/5/6
f 463/5/6 460/5/6 464/5/6
f 465/6/6 466/6/6 469/6/6
f 469/6/6 466/6/6 470/6/6
f 467/6/6 468/6/6 471/6/6
f 471/6/6 468/6/6 472/6/6
f 473/6/6 474/6/6 475/6/6
f 475/6/6 474/6/6 476/6/6
f 476/6/6 474/6/6 477/6/6
f 477/6/6 474/6/6 478/6/6
f 476/6/6 477/6/6 479/6/6
f 479/6/6 477/6/6 480/6/6
f 481/6/6 482/6/6 485/6/6
f 485/6/6 482/6/6 486/6/6
f 483/6/6 484/6/6 487/6/6
f 487/6/6 484/6/6 488/6/6
f 489/6/6 490/6/6 493/6/6
f 493/6/6 490/6/6 494/6/6
f 491/6/6 492/6/6 495/6/6
f 495/6/6 492/6/6 496/6/6
f 497/6/6 498/6/6 500/6/6
f 500/6/6 498/6/6 501/6/6
f 499/6/6 500/6/6 503/6/6
f 501/6/6 502/6/6 503/6/6
f 500/6/6 501/6/6 503/6/6
f 503/6/6 502/6/6 504/6/6
f 504/6/6 502/6/6 505/6/6
f 505/6/6 502/6/6 506/6/6
f 504/6/6 505/6/6 508/6/6
f 508/6/6 505/6/6 509/6/6
f 507/6/6 508/6/6 511/6/6
f 509/6/6 510/6/6 511/6/6
f 508/6/6 509/6/6 511/6/6
f 511/6/6 510/6/6 512/6/6
f 512/6/6 510/6/6 513/6/6
f 513/6/6 510/6/6 514/6/6
f 512/6/6 513/6/6 515/6/6
f 515/6/6 513/6/6 516/6/6
f 517/5/6 518/5/6 521/5/6
f 521/5/6 518/5/6 522/5/6
f 519/5/6 520/5/6 523/5/6
f 523/5/6 520/5/6 524/5/6
f 525/5/6 526/5/6 529/5/6
f 529/5/6 526/5/6 530/5/6
f 527/5/6 528/5/6 531/5/6
f 531/5/6 528/5/6 532/5/6
