# MagicaVoxel @ Ephtracy

# group
o 

# material
mtllib michael.mtl
usemtl palette

# normals
vn -1 0 0
vn 1 0 0
vn 0 0 1
vn 0 0 -1
vn 0 -1 0
vn 0 1 0

# texcoords
vt 0.517578 0.5
vt 0.556641 0.5
vt 0.958984 0.5
vt 0.962891 0.5
vt 0.966797 0.5
vt 0.970703 0.5
vt 0.974609 0.5
vt 0.978516 0.5
vt 0.982422 0.5
vt 0.990234 0.5

# verts
v -1 0.2 0.8
v -1 0.2 -0.8
v -1 0.4 1.2
v -1 0.4 1
v -1 0.4 0.8
v -1 0.4 -0.8
v -1 0.4 -1
v -1 0.5 1.2
v -1 0.5 1.1
v -1 0.6 1.1
v -1 0.6 1
v -1 1.7 1
v -1 1.7 0.8
v -1 1.8 -0.8
v -1 1.8 -1
v -1 2 0.8
v -1 2 -0.8
v -0.9 1.7 1
v -0.9 1.7 0.8
v -0.9 1.8 1
v -0.9 1.8 0.8
v -0.8 0 0.8
v -0.8 0 0.4
v -0.8 0 -0.4
v -0.8 0 -0.8
v -0.8 0 -1
v -0.8 0 -1.1
v -0.8 0.2 1.2
v -0.8 0.2 1
v -0.8 0.2 0.8
v -0.8 0.2 0.4
v -0.8 0.2 -0.4
v -0.8 0.2 -0.8
v -0.8 0.2 -1
v -0.8 0.4 1.2
v -0.8 0.4 1
v -0.8 0.4 0.8
v -0.8 0.4 -0.8
v -0.8 0.4 -1
v -0.8 0.8 -1
v -0.8 0.8 -1.1
v -0.8 1.8 1
v -0.8 1.8 0.8
v -0.8 1.8 -0.8
v -0.8 1.8 -1
v -0.8 2 1
v -0.8 2 0.8
v -0.8 2 -0.8
v -0.8 2 -1
v -0.7 0.8 -1
v -0.7 0.8 -1.1
v -0.7 1.1 -1
v -0.7 1.1 -1.1
v -0.6 1.1 -1
v -0.6 1.1 -1.1
v -0.6 1.5 -1
v -0.6 1.5 -1.1
v -0.5 2.3 0.3
v -0.5 2.3 -0.3
v -0.5 2.5 0.3
v -0.5 2.5 -0.3
v -0.4 2.3 0.4
v -0.4 2.3 0.3
v -0.4 2.3 -0.3
v -0.4 2.3 -0.4
v -0.4 2.5 0.4
v -0.4 2.5 0.3
v -0.4 2.5 -0.3
v -0.4 2.5 -0.4
v -0.3 1.7 1.1
v -0.3 1.7 1
v -0.3 1.9 1.1
v -0.3 1.9 1
v -0.3 2.3 0.5
v -0.3 2.3 0.4
v -0.3 2.3 -0.4
v -0.3 2.3 -0.5
v -0.3 2.5 0.5
v -0.3 2.5 0.4
v -0.3 2.5 -0.4
v -0.3 2.5 -0.5
v -0.2 1.7 1.2
v -0.2 1.7 1.1
v -0.2 1.9 1.2
v -0.2 1.9 1.1
v -0.1 1.5 1.1
v -0.1 1.5 1
v -0.1 1.6 1.2
v -0.1 1.6 1.1
v -0.1 1.7 1.2
v -0.1 1.7 1
v -0.1 1.9 1.2
v -0.1 1.9 1
v -0.1 2 1.2
v -0.1 2 1.1
v -0.1 2 1
v -0.1 2.1 1.1
v -0.1 2.1 1
v 0.1 0 -1
v 0.1 0 -1.1
v 0.1 0.2 -1
v 0.1 1.5 -1
v 0.1 1.5 -1.1
v 0.1 2.3 0.3
v 0.1 2.3 0.2
v 0.1 2.3 -0.2
v 0.1 2.3 -0.3
v 0.1 2.5 0.3
v 0.1 2.5 0.2
v 0.1 2.5 -0.2
v 0.1 2.5 -0.3
v 0.2 2.3 0.2
v 0.2 2.3 0.1
v 0.2 2.3 -0.0999999
v 0.2 2.3 -0.2
v 0.2 2.5 0.2
v 0.2 2.5 0.1
v 0.2 2.5 -0.0999999
v 0.2 2.5 -0.2
v 0.3 2.3 0.1
v 0.3 2.3 -0.0999999
v 0.3 2.5 0.1
v 0.3 2.5 -0.0999999
v 0.4 0 0.8
v 0.4 0 0.4
v 0.4 0 -0.4
v 0.4 0 -0.8
v 0.4 0.2 0.8
v 0.4 0.2 0.4
v 0.4 0.2 -0.4
v 0.4 0.2 -0.8
v 0.6 0.2 1.1
v 0.6 0.2 1
v 0.6 0.4 1.1
v 0.6 0.4 1
v 0.7 0.2 1.2
v 0.7 0.2 1.1
v 0.7 0.4 1.1
v 0.7 0.4 1
v 0.7 0.5 1.2
v 0.7 0.5 1
v 0.8 0.5 1.1
v 0.8 0.5 1
v 0.8 0.6 1.1
v 0.8 0.6 1
v -0.8 0.5 1.1
v -0.8 0.5 1
v -0.8 0.6 1.1
v -0.8 0.6 1
v -0.7 0.2 1.2
v -0.7 0.2 1.1
v -0.7 0.4 1.1
v -0.7 0.4 1
v -0.7 0.5 1.2
v -0.7 0.5 1
v -0.6 0.2 1.1
v -0.6 0.2 1
v -0.6 0.4 1.1
v -0.6 0.4 1
v -0.4 0 0.8
v -0.4 0 0.4
v -0.4 0 -0.4
v -0.4 0 -0.8
v -0.4 0.2 0.8
v -0.4 0.2 0.4
v -0.4 0.2 -0.4
v -0.4 0.2 -0.8
v -0.3 2.3 0.1
v -0.3 2.3 -0.0999999
v -0.3 2.5 0.1
v -0.3 2.5 -0.0999999
v -0.2 2.3 0.2
v -0.2 2.3 0.1
v -0.2 2.3 -0.0999999
v -0.2 2.3 -0.2
v -0.2 2.5 0.2
v -0.2 2.5 0.1
v -0.2 2.5 -0.0999999
v -0.2 2.5 -0.2
v -0.1 0 -1
v -0.1 0 -1.1
v -0.1 0.2 -1
v -0.1 1.5 -1
v -0.1 1.5 -1.1
v -0.1 2.3 0.3
v -0.1 2.3 0.2
v -0.1 2.3 -0.2
v -0.1 2.3 -0.3
v -0.1 2.5 0.3
v -0.1 2.5 0.2
v -0.1 2.5 -0.2
v -0.1 2.5 -0.3
v 0.1 1.5 1.1
v 0.1 1.5 1
v 0.1 1.6 1.2
v 0.1 1.6 1.1
v 0.1 1.7 1.2
v 0.1 1.7 1
v 0.1 1.9 1.2
v 0.1 1.9 1
v 0.1 2 1.2
v 0.1 2 1.1
v 0.1 2 1
v 0.1 2.1 1.1
v 0.1 2.1 1
v 0.2 1.7 1.2
v 0.2 1.7 1.1
v 0.2 1.9 1.2
v 0.2 1.9 1.1
v 0.3 1.7 1.1
v 0.3 1.7 1
v 0.3 1.9 1.1
v 0.3 1.9 1
v 0.3 2.3 0.5
v 0.3 2.3 0.4
v 0.3 2.3 -0.4
v 0.3 2.3 -0.5
v 0.3 2.5 0.5
v 0.3 2.5 0.4
v 0.3 2.5 -0.4
v 0.3 2.5 -0.5
v 0.4 2.3 0.4
v 0.4 2.3 0.3
v 0.4 2.3 -0.3
v 0.4 2.3 -0.4
v 0.4 2.5 0.4
v 0.4 2.5 0.3
v 0.4 2.5 -0.3
v 0.4 2.5 -0.4
v 0.5 2.3 0.3
v 0.5 2.3 -0.3
v 0.5 2.5 0.3
v 0.5 2.5 -0.3
v 0.6 1.1 -1
v 0.6 1.1 -1.1
v 0.6 1.5 -1
v 0.6 1.5 -1.1
v 0.7 0.8 -1
v 0.7 0.8 -1.1
v 0.7 1.1 -1
v 0.7 1.1 -1.1
v 0.8 0 0.8
v 0.8 0 0.4
v 0.8 0 -0.4
v 0.8 0 -0.8
v 0.8 0 -1
v 0.8 0 -1.1
v 0.8 0.2 1.2
v 0.8 0.2 1
v 0.8 0.2 0.8
v 0.8 0.2 0.4
v 0.8 0.2 -0.4
v 0.8 0.2 -0.8
v 0.8 0.2 -1
v 0.8 0.4 1.2
v 0.8 0.4 1
v 0.8 0.4 0.8
v 0.8 0.4 -0.8
v 0.8 0.4 -1
v 0.8 0.8 -1
v 0.8 0.8 -1.1
v 0.8 1.8 1
v 0.8 1.8 0.8
v 0.8 1.8 -0.8
v 0.8 1.8 -1
v 0.8 2 1
v 0.8 2 0.8
v 0.8 2 -0.8
v 0.8 2 -1
v 0.9 1.7 1
v 0.9 1.7 0.8
v 0.9 1.8 1
v 0.9 1.8 0.8
v 1 0.2 0.8
v 1 0.2 -0.8
v 1 0.4 1.2
v 1 0.4 1
v 1 0.4 0.8
v 1 0.4 -0.8
v 1 0.4 -1
v 1 0.5 1.2
v 1 0.5 1.1
v 1 0.6 1.1
v 1 0.6 1
v 1 1.7 1
v 1 1.7 0.8
v 1 1.8 -0.8
v 1 1.8 -1
v 1 2 0.8
v 1 2 -0.8
v -1 0.4 1.2
v -1 0.5 1.2
v -0.8 0.2 1.2
v -0.8 0.4 1.2
v -0.7 0.2 1.2
v -0.7 0.5 1.2
v -0.2 1.7 1.2
v -0.2 1.9 1.2
v -0.1 1.6 1.2
v -0.1 1.7 1.2
v -0.1 1.9 1.2
v -0.1 2 1.2
v 0.1 1.6 1.2
v 0.1 1.7 1.2
v 0.1 1.9 1.2
v 0.1 2 1.2
v 0.2 1.7 1.2
v 0.2 1.9 1.2
v 0.7 0.2 1.2
v 0.7 0.5 1.2
v 0.8 0.2 1.2
v 0.8 0.4 1.2
v 1 0.4 1.2
v 1 0.5 1.2
v -1 0.5 1.1
v -1 0.6 1.1
v -0.8 0.5 1.1
v -0.8 0.6 1.1
v -0.7 0.2 1.1
v -0.7 0.4 1.1
v -0.6 0.2 1.1
v -0.6 0.4 1.1
v -0.3 1.7 1.1
v -0.3 1.9 1.1
v -0.2 1.7 1.1
v -0.2 1.9 1.1
v -0.1 1.5 1.1
v -0.1 1.6 1.1
v -0.1 2 1.1
v -0.1 2.1 1.1
v 0.1 1.5 1.1
v 0.1 1.6 1.1
v 0.1 2 1.1
v 0.1 2.1 1.1
v 0.2 1.7 1.1
v 0.2 1.9 1.1
v 0.3 1.7 1.1
v 0.3 1.9 1.1
v 0.6 0.2 1.1
v 0.6 0.4 1.1
v 0.7 0.2 1.1
v 0.7 0.4 1.1
v 0.8 0.5 1.1
v 0.8 0.6 1.1
v 1 0.5 1.1
v 1 0.6 1.1
v -1 0.6 1
v -1 1.7 1
v -0.9 1.7 1
v -0.9 1.8 1
v -0.8 0.5 1
v -0.8 0.6 1
v -0.8 1.8 1
v -0.8 2 1
v -0.7 0.4 1
v -0.7 0.5 1
v -0.6 0.2 1
v -0.6 0.4 1
v -0.6 1 1
v -0.6 1.4 1
v -0.6 1.5 1
v -0.6 1.6 1
v -0.3 1 1
v -0.3 1.4 1
v -0.3 1.5 1
v -0.3 1.6 1
v -0.3 1.7 1
v -0.3 1.9 1
v -0.2 0.6 1
v -0.2 0.7 1
v -0.1 1.5 1
v -0.1 1.7 1
v -0.1 1.9 1
v -0.1 2 1
v 0.1 1.5 1
v 0.1 1.7 1
v 0.1 1.9 1
v 0.1 2 1
v 0.2 0.6 1
v 0.2 0.7 1
v 0.3 1 1
v 0.3 1.4 1
v 0.3 1.5 1
v 0.3 1.6 1
v 0.3 1.7 1
v 0.3 1.9 1
v 0.6 0.2 1
v 0.6 0.4 1
v 0.6 1 1
v 0.6 1.4 1
v 0.6 1.5 1
v 0.6 1.6 1
v 0.7 0.4 1
v 0.7 0.5 1
v 0.8 0.5 1
v 0.8 0.6 1
v 0.8 1.8 1
v 0.8 2 1
v 0.9 1.7 1
v 0.9 1.8 1
v 1 0.6 1
v 1 1.7 1
v -1 0.2 0.8
v -1 0.4 0.8
v -1 1.7 0.8
v -1 2 0.8
v -0.9 1.7 0.8
v -0.9 1.8 0.8
v -0.8 0 0.8
v -0.8 0.2 0.8
v -0.8 0.4 0.8
v -0.8 1.8 0.8
v -0.8 2 0.8
v -0.4 0 0.8
v -0.4 0.2 0.8
v 0.4 0 0.8
v 0.4 0.2 0.8
v 0.8 0 0.8
v 0.8 0.2 0.8
v 0.8 0.4 0.8
v 0.8 1.8 0.8
v 0.8 2 0.8
v 0.9 1.7 0.8
v 0.9 1.8 0.8
v 1 0.2 0.8
v 1 0.4 0.8
v 1 1.7 0.8
v 1 2 0.8
v -0.3 2.3 0.5
v -0.3 2.5 0.5
v 0.3 2.3 0.5
v 0.3 2.5 0.5
v -0.4 2.3 0.4
v -0.4 2.5 0.4
v -0.3 2.3 0.4
v -0.3 2.5 0.4
v 0.3 2.3 0.4
v 0.3 2.5 0.4
v 0.4 2.3 0.4
v 0.4 2.5 0.4
v -0.5 2.3 0.3
v -0.5 2.5 0.3
v -0.4 2.3 0.3
v -0.4 2.5 0.3
v 0.4 2.3 0.3
v 0.4 2.5 0.3
v 0.5 2.3 0.3
v 0.5 2.5 0.3
v -0.3 2.3 -0.0999999
v -0.3 2.5 -0.0999999
v -0.2 2.3 -0.0999999
v -0.2 2.5 -0.0999999
v 0.2 2.3 -0.0999999
v 0.2 2.5 -0.0999999
v 0.3 2.3 -0.0999999
v 0.3 2.5 -0.0999999
v -0.2 2.3 -0.2
v -0.2 2.5 -0.2
v -0.1 2.3 -0.2
v -0.1 2.5 -0.2
v 0.1 2.3 -0.2
v 0.1 2.5 -0.2
v 0.2 2.3 -0.2
v 0.2 2.5 -0.2
v -0.1 2.3 -0.3
v -0.1 2.5 -0.3
v 0.1 2.3 -0.3
v 0.1 2.5 -0.3
v -0.8 0 -0.4
v -0.8 0.2 -0.4
v -0.4 0 -0.4
v -0.4 0.2 -0.4
v 0.4 0 -0.4
v 0.4 0.2 -0.4
v 0.8 0 -0.4
v 0.8 0.2 -0.4
v -0.8 0 -1
v -0.8 0.2 -1
v -0.7 0.1 -1
v -0.7 0.2 -1
v -0.2 0.1 -1
v -0.2 0.2 -1
v -0.1 0 -1
v -0.1 0.2 -1
v 0.1 0 -1
v 0.1 0.2 -1
v 0.2 0.1 -1
v 0.2 0.2 -1
v 0.7 0.1 -1
v 0.7 0.2 -1
v 0.8 0 -1
v 0.8 0.2 -1
v -0.1 2 1
v -0.1 2.1 1
v 0.1 2 1
v 0.1 2.1 1
v -0.8 0 0.4
v -0.8 0.2 0.4
v -0.4 0 0.4
v -0.4 0.2 0.4
v 0.4 0 0.4
v 0.4 0.2 0.4
v 0.8 0 0.4
v 0.8 0.2 0.4
v -0.1 2.3 0.3
v -0.1 2.5 0.3
v 0.1 2.3 0.3
v 0.1 2.5 0.3
v -0.2 2.3 0.2
v -0.2 2.5 0.2
v -0.1 2.3 0.2
v -0.1 2.5 0.2
v 0.1 2.3 0.2
v 0.1 2.5 0.2
v 0.2 2.3 0.2
v 0.2 2.5 0.2
v -0.3 2.3 0.1
v -0.3 2.5 0.1
v -0.2 2.3 0.1
v -0.2 2.5 0.1
v 0.2 2.3 0.1
v 0.2 2.5 0.1
v 0.3 2.3 0.1
v 0.3 2.5 0.1
v -0.5 2.3 -0.3
v -0.5 2.5 -0.3
v -0.4 2.3 -0.3
v -0.4 2.5 -0.3
v 0.4 2.3 -0.3
v 0.4 2.5 -0.3
v 0.5 2.3 -0.3
v 0.5 2.5 -0.3
v -0.4 2.3 -0.4
v -0.4 2.5 -0.4
v -0.3 2.3 -0.4
v -0.3 2.5 -0.4
v 0.3 2.3 -0.4
v 0.3 2.5 -0.4
v 0.4 2.3 -0.4
v 0.4 2.5 -0.4
v -0.3 2.3 -0.5
v -0.3 2.5 -0.5
v 0.3 2.3 -0.5
v 0.3 2.5 -0.5
v -1 0.2 -0.8
v -1 0.4 -0.8
v -1 1.8 -0.8
v -1 2 -0.8
v -0.8 0 -0.8
v -0.8 0.2 -0.8
v -0.8 0.4 -0.8
v -0.8 1.8 -0.8
v -0.8 2 -0.8
v -0.4 0 -0.8
v -0.4 0.2 -0.8
v 0.4 0 -0.8
v 0.4 0.2 -0.8
v 0.8 0 -0.8
v 0.8 0.2 -0.8
v 0.8 0.4 -0.8
v 0.8 1.8 -0.8
v 0.8 2 -0.8
v 1 0.2 -0.8
v 1 0.4 -0.8
v 1 1.8 -0.8
v 1 2 -0.8
v -1 0.4 -1
v -1 1.8 -1
v -0.8 0.4 -1
v -0.8 0.8 -1
v -0.8 1.8 -1
v -0.8 2 -1
v -0.7 0.8 -1
v -0.7 1.1 -1
v -0.6 1.1 -1
v -0.6 1.5 -1
v -0.1 0.2 -1
v -0.1 1.5 -1
v 0.1 0.2 -1
v 0.1 1.5 -1
v 0.6 1.1 -1
v 0.6 1.5 -1
v 0.7 0.8 -1
v 0.7 1.1 -1
v 0.8 0.4 -1
v 0.8 0.8 -1
v 0.8 1.8 -1
v 0.8 2 -1
v 1 0.4 -1
v 1 1.8 -1
v -0.8 0 -1.1
v -0.8 0.8 -1.1
v -0.7 0.1 -1.1
v -0.7 0.8 -1.1
v -0.7 1.1 -1.1
v -0.6 0.5 -1.1
v -0.6 0.6 -1.1
v -0.6 0.8 -1.1
v -0.6 1.1 -1.1
v -0.6 1.5 -1.1
v -0.5 0.3 -1.1
v -0.5 0.5 -1.1
v -0.5 0.6 -1.1
v -0.5 0.7 -1.1
v -0.5 1.1 -1.1
v -0.5 1.4 -1.1
v -0.4 0.3 -1.1
v -0.4 0.5 -1.1
v -0.4 0.6 -1.1
v -0.4 0.7 -1.1
v -0.3 0.5 -1.1
v -0.3 0.6 -1.1
v -0.2 0.1 -1.1
v -0.2 1.4 -1.1
v -0.1 0 -1.1
v -0.1 1.5 -1.1
v 0.1 0 -1.1
v 0.1 1.5 -1.1
v 0.2 0.1 -1.1
v 0.2 1.4 -1.1
v 0.3 0.5 -1.1
v 0.3 0.6 -1.1
v 0.4 0.3 -1.1
v 0.4 0.5 -1.1
v 0.4 0.6 -1.1
v 0.4 0.7 -1.1
v 0.5 0.3 -1.1
v 0.5 0.5 -1.1
v 0.5 0.6 -1.1
v 0.5 0.7 -1.1
v 0.5 1.1 -1.1
v 0.5 1.4 -1.1
v 0.6 0.5 -1.1
v 0.6 0.6 -1.1
v 0.6 0.8 -1.1
v 0.6 1.1 -1.1
v 0.6 1.5 -1.1
v 0.7 0.1 -1.1
v 0.7 0.8 -1.1
v 0.7 1.1 -1.1
v 0.8 0 -1.1
v 0.8 0.8 -1.1
v -0.8 0 0.8
v -0.4 0 0.8
v 0.4 0 0.8
v 0.8 0 0.8
v -0.8 0 0.4
v -0.4 0 0.4
v 0.4 0 0.4
v 0.8 0 0.4
v -0.8 0 -0.4
v -0.4 0 -0.4
v 0.4 0 -0.4
v 0.8 0 -0.4
v -0.8 0 -0.8
v -0.4 0 -0.8
v 0.4 0 -0.8
v 0.8 0 -0.8
v -0.8 0 -1
v -0.1 0 -1
v 0.1 0 -1
v 0.8 0 -1
v -0.8 0 -1.1
v -0.1 0 -1.1
v 0.1 0 -1.1
v 0.8 0 -1.1
v -0.8 0.2 1.2
v -0.7 0.2 1.2
v 0.7 0.2 1.2
v 0.8 0.2 1.2
v -0.7 0.2 1.1
v -0.6 0.2 1.1
v 0.6 0.2 1.1
v 0.7 0.2 1.1
v -0.8 0.2 1
v -0.6 0.2 1
v 0.6 0.2 1
v 0.8 0.2 1
v -1 0.2 0.8
v -0.8 0.2 0.8
v -0.4 0.2 0.8
v 0.4 0.2 0.8
v 0.8 0.2 0.8
v 1 0.2 0.8
v -0.8 0.2 0.4
v -0.4 0.2 0.4
v 0.4 0.2 0.4
v 0.8 0.2 0.4
v -0.8 0.2 -0.4
v -0.4 0.2 -0.4
v 0.4 0.2 -0.4
v 0.8 0.2 -0.4
v -1 0.2 -0.8
v -0.8 0.2 -0.8
v -0.4 0.2 -0.8
v 0.4 0.2 -0.8
v 0.8 0.2 -0.8
v 1 0.2 -0.8
v -0.8 0.2 -1
v -0.7 0.2 -1
v -0.2 0.2 -1
v -0.1 0.2 -1
v 0.1 0.2 -1
v 0.2 0.2 -1
v 0.7 0.2 -1
v 0.8 0.2 -1
v -1 0.4 1.2
v -0.8 0.4 1.2
v 0.8 0.4 1.2
v 1 0.4 1.2
v -1 0.4 1
v -0.8 0.4 1
v 0.8 0.4 1
v 1 0.4 1
v -1 0.4 0.8
v -0.8 0.4 0.8
v 0.8 0.4 0.8
v 1 0.4 0.8
v -1 0.4 -0.8
v -0.8 0.4 -0.8
v 0.8 0.4 -0.8
v 1 0.4 -0.8
v -1 0.4 -1
v -0.8 0.4 -1
v 0.8 0.4 -1
v 1 0.4 -1
v -0.1 1.5 1.1
v 0.1 1.5 1.1
v -0.1 1.5 1
v 0.1 1.5 1
v -0.1 1.6 1.2
v 0.1 1.6 1.2
v -0.1 1.6 1.1
v 0.1 1.6 1.1
v -0.2 1.7 1.2
v -0.1 1.7 1.2
v 0.1 1.7 1.2
v 0.2 1.7 1.2
v -0.3 1.7 1.1
v -0.2 1.7 1.1
v 0.2 1.7 1.1
v 0.3 1.7 1.1
v -0.3 1.7 1
v -0.1 1.7 1
v 0.1 1.7 1
v 0.3 1.7 1
v -0.3 2.3 0.5
v 0.3 2.3 0.5
v -0.4 2.3 0.4
v -0.3 2.3 0.4
v 0.3 2.3 0.4
v 0.4 2.3 0.4
v -0.5 2.3 0.3
v -0.4 2.3 0.3
v -0.1 2.3 0.3
v 0.1 2.3 0.3
v 0.4 2.3 0.3
v 0.5 2.3 0.3
v -0.2 2.3 0.2
v -0.1 2.3 0.2
v 0.1 2.3 0.2
v 0.2 2.3 0.2
v -0.3 2.3 0.1
v -0.2 2.3 0.1
v 0.2 2.3 0.1
v 0.3 2.3 0.1
v -0.3 2.3 -0.0999999
v -0.2 2.3 -0.0999999
v 0.2 2.3 -0.0999999
v 0.3 2.3 -0.0999999
v -0.2 2.3 -0.2
v -0.1 2.3 -0.2
v 0.1 2.3 -0.2
v 0.2 2.3 -0.2
v -0.5 2.3 -0.3
v -0.4 2.3 -0.3
v -0.1 2.3 -0.3
v 0.1 2.3 -0.3
v 0.4 2.3 -0.3
v 0.5 2.3 -0.3
v -0.4 2.3 -0.4
v -0.3 2.3 -0.4
v 0.3 2.3 -0.4
v 0.4 2.3 -0.4
v -0.3 2.3 -0.5
v 0.3 2.3 -0.5
v -0.7 0.4 1.1
v -0.6 0.4 1.1
v 0.6 0.4 1.1
v 0.7 0.4 1.1
v -0.7 0.4 1
v -0.6 0.4 1
v 0.6 0.4 1
v 0.7 0.4 1
v -1 0.5 1.2
v -0.7 0.5 1.2
v 0.7 0.5 1.2
v 1 0.5 1.2
v -1 0.5 1.1
v -0.8 0.5 1.1
v 0.8 0.5 1.1
v 1 0.5 1.1
v -0.8 0.5 1
v -0.7 0.5 1
v 0.7 0.5 1
v 0.8 0.5 1
v -1 0.6 1.1
v -0.8 0.6 1.1
v 0.8 0.6 1.1
v 1 0.6 1.1
v -1 0.6 1
v -0.8 0.6 1
v 0.8 0.6 1
v 1 0.6 1
v -0.8 0.8 -1
v -0.7 0.8 -1
v 0.7 0.8 -1
v 0.8 0.8 -1
v -0.8 0.8 -1.1
v -0.7 0.8 -1.1
v 0.7 0.8 -1.1
v 0.8 0.8 -1.1
v -0.7 1.1 -1
v -0.6 1.1 -1
v 0.6 1.1 -1
v 0.7 1.1 -1
v -0.7 1.1 -1.1
v -0.6 1.1 -1.1
v 0.6 1.1 -1.1
v 0.7 1.1 -1.1
v -0.6 1.5 -1
v -0.1 1.5 -1
v 0.1 1.5 -1
v 0.6 1.5 -1
v -0.6 1.5 -1.1
v -0.1 1.5 -1.1
v 0.1 1.5 -1.1
v 0.6 1.5 -1.1
v -1 1.7 1
v -0.9 1.7 1
v 0.9 1.7 1
v 1 1.7 1
v -1 1.7 0.8
v -0.9 1.7 0.8
v 0.9 1.7 0.8
v 1 1.7 0.8
v -0.9 1.8 1
v -0.8 1.8 1
v 0.8 1.8 1
v 0.9 1.8 1
v -0.9 1.8 0.8
v -0.8 1.8 0.8
v 0.8 1.8 0.8
v 0.9 1.8 0.8
v -1 1.8 -0.8
v -0.8 1.8 -0.8
v 0.8 1.8 -0.8
v 1 1.8 -0.8
v -1 1.8 -1
v -0.8 1.8 -1
v 0.8 1.8 -1
v 1 1.8 -1
v -0.2 1.9 1.2
v -0.1 1.9 1.2
v 0.1 1.9 1.2
v 0.2 1.9 1.2
v -0.3 1.9 1.1
v -0.2 1.9 1.1
v 0.2 1.9 1.1
v 0.3 1.9 1.1
v -0.3 1.9 1
v -0.1 1.9 1
v 0.1 1.9 1
v 0.3 1.9 1
v -0.1 2 1.2
v 0.1 2 1.2
v -0.1 2 1.1
v 0.1 2 1.1
v -0.8 2 1
v -0.1 2 1
v 0.1 2 1
v 0.8 2 1
v -1 2 0.8
v -0.8 2 0.8
v 0.8 2 0.8
v 1 2 0.8
v -1 2 -0.8
v -0.8 2 -0.8
v 0.8 2 -0.8
v 1 2 -0.8
v -0.8 2 -1
v 0.8 2 -1
v -0.1 2.1 1.1
v 0.1 2.1 1.1
v -0.1 2.1 1
v 0.1 2.1 1
v -0.3 2.5 0.5
v 0.3 2.5 0.5
v -0.4 2.5 0.4
v -0.3 2.5 0.4
v 0.3 2.5 0.4
v 0.4 2.5 0.4
v -0.5 2.5 0.3
v -0.4 2.5 0.3
v -0.1 2.5 0.3
v 0.1 2.5 0.3
v 0.4 2.5 0.3
v 0.5 2.5 0.3
v -0.2 2.5 0.2
v -0.1 2.5 0.2
v 0.1 2.5 0.2
v 0.2 2.5 0.2
v -0.3 2.5 0.1
v -0.2 2.5 0.1
v 0.2 2.5 0.1
v 0.3 2.5 0.1
v -0.3 2.5 -0.0999999
v -0.2 2.5 -0.0999999
v 0.2 2.5 -0.0999999
v 0.3 2.5 -0.0999999
v -0.2 2.5 -0.2
v -0.1 2.5 -0.2
v 0.1 2.5 -0.2
v 0.2 2.5 -0.2
v -0.5 2.5 -0.3
v -0.4 2.5 -0.3
v -0.1 2.5 -0.3
v 0.1 2.5 -0.3
v 0.4 2.5 -0.3
v 0.5 2.5 -0.3
v -0.4 2.5 -0.4
v -0.3 2.5 -0.4
v 0.3 2.5 -0.4
v 0.4 2.5 -0.4
v -0.3 2.5 -0.5
v 0.3 2.5 -0.5

# faces
f 5/7/1 2/7/1 1/7/1
f 6/7/1 2/7/1 5/7/1
f 8/6/1 4/6/1 3/6/1
f 9/6/1 4/6/1 8/6/1
f 10/6/1 4/6/1 9/6/1
f 11/7/1 7/7/1 6/7/1
f 11/6/1 4/6/1 10/6/1
f 11/7/1 5/7/1 4/7/1
f 11/7/1 6/7/1 5/7/1
f 12/7/1 7/7/1 11/7/1
f 13/7/1 7/7/1 12/7/1
f 14/7/1 7/7/1 13/7/1
f 15/7/1 7/7/1 14/7/1
f 16/7/1 14/7/1 13/7/1
f 17/7/1 14/7/1 16/7/1
f 20/7/1 19/7/1 18/7/1
f 21/7/1 19/7/1 20/7/1
f 30/7/1 23/7/1 22/7/1
f 31/7/1 23/7/1 30/7/1
f 32/7/1 25/7/1 24/7/1
f 33/7/1 25/7/1 32/7/1
f 34/6/1 27/6/1 26/6/1
f 35/6/1 29/6/1 28/6/1
f 36/7/1 30/7/1 29/7/1
f 36/6/1 29/6/1 35/6/1
f 37/7/1 30/7/1 36/7/1
f 38/7/1 34/7/1 33/7/1
f 39/6/1 27/6/1 34/6/1
f 39/7/1 34/7/1 38/7/1
f 40/6/1 27/6/1 39/6/1
f 41/6/1 27/6/1 40/6/1
f 46/7/1 43/7/1 42/7/1
f 47/7/1 43/7/1 46/7/1
f 48/7/1 45/7/1 44/7/1
f 49/7/1 45/7/1 48/7/1
f 52/6/1 51/6/1 50/6/1
f 53/6/1 51/6/1 52/6/1
f 56/6/1 55/6/1 54/6/1
f 57/6/1 55/6/1 56/6/1
f 60/6/1 59/6/1 58/6/1
f 61/6/1 59/6/1 60/6/1
f 66/6/1 63/6/1 62/6/1
f 67/6/1 63/6/1 66/6/1
f 68/6/1 65/6/1 64/6/1
f 69/6/1 65/6/1 68/6/1
f 72/6/1 71/6/1 70/6/1
f 73/6/1 71/6/1 72/6/1
f 78/6/1 75/6/1 74/6/1
f 79/6/1 75/6/1 78/6/1
f 80/6/1 77/6/1 76/6/1
f 81/6/1 77/6/1 80/6/1
f 84/6/1 83/6/1 82/6/1
f 85/6/1 83/6/1 84/6/1
f 89/6/1 87/6/1 86/6/1
f 90/6/1 89/6/1 88/6/1
f 91/6/1 87/6/1 89/6/1
f 91/6/1 89/6/1 90/6/1
f 94/6/1 93/6/1 92/6/1
f 95/6/1 93/6/1 94/6/1
f 96/6/1 93/6/1 95/6/1
f 97/6/1 96/6/1 95/6/1
f 98/6/1 96/6/1 97/6/1
f 101/6/1 100/6/1 99/6/1
f 102/6/1 100/6/1 101/6/1
f 103/6/1 100/6/1 102/6/1
f 108/6/1 105/6/1 104/6/1
f 109/6/1 105/6/1 108/6/1
f 110/6/1 107/6/1 106/6/1
f 111/6/1 107/6/1 110/6/1
f 116/6/1 113/6/1 112/6/1
f 117/6/1 113/6/1 116/6/1
f 118/6/1 115/6/1 114/6/1
f 119/6/1 115/6/1 118/6/1
f 122/6/1 121/6/1 120/6/1
f 123/6/1 121/6/1 122/6/1
f 128/7/1 125/7/1 124/7/1
f 129/7/1 125/7/1 128/7/1
f 130/7/1 127/7/1 126/7/1
f 131/7/1 127/7/1 130/7/1
f 134/6/1 133/6/1 132/6/1
f 135/6/1 133/6/1 134/6/1
f 138/6/1 137/6/1 136/6/1
f 140/6/1 138/6/1 136/6/1
f 140/6/1 139/6/1 138/6/1
f 141/6/1 139/6/1 140/6/1
f 144/6/1 143/6/1 142/6/1
f 145/6/1 143/6/1 144/6/1
f 146/6/2 147/6/2 148/6/2
f 148/6/2 147/6/2 149/6/2
f 150/6/2 151/6/2 152/6/2
f 150/6/2 152/6/2 154/6/2
f 152/6/2 153/6/2 154/6/2
f 154/6/2 153/6/2 155/6/2
f 156/6/2 157/6/2 158/6/2
f 158/6/2 157/6/2 159/6/2
f 160/7/2 161/7/2 164/7/2
f 164/7/2 161/7/2 165/7/2
f 162/7/2 163/7/2 166/7/2
f 166/7/2 163/7/2 167/7/2
f 168/6/2 169/6/2 170/6/2
f 170/6/2 169/6/2 171/6/2
f 172/6/2 173/6/2 176/6/2
f 176/6/2 173/6/2 177/6/2
f 174/6/2 175/6/2 178/6/2
f 178/6/2 175/6/2 179/6/2
f 180/6/2 181/6/2 182/6/2
f 182/6/2 181/6/2 183/6/2
f 183/6/2 181/6/2 184/6/2
f 185/6/2 186/6/2 189/6/2
f 189/6/2 186/6/2 190/6/2
f 187/6/2 188/6/2 191/6/2
f 191/6/2 188/6/2 192/6/2
f 193/6/2 194/6/2 196/6/2
f 195/6/2 196/6/2 197/6/2
f 196/6/2 194/6/2 198/6/2
f 197/6/2 196/6/2 198/6/2
f 199/6/2 200/6/2 201/6/2
f 201/6/2 200/6/2 202/6/2
f 202/6/2 200/6/2 203/6/2
f 202/6/2 203/6/2 204/6/2
f 204/6/2 203/6/2 205/6/2
f 206/6/2 207/6/2 208/6/2
f 208/6/2 207/6/2 209/6/2
f 210/6/2 211/6/2 212/6/2
f 212/6/2 211/6/2 213/6/2
f 214/6/2 215/6/2 218/6/2
f 218/6/2 215/6/2 219/6/2
f 216/6/2 217/6/2 220/6/2
f 220/6/2 217/6/2 221/6/2
f 222/6/2 223/6/2 226/6/2
f 226/6/2 223/6/2 227/6/2
f 224/6/2 225/6/2 228/6/2
f 228/6/2 225/6/2 229/6/2
f 230/6/2 231/6/2 232/6/2
f 232/6/2 231/6/2 233/6/2
f 234/6/2 235/6/2 236/6/2
f 236/6/2 235/6/2 237/6/2
f 238/6/2 239/6/2 240/6/2
f 240/6/2 239/6/2 241/6/2
f 242/7/2 243/7/2 250/7/2
f 250/7/2 243/7/2 251/7/2
f 244/7/2 245/7/2 252/7/2
f 252/7/2 245/7/2 253/7/2
f 246/6/2 247/6/2 254/6/2
f 248/6/2 249/6/2 255/6/2
f 249/7/2 250/7/2 256/7/2
f 255/6/2 249/6/2 256/6/2
f 256/7/2 250/7/2 257/7/2
f 253/7/2 254/7/2 258/7/2
f 254/6/2 247/6/2 259/6/2
f 258/7/2 254/7/2 259/7/2
f 259/6/2 247/6/2 260/6/2
f 260/6/2 247/6/2 261/6/2
f 262/7/2 263/7/2 266/7/2
f 266/7/2 263/7/2 267/7/2
f 264/7/2 265/7/2 268/7/2
f 268/7/2 265/7/2 269/7/2
f 270/7/2 271/7/2 272/7/2
f 272/7/2 271/7/2 273/7/2
f 274/7/2 275/7/2 278/7/2
f 278/7/2 275/7/2 279/7/2
f 276/6/2 277/6/2 281/6/2
f 281/6/2 277/6/2 282/6/2
f 282/6/2 277/6/2 283/6/2
f 279/7/2 280/7/2 284/7/2
f 283/6/2 277/6/2 284/6/2
f 277/7/2 278/7/2 284/7/2
f 278/7/2 279/7/2 284/7/2
f 284/7/2 280/7/2 285/7/2
f 285/7/2 280/7/2 286/7/2
f 286/7/2 280/7/2 287/7/2
f 287/7/2 280/7/2 288/7/2
f 286/7/2 287/7/2 289/7/2
f 289/7/2 287/7/2 290/7/2
f 294/6/3 292/6/3 291/6/3
f 295/6/3 294/6/3 293/6/3
f 296/6/3 292/6/3 294/6/3
f 296/6/3 294/6/3 295/6/3
f 300/6/3 298/6/3 297/6/3
f 301/6/3 298/6/3 300/6/3
f 303/6/3 300/6/3 299/6/3
f 304/9/3 301/9/3 300/9/3
f 304/6/3 300/6/3 303/6/3
f 305/6/3 302/6/3 301/6/3
f 305/9/3 301/9/3 304/9/3
f 306/6/3 302/6/3 305/6/3
f 307/6/3 305/6/3 304/6/3
f 308/6/3 305/6/3 307/6/3
f 311/6/3 310/6/3 309/6/3
f 312/6/3 310/6/3 311/6/3
f 313/6/3 310/6/3 312/6/3
f 314/6/3 310/6/3 313/6/3
f 317/6/3 316/6/3 315/6/3
f 318/6/3 316/6/3 317/6/3
f 321/6/3 320/6/3 319/6/3
f 322/6/3 320/6/3 321/6/3
f 325/6/3 324/6/3 323/6/3
f 326/6/3 324/6/3 325/6/3
f 331/6/3 328/6/3 327/6/3
f 332/6/3 328/6/3 331/6/3
f 333/6/3 330/6/3 329/6/3
f 334/6/3 330/6/3 333/6/3
f 337/6/3 336/6/3 335/6/3
f 338/6/3 336/6/3 337/6/3
f 341/6/3 340/6/3 339/6/3
f 342/6/3 340/6/3 341/6/3
f 345/6/3 344/6/3 343/6/3
f 346/6/3 344/6/3 345/6/3
f 349/7/3 348/7/3 347/7/3
f 352/7/3 349/7/3 347/7/3
f 352/7/3 350/7/3 349/7/3
f 353/7/3 350/7/3 352/7/3
f 356/7/3 352/7/3 351/7/3
f 356/7/3 354/7/3 353/7/3
f 356/7/3 353/7/3 352/7/3
f 358/7/3 356/7/3 355/7/3
f 359/7/3 354/7/3 356/7/3
f 359/7/3 356/7/3 358/7/3
f 360/7/3 354/7/3 359/7/3
f 361/7/3 354/7/3 360/7/3
f 362/7/3 354/7/3 361/7/3
f 363/7/3 358/7/3 357/7/3
f 363/7/3 359/7/3 358/7/3
f 363/8/3 360/8/3 359/8/3
f 364/7/3 361/7/3 360/7/3
f 364/8/3 360/8/3 363/8/3
f 365/8/3 362/8/3 361/8/3
f 365/7/3 361/7/3 364/7/3
f 366/7/3 354/7/3 362/7/3
f 366/8/3 362/8/3 365/8/3
f 367/7/3 354/7/3 366/7/3
f 368/7/3 354/7/3 367/7/3
f 369/7/3 365/7/3 364/7/3
f 369/7/3 364/7/3 363/7/3
f 369/7/3 367/7/3 366/7/3
f 369/7/3 366/7/3 365/7/3
f 369/7/3 363/7/3 357/7/3
f 370/7/3 367/7/3 369/7/3
f 371/7/3 367/7/3 370/7/3
f 372/7/3 367/7/3 371/7/3
f 373/7/3 354/7/3 368/7/3
f 374/7/3 354/7/3 373/7/3
f 375/7/3 371/7/3 370/7/3
f 379/7/3 369/7/3 357/7/3
f 379/8/3 370/8/3 369/8/3
f 380/7/3 376/7/3 375/7/3
f 380/8/3 370/8/3 379/8/3
f 380/7/3 375/7/3 370/7/3
f 381/7/3 380/7/3 379/7/3
f 381/7/3 376/7/3 380/7/3
f 382/7/3 376/7/3 381/7/3
f 383/7/3 376/7/3 382/7/3
f 384/7/3 376/7/3 383/7/3
f 385/7/3 376/7/3 384/7/3
f 386/7/3 378/7/3 377/7/3
f 387/7/3 379/7/3 357/7/3
f 387/7/3 381/7/3 379/7/3
f 388/7/3 381/7/3 387/7/3
f 389/8/3 382/8/3 381/8/3
f 389/7/3 381/7/3 388/7/3
f 390/7/3 383/7/3 382/7/3
f 390/8/3 382/8/3 389/8/3
f 391/8/3 384/8/3 383/8/3
f 391/7/3 383/7/3 390/7/3
f 392/7/3 385/7/3 384/7/3
f 392/8/3 384/8/3 391/8/3
f 392/7/3 386/7/3 385/7/3
f 393/7/3 391/7/3 390/7/3
f 393/7/3 392/7/3 391/7/3
f 393/7/3 389/7/3 388/7/3
f 393/7/3 390/7/3 389/7/3
f 394/7/3 392/7/3 393/7/3
f 395/7/3 392/7/3 394/7/3
f 396/7/3 392/7/3 395/7/3
f 397/7/3 386/7/3 392/7/3
f 397/7/3 392/7/3 396/7/3
f 398/7/3 378/7/3 386/7/3
f 398/7/3 386/7/3 397/7/3
f 399/7/3 397/7/3 396/7/3
f 400/7/3 397/7/3 399/7/3
f 401/7/3 399/7/3 396/7/3
f 402/7/3 399/7/3 401/7/3
f 407/7/3 406/7/3 405/7/3
f 408/7/3 406/7/3 407/7/3
f 410/7/3 404/7/3 403/7/3
f 411/7/3 404/7/3 410/7/3
f 412/7/3 406/7/3 408/7/3
f 413/7/3 406/7/3 412/7/3
f 414/7/3 410/7/3 409/7/3
f 415/7/3 410/7/3 414/7/3
f 418/7/3 417/7/3 416/7/3
f 419/7/3 417/7/3 418/7/3
f 424/7/3 422/7/3 421/7/3
f 425/7/3 420/7/3 419/7/3
f 426/7/3 420/7/3 425/7/3
f 427/7/3 424/7/3 423/7/3
f 428/7/3 422/7/3 424/7/3
f 428/7/3 424/7/3 427/7/3
f 431/6/3 430/6/3 429/6/3
f 432/6/3 430/6/3 431/6/3
f 435/6/3 434/6/3 433/6/3
f 436/6/3 434/6/3 435/6/3
f 439/6/3 438/6/3 437/6/3
f 440/6/3 438/6/3 439/6/3
f 443/6/3 442/6/3 441/6/3
f 444/6/3 442/6/3 443/6/3
f 447/6/3 446/6/3 445/6/3
f 448/6/3 446/6/3 447/6/3
f 451/6/3 450/6/3 449/6/3
f 452/6/3 450/6/3 451/6/3
f 455/6/3 454/6/3 453/6/3
f 456/6/3 454/6/3 455/6/3
f 459/6/3 458/6/3 457/6/3
f 460/6/3 458/6/3 459/6/3
f 463/6/3 462/6/3 461/6/3
f 464/6/3 462/6/3 463/6/3
f 467/6/3 466/6/3 465/6/3
f 468/6/3 466/6/3 467/6/3
f 471/7/3 470/7/3 469/7/3
f 472/7/3 470/7/3 471/7/3
f 475/7/3 474/7/3 473/7/3
f 476/7/3 474/7/3 475/7/3
f 479/6/3 478/6/3 477/6/3
f 480/6/3 478/6/3 479/6/3
f 481/6/3 479/6/3 477/6/3
f 481/9/3 480/9/3 479/9/3
f 482/9/3 480/9/3 481/9/3
f 483/6/3 481/6/3 477/6/3
f 483/6/3 482/6/3 481/6/3
f 484/6/3 482/6/3 483/6/3
f 487/6/3 486/6/3 485/6/3
f 488/6/3 486/6/3 487/6/3
f 489/6/3 487/6/3 485/6/3
f 489/9/3 488/9/3 487/9/3
f 490/9/3 488/9/3 489/9/3
f 491/6/3 489/6/3 485/6/3
f 491/6/3 490/6/3 489/6/3
f 492/6/3 490/6/3 491/6/3
f 493/6/4 494/6/4 495/6/4
f 495/6/4 494/6/4 496/6/4
f 497/7/4 498/7/4 499/7/4
f 499/7/4 498/7/4 500/7/4
f 501/7/4 502/7/4 503/7/4
f 503/7/4 502/7/4 504/7/4
f 505/6/4 506/6/4 507/6/4
f 507/6/4 506/6/4 508/6/4
f 509/6/4 510/6/4 511/6/4
f 511/6/4 510/6/4 512/6/4
f 513/6/4 514/6/4 515/6/4
f 515/6/4 514/6/4 516/6/4
f 517/6/4 518/6/4 519/6/4
f 519/6/4 518/6/4 520/6/4
f 521/6/4 522/6/4 523/6/4
f 523/6/4 522/6/4 524/6/4
f 525/6/4 526/6/4 527/6/4
f 527/6/4 526/6/4 528/6/4
f 529/6/4 530/6/4 531/6/4
f 531/6/4 530/6/4 532/6/4
f 533/6/4 534/6/4 535/6/4
f 535/6/4 534/6/4 536/6/4
f 537/6/4 538/6/4 539/6/4
f 539/6/4 538/6/4 540/6/4
f 541/6/4 542/6/4 543/6/4
f 543/6/4 542/6/4 544/6/4
f 545/7/4 546/7/4 550/7/4
f 550/7/4 546/7/4 551/7/4
f 547/7/4 548/7/4 552/7/4
f 552/7/4 548/7/4 553/7/4
f 549/7/4 550/7/4 554/7/4
f 554/7/4 550/7/4 555/7/4
f 556/7/4 557/7/4 558/7/4
f 558/7/4 557/7/4 559/7/4
f 559/7/4 560/7/4 563/7/4
f 563/7/4 560/7/4 564/7/4
f 561/7/4 562/7/4 565/7/4
f 565/7/4 562/7/4 566/7/4
f 567/7/4 568/7/4 569/7/4
f 569/7/4 568/7/4 570/7/4
f 570/7/4 568/7/4 571/7/4
f 571/7/4 572/7/4 573/7/4
f 570/7/4 571/7/4 573/7/4
f 573/7/4 572/7/4 574/7/4
f 574/7/4 572/7/4 575/7/4
f 575/7/4 572/7/4 576/7/4
f 576/7/4 572/7/4 578/7/4
f 577/7/4 578/7/4 579/7/4
f 578/7/4 572/7/4 580/7/4
f 579/7/4 578/7/4 580/7/4
f 580/7/4 572/7/4 582/7/4
f 581/7/4 582/7/4 584/7/4
f 583/7/4 584/7/4 586/7/4
f 582/7/4 572/7/4 587/7/4
f 584/7/4 582/7/4 587/7/4
f 586/7/4 584/7/4 587/7/4
f 587/7/4 572/7/4 588/7/4
f 585/7/4 586/7/4 589/7/4
f 586/7/4 587/7/4 589/7/4
f 589/7/4 587/7/4 590/7/4
f 591/6/4 592/6/4 593/6/4
f 593/6/4 592/6/4 594/6/4
f 593/9/4 594/9/4 596/9/4
f 596/9/4 594/9/4 597/9/4
f 594/6/4 595/6/4 598/6/4
f 597/9/4 594/9/4 598/9/4
f 598/6/4 595/6/4 599/6/4
f 593/9/4 596/9/4 601/9/4
f 596/6/4 597/6/4 602/6/4
f 601/9/4 596/9/4 602/9/4
f 597/9/4 598/9/4 603/9/4
f 602/6/4 597/6/4 603/6/4
f 598/9/4 599/9/4 603/9/4
f 603/9/4 599/9/4 604/9/4
f 599/6/4 600/6/4 605/6/4
f 604/9/4 599/9/4 605/9/4
f 605/6/4 600/6/4 606/6/4
f 593/9/4 601/9/4 607/9/4
f 603/6/4 604/6/4 607/6/4
f 601/6/4 602/6/4 607/6/4
f 602/6/4 603/6/4 607/6/4
f 607/6/4 604/6/4 608/6/4
f 608/6/4 604/6/4 609/6/4
f 605/9/4 606/9/4 610/9/4
f 609/6/4 604/6/4 610/6/4
f 604/9/4 605/9/4 610/9/4
f 608/6/4 609/6/4 611/6/4
f 607/9/4 608/9/4 611/9/4
f 609/9/4 610/9/4 612/9/4
f 611/6/4 609/6/4 612/6/4
f 591/6/4 593/6/4 613/6/4
f 607/9/4 611/9/4 613/9/4
f 611/9/4 612/9/4 613/9/4
f 593/9/4 607/9/4 613/9/4
f 612/9/4 610/9/4 614/9/4
f 613/9/4 612/9/4 614/9/4
f 606/6/4 600/6/4 614/6/4
f 610/9/4 606/9/4 614/9/4
f 591/6/4 613/6/4 615/6/4
f 613/6/4 614/6/4 615/6/4
f 614/6/4 600/6/4 616/6/4
f 615/6/4 614/6/4 616/6/4
f 617/6/4 618/6/4 619/6/4
f 619/6/4 618/6/4 620/6/4
f 619/9/4 620/9/4 621/9/4
f 621/9/4 620/9/4 622/9/4
f 619/9/4 621/9/4 623/9/4
f 621/6/4 622/6/4 624/6/4
f 623/9/4 621/9/4 624/9/4
f 622/9/4 620/9/4 625/9/4
f 624/6/4 622/6/4 625/6/4
f 625/9/4 620/9/4 626/9/4
f 623/6/4 624/6/4 627/6/4
f 619/9/4 623/9/4 627/9/4
f 625/6/4 626/6/4 627/6/4
f 624/6/4 625/6/4 627/6/4
f 627/6/4 626/6/4 628/6/4
f 628/6/4 626/6/4 629/6/4
f 626/9/4 620/9/4 630/9/4
f 629/6/4 626/6/4 630/6/4
f 630/9/4 620/9/4 631/9/4
f 620/6/4 618/6/4 632/6/4
f 631/9/4 620/9/4 632/9/4
f 628/6/4 629/6/4 633/6/4
f 627/9/4 628/9/4 633/9/4
f 630/9/4 631/9/4 634/9/4
f 633/6/4 629/6/4 634/6/4
f 629/9/4 630/9/4 634/9/4
f 634/9/4 631/9/4 635/9/4
f 631/6/4 632/6/4 636/6/4
f 635/9/4 631/9/4 636/9/4
f 632/6/4 618/6/4 637/6/4
f 636/6/4 632/6/4 637/6/4
f 617/6/4 619/6/4 638/6/4
f 627/9/4 633/9/4 638/9/4
f 633/9/4 634/9/4 638/9/4
f 634/9/4 635/9/4 638/9/4
f 619/9/4 627/9/4 638/9/4
f 635/6/4 636/6/4 639/6/4
f 638/9/4 635/9/4 639/9/4
f 639/6/4 636/6/4 640/6/4
f 617/6/4 638/6/4 641/6/4
f 638/6/4 639/6/4 641/6/4
f 641/6/4 639/6/4 642/6/4
f 647/7/5 644/7/5 643/7/5
f 648/7/5 644/7/5 647/7/5
f 649/7/5 646/7/5 645/7/5
f 650/7/5 646/7/5 649/7/5
f 655/7/5 652/7/5 651/7/5
f 656/7/5 652/7/5 655/7/5
f 657/7/5 654/7/5 653/7/5
f 658/7/5 654/7/5 657/7/5
f 663/6/5 660/6/5 659/6/5
f 664/6/5 660/6/5 663/6/5
f 665/6/5 662/6/5 661/6/5
f 666/6/5 662/6/5 665/6/5
f 671/6/5 668/6/5 667/6/5
f 674/6/5 670/6/5 669/6/5
f 675/6/5 672/6/5 671/6/5
f 675/6/5 671/6/5 667/6/5
f 676/6/5 672/6/5 675/6/5
f 677/6/5 674/6/5 673/6/5
f 678/6/5 670/6/5 674/6/5
f 678/6/5 674/6/5 677/6/5
f 680/7/5 676/7/5 675/7/5
f 680/7/5 677/7/5 676/7/5
f 680/7/5 678/7/5 677/7/5
f 681/7/5 678/7/5 680/7/5
f 682/7/5 678/7/5 681/7/5
f 683/7/5 678/7/5 682/7/5
f 685/7/5 680/7/5 679/7/5
f 686/7/5 682/7/5 681/7/5
f 687/7/5 682/7/5 686/7/5
f 688/7/5 684/7/5 683/7/5
f 689/7/5 687/7/5 686/7/5
f 689/7/5 688/7/5 687/7/5
f 689/7/5 685/7/5 679/7/5
f 689/7/5 686/7/5 685/7/5
f 690/7/5 688/7/5 689/7/5
f 691/7/5 688/7/5 690/7/5
f 692/7/5 684/7/5 688/7/5
f 692/7/5 688/7/5 691/7/5
f 693/7/5 689/7/5 679/7/5
f 694/7/5 689/7/5 693/7/5
f 695/7/5 691/7/5 690/7/5
f 696/7/5 691/7/5 695/7/5
f 697/7/5 684/7/5 692/7/5
f 698/7/5 684/7/5 697/7/5
f 699/7/5 696/7/5 695/7/5
f 699/7/5 697/7/5 696/7/5
f 699/7/5 695/7/5 694/7/5
f 700/7/5 697/7/5 699/7/5
f 701/7/5 697/7/5 700/7/5
f 702/7/5 697/7/5 701/7/5
f 703/7/5 697/7/5 702/7/5
f 704/7/5 697/7/5 703/7/5
f 705/7/5 697/7/5 704/7/5
f 706/7/5 697/7/5 705/7/5
f 711/6/5 708/6/5 707/6/5
f 712/6/5 708/6/5 711/6/5
f 713/6/5 710/6/5 709/6/5
f 714/6/5 710/6/5 713/6/5
f 715/7/5 712/7/5 711/7/5
f 716/7/5 712/7/5 715/7/5
f 717/7/5 714/7/5 713/7/5
f 718/7/5 714/7/5 717/7/5
f 723/7/5 720/7/5 719/7/5
f 724/7/5 720/7/5 723/7/5
f 725/7/5 722/7/5 721/7/5
f 726/7/5 722/7/5 725/7/5
f 729/6/5 728/6/5 727/6/5
f 730/6/5 728/6/5 729/6/5
f 733/6/5 732/6/5 731/6/5
f 734/6/5 732/6/5 733/6/5
f 740/6/5 736/6/5 735/6/5
f 741/6/5 738/6/5 737/6/5
f 743/6/5 740/6/5 739/6/5
f 744/6/5 736/6/5 740/6/5
f 744/6/5 740/6/5 743/6/5
f 745/6/5 742/6/5 741/6/5
f 745/6/5 741/6/5 737/6/5
f 746/6/5 742/6/5 745/6/5
f 750/6/5 748/6/5 747/6/5
f 751/6/5 748/6/5 750/6/5
f 754/6/5 750/6/5 749/6/5
f 754/6/5 752/6/5 751/6/5
f 754/6/5 751/6/5 750/6/5
f 755/6/5 752/6/5 754/6/5
f 756/6/5 752/6/5 755/6/5
f 757/6/5 752/6/5 756/6/5
f 759/6/5 754/6/5 753/6/5
f 759/6/5 755/6/5 754/6/5
f 760/6/5 755/6/5 759/6/5
f 761/6/5 758/6/5 757/6/5
f 761/6/5 757/6/5 756/6/5
f 762/6/5 758/6/5 761/6/5
f 763/6/5 759/6/5 753/6/5
f 764/6/5 759/6/5 763/6/5
f 765/6/5 758/6/5 762/6/5
f 766/6/5 758/6/5 765/6/5
f 767/6/5 763/6/5 753/6/5
f 770/6/5 758/6/5 766/6/5
f 771/6/5 768/6/5 767/6/5
f 774/6/5 770/6/5 769/6/5
f 775/6/5 772/6/5 771/6/5
f 775/6/5 767/6/5 753/6/5
f 775/6/5 771/6/5 767/6/5
f 776/6/5 772/6/5 775/6/5
f 777/6/5 772/6/5 776/6/5
f 778/6/5 774/6/5 773/6/5
f 779/6/5 770/6/5 774/6/5
f 779/6/5 758/6/5 770/6/5
f 779/6/5 774/6/5 778/6/5
f 780/6/5 758/6/5 779/6/5
f 781/6/5 777/6/5 776/6/5
f 781/6/5 778/6/5 777/6/5
f 781/6/5 779/6/5 778/6/5
f 782/6/5 779/6/5 781/6/5
f 783/6/5 779/6/5 782/6/5
f 784/6/5 779/6/5 783/6/5
f 785/6/5 783/6/5 782/6/5
f 786/6/5 783/6/5 785/6/5
f 787/6/6 788/6/6 791/6/6
f 791/6/6 788/6/6 792/6/6
f 789/6/6 790/6/6 793/6/6
f 793/6/6 790/6/6 794/6/6
f 795/6/6 796/6/6 799/6/6
f 799/6/6 796/6/6 800/6/6
f 797/6/6 798/6/6 801/6/6
f 801/6/6 798/6/6 802/6/6
f 800/6/6 796/6/6 803/6/6
f 803/6/6 796/6/6 804/6/6
f 797/6/6 801/6/6 805/6/6
f 805/6/6 801/6/6 806/6/6
f 807/6/6 808/6/6 811/6/6
f 811/6/6 808/6/6 812/6/6
f 809/6/6 810/6/6 813/6/6
f 813/6/6 810/6/6 814/6/6
f 815/6/6 816/6/6 819/6/6
f 819/6/6 816/6/6 820/6/6
f 817/6/6 818/6/6 821/6/6
f 821/6/6 818/6/6 822/6/6
f 823/6/6 824/6/6 827/6/6
f 827/6/6 824/6/6 828/6/6
f 825/6/6 826/6/6 829/6/6
f 829/6/6 826/6/6 830/6/6
f 831/6/6 832/6/6 835/6/6
f 835/6/6 832/6/6 836/6/6
f 833/6/6 834/6/6 837/6/6
f 837/6/6 834/6/6 838/6/6
f 839/7/6 840/7/6 843/7/6
f 843/7/6 840/7/6 844/7/6
f 841/7/6 842/7/6 845/7/6
f 845/7/6 842/7/6 846/7/6
f 847/7/6 848/7/6 851/7/6
f 851/7/6 848/7/6 852/7/6
f 849/7/6 850/7/6 853/7/6
f 853/7/6 850/7/6 854/7/6
f 855/7/6 856/7/6 859/7/6
f 859/7/6 856/7/6 860/7/6
f 857/7/6 858/7/6 861/7/6
f 861/7/6 858/7/6 862/7/6
f 863/6/6 864/6/6 868/6/6
f 865/6/6 866/6/6 869/6/6
f 867/6/6 868/6/6 871/6/6
f 868/6/6 864/6/6 872/6/6
f 871/6/6 868/6/6 872/6/6
f 869/6/6 870/6/6 873/6/6
f 865/6/6 869/6/6 873/6/6
f 873/6/6 870/6/6 874/6/6
f 875/6/6 876/6/6 877/6/6
f 877/6/6 876/6/6 878/6/6
f 880/7/6 881/7/6 884/7/6
f 881/7/6 882/7/6 884/7/6
f 879/7/6 880/7/6 884/7/6
f 884/7/6 882/7/6 885/7/6
f 883/7/6 884/7/6 887/7/6
f 885/7/6 886/7/6 887/7/6
f 884/7/6 885/7/6 887/7/6
f 887/7/6 886/7/6 888/7/6
f 888/7/6 886/7/6 889/7/6
f 889/7/6 886/7/6 890/7/6
f 888/7/6 889/7/6 891/7/6
f 891/7/6 889/7/6 892/7/6
f 893/6/6 894/6/6 895/6/6
f 895/6/6 894/6/6 896/6/6
f 897/6/6 898/6/6 900/6/6
f 900/6/6 898/6/6 901/6/6
f 899/6/6 900/6/6 904/6/6
f 901/6/6 902/6/6 904/6/6
f 900/6/6 901/6/6 904/6/6
f 904/6/6 902/6/6 905/6/6
f 905/6/6 902/6/6 906/6/6
f 906/6/6 902/6/6 907/6/6
f 903/6/6 904/6/6 909/6/6
f 904/6/6 905/6/6 909/6/6
f 909/6/6 905/6/6 910/6/6
f 907/6/6 908/6/6 911/6/6
f 906/6/6 907/6/6 911/6/6
f 911/6/6 908/6/6 912/6/6
f 903/6/6 909/6/6 913/6/6
f 913/6/6 909/6/6 914/6/6
f 912/6/6 908/6/6 915/6/6
f 915/6/6 908/6/6 916/6/6
f 903/6/6 913/6/6 917/6/6
f 916/6/6 908/6/6 920/6/6
f 917/6/6 918/6/6 921/6/6
f 919/6/6 920/6/6 924/6/6
f 921/6/6 922/6/6 925/6/6
f 903/6/6 917/6/6 925/6/6
f 917/6/6 921/6/6 925/6/6
f 925/6/6 922/6/6 926/6/6
f 926/6/6 922/6/6 927/6/6
f 923/6/6 924/6/6 928/6/6
f 924/6/6 920/6/6 929/6/6
f 920/6/6 908/6/6 929/6/6
f 928/6/6 924/6/6 929/6/6
f 929/6/6 908/6/6 930/6/6
f 926/6/6 927/6/6 931/6/6
f 927/6/6 928/6/6 931/6/6
f 928/6/6 929/6/6 931/6/6
f 931/6/6 929/6/6 932/6/6
f 932/6/6 929/6/6 933/6/6
f 933/6/6 929/6/6 934/6/6
f 932/6/6 933/6/6 935/6/6
f 935/6/6 933/6/6 936/6/6
