# MagicaVoxel @ Ephtracy

# group
o 

# material
mtllib wing.mtl
usemtl palette

# normals
vn -1 0 0
vn 1 0 0
vn 0 0 1
vn 0 0 -1
vn 0 -1 0
vn 0 1 0

# texcoords
vt 0.970703 0.5
vt 0.974609 0.5
vt 0.978516 0.5

# verts
v -0.6 0.3 0.1
v -0.6 0.3 0
v -0.6 0.4 0.1
v -0.6 0.4 0
v -0.5 0.2 0.1
v -0.5 0.2 0
v -0.5 0.3 0.1
v -0.5 0.3 0
v -0.3 0 0.3
v -0.3 0 -0.3
v -0.3 0.2 0.1
v -0.3 0.2 0
v -0.3 0.4 0.1
v -0.3 0.4 0
v -0.3 0.6 0.3
v -0.3 0.6 -0.3
v 0.3 0 0.3
v 0.3 0 -0.3
v 0.3 0.2 0.1
v 0.3 0.2 0
v 0.3 0.4 0.1
v 0.3 0.4 0
v 0.3 0.6 0.3
v 0.3 0.6 -0.3
v 0.5 0.2 0.1
v 0.5 0.2 0
v 0.5 0.3 0.1
v 0.5 0.3 0
v 0.6 0.3 0.1
v 0.6 0.3 0
v 0.6 0.4 0.1
v 0.6 0.4 0
v -0.3 0 0.3
v -0.3 0.6 0.3
v -0.1 0.2 0.3
v -0.1 0.4 0.3
v 0.1 0.2 0.3
v 0.1 0.4 0.3
v 0.3 0 0.3
v 0.3 0.6 0.3
v -0.6 0.3 0.1
v -0.6 0.4 0.1
v -0.5 0.2 0.1
v -0.5 0.3 0.1
v -0.3 0.2 0.1
v -0.3 0.4 0.1
v 0.3 0.2 0.1
v 0.3 0.4 0.1
v 0.5 0.2 0.1
v 0.5 0.3 0.1
v 0.6 0.3 0.1
v 0.6 0.4 0.1
v -0.6 0.3 0
v -0.6 0.4 0
v -0.5 0.2 0
v -0.5 0.3 0
v -0.3 0.2 0
v -0.3 0.4 0
v 0.3 0.2 0
v 0.3 0.4 0
v 0.5 0.2 0
v 0.5 0.3 0
v 0.6 0.3 0
v 0.6 0.4 0
v -0.3 0 -0.3
v -0.3 0.6 -0.3
v 0.3 0 -0.3
v 0.3 0.6 -0.3
v -0.3 0 0.3
v 0.3 0 0.3
v -0.3 0 -0.3
v 0.3 0 -0.3
v -0.5 0.2 0.1
v -0.3 0.2 0.1
v 0.3 0.2 0.1
v 0.5 0.2 0.1
v -0.5 0.2 0
v -0.3 0.2 0
v 0.3 0.2 0
v 0.5 0.2 0
v -0.6 0.3 0.1
v -0.5 0.3 0.1
v 0.5 0.3 0.1
v 0.6 0.3 0.1
v -0.6 0.3 0
v -0.5 0.3 0
v 0.5 0.3 0
v 0.6 0.3 0
v -0.6 0.4 0.1
v -0.3 0.4 0.1
v 0.3 0.4 0.1
v 0.6 0.4 0.1
v -0.6 0.4 0
v -0.3 0.4 0
v 0.3 0.4 0
v 0.6 0.4 0
v -0.3 0.6 0.3
v 0.3 0.6 0.3
v -0.3 0.6 -0.3
v 0.3 0.6 -0.3

# faces
f 3/2/1 2/2/1 1/2/1
f 4/2/1 2/2/1 3/2/1
f 7/2/1 6/2/1 5/2/1
f 8/2/1 6/2/1 7/2/1
f 11/3/1 10/3/1 9/3/1
f 12/3/1 10/3/1 11/3/1
f 13/3/1 11/3/1 9/3/1
f 14/3/1 10/3/1 12/3/1
f 15/3/1 13/3/1 9/3/1
f 15/3/1 14/3/1 13/3/1
f 16/3/1 10/3/1 14/3/1
f 16/3/1 14/3/1 15/3/1
f 17/3/2 18/3/2 19/3/2
f 19/3/2 18/3/2 20/3/2
f 17/3/2 19/3/2 21/3/2
f 20/3/2 18/3/2 22/3/2
f 17/3/2 21/3/2 23/3/2
f 21/3/2 22/3/2 23/3/2
f 22/3/2 18/3/2 24/3/2
f 23/3/2 22/3/2 24/3/2
f 25/2/2 26/2/2 27/2/2
f 27/2/2 26/2/2 28/2/2
f 29/2/2 30/2/2 31/2/2
f 31/2/2 30/2/2 32/2/2
f 35/3/3 34/3/3 33/3/3
f 36/3/3 34/3/3 35/3/3
f 37/3/3 35/3/3 33/3/3
f 37/1/3 36/1/3 35/1/3
f 38/3/3 34/3/3 36/3/3
f 38/1/3 36/1/3 37/1/3
f 39/3/3 37/3/3 33/3/3
f 39/3/3 38/3/3 37/3/3
f 40/3/3 34/3/3 38/3/3
f 40/3/3 38/3/3 39/3/3
f 44/2/3 42/2/3 41/2/3
f 45/2/3 44/2/3 43/2/3
f 46/2/3 42/2/3 44/2/3
f 46/2/3 44/2/3 45/2/3
f 49/2/3 48/2/3 47/2/3
f 50/2/3 48/2/3 49/2/3
f 51/2/3 48/2/3 50/2/3
f 52/2/3 48/2/3 51/2/3
f 53/2/4 54/2/4 56/2/4
f 55/2/4 56/2/4 57/2/4
f 56/2/4 54/2/4 58/2/4
f 57/2/4 56/2/4 58/2/4
f 59/2/4 60/2/4 61/2/4
f 61/2/4 60/2/4 62/2/4
f 62/2/4 60/2/4 63/2/4
f 63/2/4 60/2/4 64/2/4
f 65/3/4 66/3/4 67/3/4
f 67/3/4 66/3/4 68/3/4
f 71/3/5 70/3/5 69/3/5
f 72/3/5 70/3/5 71/3/5
f 77/2/5 74/2/5 73/2/5
f 78/2/5 74/2/5 77/2/5
f 79/2/5 76/2/5 75/2/5
f 80/2/5 76/2/5 79/2/5
f 85/2/5 82/2/5 81/2/5
f 86/2/5 82/2/5 85/2/5
f 87/2/5 84/2/5 83/2/5
f 88/2/5 84/2/5 87/2/5
f 89/2/6 90/2/6 93/2/6
f 93/2/6 90/2/6 94/2/6
f 91/2/6 92/2/6 95/2/6
f 95/2/6 92/2/6 96/2/6
f 97/3/6 98/3/6 99/3/6
f 99/3/6 98/3/6 100/3/6
